<svg id="Layer_1" data-name="Layer 1" xmlns="http://www.w3.org/2000/svg" viewBox="0 0 288 95.04"><defs><style>.cls-1{fill:#231f20;}.cls-2{fill:#fff;}.cls-3{fill:#939598;}.cls-4{fill:#bcbec0;stroke:#231f20;stroke-miterlimit:10;stroke-width:0.5px;}</style></defs><rect class="cls-1" x="-20.83" y="30.47" width="80.22" height="34.1" rx="4.84" transform="translate(-28.24 66.8) rotate(-90)"/><path class="cls-2" d="M14.85,72.76,16,70.56a10.18,10.18,0,0,1,2.56,1.16,5.14,5.14,0,0,1,1.55,1.53,3.87,3.87,0,0,1,.51,2,3.56,3.56,0,0,1-.66,2.24,4.09,4.09,0,0,1-2.27,1.21,10.67,10.67,0,0,1-4.13,0,10.9,10.9,0,0,1-5.14-2,4.38,4.38,0,0,1-1.77-3.58,2.87,2.87,0,0,1,1-2.44,5.75,5.75,0,0,1,3.18-.91l.8,2.53a3.89,3.89,0,0,0-.9.12,1.72,1.72,0,0,0-.75.44,1,1,0,0,0-.26.7,1.89,1.89,0,0,0,1.13,1.59,7.65,7.65,0,0,0,2.66.8,6.94,6.94,0,0,0,3.08,0,1.11,1.11,0,0,0,.84-1.11,1.52,1.52,0,0,0-.66-1.29A6.62,6.62,0,0,0,14.85,72.76Z"/><path class="cls-2" d="M18.22,64.18l0,3.09,2.23.78,0,2.77L6.92,65.37l0-3,13.54-1.15,0,2.85Zm-2.92.1-4.87.2,4.85,1.73Z"/><path class="cls-2" d="M7,52.93l0-2.71,8.05,1.28a11.53,11.53,0,0,1,2.26.6,6.78,6.78,0,0,1,1.85,1.06,4.17,4.17,0,0,1,1.11,1.27,4.06,4.06,0,0,1,.44,2,6.92,6.92,0,0,1-.15,1.38A2.33,2.33,0,0,1,20,59a3,3,0,0,1-1.17.75,4.74,4.74,0,0,1-1.56.33A11.75,11.75,0,0,1,15,59.93L7,58.65l0-2.71,8.24,1.31A3,3,0,0,0,17,57.13a1.07,1.07,0,0,0,.63-1,1.49,1.49,0,0,0-.61-1.2,3.59,3.59,0,0,0-1.73-.68Z"/><path class="cls-2" d="M7.05,49l.07-8.26,3.34.53,0,2.77L20.61,45.7l0,2.72L10.41,46.8l0,2.77Z"/><path class="cls-2" d="M7.13,39.44l0-2.72,13.51,2.15,0,2.72Z"/><path class="cls-2" d="M13.93,36.19a10.81,10.81,0,0,1-5.14-2A4.51,4.51,0,0,1,7,30.53a3.2,3.2,0,0,1,1.84-3.09,8.54,8.54,0,0,1,5.08-.38,13.6,13.6,0,0,1,3.88,1.13,6.52,6.52,0,0,1,2.35,1.88,4.08,4.08,0,0,1,.82,2.58A3.48,3.48,0,0,1,20.19,35a4.12,4.12,0,0,1-2.31,1.22A10.88,10.88,0,0,1,13.93,36.19Zm0-2.72a6,6,0,0,0,2.94,0,1.24,1.24,0,0,0,.91-1.2,1.82,1.82,0,0,0-.87-1.5,7.94,7.94,0,0,0-3.13-1,5.65,5.65,0,0,0-2.8.06A1.27,1.27,0,0,0,10.13,31,1.78,1.78,0,0,0,11,32.5,7.09,7.09,0,0,0,14,33.47Z"/><path class="cls-2" d="M7.25,24.52l0-2.54,7.5-2.12L7.3,18.67l0-2.57,13.51,2.15,0,2.57-7.45,2.11,7.42,1.18,0,2.55Z"/><path class="cls-2" d="M23,82.93v-2l4.84-1.73L23,78.28v-2l8.74,1.63v2l-4.8,1.72,4.8.9v2Z"/><path class="cls-2" d="M27.38,75.9a6.33,6.33,0,0,1-3.33-1.57,3.88,3.88,0,0,1-1.18-2.88A2.67,2.67,0,0,1,24,69a4.64,4.64,0,0,1,3.29-.33,7.45,7.45,0,0,1,2.51.88A4.56,4.56,0,0,1,31.36,71a3.76,3.76,0,0,1,.54,2,3.3,3.3,0,0,1-.47,1.87,2.61,2.61,0,0,1-1.49,1A5.6,5.6,0,0,1,27.38,75.9Zm0-2.16a3.2,3.2,0,0,0,1.9,0,1,1,0,0,0,.58-1,1.49,1.49,0,0,0-.56-1.18,4.56,4.56,0,0,0-2-.76,3.05,3.05,0,0,0-1.81.06,1,1,0,0,0-.57,1A1.48,1.48,0,0,0,25.49,73,4,4,0,0,0,27.4,73.74Z"/><path class="cls-2" d="M23,66.67v-2l4.84-1.73L23,62V60l8.74,1.63v2L27,65.37l4.8.9v2Z"/><path class="cls-2" d="M27.65,59.91V57.09l1.88.35v2.82Z"/><path class="cls-2" d="M28.89,56.77l-.15-2.08a2,2,0,0,0,1-.1.85.85,0,0,0,.53-.85,1.12,1.12,0,0,0-.9-1.13.78.78,0,0,0-.6.12,2,2,0,0,0-.51,1,3.42,3.42,0,0,1-1.07,1.83,2.1,2.1,0,0,1-1.69.3,3.32,3.32,0,0,1-1.27-.55,2.94,2.94,0,0,1-.94-1.12,4,4,0,0,1-.34-1.78,2.52,2.52,0,0,1,.63-1.92,2.49,2.49,0,0,1,2-.47l.15,2.06a1.28,1.28,0,0,0-.86.18.8.8,0,0,0-.27.67.84.84,0,0,0,.2.6.81.81,0,0,0,.48.29.51.51,0,0,0,.38-.09,1.31,1.31,0,0,0,.32-.67,6.62,6.62,0,0,1,.78-1.88,1.78,1.78,0,0,1,1-.71,2.77,2.77,0,0,1,1.29,0,4,4,0,0,1,1.55.66,3.46,3.46,0,0,1,1.08,1.24,4,4,0,0,1,.36,1.75c0,1.19-.29,2-.86,2.31A3.39,3.39,0,0,1,28.89,56.77Z"/><path class="cls-2" d="M23.06,48.75V42.19l2.16.4v2.2L31.81,46v2.15L25.22,47v2.2Z"/><path class="cls-2" d="M23.07,41.21V35.43l1.87.35V39.4l1.39.26V36.3l1.78.33V40l1.73.32V36.58l2,.37v5.89Z"/><path class="cls-2" d="M31.82,35.76l-8.73-1.63V30.54a3.92,3.92,0,0,1,.22-1.49,1.32,1.32,0,0,1,.8-.71,2.72,2.72,0,0,1,1.41-.06,3.38,3.38,0,0,1,1.26.48,3,3,0,0,1,.85.84,2.8,2.8,0,0,1,.35.83,1.45,1.45,0,0,1,.32-.51,2.19,2.19,0,0,1,.46-.26,3.92,3.92,0,0,1,.54-.2l2.54-.57v2.44L29.16,32a1.65,1.65,0,0,0-.67.26.64.64,0,0,0-.21.49v.19l3.55.66Zm-5.19-3.14v-.91a3.06,3.06,0,0,0-.12-.59.69.69,0,0,0-.27-.4,1.08,1.08,0,0,0-.51-.23.84.84,0,0,0-.65.09c-.15.12-.22.37-.22.77v.94Z"/><path class="cls-2" d="M23.1,26.49V24.32L31.84,26v2.16Z"/><path class="cls-2" d="M23.11,22.77V20.61l6.59,1.23V18.47l2.16.4V24.4Z"/><path class="cls-2" d="M23.12,16.27V10.48l1.87.35v3.62l1.39.26V11.35l1.79.33V15l1.72.32V11.64l2,.37V17.9Z"/><path class="cls-3" d="M56.86,76.66c0,.08,0,.23-.12.23H54.36a.14.14,0,0,1-.12-.12c0-.08,0-.24.09-.24h2.44A.1.1,0,0,1,56.86,76.66Z"/><path class="cls-3" d="M56.78,77.58c0,.08,0,.2-.11.2H54.43a.11.11,0,0,1-.1-.1c0-.08,0-.21.08-.21h2.28A.09.09,0,0,1,56.78,77.58Z"/><path class="cls-3" d="M56.71,78.37c0,.07,0,.18-.11.18H54.5c-.1,0-.11-.11-.11-.18a.08.08,0,0,1,.08-.1h2.15A.09.09,0,0,1,56.71,78.37Z"/><path class="cls-3" d="M56.86,75.47c0-.08,0-.23-.12-.23H54.36a.13.13,0,0,0-.12.12c0,.08,0,.24.09.23h2.44A.09.09,0,0,0,56.86,75.47Z"/><path class="cls-3" d="M56.78,74.55c0-.08,0-.2-.11-.2H54.43a.11.11,0,0,0-.1.1c0,.08,0,.21.08.21h2.28A.09.09,0,0,0,56.78,74.55Z"/><path class="cls-3" d="M56.71,73.76c0-.07,0-.18-.11-.18H54.5c-.1,0-.11.11-.11.18a.08.08,0,0,0,.08.1h2.15A.09.09,0,0,0,56.71,73.76Z"/><path class="cls-3" d="M53.3,71.85c1,1,2.31.9,3.37,1.23l-.45-1q-.44-.2-.84-.33c0-.09,0-.25-.09-.33a3.22,3.22,0,0,0-2.21-1v0C51.76,70.6,52.74,71.44,53.3,71.85Z"/><path class="cls-3" d="M56.91,73.17a2.35,2.35,0,0,1,1.38,1.39,3.5,3.5,0,0,1-.5,3.82A2,2,0,0,1,57,79l-.46.94a4.26,4.26,0,0,0,2.71-3.75,4.39,4.39,0,0,0-2.77-4Zm2,3.54Z"/><path class="cls-1" d="M40.06,75.86A11.66,11.66,0,1,0,51.72,64.2,11.66,11.66,0,0,0,40.06,75.86Zm2.41,0A9.27,9.27,0,0,1,43.86,71L56.62,83.72a9.26,9.26,0,0,1-14.15-7.86Zm18.51,0a9.2,9.2,0,0,1-2.61,6.44L45.29,69.21A9.26,9.26,0,0,1,61,75.86Z"/><path class="cls-3" d="M45.83,76c0,2.94,1.77,5.75,5,5.27l1.28-.16c.12,0,.22,0,.27-.17a4.5,4.5,0,0,1,.28-.37,8.28,8.28,0,0,1-2.46-.86,2.17,2.17,0,0,1-.88-3s0,0,0,0l-3-3.05A7.2,7.2,0,0,0,45.83,76Z"/><path class="cls-3" d="M52.69,71.59a4.07,4.07,0,0,1-.28-.38.3.3,0,0,0-.27-.18l-1.64-.18a3.79,3.79,0,0,0-2.66.7l1.6,1.6A5.34,5.34,0,0,1,52.69,71.59Z"/><path class="cls-3" d="M54.16,72.85c.09-.1.09-.1,0-.17a6.09,6.09,0,0,1-1.24-.91,4.51,4.51,0,0,0-3.33,1.5l3.19,3.2A4.33,4.33,0,0,1,54.16,72.85Z"/><path class="cls-3" d="M49.22,77.87c.1,1.74,2.12,2.3,3.56,2.54,0,0,.12,0,.2-.11l-3.51-3.51A4.13,4.13,0,0,0,49.22,77.87Z"/><path class="cls-3" d="M56.71,79.07a9.05,9.05,0,0,1-1.13.22l.71.71Z"/><path class="cls-3" d="M54.13,81.45l-1-1C51.87,81.37,52.45,82,54.13,81.45Z"/><rect class="cls-1" x="24.18" y="23.25" width="55.08" height="23.41" rx="4.84" transform="translate(16.77 86.67) rotate(-90)"/><path class="cls-2" d="M44.84,57.29V55.2l7.56-1.31-7.54-1.42V50.35L58.5,52.93V55L51,56.35l7.47,1.41v2.11Z"/><path class="cls-2" d="M51.71,50.44a12.91,12.91,0,0,1-5.19-2,3.79,3.79,0,0,1-1.84-3.1,2.44,2.44,0,0,1,1.84-2.45,10.33,10.33,0,0,1,5.12,0,16.55,16.55,0,0,1,3.92,1.17,7.21,7.21,0,0,1,2.37,1.69,3.16,3.16,0,0,1,.83,2.17,2.45,2.45,0,0,1-.74,1.9,4.24,4.24,0,0,1-2.33.86A13.32,13.32,0,0,1,51.71,50.44Zm0-2.24a7.51,7.51,0,0,0,3,.15c.6-.16.9-.47.9-.94a1.54,1.54,0,0,0-.87-1.29,10,10,0,0,0-3.17-1A6.94,6.94,0,0,0,48.76,45c-.59.16-.89.48-.89,1s.29.88.89,1.26A8.68,8.68,0,0,0,51.74,48.2Z"/><path class="cls-2" d="M44.94,41.19l0-6.81,3.36.64V37.3l10.25,1.94v2.24L48.31,39.54v2.29Z"/><path class="cls-2" d="M52.17,35.93V33l2.93.56,0,2.93Z"/><path class="cls-2" d="M45,30.69,45,27a1.59,1.59,0,0,1,1.1-1.62,6.2,6.2,0,0,1,3.1,0,7.8,7.8,0,0,1,3.22,1.27,2.68,2.68,0,0,1,1.14,2.24v1.23l5.05,1v2.26Zm5.82-1.16V29a1.18,1.18,0,0,0-.42-1,2.43,2.43,0,0,0-1.08-.46,2.15,2.15,0,0,0-1.08,0c-.3.09-.45.35-.46.77V29Z"/><path class="cls-2" d="M45,23.37l0-3.73A1.59,1.59,0,0,1,46.16,18a6.2,6.2,0,0,1,3.1,0,7.74,7.74,0,0,1,3.22,1.27,2.71,2.71,0,0,1,1.15,2.24v1.23l5.05,1V26Zm5.82-1.16v-.54a1.18,1.18,0,0,0-.41-1,2.43,2.43,0,0,0-1.08-.46,2.19,2.19,0,0,0-1.09,0c-.3.1-.45.35-.45.77v.64Z"/><path class="cls-2" d="M45.09,16l0-6,2.91.55,0,3.76,2.16.41,0-3.49,2.78.52,0,3.49,2.68.51,0-3.87,3.08.58,0,6.12Z"/><path class="cls-4" d="M67.11,10V85a2.45,2.45,0,0,0,2.26,2.6h41.74a2.45,2.45,0,0,0,2.25-2.6V10a2.45,2.45,0,0,0-2.25-2.6H69.37A2.45,2.45,0,0,0,67.11,10Z"/><rect class="cls-2" x="70.15" y="11.13" width="13.15" height="73.43"/><polygon class="cls-1" points="77.89 68.29 77.89 66.06 74.62 67.18 77.89 68.29"/><path class="cls-1" d="M74.23,28.76a2,2,0,0,0,.61,1.52,2.78,2.78,0,0,0,2,.58,2.86,2.86,0,0,0,2-.57,2.34,2.34,0,0,0,0-3.12,3.1,3.1,0,0,0-2.12-.55,2.57,2.57,0,0,0-1.87.58A2,2,0,0,0,74.23,28.76Z"/><path class="cls-1" d="M68.85,11.64V83.47a2,2,0,0,0,1.87,2.16H82.9a2,2,0,0,0,1.87-2.16V11.64A2,2,0,0,0,82.9,9.49H70.72A2,2,0,0,0,68.85,11.64ZM80.11,74a3.74,3.74,0,0,1,1,1.47,6.23,6.23,0,0,1,.35,2.24,7.06,7.06,0,0,1-.43,2.7,4.13,4.13,0,0,1-1.52,1.81,4.69,4.69,0,0,1-2.77.76,4.41,4.41,0,0,1-3.47-1.34,5.42,5.42,0,0,1-1.21-3.78,5.61,5.61,0,0,1,.69-3,4.16,4.16,0,0,1,2.13-1.63L75.49,76a2,2,0,0,0-.61.3,1.83,1.83,0,0,0-.5.64,2.15,2.15,0,0,0-.17.85A1.9,1.9,0,0,0,75,79.46a3,3,0,0,0,1.79.42,3.12,3.12,0,0,0,2.07-.51A2.19,2.19,0,0,0,79,76.58a2.66,2.66,0,0,0-1.32-.67l.75-2.74A4.22,4.22,0,0,1,80.11,74Zm1.25-9.13-1.51.5V69l1.51.49v3.2l-9.1-3.81V65.44l9.1-3.81ZM77.68,51.4a4.06,4.06,0,0,1,1.52.28,3.21,3.21,0,0,1,1.25.88,3.6,3.6,0,0,1,.76,1.25,7.07,7.07,0,0,1,.3,2.19,16,16,0,0,1-.09,1.62,4.64,4.64,0,0,1-.37,1.46,3.66,3.66,0,0,1-.79,1.07,2.68,2.68,0,0,1-1,.67,5,5,0,0,1-1.54.29H72.26V58h5.55A1.52,1.52,0,0,0,79,57.53a1.83,1.83,0,0,0,.42-1.28A1.86,1.86,0,0,0,79,55a1.53,1.53,0,0,0-1.17-.46H72.26V51.4ZM74.51,40.52v3.19h6.85v3.13H74.51V50H72.26V40.52Zm6.85-4.68V39h-9.1V35.84Zm-2-11.75a4,4,0,0,1,1.59,1.72,6.27,6.27,0,0,1,.57,2.82A7.09,7.09,0,0,1,81,31.47a4.13,4.13,0,0,1-1.55,1.82,4.78,4.78,0,0,1-2.66.7,4.4,4.4,0,0,1-3.46-1.38,5.57,5.57,0,0,1-1.24-3.85,5.68,5.68,0,0,1,1.21-3.9,4.34,4.34,0,0,1,3.42-1.37A5.09,5.09,0,0,1,79.35,24.09Zm2-12V15l-5,3.8h5v2.94h-9.1V18.86l5-3.82h-5V12.09Z"/><path class="cls-1" d="M88,80.4V78.18h4.87a4.66,4.66,0,0,1,1.36.2,3,3,0,0,1,1.13.62,2.58,2.58,0,0,1,.68.89,4.07,4.07,0,0,1,.27,1.56,9.83,9.83,0,0,1-.08,1.15,2.73,2.73,0,0,1-2,2.27,5.39,5.39,0,0,1-1.38.21H88V82.86h5a1.54,1.54,0,0,0,1-.33,1.13,1.13,0,0,0,.37-.9,1.11,1.11,0,0,0-.37-.9,1.5,1.5,0,0,0-1-.33Z"/><path class="cls-1" d="M93.46,77.1,93.31,75a2,2,0,0,0,.89-.28,1.11,1.11,0,0,0,.49-1,1,1,0,0,0-.25-.73.78.78,0,0,0-.59-.26.81.81,0,0,0-.57.24,2.86,2.86,0,0,0-.47,1.14,4.62,4.62,0,0,1-1,2.09,2.13,2.13,0,0,1-1.58.63,2.3,2.3,0,0,1-1.19-.33,2.17,2.17,0,0,1-.88-1,3.94,3.94,0,0,1-.32-1.77,3.26,3.26,0,0,1,.58-2.1,2.64,2.64,0,0,1,1.85-.87l.14,2.1a1.39,1.39,0,0,0-.8.35,1,1,0,0,0-.25.74.78.78,0,0,0,.19.58.59.59,0,0,0,.45.2.46.46,0,0,0,.35-.16,1.7,1.7,0,0,0,.3-.75,8.85,8.85,0,0,1,.72-2.09,2.34,2.34,0,0,1,.91-.91,2.43,2.43,0,0,1,1.21-.29A2.91,2.91,0,0,1,95,71,2.54,2.54,0,0,1,96,72a4,4,0,0,1,.34,1.73,3.31,3.31,0,0,1-.8,2.55A3.46,3.46,0,0,1,93.46,77.1Z"/><path class="cls-1" d="M88,69.45v-6h1.74v3.73H91V63.77H92.7v3.46h1.61V63.39h1.85v6.06Z"/><path class="cls-1" d="M94.81,54.42v2.52l1.35.35v2.27L88,56.86V54.43l8.17-2.7v2.33ZM93,54.88l-2.93.79,2.93.79Z"/><path class="cls-1" d="M88,52.22V45.46h2v2.27h6.15V50H90v2.27Z"/><path class="cls-1" d="M88,41.83V39.36l2.75-1.45L88,36.46V34l4.75,2.8h3.42V39H92.74Z"/><path class="cls-1" d="M92.08,34.17a4.59,4.59,0,0,1-3.12-1,3.48,3.48,0,0,1-1.11-2.74,3.51,3.51,0,0,1,1.09-2.77,4.52,4.52,0,0,1,3.07-1,5.48,5.48,0,0,1,2.35.43,3.29,3.29,0,0,1,1.43,1.22,3.69,3.69,0,0,1,.51,2,4.17,4.17,0,0,1-.44,2,3.21,3.21,0,0,1-1.4,1.29A5.12,5.12,0,0,1,92.08,34.17Zm0-2.23a3,3,0,0,0,1.78-.4,1.41,1.41,0,0,0,0-2.21,3.36,3.36,0,0,0-1.9-.39,2.75,2.75,0,0,0-1.69.41,1.33,1.33,0,0,0-.53,1.11,1.28,1.28,0,0,0,.54,1.08A3.05,3.05,0,0,0,92.09,31.94Z"/><path class="cls-1" d="M88,20.83V18.61h4.87a4.66,4.66,0,0,1,1.36.2,3.06,3.06,0,0,1,1.13.63,2.49,2.49,0,0,1,.68.89,4,4,0,0,1,.27,1.55A9.68,9.68,0,0,1,96.22,23a2.77,2.77,0,0,1-.34,1,2.62,2.62,0,0,1-.7.76,2.68,2.68,0,0,1-.94.47,5.39,5.39,0,0,1-1.38.21H88V23.29h5A1.59,1.59,0,0,0,94,23a1.29,1.29,0,0,0,0-1.81,1.5,1.5,0,0,0-1-.33Z"/><path class="cls-1" d="M96.16,17.11H88v-3.7a4.62,4.62,0,0,1,.2-1.58,1.74,1.74,0,0,1,.74-.88,2.85,2.85,0,0,1,2.5-.08,2.2,2.2,0,0,1,.8.71,2.38,2.38,0,0,1,.32.78,2,2,0,0,1,.3-.58,2.86,2.86,0,0,1,.43-.36,3.44,3.44,0,0,1,.51-.31L96.16,10v2.51l-2.5,1.19a1.94,1.94,0,0,0-.63.4.89.89,0,0,0-.19.54v.2h3.32ZM91.3,14.88v-.94a3.32,3.32,0,0,0-.11-.59.65.65,0,0,0-.26-.36.84.84,0,0,0-.47-.14.82.82,0,0,0-.61.22,1.24,1.24,0,0,0-.21.83v1Z"/><path class="cls-1" d="M105.78,76.15a4.61,4.61,0,0,1-3.12-1,3.46,3.46,0,0,1-1.11-2.73,3.51,3.51,0,0,1,1.09-2.77,4.47,4.47,0,0,1,3.07-1,5.65,5.65,0,0,1,2.35.42,3.25,3.25,0,0,1,1.43,1.23,3.64,3.64,0,0,1,.51,2,4.15,4.15,0,0,1-.44,2,3.26,3.26,0,0,1-1.39,1.3A5.19,5.19,0,0,1,105.78,76.15Zm0-2.22a3,3,0,0,0,1.78-.41,1.41,1.41,0,0,0,0-2.21,3.36,3.36,0,0,0-1.9-.39,2.82,2.82,0,0,0-1.69.41,1.33,1.33,0,0,0-.53,1.11,1.28,1.28,0,0,0,.54,1.08A3,3,0,0,0,105.79,73.93Z"/><path class="cls-1" d="M101.69,68.41V66.3l4.57-.76-4.57-1.11V62.32l4.57-1.11-4.57-.76v-2.1l8.17,1.58v2.18l-5.15,1.26,5.15,1.26v2.18Z"/><path class="cls-1" d="M101.69,57.6V55.53l4.52-2.71h-4.52v-2.1h8.17v2.1l-4.49,2.69h4.49V57.6Z"/><path class="cls-1" d="M109.86,45.87h-8.17V42.16a4.66,4.66,0,0,1,.2-1.58,1.68,1.68,0,0,1,.74-.87,2.44,2.44,0,0,1,1.33-.34,2.52,2.52,0,0,1,1.17.26,2.09,2.09,0,0,1,.8.7,2.38,2.38,0,0,1,.32.78,2.18,2.18,0,0,1,.3-.58,2.42,2.42,0,0,1,.43-.35,3.72,3.72,0,0,1,.51-.32l2.37-1.07V41.3l-2.5,1.19a1.94,1.94,0,0,0-.63.4.89.89,0,0,0-.19.55v.19h3.32ZM105,43.63v-.94a3.26,3.26,0,0,0-.11-.58.59.59,0,0,0-.26-.36.77.77,0,0,0-.47-.14.79.79,0,0,0-.61.22,1.2,1.2,0,0,0-.21.83v1Z"/><path class="cls-1" d="M101.69,38V35.76h8.17V38Z"/><path class="cls-1" d="M107.16,34.55,107,32.44a2.07,2.07,0,0,0,.89-.28,1.12,1.12,0,0,0,.49-1,1,1,0,0,0-.25-.74.8.8,0,0,0-.59-.26.82.82,0,0,0-.57.25,2.73,2.73,0,0,0-.47,1.14,4.57,4.57,0,0,1-1,2.08,2.13,2.13,0,0,1-1.58.63,2.29,2.29,0,0,1-1.19-.32,2.19,2.19,0,0,1-.88-1,4.07,4.07,0,0,1-.32-1.76,3.3,3.3,0,0,1,.58-2.11,2.64,2.64,0,0,1,1.85-.86l.14,2.1a1.32,1.32,0,0,0-.8.35,1,1,0,0,0-.25.74.8.8,0,0,0,.19.58.59.59,0,0,0,.45.2.47.47,0,0,0,.35-.17,1.59,1.59,0,0,0,.3-.74,8.34,8.34,0,0,1,.73-2.09,2.28,2.28,0,0,1,.9-.92A2.57,2.57,0,0,1,107.2,28a2.78,2.78,0,0,1,1.45.38,2.49,2.49,0,0,1,1,1.07,3.84,3.84,0,0,1,.34,1.73,3.3,3.3,0,0,1-.8,2.54A3.39,3.39,0,0,1,107.16,34.55Z"/><path class="cls-1" d="M101.69,26.9V24.67h3.09l-3.09-2.33V19.39L104.77,22l5.09-2.74V22l-3.36,1.51,1.37,1.15h2V26.9Z"/><path class="cls-1" d="M120.45,13.43h-1.56v5.23h-1.24V13.43h-1.56V12.26h4.36Z"/><path class="cls-1" d="M124.83,18.66h-1.21v-2.6c0-.67-.21-1-.62-1a.59.59,0,0,0-.52.28,1.17,1.17,0,0,0-.2.71v2.61h-1.21V11.89h1.21v2.88h0A1.35,1.35,0,0,1,123.5,14c.88,0,1.33.62,1.33,1.87Z"/><path class="cls-1" d="M126.39,13.37a.63.63,0,0,1-.5-.22.73.73,0,0,1-.19-.52.69.69,0,0,1,.19-.51.65.65,0,0,1,.5-.2.66.66,0,0,1,.51.2.69.69,0,0,1,.19.51.73.73,0,0,1-.19.53A.66.66,0,0,1,126.39,13.37Zm.6,5.29h-1.21V14.09H127Z"/><path class="cls-1" d="M127.75,18.54V17.4a2.45,2.45,0,0,0,.6.31,1.62,1.62,0,0,0,.56.1,1,1,0,0,0,.5-.1.33.33,0,0,0,.19-.31.32.32,0,0,0-.09-.23.57.57,0,0,0-.21-.15,1.48,1.48,0,0,0-.29-.12l-.3-.12a3.81,3.81,0,0,1-.41-.22,1.15,1.15,0,0,1-.3-.28,1,1,0,0,1-.18-.36,1.45,1.45,0,0,1-.07-.49,1.4,1.4,0,0,1,.15-.66,1.27,1.27,0,0,1,.38-.45,1.64,1.64,0,0,1,.55-.26,2.59,2.59,0,0,1,.63-.08,3.15,3.15,0,0,1,.53,0,4.58,4.58,0,0,1,.53.14v1.09A1.83,1.83,0,0,0,130,15a1.61,1.61,0,0,0-.52-.08l-.22,0a.75.75,0,0,0-.18.07.38.38,0,0,0-.13.12.34.34,0,0,0,0,.17.38.38,0,0,0,.07.22.65.65,0,0,0,.18.15l.25.12.27.1a3.45,3.45,0,0,1,.43.22,1.13,1.13,0,0,1,.34.27,1.07,1.07,0,0,1,.21.36,1.66,1.66,0,0,1-.07,1.2,1.41,1.41,0,0,1-.4.47,1.8,1.8,0,0,1-.58.26,3.08,3.08,0,0,1-.68.08A3.17,3.17,0,0,1,127.75,18.54Z"/><path class="cls-1" d="M137.45,18.66h-1.21V18h0a1.3,1.3,0,0,1-1.21.74,1.4,1.4,0,0,1-1.18-.6,2.8,2.8,0,0,1-.45-1.69,3,3,0,0,1,.49-1.82,1.54,1.54,0,0,1,1.3-.68,1.07,1.07,0,0,1,1.05.63h0V11.89h1.21Zm-1.19-2.22v-.35a1.2,1.2,0,0,0-.22-.74.71.71,0,0,0-.58-.29.7.7,0,0,0-.63.37,1.92,1.92,0,0,0-.22,1,1.64,1.64,0,0,0,.22.93.68.68,0,0,0,.6.32.71.71,0,0,0,.6-.34A1.63,1.63,0,0,0,136.26,16.44Z"/><path class="cls-1" d="M142,16.78h-2.56a1,1,0,0,0,1.08,1,1.9,1.9,0,0,0,1.13-.35v1a2.58,2.58,0,0,1-1.41.34,1.82,1.82,0,0,1-1.47-.61,2.55,2.55,0,0,1-.52-1.71,2.76,2.76,0,0,1,.56-1.81,1.79,1.79,0,0,1,1.4-.66,1.59,1.59,0,0,1,1.32.59,2.55,2.55,0,0,1,.47,1.61Zm-1.12-.87c0-.65-.23-1-.68-1a.6.6,0,0,0-.5.28,1.32,1.32,0,0,0-.26.7Z"/><path class="cls-1" d="M146.43,14.09,145,18.66h-1.38l-1.38-4.57h1.29l.68,2.82a5,5,0,0,1,.13.81h0a4.27,4.27,0,0,1,.14-.79l.69-2.84Z"/><path class="cls-1" d="M147.55,13.37a.63.63,0,0,1-.5-.22.73.73,0,0,1-.19-.52.69.69,0,0,1,.19-.51.65.65,0,0,1,.5-.2.66.66,0,0,1,.51.2.69.69,0,0,1,.19.51.73.73,0,0,1-.19.53A.66.66,0,0,1,147.55,13.37Zm.6,5.29h-1.21V14.09h1.21Z"/><path class="cls-1" d="M152.13,18.5a2.12,2.12,0,0,1-1.18.27,1.83,1.83,0,0,1-1.46-.64,2.4,2.4,0,0,1-.56-1.64,2.66,2.66,0,0,1,.6-1.84,2,2,0,0,1,1.6-.67,1.82,1.82,0,0,1,1,.21v1.2a1.24,1.24,0,0,0-.84-.33,1.06,1.06,0,0,0-.83.35,1.49,1.49,0,0,0-.3,1,1.47,1.47,0,0,0,.29,1,1,1,0,0,0,.8.34,1.42,1.42,0,0,0,.88-.33Z"/><path class="cls-1" d="M156.44,16.78h-2.55a1,1,0,0,0,1.07,1,2,2,0,0,0,1.14-.35v1a2.58,2.58,0,0,1-1.41.34,1.82,1.82,0,0,1-1.47-.61,2.55,2.55,0,0,1-.53-1.71,2.71,2.71,0,0,1,.57-1.81,1.77,1.77,0,0,1,1.39-.66,1.59,1.59,0,0,1,1.32.59,2.49,2.49,0,0,1,.47,1.61Zm-1.12-.87c0-.65-.22-1-.68-1a.61.61,0,0,0-.5.28,1.4,1.4,0,0,0-.26.7Z"/><path class="cls-1" d="M159.93,13.37a.63.63,0,0,1-.5-.22.73.73,0,0,1-.19-.52.69.69,0,0,1,.19-.51.65.65,0,0,1,.5-.2.66.66,0,0,1,.51.2.69.69,0,0,1,.19.51.73.73,0,0,1-.19.53A.66.66,0,0,1,159.93,13.37Zm.6,5.29h-1.21V14.09h1.21Z"/><path class="cls-1" d="M161.29,18.54V17.4a2.45,2.45,0,0,0,.6.31,1.62,1.62,0,0,0,.56.1,1,1,0,0,0,.5-.1.33.33,0,0,0,.19-.31.32.32,0,0,0-.09-.23.57.57,0,0,0-.21-.15,1.48,1.48,0,0,0-.29-.12l-.3-.12a3.81,3.81,0,0,1-.41-.22,1.15,1.15,0,0,1-.3-.28,1.23,1.23,0,0,1-.19-.36,1.77,1.77,0,0,1-.06-.49,1.53,1.53,0,0,1,.14-.66,1.41,1.41,0,0,1,.39-.45,1.69,1.69,0,0,1,.54-.26A2.74,2.74,0,0,1,163,14a3.15,3.15,0,0,1,.53,0,4.58,4.58,0,0,1,.53.14v1.09a1.83,1.83,0,0,0-.49-.23,1.61,1.61,0,0,0-.52-.08l-.22,0-.19.07a.46.46,0,0,0-.12.12.34.34,0,0,0-.05.17.38.38,0,0,0,.07.22.65.65,0,0,0,.18.15l.25.12.27.1a3.45,3.45,0,0,1,.43.22,1.13,1.13,0,0,1,.34.27,1.07,1.07,0,0,1,.21.36,1.66,1.66,0,0,1-.07,1.2,1.44,1.44,0,0,1-.41.47,1.75,1.75,0,0,1-.57.26,3.08,3.08,0,0,1-.68.08A3.17,3.17,0,0,1,161.29,18.54Z"/><path class="cls-1" d="M173.37,18.66h-1.21V16.05c0-.66-.2-1-.62-1a.57.57,0,0,0-.49.3,1.43,1.43,0,0,0-.19.74v2.56h-1.2V16c0-.65-.21-1-.62-1a.55.55,0,0,0-.49.28,1.36,1.36,0,0,0-.19.78v2.54h-1.21V14.09h1.21v.71h0a1.56,1.56,0,0,1,.52-.59,1.25,1.25,0,0,1,.74-.23,1.14,1.14,0,0,1,1.14.85,1.41,1.41,0,0,1,1.31-.85c.85,0,1.28.61,1.28,1.84Z"/><path class="cls-1" d="M177.84,16.78h-2.55a1,1,0,0,0,1.07,1,2,2,0,0,0,1.14-.35v1a2.58,2.58,0,0,1-1.41.34,1.81,1.81,0,0,1-1.47-.61,2.55,2.55,0,0,1-.53-1.71,2.71,2.71,0,0,1,.57-1.81,1.77,1.77,0,0,1,1.39-.66,1.59,1.59,0,0,1,1.32.59,2.49,2.49,0,0,1,.47,1.61Zm-1.12-.87c0-.65-.22-1-.68-1a.61.61,0,0,0-.5.28,1.4,1.4,0,0,0-.26.7Z"/><path class="cls-1" d="M181.82,18.66h-1.14V18h0a1.24,1.24,0,0,1-1.17.77,1.11,1.11,0,0,1-.89-.37,1.5,1.5,0,0,1-.33-1,1.41,1.41,0,0,1,1.35-1.54l1.06-.16q0-.75-.69-.75a2.15,2.15,0,0,0-1.33.48V14.36a2.75,2.75,0,0,1,.69-.27,3.4,3.4,0,0,1,.79-.11q1.68,0,1.68,1.95Zm-1.14-1.86v-.3l-.71.1a.6.6,0,0,0-.59.62.55.55,0,0,0,.15.4.5.5,0,0,0,.39.15.67.67,0,0,0,.55-.27A1.14,1.14,0,0,0,180.68,16.8Z"/><path class="cls-1" d="M186.56,18.66h-1.21V16.12c0-.71-.22-1.06-.65-1.06a.62.62,0,0,0-.52.28,1.24,1.24,0,0,0-.2.71v2.61h-1.21V14.09H184v.72h0a1.37,1.37,0,0,1,1.26-.83c.86,0,1.3.63,1.3,1.88Z"/><path class="cls-1" d="M189.88,18.61a1.59,1.59,0,0,1-.81.16c-.85,0-1.28-.51-1.28-1.55V15.13h-.63v-1h.63v-1l1.21-.4v1.39h.88v1H189V17c0,.47.16.71.48.71a.73.73,0,0,0,.4-.13Z"/><path class="cls-1" d="M195.09,18.61a1.59,1.59,0,0,1-.81.16c-.85,0-1.28-.51-1.28-1.55V15.13h-.63v-1H193v-1l1.21-.4v1.39h.88v1h-.88V17c0,.47.16.71.48.71a.73.73,0,0,0,.4-.13Z"/><path class="cls-1" d="M197.6,18.77a1.94,1.94,0,0,1-1.54-.64,2.56,2.56,0,0,1-.56-1.74,2.58,2.58,0,0,1,.58-1.77,2,2,0,0,1,1.58-.64,1.87,1.87,0,0,1,1.52.64,2.5,2.5,0,0,1,.56,1.69,2.66,2.66,0,0,1-.57,1.8A2,2,0,0,1,197.6,18.77Zm0-3.71a.76.76,0,0,0-.66.34,1.71,1.71,0,0,0-.24,1c0,.87.3,1.31.91,1.31s.87-.45.87-1.35S198.22,15.06,197.63,15.06Z"/><path class="cls-1" d="M203.91,18.13h0v.53h-1.21V11.89h1.21v2.89h0a1.37,1.37,0,0,1,1.27-.8,1.32,1.32,0,0,1,1.16.6,2.91,2.91,0,0,1,.41,1.67,3.22,3.22,0,0,1-.47,1.83,1.49,1.49,0,0,1-1.28.69A1.17,1.17,0,0,1,203.91,18.13Zm0-1.93v.47a1.15,1.15,0,0,0,.22.73.65.65,0,0,0,.56.29.71.71,0,0,0,.64-.37,2.06,2.06,0,0,0,.23-1.06,1.59,1.59,0,0,0-.21-.88.66.66,0,0,0-.6-.32.71.71,0,0,0-.6.32A1.31,1.31,0,0,0,203.87,16.2Z"/><path class="cls-1" d="M211.06,16.78H208.5a1,1,0,0,0,1.08,1,1.9,1.9,0,0,0,1.13-.35v1a2.58,2.58,0,0,1-1.41.34,1.82,1.82,0,0,1-1.47-.61,2.55,2.55,0,0,1-.52-1.71,2.7,2.7,0,0,1,.56-1.81,1.77,1.77,0,0,1,1.39-.66,1.61,1.61,0,0,1,1.33.59,2.55,2.55,0,0,1,.47,1.61Zm-1.12-.87c0-.65-.23-1-.68-1a.61.61,0,0,0-.51.28,1.51,1.51,0,0,0-.26.7Z"/><path class="cls-1" d="M217.66,18.66h-1.21V18h0a1.35,1.35,0,0,1-1.19.81c-.91,0-1.37-.64-1.37-1.92V14.09h1.21v2.63c0,.65.22,1,.66,1a.64.64,0,0,0,.52-.26,1.2,1.2,0,0,0,.19-.72V14.09h1.21Z"/><path class="cls-1" d="M218.42,18.54V17.4a2.23,2.23,0,0,0,.59.31,1.66,1.66,0,0,0,.56.1,1.08,1.08,0,0,0,.51-.1.33.33,0,0,0,.18-.31.36.36,0,0,0-.08-.23A.71.71,0,0,0,220,17a1.26,1.26,0,0,0-.29-.12l-.3-.12c-.15-.07-.29-.15-.41-.22a1.15,1.15,0,0,1-.3-.28,1,1,0,0,1-.18-.36,1.77,1.77,0,0,1-.06-.49,1.39,1.39,0,0,1,.14-.66,1.27,1.27,0,0,1,.38-.45,1.64,1.64,0,0,1,.55-.26,2.67,2.67,0,0,1,.64-.08,3.23,3.23,0,0,1,.53,0,5,5,0,0,1,.52.14v1.09a1.69,1.69,0,0,0-.49-.23,1.51,1.51,0,0,0-.51-.08L220,15a.75.75,0,0,0-.18.07.5.5,0,0,0-.13.12.33.33,0,0,0,0,.17.32.32,0,0,0,.07.22.45.45,0,0,0,.18.15l.24.12.27.1a3.61,3.61,0,0,1,.44.22,1.27,1.27,0,0,1,.55.63,1.75,1.75,0,0,1-.08,1.2,1.31,1.31,0,0,1-.4.47,1.8,1.8,0,0,1-.58.26,3,3,0,0,1-.68.08A3.08,3.08,0,0,1,218.42,18.54Z"/><path class="cls-1" d="M225.63,16.78h-2.55a1,1,0,0,0,1.07,1,1.93,1.93,0,0,0,1.14-.35v1a2.58,2.58,0,0,1-1.41.34,1.82,1.82,0,0,1-1.47-.61,2.55,2.55,0,0,1-.53-1.71,2.71,2.71,0,0,1,.57-1.81,1.77,1.77,0,0,1,1.39-.66,1.63,1.63,0,0,1,1.33.59,2.55,2.55,0,0,1,.46,1.61Zm-1.12-.87c0-.65-.22-1-.68-1a.61.61,0,0,0-.5.28,1.4,1.4,0,0,0-.26.7Z"/><path class="cls-1" d="M230.18,18.66H229V18h0a1.3,1.3,0,0,1-1.21.74,1.4,1.4,0,0,1-1.18-.6,2.8,2.8,0,0,1-.45-1.69,3,3,0,0,1,.49-1.82,1.54,1.54,0,0,1,1.3-.68,1.07,1.07,0,0,1,1.05.63h0V11.89h1.2ZM229,16.44v-.35a1.27,1.27,0,0,0-.22-.74.71.71,0,0,0-.58-.29.7.7,0,0,0-.63.37,1.92,1.92,0,0,0-.22,1,1.64,1.64,0,0,0,.22.93.68.68,0,0,0,.6.32.71.71,0,0,0,.6-.34A1.63,1.63,0,0,0,229,16.44Z"/><path class="cls-1" d="M236.62,18.66h-1.14V18h0a1.24,1.24,0,0,1-1.17.77,1.11,1.11,0,0,1-.89-.37,1.5,1.5,0,0,1-.33-1,1.41,1.41,0,0,1,1.35-1.54l1.06-.16q0-.75-.69-.75a2.15,2.15,0,0,0-1.33.48V14.36a2.75,2.75,0,0,1,.69-.27,3.4,3.4,0,0,1,.79-.11q1.68,0,1.68,1.95Zm-1.14-1.86v-.3l-.71.1a.6.6,0,0,0-.59.62.55.55,0,0,0,.15.4.49.49,0,0,0,.38.15.68.68,0,0,0,.56-.27A1.14,1.14,0,0,0,235.48,16.8Z"/><path class="cls-1" d="M237.32,18.54V17.4a2.59,2.59,0,0,0,.59.31,1.7,1.7,0,0,0,.56.1,1,1,0,0,0,.51-.1.34.34,0,0,0,.19-.31.32.32,0,0,0-.09-.23.66.66,0,0,0-.21-.15,1.48,1.48,0,0,0-.29-.12l-.31-.12c-.15-.07-.29-.15-.41-.22a1.28,1.28,0,0,1-.29-.28,1,1,0,0,1-.19-.36,1.77,1.77,0,0,1-.06-.49,1.3,1.3,0,0,1,.52-1.11,1.74,1.74,0,0,1,.55-.26A2.74,2.74,0,0,1,239,14a3.15,3.15,0,0,1,.53,0,5.18,5.18,0,0,1,.53.14v1.09a2,2,0,0,0-.49-.23,1.61,1.61,0,0,0-.52-.08l-.22,0-.19.07a.46.46,0,0,0-.12.12.34.34,0,0,0-.05.17.32.32,0,0,0,.07.22.54.54,0,0,0,.18.15l.25.12.26.1a3,3,0,0,1,.44.22,1.27,1.27,0,0,1,.34.27,1.07,1.07,0,0,1,.21.36,1.75,1.75,0,0,1-.08,1.2,1.31,1.31,0,0,1-.4.47,1.8,1.8,0,0,1-.58.26,2.93,2.93,0,0,1-.67.08A3.13,3.13,0,0,1,237.32,18.54Z"/><path class="cls-1" d="M246.44,18.66h-1.15V18h0a1.24,1.24,0,0,1-1.17.77,1.1,1.1,0,0,1-.89-.37,1.5,1.5,0,0,1-.33-1,1.41,1.41,0,0,1,1.35-1.54l1.06-.16q0-.75-.69-.75a2.15,2.15,0,0,0-1.33.48V14.36a2.66,2.66,0,0,1,.68-.27,3.55,3.55,0,0,1,.8-.11q1.68,0,1.68,1.95ZM245.3,16.8v-.3l-.71.1a.63.63,0,0,0-.45,1,.53.53,0,0,0,.39.15.69.69,0,0,0,.56-.27A1.14,1.14,0,0,0,245.3,16.8Z"/><path class="cls-1" d="M250.76,18.66h-1.21V11.89h1.21Z"/><path class="cls-1" d="M255,18.66h-1.15V18h0a1.25,1.25,0,0,1-1.17.77,1.13,1.13,0,0,1-.9-.37,1.55,1.55,0,0,1-.32-1,1.41,1.41,0,0,1,1.35-1.54l1.06-.16c0-.5-.23-.75-.7-.75a2.17,2.17,0,0,0-1.33.48V14.36a2.91,2.91,0,0,1,.69-.27,3.55,3.55,0,0,1,.8-.11Q255,14,255,15.93ZM253.9,16.8v-.3l-.71.1a.63.63,0,0,0-.45,1,.53.53,0,0,0,.39.15.69.69,0,0,0,.56-.27A1.14,1.14,0,0,0,253.9,16.8Z"/><path class="cls-1" d="M255.74,18.54V17.4a2.23,2.23,0,0,0,.59.31,1.66,1.66,0,0,0,.56.1,1.08,1.08,0,0,0,.51-.1.33.33,0,0,0,.18-.31.36.36,0,0,0-.08-.23.71.71,0,0,0-.22-.15,1.26,1.26,0,0,0-.29-.12l-.3-.12c-.15-.07-.29-.15-.41-.22a1.15,1.15,0,0,1-.3-.28,1,1,0,0,1-.18-.36,1.77,1.77,0,0,1-.06-.49,1.39,1.39,0,0,1,.14-.66,1.27,1.27,0,0,1,.38-.45,1.64,1.64,0,0,1,.55-.26,2.67,2.67,0,0,1,.64-.08,3.23,3.23,0,0,1,.53,0,5,5,0,0,1,.52.14v1.09A1.69,1.69,0,0,0,258,15a1.51,1.51,0,0,0-.51-.08l-.23,0a.75.75,0,0,0-.18.07.5.5,0,0,0-.13.12.33.33,0,0,0,0,.17.32.32,0,0,0,.07.22.45.45,0,0,0,.18.15l.24.12.27.1a3.61,3.61,0,0,1,.44.22,1.27,1.27,0,0,1,.55.63,1.75,1.75,0,0,1-.08,1.2,1.31,1.31,0,0,1-.4.47,1.8,1.8,0,0,1-.58.26,3,3,0,0,1-.68.08A3.08,3.08,0,0,1,255.74,18.54Z"/><path class="cls-1" d="M261.8,18.61a1.55,1.55,0,0,1-.8.16c-.86,0-1.28-.51-1.28-1.55V15.13h-.64v-1h.64v-1l1.2-.4v1.39h.88v1h-.88V17c0,.47.16.71.49.71a.67.67,0,0,0,.39-.13Z"/><path class="cls-1" d="M119,27.36a1,1,0,0,0-.51-.14.71.71,0,0,0-.62.34,1.65,1.65,0,0,0-.22.92v2.18h-1.21V26.09h1.21v.85h0c.19-.62.53-.93,1-.93a.85.85,0,0,1,.3,0Z"/><path class="cls-1" d="M123.08,28.78h-2.55a1,1,0,0,0,1.07,1,1.93,1.93,0,0,0,1.14-.35v1a2.58,2.58,0,0,1-1.41.34,1.82,1.82,0,0,1-1.47-.61,2.55,2.55,0,0,1-.53-1.71,2.71,2.71,0,0,1,.57-1.81,1.77,1.77,0,0,1,1.39-.66,1.63,1.63,0,0,1,1.33.59,2.55,2.55,0,0,1,.46,1.61ZM122,27.91c0-.65-.22-1-.68-1a.61.61,0,0,0-.5.28,1.4,1.4,0,0,0-.26.7Z"/><path class="cls-1" d="M123.55,30.54V29.4a2.4,2.4,0,0,0,.59.31,1.7,1.7,0,0,0,.56.1,1.05,1.05,0,0,0,.51-.1.33.33,0,0,0,.18-.31.31.31,0,0,0-.08-.23.71.71,0,0,0-.22-.15,1.26,1.26,0,0,0-.29-.12l-.3-.12c-.15-.07-.29-.15-.41-.22a1.15,1.15,0,0,1-.3-.28,1,1,0,0,1-.18-.36,1.77,1.77,0,0,1-.06-.49,1.3,1.3,0,0,1,.52-1.11,1.64,1.64,0,0,1,.55-.26,2.67,2.67,0,0,1,.64-.08,3.23,3.23,0,0,1,.53,0,5,5,0,0,1,.52.14v1.09a1.69,1.69,0,0,0-.49-.23,1.51,1.51,0,0,0-.51-.08l-.23,0a.75.75,0,0,0-.18.07.5.5,0,0,0-.13.12.33.33,0,0,0,0,.17.32.32,0,0,0,.07.22.45.45,0,0,0,.18.15l.24.12.27.1a3.61,3.61,0,0,1,.44.22,1.09,1.09,0,0,1,.33.27,1,1,0,0,1,.22.36,1.75,1.75,0,0,1-.08,1.2,1.31,1.31,0,0,1-.4.47,1.8,1.8,0,0,1-.58.26,3,3,0,0,1-.68.08A3.08,3.08,0,0,1,123.55,30.54Z"/><path class="cls-1" d="M129.11,30.77a1.94,1.94,0,0,1-1.54-.64,3,3,0,0,1,0-3.51,2,2,0,0,1,1.57-.64,1.91,1.91,0,0,1,1.53.64,2.49,2.49,0,0,1,.55,1.69,2.66,2.66,0,0,1-.57,1.8A2,2,0,0,1,129.11,30.77Zm0-3.71a.76.76,0,0,0-.66.34,1.71,1.71,0,0,0-.24,1c0,.87.3,1.31.91,1.31s.87-.45.87-1.35S129.73,27.06,129.14,27.06Z"/><path class="cls-1" d="M134.59,27.36a1,1,0,0,0-.51-.14.72.72,0,0,0-.62.34,1.74,1.74,0,0,0-.22.92v2.18H132V26.09h1.2v.85h0c.19-.62.53-.93,1-.93a.78.78,0,0,1,.3,0Z"/><path class="cls-1" d="M137.74,30.61a1.55,1.55,0,0,1-.8.16c-.86,0-1.28-.51-1.28-1.55V27.13H135v-1h.63v-1l1.2-.4v1.39h.88v1h-.88V29c0,.47.17.71.49.71a.67.67,0,0,0,.39-.13Z"/><path class="cls-1" d="M144.3,30.66h-1.2V30h0a1.35,1.35,0,0,1-1.2.81c-.9,0-1.36-.64-1.36-1.92V26.09h1.21v2.63c0,.65.22,1,.65,1a.62.62,0,0,0,.52-.26,1.2,1.2,0,0,0,.2-.72V26.09h1.2Z"/><path class="cls-1" d="M149.1,30.66h-1.2V28.12c0-.71-.22-1.06-.65-1.06a.62.62,0,0,0-.52.28,1.24,1.24,0,0,0-.2.71v2.61h-1.21V26.09h1.21v.72h0A1.37,1.37,0,0,1,147.8,26c.87,0,1.3.63,1.3,1.88Z"/><path class="cls-1" d="M153.89,30.66h-1.21V30h0a1.31,1.31,0,0,1-1.22.74,1.4,1.4,0,0,1-1.18-.6,2.8,2.8,0,0,1-.44-1.69,3,3,0,0,1,.49-1.82,1.53,1.53,0,0,1,1.29-.68,1.07,1.07,0,0,1,1.06.63h0V23.89h1.21Zm-1.19-2.22v-.35a1.2,1.2,0,0,0-.22-.74.71.71,0,0,0-1.2.08,1.91,1.91,0,0,0-.23,1,1.73,1.73,0,0,0,.22.93.71.71,0,0,0,.6.32.68.68,0,0,0,.6-.34A1.56,1.56,0,0,0,152.7,28.44Z"/><path class="cls-1" d="M158.42,28.78h-2.55a1,1,0,0,0,1.07,1,1.93,1.93,0,0,0,1.14-.35v1a2.58,2.58,0,0,1-1.41.34,1.82,1.82,0,0,1-1.47-.61,2.55,2.55,0,0,1-.53-1.71,2.71,2.71,0,0,1,.57-1.81,1.77,1.77,0,0,1,1.39-.66,1.63,1.63,0,0,1,1.33.59,2.55,2.55,0,0,1,.46,1.61Zm-1.12-.87c0-.65-.22-1-.68-1a.61.61,0,0,0-.5.28,1.4,1.4,0,0,0-.26.7Z"/><path class="cls-1" d="M161.7,27.36a1,1,0,0,0-.51-.14.71.71,0,0,0-.62.34,1.65,1.65,0,0,0-.22.92v2.18h-1.21V26.09h1.21v.85h0c.19-.62.53-.93,1-.93a.78.78,0,0,1,.3,0Z"/><path class="cls-1" d="M166.79,30.61a1.59,1.59,0,0,1-.81.16c-.85,0-1.28-.51-1.28-1.55V27.13h-.63v-1h.63v-1l1.21-.4v1.39h.88v1h-.88V29c0,.47.16.71.48.71a.73.73,0,0,0,.4-.13Z"/><path class="cls-1" d="M171.22,30.66H170v-2.6c0-.67-.21-1-.63-1a.6.6,0,0,0-.52.28,1.24,1.24,0,0,0-.2.71v2.61h-1.2V23.89h1.2v2.88h0a1.33,1.33,0,0,1,1.2-.79c.89,0,1.33.62,1.33,1.87Z"/><path class="cls-1" d="M175.7,28.78h-2.56a1,1,0,0,0,1.08,1,1.9,1.9,0,0,0,1.13-.35v1a2.58,2.58,0,0,1-1.41.34,1.82,1.82,0,0,1-1.47-.61,2.55,2.55,0,0,1-.52-1.71,2.76,2.76,0,0,1,.56-1.81A1.77,1.77,0,0,1,173.9,26a1.6,1.6,0,0,1,1.33.59,2.55,2.55,0,0,1,.47,1.61Zm-1.12-.87c0-.65-.23-1-.68-1a.63.63,0,0,0-.51.28,1.4,1.4,0,0,0-.25.7Z"/><path class="cls-1" d="M182.63,30.43a3.15,3.15,0,0,1-1.57.34,2.49,2.49,0,0,1-2-.86,3.51,3.51,0,0,1-.72-2.31,3.69,3.69,0,0,1,.81-2.49,2.65,2.65,0,0,1,2.11-1,3.41,3.41,0,0,1,1.36.24v1.39a2.14,2.14,0,0,0-1.26-.39,1.53,1.53,0,0,0-1.24.57,2.68,2.68,0,0,0,0,3,1.49,1.49,0,0,0,1.2.55,2.32,2.32,0,0,0,1.33-.41Z"/><path class="cls-1" d="M183.58,30.66v-6.4h1.94q2.92,0,2.92,3.12a3.46,3.46,0,0,1-.79,2.39,2.73,2.73,0,0,1-2.13.89Zm1.24-5.23v4.06h.61a1.56,1.56,0,0,0,1.26-.56,2.4,2.4,0,0,0,.45-1.53,2.14,2.14,0,0,0-.45-1.44,1.58,1.58,0,0,0-1.27-.53Z"/><path class="cls-1" d="M193.29,30.43a3.18,3.18,0,0,1-1.57.34,2.47,2.47,0,0,1-2-.86A3.51,3.51,0,0,1,189,27.6a3.69,3.69,0,0,1,.81-2.49,2.64,2.64,0,0,1,2.11-1,3.41,3.41,0,0,1,1.36.24v1.39a2.14,2.14,0,0,0-1.26-.39,1.56,1.56,0,0,0-1.25.57,2.36,2.36,0,0,0-.47,1.54,2.29,2.29,0,0,0,.45,1.48,1.49,1.49,0,0,0,1.2.55,2.37,2.37,0,0,0,1.33-.41Z"/><path class="cls-1" d="M200.33,30.43a3.12,3.12,0,0,1-1.57.34,2.45,2.45,0,0,1-2-.86,3.51,3.51,0,0,1-.72-2.31,3.69,3.69,0,0,1,.81-2.49,2.63,2.63,0,0,1,2.11-1,3.4,3.4,0,0,1,1.35.24v1.39a2.11,2.11,0,0,0-1.25-.39,1.55,1.55,0,0,0-1.25.57,2.31,2.31,0,0,0-.47,1.54A2.35,2.35,0,0,0,197.8,29a1.5,1.5,0,0,0,1.21.55,2.31,2.31,0,0,0,1.32-.41Z"/><path class="cls-1" d="M203.72,27.36a.93.93,0,0,0-.51-.14.71.71,0,0,0-.61.34,1.65,1.65,0,0,0-.22.92v2.18h-1.21V26.09h1.21v.85h0c.19-.62.54-.93,1-.93a.78.78,0,0,1,.3,0Z"/><path class="cls-1" d="M204.93,25.37a.62.62,0,0,1-.5-.22.73.73,0,0,1-.2-.52.69.69,0,0,1,.2-.51.63.63,0,0,1,.5-.2.65.65,0,0,1,.5.2.69.69,0,0,1,.19.51.73.73,0,0,1-.19.53A.66.66,0,0,1,204.93,25.37Zm.59,5.29h-1.2V26.09h1.2Z"/><path class="cls-1" d="M206.28,30.54V29.4a2.45,2.45,0,0,0,.6.31,1.66,1.66,0,0,0,.56.1,1.08,1.08,0,0,0,.51-.1.33.33,0,0,0,.18-.31.36.36,0,0,0-.08-.23.71.71,0,0,0-.22-.15,1.26,1.26,0,0,0-.29-.12l-.3-.12a3.81,3.81,0,0,1-.41-.22,1.15,1.15,0,0,1-.3-.28,1,1,0,0,1-.18-.36,1.75,1.75,0,0,1-.07-.49,1.4,1.4,0,0,1,.15-.66,1.27,1.27,0,0,1,.38-.45,1.64,1.64,0,0,1,.55-.26A2.67,2.67,0,0,1,208,26a3.23,3.23,0,0,1,.53,0,5,5,0,0,1,.52.14v1.09a1.69,1.69,0,0,0-.49-.23,1.51,1.51,0,0,0-.51-.08l-.23,0a.75.75,0,0,0-.18.07.38.38,0,0,0-.13.12.33.33,0,0,0,0,.17.32.32,0,0,0,.07.22.5.5,0,0,0,.17.15l.25.12.27.1a3.61,3.61,0,0,1,.44.22,1.09,1.09,0,0,1,.33.27.93.93,0,0,1,.21.36,1.66,1.66,0,0,1-.07,1.2,1.41,1.41,0,0,1-.4.47,1.8,1.8,0,0,1-.58.26,3,3,0,0,1-.68.08A3.17,3.17,0,0,1,206.28,30.54Z"/><path class="cls-1" d="M210.6,25.37a.62.62,0,0,1-.5-.22.73.73,0,0,1-.2-.52.69.69,0,0,1,.2-.51.63.63,0,0,1,.5-.2.65.65,0,0,1,.5.2.69.69,0,0,1,.19.51.73.73,0,0,1-.19.53A.66.66,0,0,1,210.6,25.37Zm.59,5.29H210V26.09h1.2Z"/><path class="cls-1" d="M212,30.54V29.4a2.45,2.45,0,0,0,.6.31,1.66,1.66,0,0,0,.56.1,1.08,1.08,0,0,0,.51-.1.33.33,0,0,0,.18-.31.36.36,0,0,0-.08-.23.71.71,0,0,0-.22-.15,1.26,1.26,0,0,0-.29-.12l-.3-.12a3.81,3.81,0,0,1-.41-.22,1.15,1.15,0,0,1-.3-.28,1,1,0,0,1-.18-.36,1.75,1.75,0,0,1-.07-.49,1.4,1.4,0,0,1,.15-.66,1.27,1.27,0,0,1,.38-.45,1.64,1.64,0,0,1,.55-.26,2.67,2.67,0,0,1,.64-.08,3.23,3.23,0,0,1,.53,0,5,5,0,0,1,.52.14v1.09a1.69,1.69,0,0,0-.49-.23,1.51,1.51,0,0,0-.51-.08l-.23,0a.75.75,0,0,0-.18.07.38.38,0,0,0-.13.12.33.33,0,0,0,0,.17.32.32,0,0,0,.07.22.5.5,0,0,0,.17.15l.25.12.27.1a3.61,3.61,0,0,1,.44.22,1.09,1.09,0,0,1,.33.27,1.07,1.07,0,0,1,.21.36,1.66,1.66,0,0,1-.07,1.2,1.41,1.41,0,0,1-.4.47,1.8,1.8,0,0,1-.58.26,3,3,0,0,1-.68.08A3.17,3.17,0,0,1,212,30.54Z"/><path class="cls-1" d="M221.86,30.43a3.11,3.11,0,0,1-1.56.34,2.47,2.47,0,0,1-2-.86,3.51,3.51,0,0,1-.72-2.31,3.69,3.69,0,0,1,.81-2.49,2.64,2.64,0,0,1,2.11-1,3.33,3.33,0,0,1,1.35.24v1.39a2.09,2.09,0,0,0-1.25-.39,1.55,1.55,0,0,0-1.25.57,2.36,2.36,0,0,0-.47,1.54,2.29,2.29,0,0,0,.45,1.48,1.48,1.48,0,0,0,1.2.55,2.31,2.31,0,0,0,1.32-.41Z"/><path class="cls-1" d="M226,30.66h-1.14V30h0a1.24,1.24,0,0,1-1.17.77,1.11,1.11,0,0,1-.89-.37,1.5,1.5,0,0,1-.33-1,1.41,1.41,0,0,1,1.35-1.54l1.06-.16q0-.75-.69-.75a2.15,2.15,0,0,0-1.33.48V26.36a2.91,2.91,0,0,1,.69-.27,3.41,3.41,0,0,1,.8-.11c1.11,0,1.67.65,1.67,1.95Zm-1.14-1.86v-.3l-.71.1a.6.6,0,0,0-.59.62.55.55,0,0,0,.15.4.5.5,0,0,0,.39.15.67.67,0,0,0,.55-.27A1.14,1.14,0,0,0,224.82,28.8Z"/><path class="cls-1" d="M228.14,30.13h0v2.63h-1.2V26.09h1.2v.69h0a1.38,1.38,0,0,1,1.26-.8,1.33,1.33,0,0,1,1.17.61,2.87,2.87,0,0,1,.42,1.66,3.07,3.07,0,0,1-.49,1.83,1.49,1.49,0,0,1-1.28.69A1.18,1.18,0,0,1,228.14,30.13Zm0-1.88v.37a1.23,1.23,0,0,0,.22.77.66.66,0,0,0,.56.3.7.7,0,0,0,.64-.37,2.06,2.06,0,0,0,.23-1.06c0-.8-.27-1.2-.8-1.2a.72.72,0,0,0-.61.33A1.39,1.39,0,0,0,228.1,28.25Z"/><path class="cls-1" d="M235,30.66h-1.14V30h0a1.24,1.24,0,0,1-1.16.77,1.13,1.13,0,0,1-.9-.37,1.5,1.5,0,0,1-.33-1,1.41,1.41,0,0,1,1.35-1.54l1.07-.16c0-.5-.24-.75-.7-.75a2.15,2.15,0,0,0-1.33.48V26.36a2.91,2.91,0,0,1,.69-.27,3.48,3.48,0,0,1,.8-.11c1.11,0,1.67.65,1.67,1.95Zm-1.13-1.86v-.3l-.72.1a.59.59,0,0,0-.58.62.54.54,0,0,0,.14.4.5.5,0,0,0,.39.15.67.67,0,0,0,.55-.27A1.09,1.09,0,0,0,233.82,28.8Z"/><path class="cls-1" d="M238.88,30.5a2.18,2.18,0,0,1-1.19.27,1.85,1.85,0,0,1-1.46-.64,2.4,2.4,0,0,1-.56-1.64,2.66,2.66,0,0,1,.6-1.84,2,2,0,0,1,1.6-.67,1.88,1.88,0,0,1,1,.21v1.2a1.28,1.28,0,0,0-.85-.33,1,1,0,0,0-.82.35,1.44,1.44,0,0,0-.31,1,1.47,1.47,0,0,0,.29,1,1,1,0,0,0,.8.34,1.47,1.47,0,0,0,.89-.33Z"/><path class="cls-1" d="M240.28,25.37a.62.62,0,0,1-.5-.22.73.73,0,0,1-.2-.52.69.69,0,0,1,.2-.51.63.63,0,0,1,.5-.2.65.65,0,0,1,.5.2.69.69,0,0,1,.19.51.73.73,0,0,1-.19.53A.66.66,0,0,1,240.28,25.37Zm.59,5.29h-1.2V26.09h1.2Z"/><path class="cls-1" d="M244.26,30.61a1.59,1.59,0,0,1-.81.16c-.85,0-1.28-.51-1.28-1.55V27.13h-.63v-1h.63v-1l1.21-.4v1.39h.88v1h-.88V29c0,.47.16.71.48.71a.73.73,0,0,0,.4-.13Z"/><path class="cls-1" d="M248.67,26.09,247.08,31c-.39,1.18-1,1.78-1.73,1.78a1.8,1.8,0,0,1-.72-.12V31.57a.89.89,0,0,0,.52.16.66.66,0,0,0,.65-.51l.2-.57-1.59-4.56h1.34l.73,2.78a4.21,4.21,0,0,1,.11.61h0a4.52,4.52,0,0,1,.12-.6l.74-2.79Z"/><path class="cls-1" d="M116.35,42.42V41a2.42,2.42,0,0,0,.72.49,2.18,2.18,0,0,0,.79.16,1.56,1.56,0,0,0,.4,0,.83.83,0,0,0,.3-.14.55.55,0,0,0,.17-.2.58.58,0,0,0,.06-.26.6.6,0,0,0-.09-.33,1.35,1.35,0,0,0-.26-.28,3,3,0,0,0-.37-.24l-.47-.23a2.46,2.46,0,0,1-1-.77,1.85,1.85,0,0,1-.32-1.09,1.91,1.91,0,0,1,.18-.86,1.78,1.78,0,0,1,.46-.59,2,2,0,0,1,.69-.34,3.2,3.2,0,0,1,.83-.11,4.34,4.34,0,0,1,.76.06,2.41,2.41,0,0,1,.61.19v1.33a2.49,2.49,0,0,0-.3-.19,1.43,1.43,0,0,0-.34-.14,2.14,2.14,0,0,0-.34-.09,1.77,1.77,0,0,0-.32,0,1.61,1.61,0,0,0-.39,0,1.11,1.11,0,0,0-.29.13.62.62,0,0,0-.25.47.55.55,0,0,0,.08.29.76.76,0,0,0,.2.24,2.35,2.35,0,0,0,.33.23l.43.22a4.59,4.59,0,0,1,.59.34,2,2,0,0,1,.45.41,1.66,1.66,0,0,1,.29.52,2.32,2.32,0,0,1,.1.68,2,2,0,0,1-.18.9,1.52,1.52,0,0,1-.47.59,1.82,1.82,0,0,1-.69.32,3.33,3.33,0,0,1-.84.1,4,4,0,0,1-.86-.09A2.62,2.62,0,0,1,116.35,42.42Z"/><path class="cls-1" d="M123,42.61a1.57,1.57,0,0,1-.8.16c-.86,0-1.28-.51-1.28-1.55V39.13h-.64v-1H121v-1l1.2-.4v1.39H123v1h-.88V41c0,.47.16.71.49.71a.67.67,0,0,0,.39-.13Z"/><path class="cls-1" d="M126.28,39.36a1,1,0,0,0-.51-.14.71.71,0,0,0-.62.34,1.65,1.65,0,0,0-.22.92v2.18h-1.21V38.09h1.21v.85h0c.19-.62.53-.93,1-.93a.78.78,0,0,1,.3.05Z"/><path class="cls-1" d="M130.1,42.66H129V42h0a1.25,1.25,0,0,1-1.17.77,1.1,1.1,0,0,1-.89-.37,1.5,1.5,0,0,1-.33-1,1.41,1.41,0,0,1,1.35-1.54l1.06-.16c0-.5-.23-.75-.7-.75a2.17,2.17,0,0,0-1.33.48V38.36a2.91,2.91,0,0,1,.69-.27,3.55,3.55,0,0,1,.8-.11q1.68,0,1.68,2ZM129,40.8v-.3l-.71.1a.63.63,0,0,0-.45,1,.53.53,0,0,0,.39.15.69.69,0,0,0,.56-.27A1.14,1.14,0,0,0,129,40.8Z"/><path class="cls-1" d="M133.42,42.61a1.59,1.59,0,0,1-.81.16c-.85,0-1.28-.51-1.28-1.55V39.13h-.63v-1h.63v-1l1.21-.4v1.39h.88v1h-.88V41c0,.47.16.71.49.71a.72.72,0,0,0,.39-.13Z"/><path class="cls-1" d="M137.59,40.78H135a1,1,0,0,0,1.08,1,1.9,1.9,0,0,0,1.13-.35v1a2.58,2.58,0,0,1-1.41.34,1.82,1.82,0,0,1-1.47-.61,2.55,2.55,0,0,1-.52-1.71,2.7,2.7,0,0,1,.56-1.81,1.77,1.77,0,0,1,1.39-.66,1.61,1.61,0,0,1,1.33.59,2.55,2.55,0,0,1,.47,1.61Zm-1.12-.87c0-.65-.23-1-.68-1a.61.61,0,0,0-.51.28,1.51,1.51,0,0,0-.26.7Z"/><path class="cls-1" d="M142.14,42.14a2.84,2.84,0,0,1-.63,2,2.35,2.35,0,0,1-1.82.7,2.51,2.51,0,0,1-1.26-.27V43.36a2.18,2.18,0,0,0,1.22.41,1.21,1.21,0,0,0,.95-.38,1.49,1.49,0,0,0,.34-1V42h0a1.3,1.3,0,0,1-1.22.77,1.38,1.38,0,0,1-1.19-.61,2.84,2.84,0,0,1-.44-1.66,3.16,3.16,0,0,1,.49-1.84,1.53,1.53,0,0,1,1.29-.68,1.14,1.14,0,0,1,1.07.64h0v-.53h1.2ZM141,40.46V40.1a1.22,1.22,0,0,0-.22-.74.69.69,0,0,0-.57-.3.71.71,0,0,0-.63.36,2,2,0,0,0-.23,1,1.58,1.58,0,0,0,.22.9.67.67,0,0,0,.59.33.7.7,0,0,0,.61-.34A1.56,1.56,0,0,0,141,40.46Z"/><path class="cls-1" d="M146.88,38.09,145.29,43c-.38,1.18-1,1.78-1.73,1.78a1.87,1.87,0,0,1-.72-.12V43.57a.89.89,0,0,0,.52.16.66.66,0,0,0,.65-.51l.21-.57-1.59-4.56H144l.73,2.78a4.31,4.31,0,0,1,.1.61h0a3.46,3.46,0,0,1,.13-.6l.73-2.79Z"/><path class="cls-1" d="M153.36,42.14a2.84,2.84,0,0,1-.63,2,2.35,2.35,0,0,1-1.82.7,2.51,2.51,0,0,1-1.26-.27V43.36a2.18,2.18,0,0,0,1.22.41,1.21,1.21,0,0,0,.95-.38,1.49,1.49,0,0,0,.34-1V42h0a1.3,1.3,0,0,1-1.22.77,1.39,1.39,0,0,1-1.19-.61,2.84,2.84,0,0,1-.44-1.66,3.16,3.16,0,0,1,.49-1.84,1.53,1.53,0,0,1,1.29-.68,1.14,1.14,0,0,1,1.07.64h0v-.53h1.2Zm-1.19-1.68V40.1a1.22,1.22,0,0,0-.22-.74.66.66,0,0,0-.57-.3.71.71,0,0,0-.63.36,2,2,0,0,0-.23,1,1.58,1.58,0,0,0,.22.9.67.67,0,0,0,.59.33.7.7,0,0,0,.61-.34A1.56,1.56,0,0,0,152.17,40.46Z"/><path class="cls-1" d="M158.09,42.66h-1.2V42h0a1.35,1.35,0,0,1-1.2.81c-.9,0-1.36-.64-1.36-1.92V38.09h1.21v2.63c0,.65.22,1,.66,1a.64.64,0,0,0,.52-.26,1.2,1.2,0,0,0,.19-.72V38.09h1.2Z"/><path class="cls-1" d="M159.72,37.37a.63.63,0,0,1-.5-.22.73.73,0,0,1-.19-.52.69.69,0,0,1,.19-.51.65.65,0,0,1,.5-.2.66.66,0,0,1,.51.2.69.69,0,0,1,.19.51.73.73,0,0,1-.19.53A.66.66,0,0,1,159.72,37.37Zm.6,5.29h-1.21V38.09h1.21Z"/><path class="cls-1" d="M165.17,42.66H164V42h0a1.3,1.3,0,0,1-1.21.74,1.4,1.4,0,0,1-1.18-.6,2.8,2.8,0,0,1-.45-1.69,3,3,0,0,1,.5-1.82,1.53,1.53,0,0,1,1.29-.68,1.06,1.06,0,0,1,1.05.63h0V35.89h1.21ZM164,40.44v-.35a1.2,1.2,0,0,0-.22-.74.71.71,0,0,0-.58-.29.69.69,0,0,0-.62.37,1.91,1.91,0,0,0-.23,1,1.64,1.64,0,0,0,.22.93.69.69,0,0,0,.6.32.68.68,0,0,0,.6-.34A1.56,1.56,0,0,0,164,40.44Z"/><path class="cls-1" d="M169.7,40.78h-2.55a1,1,0,0,0,1.07,1,2,2,0,0,0,1.14-.35v1a2.58,2.58,0,0,1-1.41.34,1.82,1.82,0,0,1-1.47-.61,2.55,2.55,0,0,1-.53-1.71,2.71,2.71,0,0,1,.57-1.81,1.77,1.77,0,0,1,1.39-.66,1.59,1.59,0,0,1,1.32.59,2.49,2.49,0,0,1,.47,1.61Zm-1.12-.87c0-.65-.22-1-.68-1a.61.61,0,0,0-.5.28,1.4,1.4,0,0,0-.26.7Z"/><path class="cls-1" d="M171.63,42.66h-1.21V35.89h1.21Z"/><path class="cls-1" d="M173.26,37.37a.62.62,0,0,1-.5-.22.73.73,0,0,1-.2-.52.69.69,0,0,1,.2-.51.63.63,0,0,1,.5-.2.65.65,0,0,1,.5.2.69.69,0,0,1,.19.51.73.73,0,0,1-.19.53A.66.66,0,0,1,173.26,37.37Zm.59,5.29h-1.2V38.09h1.2Z"/><path class="cls-1" d="M178.65,42.66h-1.2V40.12c0-.71-.22-1.06-.65-1.06a.62.62,0,0,0-.52.28,1.24,1.24,0,0,0-.2.71v2.61h-1.21V38.09h1.21v.72h0a1.35,1.35,0,0,1,1.25-.83c.87,0,1.3.63,1.3,1.88Z"/><path class="cls-1" d="M183.13,40.78h-2.56a1,1,0,0,0,1.08,1,1.9,1.9,0,0,0,1.13-.35v1a2.58,2.58,0,0,1-1.41.34,1.82,1.82,0,0,1-1.47-.61,2.55,2.55,0,0,1-.52-1.71,2.7,2.7,0,0,1,.56-1.81,1.77,1.77,0,0,1,1.39-.66,1.61,1.61,0,0,1,1.33.59,2.55,2.55,0,0,1,.47,1.61ZM182,39.91c0-.65-.23-1-.68-1a.61.61,0,0,0-.51.28,1.51,1.51,0,0,0-.26.7Z"/><path class="cls-1" d="M183.59,42.54V41.4a2.59,2.59,0,0,0,.59.31,1.7,1.7,0,0,0,.56.1,1,1,0,0,0,.51-.1.34.34,0,0,0,.19-.31.32.32,0,0,0-.09-.23.66.66,0,0,0-.21-.15,1.48,1.48,0,0,0-.29-.12l-.31-.12c-.15-.07-.29-.15-.41-.22a1.28,1.28,0,0,1-.29-.28,1,1,0,0,1-.19-.36,1.77,1.77,0,0,1-.06-.49,1.53,1.53,0,0,1,.14-.66,1.41,1.41,0,0,1,.39-.45,1.59,1.59,0,0,1,.54-.26,2.74,2.74,0,0,1,.64-.08,3.15,3.15,0,0,1,.53,0,5.18,5.18,0,0,1,.53.14v1.09a2,2,0,0,0-.49-.23,1.61,1.61,0,0,0-.52-.08l-.22,0-.19.07a.46.46,0,0,0-.12.12.34.34,0,0,0,0,.17.32.32,0,0,0,.07.22.65.65,0,0,0,.18.15l.25.12.27.1a3.45,3.45,0,0,1,.43.22,1.27,1.27,0,0,1,.34.27,1.07,1.07,0,0,1,.21.36,1.75,1.75,0,0,1-.08,1.2,1.31,1.31,0,0,1-.4.47,1.71,1.71,0,0,1-.58.26,2.93,2.93,0,0,1-.67.08A3.17,3.17,0,0,1,183.59,42.54Z"/><path class="cls-1" d="M195.12,38.09,194,42.66h-1.27L192.15,40a3.41,3.41,0,0,1-.07-.58h0A4.65,4.65,0,0,1,192,40l-.62,2.7h-1.25L189,38.09h1.23l.54,3a3.25,3.25,0,0,1,.06.51h0a5.33,5.33,0,0,1,.07-.53l.67-3h1.16l.6,3a4.64,4.64,0,0,1,.05.52h0a4.6,4.6,0,0,1,.06-.52l.51-3Z"/><path class="cls-1" d="M199.45,42.66h-1.2v-2.6c0-.67-.21-1-.63-1a.6.6,0,0,0-.52.28,1.24,1.24,0,0,0-.2.71v2.61h-1.21V35.89h1.21v2.88h0a1.32,1.32,0,0,1,1.2-.79c.89,0,1.33.62,1.33,1.87Z"/><path class="cls-1" d="M203.93,40.78h-2.56a1,1,0,0,0,1.08,1,1.92,1.92,0,0,0,1.13-.35v1a2.58,2.58,0,0,1-1.41.34,1.82,1.82,0,0,1-1.47-.61,2.55,2.55,0,0,1-.53-1.71,2.71,2.71,0,0,1,.57-1.81,1.77,1.77,0,0,1,1.39-.66,1.63,1.63,0,0,1,1.33.59,2.55,2.55,0,0,1,.47,1.61Zm-1.13-.87c0-.65-.22-1-.67-1a.61.61,0,0,0-.51.28,1.4,1.4,0,0,0-.26.7Z"/><path class="cls-1" d="M208.43,42.66h-1.21V40.12c0-.71-.22-1.06-.65-1.06a.62.62,0,0,0-.52.28,1.24,1.24,0,0,0-.2.71v2.61h-1.21V38.09h1.21v.72h0a1.37,1.37,0,0,1,1.26-.83c.86,0,1.3.63,1.3,1.88Z"/><path class="cls-1" d="M215.06,40.78H212.5a1,1,0,0,0,1.08,1,1.9,1.9,0,0,0,1.13-.35v1a2.58,2.58,0,0,1-1.41.34,1.82,1.82,0,0,1-1.47-.61,2.55,2.55,0,0,1-.52-1.71,2.76,2.76,0,0,1,.56-1.81,1.79,1.79,0,0,1,1.4-.66,1.59,1.59,0,0,1,1.32.59,2.55,2.55,0,0,1,.47,1.61Zm-1.12-.87c0-.65-.23-1-.68-1a.6.6,0,0,0-.5.28,1.32,1.32,0,0,0-.26.7Z"/><path class="cls-1" d="M219.61,44.76H218.4V42h0a1.31,1.31,0,0,1-1.21.74,1.42,1.42,0,0,1-1.19-.6,2.75,2.75,0,0,1-.45-1.68,3.07,3.07,0,0,1,.5-1.83,1.52,1.52,0,0,1,1.28-.68,1.14,1.14,0,0,1,1.07.64h0v-.53h1.21Zm-1.19-4.28v-.37a1.21,1.21,0,0,0-.22-.75.69.69,0,0,0-.57-.3.7.7,0,0,0-.63.37,1.93,1.93,0,0,0-.23,1,1.59,1.59,0,0,0,.23.91.66.66,0,0,0,.58.33.71.71,0,0,0,.61-.33A1.5,1.5,0,0,0,218.42,40.48Z"/><path class="cls-1" d="M224.35,42.66h-1.21V42h0a1.35,1.35,0,0,1-1.19.81c-.91,0-1.37-.64-1.37-1.92V38.09h1.21v2.63c0,.65.22,1,.66,1a.64.64,0,0,0,.52-.26,1.2,1.2,0,0,0,.19-.72V38.09h1.21Z"/><path class="cls-1" d="M226,37.37a.63.63,0,0,1-.5-.22.73.73,0,0,1-.19-.52.69.69,0,0,1,.19-.51.65.65,0,0,1,.5-.2.66.66,0,0,1,.51.2.69.69,0,0,1,.19.51.73.73,0,0,1-.19.53A.66.66,0,0,1,226,37.37Zm.6,5.29h-1.21V38.09h1.21Z"/><path class="cls-1" d="M228.81,42.13h0v2.63h-1.21V38.09h1.21v.69h0a1.38,1.38,0,0,1,1.26-.8,1.34,1.34,0,0,1,1.18.61,3,3,0,0,1,.41,1.66,3.15,3.15,0,0,1-.48,1.83,1.52,1.52,0,0,1-1.29.69A1.18,1.18,0,0,1,228.81,42.13Zm0-1.88v.37a1.3,1.3,0,0,0,.21.77.66.66,0,0,0,.56.3.7.7,0,0,0,.64-.37,2.06,2.06,0,0,0,.23-1.06c0-.8-.27-1.2-.8-1.2a.72.72,0,0,0-.61.33A1.46,1.46,0,0,0,228.78,40.25Z"/><path class="cls-1" d="M238.66,42.66h-1.2V40.05q0-1-.63-1a.57.57,0,0,0-.49.3,1.42,1.42,0,0,0-.18.74v2.56H235V40c0-.65-.21-1-.62-1a.56.56,0,0,0-.49.28,1.36,1.36,0,0,0-.19.78v2.54h-1.21V38.09h1.21v.71h0a1.56,1.56,0,0,1,.52-.59,1.27,1.27,0,0,1,.74-.23,1.14,1.14,0,0,1,1.14.85,1.42,1.42,0,0,1,1.31-.85c.86,0,1.28.61,1.28,1.84Z"/><path class="cls-1" d="M243.13,40.78h-2.55a1,1,0,0,0,1.07,1,2,2,0,0,0,1.14-.35v1a2.58,2.58,0,0,1-1.41.34,1.82,1.82,0,0,1-1.47-.61,2.55,2.55,0,0,1-.53-1.71,2.71,2.71,0,0,1,.57-1.81,1.77,1.77,0,0,1,1.39-.66,1.63,1.63,0,0,1,1.33.59,2.55,2.55,0,0,1,.46,1.61ZM242,39.91c0-.65-.22-1-.68-1a.61.61,0,0,0-.5.28,1.4,1.4,0,0,0-.26.7Z"/><path class="cls-1" d="M247.63,42.66h-1.2V40.12c0-.71-.22-1.06-.65-1.06a.62.62,0,0,0-.52.28,1.24,1.24,0,0,0-.2.71v2.61h-1.21V38.09h1.21v.72h0a1.35,1.35,0,0,1,1.25-.83c.87,0,1.3.63,1.3,1.88Z"/><path class="cls-1" d="M251,42.61a1.59,1.59,0,0,1-.81.16c-.85,0-1.28-.51-1.28-1.55V39.13h-.63v-1h.63v-1l1.21-.4v1.39H251v1h-.88V41c0,.47.16.71.48.71a.73.73,0,0,0,.4-.13Z"/><path class="cls-1" d="M116.22,54.54V53.4a2.45,2.45,0,0,0,.6.31,1.66,1.66,0,0,0,.56.1,1.08,1.08,0,0,0,.51-.1.33.33,0,0,0,.18-.31.36.36,0,0,0-.08-.23.71.71,0,0,0-.22-.15,1.26,1.26,0,0,0-.29-.12l-.3-.12c-.15-.07-.29-.15-.41-.22a1.15,1.15,0,0,1-.3-.28,1,1,0,0,1-.18-.36,1.75,1.75,0,0,1-.07-.49,1.4,1.4,0,0,1,.15-.66,1.27,1.27,0,0,1,.38-.45,1.64,1.64,0,0,1,.55-.26,2.67,2.67,0,0,1,.64-.08,3.23,3.23,0,0,1,.53,0,5,5,0,0,1,.52.14v1.09a1.69,1.69,0,0,0-.49-.23,1.51,1.51,0,0,0-.51-.08l-.23,0a.75.75,0,0,0-.18.07.5.5,0,0,0-.13.12.33.33,0,0,0,0,.17.32.32,0,0,0,.07.22.45.45,0,0,0,.18.15l.24.12.27.1a3.61,3.61,0,0,1,.44.22,1.27,1.27,0,0,1,.55.63,1.75,1.75,0,0,1-.08,1.2,1.41,1.41,0,0,1-.4.47,1.8,1.8,0,0,1-.58.26,3,3,0,0,1-.68.08A3.17,3.17,0,0,1,116.22,54.54Z"/><path class="cls-1" d="M123.68,54.66h-1.2v-2.6c0-.67-.21-1-.63-1a.62.62,0,0,0-.52.28,1.22,1.22,0,0,0-.2.71v2.61h-1.2V47.89h1.2v2.88h0a1.34,1.34,0,0,1,1.2-.79c.89,0,1.33.62,1.33,1.87Z"/><path class="cls-1" d="M126.51,54.77a1.92,1.92,0,0,1-1.54-.64,3,3,0,0,1,0-3.51,2,2,0,0,1,1.57-.64,1.91,1.91,0,0,1,1.53.64,2.49,2.49,0,0,1,.55,1.69,2.66,2.66,0,0,1-.57,1.8A2,2,0,0,1,126.51,54.77Zm0-3.71a.76.76,0,0,0-.67.34,1.71,1.71,0,0,0-.24,1c0,.87.31,1.31.91,1.31s.87-.45.87-1.35S127.12,51.06,126.54,51.06Z"/><path class="cls-1" d="M132,51.36a.93.93,0,0,0-.51-.14.7.7,0,0,0-.61.34,1.65,1.65,0,0,0-.22.92v2.18h-1.21V50.09h1.21v.85h0c.19-.62.54-.93,1-.93a.78.78,0,0,1,.3.05Z"/><path class="cls-1" d="M135.13,54.61a1.52,1.52,0,0,1-.8.16c-.85,0-1.28-.51-1.28-1.55V51.13h-.63v-1h.63v-1l1.21-.4v1.39h.87v1h-.87V53c0,.47.16.71.48.71a.67.67,0,0,0,.39-.13Z"/><path class="cls-1" d="M139.07,54.66h-1.14V54h0a1.26,1.26,0,0,1-1.17.77,1.11,1.11,0,0,1-.9-.38,1.45,1.45,0,0,1-.32-1,1.41,1.41,0,0,1,1.35-1.54l1.06-.16c0-.5-.23-.75-.7-.75a2.17,2.17,0,0,0-1.33.48V50.36a2.91,2.91,0,0,1,.69-.27,3.48,3.48,0,0,1,.8-.11c1.12,0,1.67.65,1.67,2Zm-1.13-1.86v-.3l-.71.1c-.4.06-.59.27-.59.62a.59.59,0,0,0,.14.4.53.53,0,0,0,.39.15.66.66,0,0,0,.55-.27A1.09,1.09,0,0,0,137.94,52.8Z"/><path class="cls-1" d="M143.87,54.14a2.84,2.84,0,0,1-.63,2,2.36,2.36,0,0,1-1.83.7,2.44,2.44,0,0,1-1.25-.27V55.36a2.15,2.15,0,0,0,1.22.41,1.2,1.2,0,0,0,.94-.38,1.45,1.45,0,0,0,.34-1V54h0a1.3,1.3,0,0,1-1.22.77,1.36,1.36,0,0,1-1.18-.61,2.77,2.77,0,0,1-.44-1.66,3.09,3.09,0,0,1,.49-1.84,1.5,1.5,0,0,1,1.28-.68,1.14,1.14,0,0,1,1.07.64h0v-.53h1.21Zm-1.2-1.68V52.1a1.29,1.29,0,0,0-.21-.74.69.69,0,0,0-.58-.3.73.73,0,0,0-.63.36,2,2,0,0,0-.23,1,1.66,1.66,0,0,0,.22.9.7.7,0,0,0,1.2,0A1.49,1.49,0,0,0,142.67,52.46Z"/><path class="cls-1" d="M148.4,52.78h-2.56a1,1,0,0,0,1.08,1,1.86,1.86,0,0,0,1.13-.36v1a2.58,2.58,0,0,1-1.41.34,1.82,1.82,0,0,1-1.47-.61,2.55,2.55,0,0,1-.53-1.71,2.71,2.71,0,0,1,.57-1.81A1.77,1.77,0,0,1,146.6,50a1.63,1.63,0,0,1,1.33.59,2.55,2.55,0,0,1,.47,1.61Zm-1.13-.87c0-.65-.22-1-.68-1a.61.61,0,0,0-.5.28,1.4,1.4,0,0,0-.26.7Z"/><path class="cls-1" d="M148.86,54.54V53.4a2.4,2.4,0,0,0,.59.31,1.7,1.7,0,0,0,.56.1,1,1,0,0,0,.51-.1.33.33,0,0,0,.18-.31.31.31,0,0,0-.08-.23.71.71,0,0,0-.22-.15,1.18,1.18,0,0,0-.28-.12l-.31-.12c-.15-.07-.29-.15-.41-.22a1.15,1.15,0,0,1-.3-.28,1,1,0,0,1-.18-.36,1.77,1.77,0,0,1-.06-.49,1.53,1.53,0,0,1,.14-.66,1.38,1.38,0,0,1,.38-.45,1.64,1.64,0,0,1,.55-.26,2.74,2.74,0,0,1,.64-.08,3.23,3.23,0,0,1,.53,0,5.18,5.18,0,0,1,.53.14v1.09a1.89,1.89,0,0,0-.5-.23,1.51,1.51,0,0,0-.51-.08l-.22,0a.84.84,0,0,0-.19.07.74.74,0,0,0-.13.12.33.33,0,0,0,0,.17.32.32,0,0,0,.07.22.45.45,0,0,0,.18.15l.24.12.27.1a3.61,3.61,0,0,1,.44.22,1.09,1.09,0,0,1,.33.27,1,1,0,0,1,.22.36,1.75,1.75,0,0,1-.08,1.2,1.31,1.31,0,0,1-.4.47,1.8,1.8,0,0,1-.58.26,3,3,0,0,1-.68.08A3.08,3.08,0,0,1,148.86,54.54Z"/><path class="cls-1" d="M158,54.66h-1.15V54h0a1.25,1.25,0,0,1-1.17.77,1.11,1.11,0,0,1-.9-.38,1.5,1.5,0,0,1-.32-1,1.41,1.41,0,0,1,1.35-1.54l1.06-.16c0-.5-.23-.75-.7-.75a2.17,2.17,0,0,0-1.33.48V50.36a2.91,2.91,0,0,1,.69-.27,3.55,3.55,0,0,1,.8-.11q1.68,0,1.68,2Zm-1.14-1.86v-.3l-.71.1a.63.63,0,0,0-.45,1,.53.53,0,0,0,.39.15.69.69,0,0,0,.56-.27A1.14,1.14,0,0,0,156.84,52.8Z"/><path class="cls-1" d="M161.49,51.36a1,1,0,0,0-.51-.14.71.71,0,0,0-.62.34,1.65,1.65,0,0,0-.22.92v2.18h-1.21V50.09h1.21v.85h0c.19-.62.53-.93,1-.93a.78.78,0,0,1,.3.05Z"/><path class="cls-1" d="M165.54,52.78H163a1,1,0,0,0,1.07,1,1.87,1.87,0,0,0,1.14-.36v1a2.58,2.58,0,0,1-1.41.34,1.82,1.82,0,0,1-1.47-.61,2.55,2.55,0,0,1-.53-1.71,2.71,2.71,0,0,1,.57-1.81,1.77,1.77,0,0,1,1.39-.66,1.63,1.63,0,0,1,1.33.59,2.55,2.55,0,0,1,.47,1.61Zm-1.13-.87c0-.65-.22-1-.68-1a.61.61,0,0,0-.5.28,1.4,1.4,0,0,0-.26.7Z"/><path class="cls-1" d="M169.64,54.13h0v2.63h-1.21V50.09h1.21v.69h0a1.37,1.37,0,0,1,1.26-.8,1.33,1.33,0,0,1,1.17.61,2.87,2.87,0,0,1,.42,1.66,3.15,3.15,0,0,1-.49,1.83,1.49,1.49,0,0,1-1.28.69A1.16,1.16,0,0,1,169.64,54.13Zm0-1.88v.37a1.23,1.23,0,0,0,.22.77.66.66,0,0,0,.56.3.71.71,0,0,0,.64-.37,2.06,2.06,0,0,0,.23-1.06q0-1.2-.81-1.2a.72.72,0,0,0-.6.33A1.39,1.39,0,0,0,169.6,52.25Z"/><path class="cls-1" d="M175.82,51.36a.93.93,0,0,0-.51-.14.71.71,0,0,0-.61.34,1.65,1.65,0,0,0-.22.92v2.18h-1.21V50.09h1.21v.85h0c.19-.62.54-.93,1-.93a.76.76,0,0,1,.29.05Z"/><path class="cls-1" d="M179.87,52.78h-2.55a1,1,0,0,0,1.07,1,1.89,1.89,0,0,0,1.14-.36v1a2.58,2.58,0,0,1-1.41.34,1.82,1.82,0,0,1-1.47-.61,2.55,2.55,0,0,1-.53-1.71,2.71,2.71,0,0,1,.57-1.81,1.77,1.77,0,0,1,1.39-.66,1.59,1.59,0,0,1,1.32.59,2.49,2.49,0,0,1,.47,1.61Zm-1.12-.87c0-.65-.22-1-.68-1a.61.61,0,0,0-.5.28,1.4,1.4,0,0,0-.26.7Z"/><path class="cls-1" d="M180.33,54.54V53.4a2.45,2.45,0,0,0,.6.31,1.66,1.66,0,0,0,.56.1,1.08,1.08,0,0,0,.51-.1.33.33,0,0,0,.18-.31.36.36,0,0,0-.08-.23.71.71,0,0,0-.22-.15,1.26,1.26,0,0,0-.29-.12l-.3-.12c-.15-.07-.29-.15-.41-.22a1.15,1.15,0,0,1-.3-.28,1,1,0,0,1-.18-.36,1.75,1.75,0,0,1-.07-.49,1.4,1.4,0,0,1,.15-.66,1.27,1.27,0,0,1,.38-.45,1.64,1.64,0,0,1,.55-.26,2.67,2.67,0,0,1,.64-.08,3.23,3.23,0,0,1,.53,0,5,5,0,0,1,.52.14v1.09a1.69,1.69,0,0,0-.49-.23,1.51,1.51,0,0,0-.51-.08l-.23,0a.75.75,0,0,0-.18.07.5.5,0,0,0-.13.12.33.33,0,0,0,0,.17.32.32,0,0,0,.07.22.45.45,0,0,0,.18.15l.24.12.27.1a3.61,3.61,0,0,1,.44.22,1.27,1.27,0,0,1,.55.63,1.75,1.75,0,0,1-.08,1.2,1.31,1.31,0,0,1-.4.47,1.8,1.8,0,0,1-.58.26,3,3,0,0,1-.68.08A3.17,3.17,0,0,1,180.33,54.54Z"/><path class="cls-1" d="M187.55,52.78H185a1,1,0,0,0,1.07,1,1.89,1.89,0,0,0,1.14-.36v1a2.58,2.58,0,0,1-1.41.34,1.82,1.82,0,0,1-1.47-.61,2.55,2.55,0,0,1-.53-1.71,2.71,2.71,0,0,1,.57-1.81,1.77,1.77,0,0,1,1.39-.66,1.59,1.59,0,0,1,1.32.59,2.49,2.49,0,0,1,.47,1.61Zm-1.12-.87c0-.65-.22-1-.68-1a.61.61,0,0,0-.5.28,1.4,1.4,0,0,0-.26.7Z"/><path class="cls-1" d="M192.05,54.66h-1.2V52.12c0-.71-.22-1.06-.65-1.06a.62.62,0,0,0-.52.28,1.22,1.22,0,0,0-.2.71v2.61h-1.21V50.09h1.21v.72h0a1.35,1.35,0,0,1,1.25-.83c.87,0,1.3.63,1.3,1.88Z"/><path class="cls-1" d="M195.38,54.61a1.59,1.59,0,0,1-.81.16c-.85,0-1.28-.51-1.28-1.55V51.13h-.63v-1h.63v-1l1.21-.4v1.39h.88v1h-.88V53c0,.47.16.71.48.71a.73.73,0,0,0,.4-.13Z"/><path class="cls-1" d="M196.6,54.77a.66.66,0,0,1-.5-.21.8.8,0,0,1,0-1.06.73.73,0,0,1,.51-.2.66.66,0,0,1,.51.21.72.72,0,0,1,.2.52.72.72,0,0,1-.2.53A.7.7,0,0,1,196.6,54.77Z"/><path class="cls-1" d="M207.22,54.66H205.8L205,53l-.19-.33a1.8,1.8,0,0,0-.18-.25.65.65,0,0,0-.18-.16.43.43,0,0,0-.22-.06h-.33v2.45h-1.23v-6.4h2c1.33,0,2,.58,2,1.74a2.06,2.06,0,0,1-.09.62,1.73,1.73,0,0,1-.25.51,1.56,1.56,0,0,1-.38.39,1.89,1.89,0,0,1-.51.26v0a1,1,0,0,1,.24.14,2.61,2.61,0,0,1,.22.24,2.11,2.11,0,0,1,.2.29,2.38,2.38,0,0,1,.18.3Zm-3.37-5.32v1.78h.54a.82.82,0,0,0,.64-.27,1,1,0,0,0,.24-.67.75.75,0,0,0-.86-.84Z"/><path class="cls-1" d="M210.93,52.78h-2.55a1,1,0,0,0,1.07,1,1.89,1.89,0,0,0,1.14-.36v1a2.58,2.58,0,0,1-1.41.34,1.82,1.82,0,0,1-1.47-.61,2.55,2.55,0,0,1-.53-1.71,2.71,2.71,0,0,1,.57-1.81,1.77,1.77,0,0,1,1.39-.66,1.59,1.59,0,0,1,1.32.59,2.49,2.49,0,0,1,.47,1.61Zm-1.12-.87c0-.65-.22-1-.68-1a.61.61,0,0,0-.5.28,1.4,1.4,0,0,0-.26.7Z"/><path class="cls-1" d="M215.38,50.09l-1.46,4.57h-1.37l-1.39-4.57h1.29l.68,2.82a5.11,5.11,0,0,1,.14.81h0a7.06,7.06,0,0,1,.14-.79l.7-2.84Z"/><path class="cls-1" d="M216.51,49.37a.62.62,0,0,1-.5-.22.73.73,0,0,1-.2-.52.69.69,0,0,1,.2-.51.63.63,0,0,1,.5-.2.65.65,0,0,1,.5.2.69.69,0,0,1,.19.51.73.73,0,0,1-.19.53A.66.66,0,0,1,216.51,49.37Zm.59,5.29h-1.2V50.09h1.2Z"/><path class="cls-1" d="M221.64,52.78h-2.56a1,1,0,0,0,1.08,1,1.84,1.84,0,0,0,1.13-.36v1a2.58,2.58,0,0,1-1.41.34,1.82,1.82,0,0,1-1.47-.61,2.55,2.55,0,0,1-.52-1.71,2.76,2.76,0,0,1,.56-1.81,1.79,1.79,0,0,1,1.4-.66,1.59,1.59,0,0,1,1.32.59,2.55,2.55,0,0,1,.47,1.61Zm-1.12-.87c0-.65-.23-1-.68-1a.6.6,0,0,0-.5.28,1.32,1.32,0,0,0-.26.7Z"/><path class="cls-1" d="M228,50.09l-1.13,4.57h-1.27L225.05,52a3.44,3.44,0,0,1-.06-.58h0a4.65,4.65,0,0,1-.08.56l-.62,2.7H223l-1.11-4.57h1.23l.54,3a3.25,3.25,0,0,1,.06.51h0a3.42,3.42,0,0,1,.07-.53l.67-3h1.15l.61,3c0,.08,0,.25.05.52h0a4.6,4.6,0,0,1,.06-.52l.51-3Z"/><path class="cls-1" d="M234.6,54.14a2.84,2.84,0,0,1-.63,2,2.36,2.36,0,0,1-1.83.7,2.47,2.47,0,0,1-1.25-.27V55.36a2.18,2.18,0,0,0,1.22.41,1.23,1.23,0,0,0,.95-.38,1.49,1.49,0,0,0,.33-1V54h0a1.32,1.32,0,0,1-1.22.77,1.38,1.38,0,0,1-1.19-.61,2.77,2.77,0,0,1-.44-1.66,3.09,3.09,0,0,1,.49-1.84,1.51,1.51,0,0,1,1.29-.68,1.15,1.15,0,0,1,1.07.64h0v-.53h1.21Zm-1.19-1.68V52.1a1.29,1.29,0,0,0-.22-.74.69.69,0,0,0-.57-.3.71.71,0,0,0-.63.36,1.91,1.91,0,0,0-.23,1,1.66,1.66,0,0,0,.21.9.69.69,0,0,0,.6.33.71.71,0,0,0,.61-.34A1.56,1.56,0,0,0,233.41,52.46Z"/><path class="cls-1" d="M239.33,54.66h-1.2V54h0a1.35,1.35,0,0,1-1.2.81c-.91,0-1.36-.64-1.36-1.92V50.09h1.2v2.63c0,.65.22,1,.66,1a.62.62,0,0,0,.52-.26,1.2,1.2,0,0,0,.2-.72V50.09h1.2Z"/><path class="cls-1" d="M241,49.37a.62.62,0,0,1-.5-.22.73.73,0,0,1-.2-.52.69.69,0,0,1,.2-.51.73.73,0,0,1,1,0,.69.69,0,0,1,.19.51.73.73,0,0,1-.19.53A.64.64,0,0,1,241,49.37Zm.59,5.29h-1.2V50.09h1.2Z"/><path class="cls-1" d="M246.4,54.66h-1.21V54h0a1.32,1.32,0,0,1-1.21.74,1.39,1.39,0,0,1-1.18-.6,2.8,2.8,0,0,1-.45-1.69,3,3,0,0,1,.49-1.82,1.53,1.53,0,0,1,1.29-.68,1.07,1.07,0,0,1,1.06.63h0V47.89h1.21Zm-1.18-2.22v-.35a1.27,1.27,0,0,0-.22-.74.71.71,0,0,0-.58-.29.7.7,0,0,0-.63.37,1.92,1.92,0,0,0-.22,1,1.73,1.73,0,0,0,.21.93.72.72,0,0,0,1.21,0A1.63,1.63,0,0,0,245.22,52.44Z"/><path class="cls-1" d="M250.94,52.78h-2.56a1,1,0,0,0,1.08,1,1.84,1.84,0,0,0,1.13-.36v1a2.58,2.58,0,0,1-1.41.34,1.82,1.82,0,0,1-1.47-.61,2.55,2.55,0,0,1-.52-1.71,2.76,2.76,0,0,1,.56-1.81,1.77,1.77,0,0,1,1.39-.66,1.61,1.61,0,0,1,1.33.59,2.55,2.55,0,0,1,.47,1.61Zm-1.12-.87c0-.65-.23-1-.68-1a.63.63,0,0,0-.51.28,1.4,1.4,0,0,0-.25.7Z"/><path class="cls-1" d="M252.86,54.66h-1.2V47.89h1.2Z"/><path class="cls-1" d="M254.49,49.37a.63.63,0,0,1-.5-.22.73.73,0,0,1-.19-.52.69.69,0,0,1,.19-.51.65.65,0,0,1,.5-.2.66.66,0,0,1,.51.2.69.69,0,0,1,.19.51.73.73,0,0,1-.19.53A.66.66,0,0,1,254.49,49.37Zm.6,5.29h-1.21V50.09h1.21Z"/><path class="cls-1" d="M259.89,54.66h-1.21V52.12c0-.71-.21-1.06-.65-1.06a.59.59,0,0,0-.51.28,1.15,1.15,0,0,0-.21.71v2.61h-1.2V50.09h1.2v.72h0a1.37,1.37,0,0,1,1.26-.83c.86,0,1.3.63,1.3,1.88Z"/><path class="cls-1" d="M264.36,52.78h-2.55a1,1,0,0,0,1.07,1,1.89,1.89,0,0,0,1.14-.36v1a2.61,2.61,0,0,1-1.41.34,1.83,1.83,0,0,1-1.48-.61,2.61,2.61,0,0,1-.52-1.71,2.71,2.71,0,0,1,.57-1.81,1.75,1.75,0,0,1,1.39-.66,1.59,1.59,0,0,1,1.32.59,2.49,2.49,0,0,1,.47,1.61Zm-1.12-.87c0-.65-.23-1-.68-1a.61.61,0,0,0-.5.28,1.4,1.4,0,0,0-.26.7Z"/><path class="cls-1" d="M264.82,54.54V53.4a2.45,2.45,0,0,0,.6.31,1.66,1.66,0,0,0,.56.1,1.08,1.08,0,0,0,.51-.1.33.33,0,0,0,.18-.31.36.36,0,0,0-.08-.23.71.71,0,0,0-.22-.15,1.26,1.26,0,0,0-.29-.12l-.3-.12a3.81,3.81,0,0,1-.41-.22,1.15,1.15,0,0,1-.3-.28,1,1,0,0,1-.18-.36,1.45,1.45,0,0,1-.07-.49,1.4,1.4,0,0,1,.15-.66,1.27,1.27,0,0,1,.38-.45,1.64,1.64,0,0,1,.55-.26,2.61,2.61,0,0,1,.64-.08,3,3,0,0,1,.52,0,4.58,4.58,0,0,1,.53.14v1.09a1.69,1.69,0,0,0-.49-.23,1.55,1.55,0,0,0-.51-.08l-.23,0a.75.75,0,0,0-.18.07.38.38,0,0,0-.13.12.34.34,0,0,0-.05.17.38.38,0,0,0,.07.22.65.65,0,0,0,.18.15l.25.12.27.1a3.61,3.61,0,0,1,.44.22,1.09,1.09,0,0,1,.33.27,1.07,1.07,0,0,1,.21.36,1.66,1.66,0,0,1-.07,1.2,1.41,1.41,0,0,1-.4.47,1.8,1.8,0,0,1-.58.26,3.08,3.08,0,0,1-.68.08A3.17,3.17,0,0,1,264.82,54.54Z"/><path class="cls-1" d="M273.94,54.66H272.8V54h0a1.24,1.24,0,0,1-1.16.77,1.11,1.11,0,0,1-.9-.38,1.45,1.45,0,0,1-.33-1,1.41,1.41,0,0,1,1.35-1.54l1.07-.16c0-.5-.23-.75-.7-.75a2.15,2.15,0,0,0-1.33.48V50.36a2.91,2.91,0,0,1,.69-.27,3.48,3.48,0,0,1,.8-.11c1.11,0,1.67.65,1.67,2Zm-1.13-1.86v-.3l-.71.1c-.4.06-.59.27-.59.62a.54.54,0,0,0,.14.4.53.53,0,0,0,.39.15.66.66,0,0,0,.55-.27A1.09,1.09,0,0,0,272.81,52.8Z"/><path class="cls-1" d="M277.26,54.61a1.52,1.52,0,0,1-.8.16c-.85,0-1.28-.51-1.28-1.55V51.13h-.63v-1h.63v-1l1.21-.4v1.39h.87v1h-.87V53c0,.47.16.71.48.71a.67.67,0,0,0,.39-.13Z"/><path class="cls-1" d="M278.49,51.5a.66.66,0,0,1-.5-.21.79.79,0,0,1,0-1,.69.69,0,0,1,.51-.2.69.69,0,0,1,.51.2.76.76,0,0,1,.2.53.74.74,0,0,1-.2.53A.69.69,0,0,1,278.49,51.5Zm0,3.27a.66.66,0,0,1-.5-.21.8.8,0,0,1,0-1.06.73.73,0,0,1,.51-.2.66.66,0,0,1,.51.21.72.72,0,0,1,.2.52.72.72,0,0,1-.2.53A.7.7,0,0,1,278.49,54.77Z"/><path class="cls-1" d="M120.83,63.25a6.61,6.61,0,0,1-.14,1l-.54,2.93h-1.07l.55-3a6.14,6.14,0,0,0,.09-.66c0-.46-.18-.69-.55-.69a1,1,0,0,0-.61.26,2.6,2.6,0,0,0-.56.69,2.51,2.51,0,0,0-.33.87l-.48,2.54h-1.08l1.44-7.7h1.07L118,63.09h0a3,3,0,0,1,.81-.91,1.52,1.52,0,0,1,.9-.33,1,1,0,0,1,.86.37A1.66,1.66,0,0,1,120.83,63.25Z"/><path class="cls-1" d="M124.48,62.92h-1.1l-.44,2.35a5,5,0,0,0-.08.6.48.48,0,0,0,.1.34.41.41,0,0,0,.3.1,1.72,1.72,0,0,0,.62-.18l-.17,1a2,2,0,0,1-.88.2c-.71,0-1.06-.39-1.06-1.17a3.76,3.76,0,0,1,.1-.77l.44-2.42h-.73l.2-.94h.7l.24-1.24,1.13-.34L123.56,62h1.11Z"/><path class="cls-1" d="M127.66,62.92h-1.11l-.43,2.35a3.46,3.46,0,0,0-.08.6.53.53,0,0,0,.09.34.44.44,0,0,0,.31.1,1.83,1.83,0,0,0,.62-.18l-.18,1a2,2,0,0,1-.88.2q-1.05,0-1-1.17a4.43,4.43,0,0,1,.09-.77l.45-2.42h-.73L125,62h.71l.24-1.24L127,60.4,126.74,62h1.11Z"/><path class="cls-1" d="M132.43,63.79a4.46,4.46,0,0,1-.36,1.78,3.1,3.1,0,0,1-1,1.28,2.4,2.4,0,0,1-1.42.45,2.72,2.72,0,0,1-.86-.14l-.45,2.42h-1.08l1.1-5.94c0-.18.07-.44.11-.8s.07-.64.08-.86h1.06a3.91,3.91,0,0,1,0,.47c0,.22,0,.4-.06.52h0a1.8,1.8,0,0,1,1.55-1.12,1.16,1.16,0,0,1,1,.52A2.55,2.55,0,0,1,132.43,63.79Zm-1.07.11a1.47,1.47,0,0,0-.19-.81.58.58,0,0,0-.52-.27.94.94,0,0,0-.6.26,2.4,2.4,0,0,0-.52.77,4.92,4.92,0,0,0-.33,1.05l-.26,1.35a2.68,2.68,0,0,0,.33.09,2.1,2.1,0,0,0,.41,0,1.27,1.27,0,0,0,.86-.34,2.3,2.3,0,0,0,.6-.92A3.52,3.52,0,0,0,131.36,63.9Z"/><path class="cls-1" d="M134.13,66.59a.72.72,0,0,1-.19.51.65.65,0,0,1-.47.2.63.63,0,0,1-.46-.19.66.66,0,0,1-.19-.49.73.73,0,0,1,.2-.51.6.6,0,0,1,.48-.21.59.59,0,0,1,.45.2A.71.71,0,0,1,134.13,66.59Zm.74-4a.73.73,0,0,1-.19.52.66.66,0,0,1-.49.2.59.59,0,0,1-.45-.2.68.68,0,0,1-.18-.48.7.7,0,0,1,.19-.51.63.63,0,0,1,.48-.21.59.59,0,0,1,.45.2A.65.65,0,0,1,134.87,62.57Z"/><path class="cls-1" d="M135.18,68.38H134.1l4.65-8.48h1.07Z"/><path class="cls-1" d="M139,68.38h-1.08l4.65-8.48h1.07Z"/><path class="cls-1" d="M147.54,67.18h-1.08l-.18-3.27v-.34c0-.11,0-.23,0-.36h0a3.43,3.43,0,0,1-.2.59l-1.49,3.38h-1.1l-.35-5.2h1l.11,3.63v.06a3.87,3.87,0,0,1,0,.48h0c.07-.24.12-.39.14-.44S145,64.42,146,62h1l.17,3.86a2.67,2.67,0,0,1,0,.32h0a5.51,5.51,0,0,1,.22-.63L148.79,62h1.05Z"/><path class="cls-1" d="M154.43,67.18h-1.08l-.18-3.27v-.34a2.38,2.38,0,0,1,0-.36h0a3.43,3.43,0,0,1-.2.59l-1.49,3.38h-1.1L150,62h1l.11,3.63v.06a3.87,3.87,0,0,1,0,.48h0c.07-.24.12-.39.14-.44L152.92,62h1l.17,3.86a2.67,2.67,0,0,1,0,.32h0a5.51,5.51,0,0,1,.22-.63L155.68,62h1Z"/><path class="cls-1" d="M161.33,67.18h-1.09l-.18-3.27v-.34a2.38,2.38,0,0,1,0-.36h0a3.43,3.43,0,0,1-.2.59l-1.48,3.38h-1.11l-.35-5.2h1l.11,3.63v.06a3.87,3.87,0,0,1,0,.48h0c.08-.24.12-.39.14-.44L159.81,62h1l.17,3.86a2.67,2.67,0,0,1,0,.32h0a5.51,5.51,0,0,1,.22-.63L162.57,62h1.05Z"/><path class="cls-1" d="M164.21,66.59a.72.72,0,0,1-.19.51.65.65,0,0,1-.47.2.63.63,0,0,1-.46-.19.66.66,0,0,1-.19-.49.76.76,0,0,1,.19-.51.64.64,0,0,1,.49-.21.59.59,0,0,1,.45.2A.71.71,0,0,1,164.21,66.59Z"/><path class="cls-1" d="M169,63.21a1.47,1.47,0,0,0-.42-.28,1.42,1.42,0,0,0-.55-.11,1.19,1.19,0,0,0-.77.29,2,2,0,0,0-.57.82,2.84,2.84,0,0,0-.23,1.12,1.62,1.62,0,0,0,.25,1,.83.83,0,0,0,.71.32,1.63,1.63,0,0,0,.58-.12,2.63,2.63,0,0,0,.55-.31l-.18,1a2.44,2.44,0,0,1-1.26.37,1.51,1.51,0,0,1-1.26-.56,2.41,2.41,0,0,1-.46-1.57,4,4,0,0,1,.34-1.67,2.91,2.91,0,0,1,.95-1.21,2.39,2.39,0,0,1,2-.35,1.46,1.46,0,0,1,.5.23Z"/><path class="cls-1" d="M173.28,67.18h-1.09c0-.16,0-.49.08-1h0a2.83,2.83,0,0,1-.66.83,1.22,1.22,0,0,1-.78.26,1.19,1.19,0,0,1-1-.51,2.51,2.51,0,0,1-.36-1.45,4.22,4.22,0,0,1,.37-1.77,3,3,0,0,1,1-1.27,2.51,2.51,0,0,1,1.47-.45,2.55,2.55,0,0,1,.74.1l.47-2.47h1.05l-1.11,6c0,.18-.07.44-.11.8S173.28,67,173.28,67.18Zm-.41-4.32a2.18,2.18,0,0,0-.6-.09,1.37,1.37,0,0,0-.9.31,2,2,0,0,0-.62.91,3.45,3.45,0,0,0-.24,1.27,1.44,1.44,0,0,0,.18.8.56.56,0,0,0,.51.27,1,1,0,0,0,.84-.57,4.21,4.21,0,0,0,.58-1.56Z"/><path class="cls-1" d="M178.21,63.21a1.81,1.81,0,0,0-.42-.28,1.47,1.47,0,0,0-.56-.11,1.19,1.19,0,0,0-.77.29,2.06,2.06,0,0,0-.57.82,2.83,2.83,0,0,0-.22,1.12,1.55,1.55,0,0,0,.25,1,.8.8,0,0,0,.7.32,1.58,1.58,0,0,0,.58-.12,3,3,0,0,0,.56-.31l-.19,1a2.43,2.43,0,0,1-1.25.37,1.54,1.54,0,0,1-1.27-.56,2.47,2.47,0,0,1-.46-1.57,4,4,0,0,1,.35-1.67,2.76,2.76,0,0,1,.95-1.21,2.34,2.34,0,0,1,1.38-.44,2.43,2.43,0,0,1,.65.09,1.4,1.4,0,0,1,.49.23Z"/><path class="cls-1" d="M179.76,66.59a.72.72,0,0,1-.19.51.66.66,0,0,1-.94,0,.69.69,0,0,1-.18-.49.72.72,0,0,1,.19-.51.64.64,0,0,1,.49-.21.59.59,0,0,1,.45.2A.71.71,0,0,1,179.76,66.59Z"/><path class="cls-1" d="M181.85,69.62a2.78,2.78,0,0,1-1.41-.39l.19-1a2.21,2.21,0,0,0,1.3.47,1.45,1.45,0,0,0,1.09-.43,2.77,2.77,0,0,0,.58-1.39l.11-.63h0a2.8,2.8,0,0,1-.68.84,1.24,1.24,0,0,1-.75.24,1.18,1.18,0,0,1-1-.51,2.47,2.47,0,0,1-.36-1.44,4.2,4.2,0,0,1,.37-1.78,3,3,0,0,1,1-1.27,2.51,2.51,0,0,1,1.47-.45,8.43,8.43,0,0,1,1.79.24l-.84,4.59a5.51,5.51,0,0,1-.56,1.71,2.37,2.37,0,0,1-.91.92A2.93,2.93,0,0,1,181.85,69.62Zm2.49-6.77a2.64,2.64,0,0,0-.68-.08,1.25,1.25,0,0,0-.85.34,2.09,2.09,0,0,0-.61.91,3.33,3.33,0,0,0-.22,1.24,1.46,1.46,0,0,0,.18.8.54.54,0,0,0,.48.27.9.9,0,0,0,.59-.24,2,2,0,0,0,.51-.76,4,4,0,0,0,.33-1.07Z"/><path class="cls-1" d="M190.49,64a4.41,4.41,0,0,1-.33,1.73,2.71,2.71,0,0,1-.91,1.19,2.25,2.25,0,0,1-1.35.41,1.69,1.69,0,0,1-1.35-.56,2.26,2.26,0,0,1-.49-1.56,4.27,4.27,0,0,1,.33-1.71,2.88,2.88,0,0,1,.91-1.2,2.26,2.26,0,0,1,1.36-.42,1.69,1.69,0,0,1,1.34.57A2.29,2.29,0,0,1,190.49,64Zm-1.08,0a1.48,1.48,0,0,0-.22-.86.71.71,0,0,0-.61-.32,1,1,0,0,0-.73.32,2.2,2.2,0,0,0-.52.86,3.4,3.4,0,0,0-.19,1.16,1.44,1.44,0,0,0,.22.86.72.72,0,0,0,.62.31,1,1,0,0,0,.74-.31,2.07,2.07,0,0,0,.51-.86A3.71,3.71,0,0,0,189.41,64Z"/><path class="cls-1" d="M192.93,67.18h-1.09l-.66-5.2h1.07l.29,3.08a8.4,8.4,0,0,1,.05.85v.15h0c.13-.35.27-.68.41-1L194.44,62h1.18Z"/><path class="cls-1" d="M195.41,68.38h-1.08L199,59.9h1.08Z"/><path class="cls-1" d="M202.94,63.21a1.81,1.81,0,0,0-.42-.28,1.43,1.43,0,0,0-.56-.11,1.21,1.21,0,0,0-.77.29,2.06,2.06,0,0,0-.57.82,2.83,2.83,0,0,0-.22,1.12,1.55,1.55,0,0,0,.25,1,.81.81,0,0,0,.7.32,1.58,1.58,0,0,0,.58-.12,2.71,2.71,0,0,0,.56-.31l-.19,1a2.43,2.43,0,0,1-1.25.37,1.54,1.54,0,0,1-1.27-.56,2.46,2.46,0,0,1-.45-1.57,4,4,0,0,1,.34-1.67,2.83,2.83,0,0,1,1-1.21,2.34,2.34,0,0,1,1.38-.44,2.43,2.43,0,0,1,.65.09,1.56,1.56,0,0,1,.5.23Z"/><path class="cls-1" d="M207.76,64a4.41,4.41,0,0,1-.33,1.73,2.73,2.73,0,0,1-.92,1.19,2.25,2.25,0,0,1-1.35.41,1.69,1.69,0,0,1-1.35-.56,2.31,2.31,0,0,1-.49-1.56,4.27,4.27,0,0,1,.33-1.71,2.9,2.9,0,0,1,.92-1.2,2.26,2.26,0,0,1,1.35-.42,1.69,1.69,0,0,1,1.34.57A2.29,2.29,0,0,1,207.76,64Zm-1.09,0a1.48,1.48,0,0,0-.22-.86.7.7,0,0,0-.61-.32,1,1,0,0,0-.73.32,2.2,2.2,0,0,0-.52.86,3.66,3.66,0,0,0-.19,1.16,1.44,1.44,0,0,0,.23.86.7.7,0,0,0,.61.31A1,1,0,0,0,206,66a2.07,2.07,0,0,0,.51-.86A3.71,3.71,0,0,0,206.67,64Z"/><path class="cls-1" d="M211.61,63.16a1,1,0,0,0-.52-.16,1.05,1.05,0,0,0-.84.53A3.49,3.49,0,0,0,209.7,65l-.41,2.23h-1.08l.64-3.38a17.41,17.41,0,0,0,.26-1.82h1.06c0,.33-.07.69-.13,1.1h0a3.59,3.59,0,0,1,.59-.9,1,1,0,0,1,.72-.33,1.78,1.78,0,0,1,.45.08Z"/><path class="cls-1" d="M216.16,64a4.41,4.41,0,0,1-.33,1.73,2.71,2.71,0,0,1-.91,1.19,2.25,2.25,0,0,1-1.35.41,1.69,1.69,0,0,1-1.35-.56,2.26,2.26,0,0,1-.49-1.56,4.27,4.27,0,0,1,.33-1.71,2.8,2.8,0,0,1,.91-1.2,2.26,2.26,0,0,1,1.35-.42,1.67,1.67,0,0,1,1.34.57A2.24,2.24,0,0,1,216.16,64Zm-1.08,0a1.56,1.56,0,0,0-.22-.86.71.71,0,0,0-.61-.32,1.06,1.06,0,0,0-.74.32A2.07,2.07,0,0,0,213,64a3.4,3.4,0,0,0-.19,1.16A1.44,1.44,0,0,0,213,66a.71.71,0,0,0,.61.31,1.05,1.05,0,0,0,.75-.31,2.07,2.07,0,0,0,.51-.86A3.71,3.71,0,0,0,215.08,64Z"/><path class="cls-1" d="M221.35,63.25a5.85,5.85,0,0,1-.14,1l-.54,2.93H219.6l.55-3a6.14,6.14,0,0,0,.09-.66.85.85,0,0,0-.14-.5.5.5,0,0,0-.4-.19,1,1,0,0,0-.61.26,2.5,2.5,0,0,0-.57.69,3,3,0,0,0-.33.85l-.47,2.56h-1.09l.69-3.64q.17-.87.24-1.56h1.05c0,.29-.07.66-.14,1.12h0a2.73,2.73,0,0,1,.81-.92,1.52,1.52,0,0,1,.9-.33,1,1,0,0,1,.85.36A1.59,1.59,0,0,1,221.35,63.25Z"/><path class="cls-1" d="M225.9,67.18h-1.08c0-.09,0-.24,0-.47s0-.4.06-.52h0a4.61,4.61,0,0,1-.48.68,1.45,1.45,0,0,1-.44.32,1.17,1.17,0,0,1-.53.11,1.14,1.14,0,0,1-1-.52,2.53,2.53,0,0,1-.36-1.45,4.28,4.28,0,0,1,.39-1.79,2.83,2.83,0,0,1,1-1.27,2.72,2.72,0,0,1,1.51-.42,6.84,6.84,0,0,1,1.7.25l-.62,3.39a7.53,7.53,0,0,0-.12.88A7.66,7.66,0,0,0,225.9,67.18Zm-.4-4.33a2.37,2.37,0,0,0-.61-.08,1.44,1.44,0,0,0-.9.3,2.22,2.22,0,0,0-.62.92,3.71,3.71,0,0,0-.23,1.28,1.47,1.47,0,0,0,.17.79.55.55,0,0,0,.5.27,1.05,1.05,0,0,0,.86-.57,3.87,3.87,0,0,0,.56-1.52Z"/><path class="cls-1" d="M229.22,67.18h-1.09l-.66-5.2h1.07l.29,3.08a6.24,6.24,0,0,1,0,.85v.15h0c.13-.35.27-.68.41-1L230.73,62h1.19Z"/><path class="cls-1" d="M232.88,67.26a.94.94,0,0,1-.74-.28,1.15,1.15,0,0,1-.26-.8,3,3,0,0,1,.05-.52L232.6,62h1.07l-.6,3.27a5.06,5.06,0,0,0-.09.66.33.33,0,0,0,.38.38.91.91,0,0,0,.41-.08l-.17.94A2.74,2.74,0,0,1,232.88,67.26Zm1.21-7a.68.68,0,0,1-.19.5.59.59,0,0,1-.46.2.62.62,0,0,1-.64-.66.67.67,0,0,1,.2-.5.63.63,0,0,1,.47-.2.61.61,0,0,1,.44.19A.64.64,0,0,1,234.09,60.22Z"/><path class="cls-1" d="M237.65,63.16a1,1,0,0,0-.52-.16,1.05,1.05,0,0,0-.84.53,3.64,3.64,0,0,0-.55,1.42l-.41,2.23h-1.07l.63-3.38a17.41,17.41,0,0,0,.26-1.82h1.06c0,.33-.07.69-.12,1.1h0a3.59,3.59,0,0,1,.59-.9,1,1,0,0,1,.73-.33,1.79,1.79,0,0,1,.44.08Z"/><path class="cls-1" d="M241.73,67.18h-1.06l.13-1.1h0a3.24,3.24,0,0,1-.81.9,1.48,1.48,0,0,1-.9.32,1.07,1.07,0,0,1-.87-.36,1.67,1.67,0,0,1-.29-1,6.89,6.89,0,0,1,.13-1L238.6,62h1.07l-.55,3a5.75,5.75,0,0,0-.1.68.78.78,0,0,0,.14.48.46.46,0,0,0,.4.18,1,1,0,0,0,.62-.26,2.28,2.28,0,0,0,.58-.7,2.79,2.79,0,0,0,.32-.87l.47-2.5h1.08L242,65.47Q241.81,66.41,241.73,67.18Z"/><path class="cls-1" d="M246.24,63.09a1.87,1.87,0,0,0-.47-.23,1.42,1.42,0,0,0-.53-.1.77.77,0,0,0-.56.18.64.64,0,0,0-.18.47.6.6,0,0,0,.15.42,2.07,2.07,0,0,0,.43.34,2.45,2.45,0,0,1,.79.71,1.42,1.42,0,0,1,.21.78,1.6,1.6,0,0,1-.22.86,1.5,1.5,0,0,1-.66.58,2.52,2.52,0,0,1-1,.2,3.78,3.78,0,0,1-.72-.08,2,2,0,0,1-.57-.21l.17-1a2.42,2.42,0,0,0,.58.29,2,2,0,0,0,.65.12.85.85,0,0,0,.58-.17.58.58,0,0,0,.19-.46.6.6,0,0,0-.13-.4,1.71,1.71,0,0,0-.51-.4,2.64,2.64,0,0,1-.73-.65,1.51,1.51,0,0,1-.23-.82,1.73,1.73,0,0,1,.22-.85,1.47,1.47,0,0,1,.62-.59,2,2,0,0,1,1-.22,3.5,3.5,0,0,1,.65.07,2.55,2.55,0,0,1,.53.17Z"/><path class="cls-1" d="M246.82,68.38h-1.08l4.65-8.48h1.08Z"/><path class="cls-1" d="M254,61.71a1,1,0,0,0-.24-.69.94.94,0,0,0-.69-.25,2,2,0,0,0-.87.21,3.18,3.18,0,0,0-.79.52l.23-1.2a2.74,2.74,0,0,1,1.71-.52,1.69,1.69,0,0,1,1.27.46,1.67,1.67,0,0,1,.47,1.25,2.85,2.85,0,0,1-.18,1,2.65,2.65,0,0,1-.53.87,7.91,7.91,0,0,1-1.25,1,8.74,8.74,0,0,0-1.22,1,1.51,1.51,0,0,0-.38.71h2.82l-.19,1h-4l.09-.45a3.11,3.11,0,0,1,.35-1,4,4,0,0,1,.65-.88,9.22,9.22,0,0,1,1.24-1,8.56,8.56,0,0,0,.91-.74,2.18,2.18,0,0,0,.45-.63A1.58,1.58,0,0,0,254,61.71Z"/><path class="cls-1" d="M260.15,62a9.29,9.29,0,0,1-.39,2.73,4.47,4.47,0,0,1-1.05,1.92,2,2,0,0,1-1.48.64,1.49,1.49,0,0,1-1.28-.65,3,3,0,0,1-.47-1.8,8.25,8.25,0,0,1,.39-2.55,4.59,4.59,0,0,1,1.07-1.87,2.12,2.12,0,0,1,1.51-.65,1.51,1.51,0,0,1,1.25.59A2.64,2.64,0,0,1,260.15,62Zm-1.06,0a2,2,0,0,0-.18-.94.6.6,0,0,0-.54-.33,1.06,1.06,0,0,0-.86.54,5,5,0,0,0-.68,1.65,8.19,8.19,0,0,0-.29,2,2.15,2.15,0,0,0,.2,1,.63.63,0,0,0,.58.37,1,1,0,0,0,.87-.6,6,6,0,0,0,.64-1.68A8.39,8.39,0,0,0,259.09,62Z"/><path class="cls-1" d="M261.28,67.18l1.13-6.07-1.49.41.2-1.05,2.6-.69-1.37,7.4Z"/><path class="cls-1" d="M268.85,62.4a7.26,7.26,0,0,1-.24,1.87,5.4,5.4,0,0,1-.69,1.58,3.34,3.34,0,0,1-1.08,1.07,2.82,2.82,0,0,1-1.47.38,2.87,2.87,0,0,1-.69-.07,1.46,1.46,0,0,1-.45-.15l.15-1a1.93,1.93,0,0,0,2.52-.43,4.1,4.1,0,0,0,.83-2h0a1.64,1.64,0,0,1-1.45.91,1.39,1.39,0,0,1-.86-.26,1.61,1.61,0,0,1-.57-.73,2.68,2.68,0,0,1-.2-1A3.25,3.25,0,0,1,265,61.1a2.31,2.31,0,0,1,.81-1,2,2,0,0,1,1.16-.34,1.67,1.67,0,0,1,1.42.71A3.22,3.22,0,0,1,268.85,62.4Zm-1-.3a1.71,1.71,0,0,0-.26-1,.78.78,0,0,0-.68-.37.92.92,0,0,0-.61.22,1.48,1.48,0,0,0-.42.6,2.49,2.49,0,0,0-.14.83,1.46,1.46,0,0,0,.24.88.79.79,0,0,0,.67.32,1,1,0,0,0,.62-.19,1.26,1.26,0,0,0,.43-.55A1.92,1.92,0,0,0,267.81,62.1Z"/><path class="cls-1" d="M272,64.79h-2.43l.17-.89h2.43Z"/><path class="cls-1" d="M120.85,75.72a7.42,7.42,0,0,1-.14,1l-.54,2.92h-1.08l.56-3c0-.36.08-.58.08-.66a.8.8,0,0,0-.14-.5.47.47,0,0,0-.39-.19,1,1,0,0,0-.61.26,2.5,2.5,0,0,0-.57.69,2.54,2.54,0,0,0-.33.86l-.48,2.55h-1.08l.69-3.64c.11-.58.18-1.1.24-1.56h1c0,.29-.07.66-.13,1.12h0a3.07,3.07,0,0,1,.81-.92,1.55,1.55,0,0,1,.91-.32,1,1,0,0,1,.85.36A1.56,1.56,0,0,1,120.85,75.72Z"/><path class="cls-1" d="M125.17,75.68a1.38,1.38,0,0,0-.42-.27,1.28,1.28,0,0,0-.56-.12,1.21,1.21,0,0,0-.77.29,2.06,2.06,0,0,0-.57.82,3,3,0,0,0-.22,1.12,1.55,1.55,0,0,0,.25,1,.82.82,0,0,0,.7.33,1.66,1.66,0,0,0,.59-.13,2.91,2.91,0,0,0,.55-.31l-.19,1a2.45,2.45,0,0,1-1.25.38,1.55,1.55,0,0,1-1.27-.57,2.46,2.46,0,0,1-.45-1.57A4,4,0,0,1,121.9,76a2.83,2.83,0,0,1,.95-1.21,2.33,2.33,0,0,1,1.38-.43,2.36,2.36,0,0,1,.65.08,1.56,1.56,0,0,1,.5.23Z"/><path class="cls-1" d="M130,76.45a4.36,4.36,0,0,1-.33,1.72,2.67,2.67,0,0,1-.92,1.19,2.26,2.26,0,0,1-1.35.42,1.7,1.7,0,0,1-1.35-.57,2.31,2.31,0,0,1-.49-1.56,4.27,4.27,0,0,1,.33-1.71,2.8,2.8,0,0,1,.92-1.19,2.26,2.26,0,0,1,1.35-.42,1.68,1.68,0,0,1,1.34.56A2.3,2.3,0,0,1,130,76.45Zm-1.09,0a1.52,1.52,0,0,0-.22-.87.7.7,0,0,0-.61-.32,1,1,0,0,0-.73.32,2.2,2.2,0,0,0-.52.86,3.66,3.66,0,0,0-.19,1.16,1.42,1.42,0,0,0,.23.86.71.71,0,0,0,.61.32,1.06,1.06,0,0,0,.74-.32,2.07,2.07,0,0,0,.51-.86A3.64,3.64,0,0,0,128.9,76.48Z"/><path class="cls-1" d="M132.43,79.65h-1.1l-.65-5.2h1.06l.3,3.08a8.45,8.45,0,0,1,0,.85v.15h0c.13-.35.26-.68.41-1l1.42-3.08h1.19Z"/><path class="cls-1" d="M134.91,80.86h-1.08l4.65-8.49h1.07Z"/><path class="cls-1" d="M143.37,75.73a7,7,0,0,1-.14,1l-.54,2.92h-1.07l.55-3a6.14,6.14,0,0,0,.09-.66c0-.46-.18-.69-.55-.69a1,1,0,0,0-.61.27,2.4,2.4,0,0,0-.56.68,2.59,2.59,0,0,0-.33.87l-.48,2.54h-1.08L140.09,72h1.07l-.67,3.6h0a3.31,3.31,0,0,1,.81-.91,1.5,1.5,0,0,1,.9-.32,1,1,0,0,1,.86.36A1.67,1.67,0,0,1,143.37,75.73Z"/><path class="cls-1" d="M147.69,75.68a1.51,1.51,0,0,0-.42-.27,1.31,1.31,0,0,0-.56-.12,1.19,1.19,0,0,0-.77.29,2.06,2.06,0,0,0-.57.82,2.83,2.83,0,0,0-.22,1.12,1.55,1.55,0,0,0,.25,1,.81.81,0,0,0,.7.33,1.61,1.61,0,0,0,.58-.13,3,3,0,0,0,.56-.31l-.19,1a2.45,2.45,0,0,1-1.25.38,1.55,1.55,0,0,1-1.27-.57,2.47,2.47,0,0,1-.46-1.57,4,4,0,0,1,.35-1.67,2.76,2.76,0,0,1,1-1.21,2.33,2.33,0,0,1,1.38-.43,2.41,2.41,0,0,1,.65.08,1.4,1.4,0,0,1,.49.23Z"/><path class="cls-1" d="M152.7,76.26a4.42,4.42,0,0,1-.36,1.78,3.1,3.1,0,0,1-1,1.28,2.32,2.32,0,0,1-1.42.46,2.47,2.47,0,0,1-.86-.15l-.45,2.42h-1.08l1.1-5.94a7.51,7.51,0,0,0,.12-.8c0-.35.06-.64.07-.86h1.06c0,.09,0,.25,0,.47s0,.4-.07.52h0a1.78,1.78,0,0,1,1.55-1.11,1.15,1.15,0,0,1,1,.51A2.55,2.55,0,0,1,152.7,76.26Zm-1.07.11a1.38,1.38,0,0,0-.19-.81.58.58,0,0,0-.52-.27.89.89,0,0,0-.59.26,2.36,2.36,0,0,0-.53.77,5.11,5.11,0,0,0-.33,1.05l-.26,1.35a1.59,1.59,0,0,0,.33.09,2.17,2.17,0,0,0,.41,0,1.32,1.32,0,0,0,.86-.34,2.45,2.45,0,0,0,.6-.92A3.62,3.62,0,0,0,151.63,76.37Z"/><path class="cls-1" d="M153.23,80.86h-1.08l4.65-8.49h1.07Z"/><path class="cls-1" d="M161.68,76.26a4.42,4.42,0,0,1-.36,1.78,3,3,0,0,1-1,1.28,2.32,2.32,0,0,1-1.42.46,2.47,2.47,0,0,1-.86-.15l-.45,2.42h-1.08l1.11-5.94c0-.17.07-.44.11-.8s.06-.64.07-.86h1.06c0,.09,0,.25,0,.47s-.05.4-.06.52h0a1.78,1.78,0,0,1,1.55-1.11,1.15,1.15,0,0,1,1,.51A2.47,2.47,0,0,1,161.68,76.26Zm-1.07.11a1.47,1.47,0,0,0-.18-.81.59.59,0,0,0-.52-.27.9.9,0,0,0-.6.26,2.35,2.35,0,0,0-.52.77,4.59,4.59,0,0,0-.34,1.05l-.25,1.35a1.46,1.46,0,0,0,.32.09,2.17,2.17,0,0,0,.41,0,1.3,1.3,0,0,0,.86-.34,2.23,2.23,0,0,0,.6-.92A3.39,3.39,0,0,0,160.61,76.37Z"/><path class="cls-1" d="M166.85,76.26a4.43,4.43,0,0,1-.37,1.78,3,3,0,0,1-1,1.28,2.31,2.31,0,0,1-1.41.46,2.53,2.53,0,0,1-.87-.15l-.45,2.42h-1.08l1.11-5.94c0-.17.07-.44.11-.8a8.36,8.36,0,0,0,.07-.86H164c0,.09,0,.25,0,.47s0,.4-.06.52h0a1.77,1.77,0,0,1,1.54-1.11,1.15,1.15,0,0,1,1,.51A2.47,2.47,0,0,1,166.85,76.26Zm-1.08.11a1.47,1.47,0,0,0-.18-.81.59.59,0,0,0-.52-.27.9.9,0,0,0-.6.26,2.35,2.35,0,0,0-.52.77,4.12,4.12,0,0,0-.33,1.05l-.26,1.35a1.46,1.46,0,0,0,.32.09,2.27,2.27,0,0,0,.41,0,1.28,1.28,0,0,0,.86-.34,2.23,2.23,0,0,0,.6-.92A3.39,3.39,0,0,0,165.77,76.37Z"/><path class="cls-1" d="M171.62,75.73a1.48,1.48,0,0,1-.77,1.38,4.89,4.89,0,0,1-2.32.47v.16a1.13,1.13,0,0,0,.27.81,1,1,0,0,0,.77.3,2.18,2.18,0,0,0,.72-.14,3.38,3.38,0,0,0,.71-.36l-.18,1a2.74,2.74,0,0,1-1.48.42,1.73,1.73,0,0,1-1.38-.57,2.31,2.31,0,0,1-.5-1.59A4.16,4.16,0,0,1,167.8,76a3,3,0,0,1,.94-1.21,2.24,2.24,0,0,1,1.33-.43,1.6,1.6,0,0,1,1.13.38A1.33,1.33,0,0,1,171.62,75.73Zm-1,0a.54.54,0,0,0-.16-.4.64.64,0,0,0-.45-.15,1.12,1.12,0,0,0-.85.44,2.21,2.21,0,0,0-.51,1.09C169.92,76.74,170.58,76.41,170.58,75.76Z"/><path class="cls-1" d="M174.72,77.26h-2.43l.17-.89h2.43Z"/><path class="cls-1" d="M178.82,75.56a1.87,1.87,0,0,0-.47-.23,1.66,1.66,0,0,0-.53-.1.77.77,0,0,0-.56.18.64.64,0,0,0-.18.47.6.6,0,0,0,.15.42,1.79,1.79,0,0,0,.43.34,2.57,2.57,0,0,1,.79.71,1.43,1.43,0,0,1,.21.79,1.58,1.58,0,0,1-.22.85,1.5,1.5,0,0,1-.66.58,2.34,2.34,0,0,1-1.05.21,3.07,3.07,0,0,1-.71-.09,2,2,0,0,1-.58-.21l.18-1a2.41,2.41,0,0,0,.58.28,1.85,1.85,0,0,0,.64.12.85.85,0,0,0,.58-.17.58.58,0,0,0,.2-.46.63.63,0,0,0-.14-.4,1.89,1.89,0,0,0-.51-.4,2.36,2.36,0,0,1-.73-.65A1.46,1.46,0,0,1,176,76a1.73,1.73,0,0,1,.21-.85,1.53,1.53,0,0,1,.62-.59,2.1,2.1,0,0,1,1-.21,3.49,3.49,0,0,1,.65.06,3.32,3.32,0,0,1,.53.17Z"/><path class="cls-1" d="M182.44,75.4h-1.1l-.44,2.35a4.63,4.63,0,0,0-.08.59.46.46,0,0,0,.1.34.38.38,0,0,0,.3.1,1.72,1.72,0,0,0,.62-.18l-.17,1a2.18,2.18,0,0,1-.88.19c-.71,0-1.06-.39-1.06-1.17a3.76,3.76,0,0,1,.1-.77l.44-2.41h-.73l.2-1h.7l.24-1.24,1.13-.34-.29,1.58h1.11Z"/><path class="cls-1" d="M185.91,75.63a1.11,1.11,0,0,0-.53-.16,1.08,1.08,0,0,0-.84.53,3.62,3.62,0,0,0-.54,1.43l-.41,2.22h-1.08l.63-3.38c.15-.84.24-1.45.27-1.82h1.06c0,.33-.08.7-.13,1.1h0a3.34,3.34,0,0,1,.59-.9.93.93,0,0,1,.72-.32,1.83,1.83,0,0,1,.45.07Z"/><path class="cls-1" d="M189.9,79.65h-1.09c0-.09,0-.24,0-.47a4.82,4.82,0,0,1,0-.52h0a3.18,3.18,0,0,1-.48.68,1.34,1.34,0,0,1-.44.32,1.12,1.12,0,0,1-.53.12,1.16,1.16,0,0,1-1-.53,2.51,2.51,0,0,1-.36-1.44,4.29,4.29,0,0,1,.39-1.8,2.9,2.9,0,0,1,1-1.27,2.73,2.73,0,0,1,1.52-.41,7.41,7.41,0,0,1,1.7.24L190.07,78c0,.24-.08.53-.12.88S189.9,79.46,189.9,79.65Zm-.41-4.33a2.31,2.31,0,0,0-.61-.08,1.36,1.36,0,0,0-.89.31,2,2,0,0,0-.62.91,3.52,3.52,0,0,0-.24,1.29,1.56,1.56,0,0,0,.17.78.57.57,0,0,0,.5.28,1.07,1.07,0,0,0,.87-.58,4.22,4.22,0,0,0,.56-1.51Z"/><path class="cls-1" d="M194.16,75.4h-1.1l-.44,2.35a4.63,4.63,0,0,0-.08.59.46.46,0,0,0,.1.34.38.38,0,0,0,.3.1,1.72,1.72,0,0,0,.62-.18l-.17,1a2.18,2.18,0,0,1-.88.19c-.71,0-1.06-.39-1.06-1.17a3.76,3.76,0,0,1,.1-.77L192,75.4h-.73l.2-1h.7l.24-1.24,1.13-.34-.29,1.58h1.11Z"/><path class="cls-1" d="M198.54,75.73a1.49,1.49,0,0,1-.76,1.38,4.92,4.92,0,0,1-2.32.47v.16a1.13,1.13,0,0,0,.27.81,1,1,0,0,0,.77.3,2.13,2.13,0,0,0,.72-.14,3.38,3.38,0,0,0,.71-.36l-.18,1a2.74,2.74,0,0,1-1.48.42,1.73,1.73,0,0,1-1.38-.57,2.31,2.31,0,0,1-.49-1.59,4.16,4.16,0,0,1,.33-1.65,3,3,0,0,1,.95-1.21,2.19,2.19,0,0,1,1.32-.43,1.58,1.58,0,0,1,1.13.38A1.33,1.33,0,0,1,198.54,75.73Zm-1,0a.51.51,0,0,0-.16-.4.64.64,0,0,0-.45-.15,1.12,1.12,0,0,0-.85.44,2.2,2.2,0,0,0-.5,1.09C196.85,76.74,197.5,76.41,197.5,75.76Z"/><path class="cls-1" d="M199.92,82.09a2.78,2.78,0,0,1-1.41-.39l.19-1a2.16,2.16,0,0,0,1.3.47,1.41,1.41,0,0,0,1.09-.43,2.77,2.77,0,0,0,.58-1.39l.11-.63h0a2.54,2.54,0,0,1-.67.84,1.27,1.27,0,0,1-.75.25,1.18,1.18,0,0,1-1-.51,2.51,2.51,0,0,1-.36-1.45,4.2,4.2,0,0,1,.37-1.78,2.94,2.94,0,0,1,1-1.27,2.49,2.49,0,0,1,1.46-.44,8.33,8.33,0,0,1,1.8.23l-.85,4.59a5.44,5.44,0,0,1-.55,1.71,2.44,2.44,0,0,1-.91.92A2.81,2.81,0,0,1,199.92,82.09Zm2.48-6.77a2.51,2.51,0,0,0-.67-.08,1.29,1.29,0,0,0-.85.34,2.19,2.19,0,0,0-.62.91,3.61,3.61,0,0,0-.22,1.25,1.44,1.44,0,0,0,.18.79.57.57,0,0,0,.49.28.93.93,0,0,0,.59-.25,2.17,2.17,0,0,0,.51-.75,5,5,0,0,0,.33-1.08Z"/><path class="cls-1" d="M203.7,82.09a1.67,1.67,0,0,1-.59-.11l.19-1a.74.74,0,0,0,.44.12,1.12,1.12,0,0,0,.95-.69l.46-.81-.86-5.17h1.12l.42,3.58,0,.33v.21h0a4.18,4.18,0,0,1,.21-.53l1.7-3.59h1.14l-3.06,5.86a4.37,4.37,0,0,1-1,1.37A1.76,1.76,0,0,1,203.7,82.09Z"/><path class="cls-1" d="M208.68,80.86H207.6l4.65-8.49h1.08Z"/><path class="cls-1" d="M216.2,72.94a1.12,1.12,0,0,0-.55-.14.61.61,0,0,0-.52.24,1.52,1.52,0,0,0-.28.71l-.13.7h1.05l-.18,1h-1.07l-1.12,6h-1.07l1.13-6h-.78l.18-1h.77l.17-.85a2.38,2.38,0,0,1,.64-1.34,1.72,1.72,0,0,1,1.22-.43,1.76,1.76,0,0,1,.71.13Z"/><path class="cls-1" d="M219.49,79.65H218.4c0-.09,0-.24,0-.47s0-.39,0-.52h0a3.18,3.18,0,0,1-.48.68,1.34,1.34,0,0,1-.44.32,1.12,1.12,0,0,1-.53.12,1.16,1.16,0,0,1-1-.53,2.51,2.51,0,0,1-.36-1.44A4.29,4.29,0,0,1,216,76a2.9,2.9,0,0,1,1-1.27,2.73,2.73,0,0,1,1.52-.41,7.41,7.41,0,0,1,1.7.24L219.66,78c0,.24-.08.53-.12.88S219.49,79.46,219.49,79.65Zm-.41-4.33a2.31,2.31,0,0,0-.61-.08,1.36,1.36,0,0,0-.89.31,2,2,0,0,0-.62.91,3.52,3.52,0,0,0-.24,1.29,1.56,1.56,0,0,0,.17.78.57.57,0,0,0,.5.28,1.07,1.07,0,0,0,.87-.58,4.22,4.22,0,0,0,.56-1.51Z"/><path class="cls-1" d="M224.42,75.68a1.51,1.51,0,0,0-.42-.27,1.31,1.31,0,0,0-.56-.12,1.21,1.21,0,0,0-.77.29,2.06,2.06,0,0,0-.57.82,2.83,2.83,0,0,0-.22,1.12,1.55,1.55,0,0,0,.25,1,.82.82,0,0,0,.7.33,1.61,1.61,0,0,0,.58-.13,3,3,0,0,0,.56-.31l-.19,1a2.45,2.45,0,0,1-1.25.38,1.55,1.55,0,0,1-1.27-.57,2.47,2.47,0,0,1-.46-1.57,4,4,0,0,1,.35-1.67,2.83,2.83,0,0,1,.95-1.21,2.33,2.33,0,0,1,1.38-.43,2.41,2.41,0,0,1,.65.08,1.56,1.56,0,0,1,.5.23Z"/><path class="cls-1" d="M229,75.73a1.47,1.47,0,0,1-.76,1.38,4.89,4.89,0,0,1-2.32.47v.16a1.09,1.09,0,0,0,.28.81,1,1,0,0,0,.76.3,2.24,2.24,0,0,0,.73-.14,3.3,3.3,0,0,0,.7-.36l-.18,1a2.71,2.71,0,0,1-1.48.42,1.73,1.73,0,0,1-1.38-.57,2.31,2.31,0,0,1-.49-1.59,4,4,0,0,1,.34-1.65,2.94,2.94,0,0,1,.94-1.21,2.19,2.19,0,0,1,1.32-.43,1.6,1.6,0,0,1,1.14.38A1.36,1.36,0,0,1,229,75.73Zm-1,0a.51.51,0,0,0-.16-.4.64.64,0,0,0-.45-.15,1.14,1.14,0,0,0-.85.44,2.29,2.29,0,0,0-.5,1.09C227.26,76.74,227.91,76.41,227.91,75.76Z"/><path class="cls-1" d="M232.06,77.26h-2.43l.17-.89h2.43Z"/><path class="cls-1" d="M240.38,75.73a7.56,7.56,0,0,1-.14,1l-.55,2.92h-1.06l.55-3a6.14,6.14,0,0,0,.09-.66c0-.46-.17-.69-.53-.69a1.19,1.19,0,0,0-.86.58,2.65,2.65,0,0,0-.58,1.22l-.47,2.56h-1.08l.56-3a6.14,6.14,0,0,0,.09-.66c0-.46-.17-.69-.53-.69a.92.92,0,0,0-.58.27,2.63,2.63,0,0,0-.55.7,2.79,2.79,0,0,0-.31.84L234,79.65h-1.08l.69-3.64c.11-.58.18-1.1.23-1.56h1.05c0,.29-.07.66-.13,1.12h0a3.31,3.31,0,0,1,.79-.92,1.42,1.42,0,0,1,.87-.32c.69,0,1.07.42,1.12,1.26a3.07,3.07,0,0,1,.82-.94,1.53,1.53,0,0,1,.92-.32,1,1,0,0,1,.85.36A1.65,1.65,0,0,1,240.38,75.73Z"/><path class="cls-1" d="M244.93,79.65h-1.09c0-.09,0-.24,0-.47a4.82,4.82,0,0,1,0-.52h0a4.11,4.11,0,0,1-.48.68,1.45,1.45,0,0,1-.44.32,1.15,1.15,0,0,1-.53.12,1.16,1.16,0,0,1-1-.53,2.51,2.51,0,0,1-.36-1.44,4.29,4.29,0,0,1,.39-1.8,2.83,2.83,0,0,1,1-1.27,2.73,2.73,0,0,1,1.52-.41,7.41,7.41,0,0,1,1.7.24L245.1,78c0,.24-.08.53-.12.88S244.93,79.46,244.93,79.65Zm-.41-4.33a2.37,2.37,0,0,0-.61-.08,1.34,1.34,0,0,0-.89.31,2,2,0,0,0-.63.91,3.73,3.73,0,0,0-.23,1.29,1.56,1.56,0,0,0,.17.78.56.56,0,0,0,.5.28,1,1,0,0,0,.86-.58,4,4,0,0,0,.57-1.51Z"/><path class="cls-1" d="M249.36,75.56a1.8,1.8,0,0,0-.46-.23,1.71,1.71,0,0,0-.54-.1.79.79,0,0,0-.56.18.64.64,0,0,0-.18.47.6.6,0,0,0,.15.42,1.87,1.87,0,0,0,.44.34,2.64,2.64,0,0,1,.78.71,1.44,1.44,0,0,1,.22.79A1.59,1.59,0,0,1,249,79a1.53,1.53,0,0,1-.65.58,2.41,2.41,0,0,1-1.06.21,3.07,3.07,0,0,1-.71-.09,2.1,2.1,0,0,1-.58-.21l.18-1a2.41,2.41,0,0,0,.58.28,1.9,1.9,0,0,0,.64.12.9.9,0,0,0,.59-.17.61.61,0,0,0,.19-.46.68.68,0,0,0-.13-.4,2.29,2.29,0,0,0-.51-.4,2.15,2.15,0,0,1-.73-.65,1.39,1.39,0,0,1-.23-.82,1.73,1.73,0,0,1,.21-.85,1.53,1.53,0,0,1,.62-.59,2.13,2.13,0,0,1,1-.21,3.49,3.49,0,0,1,.65.06,3.86,3.86,0,0,1,.54.17Z"/><path class="cls-1" d="M252.53,76.88l1.39,2.77h-1.2l-1.25-2.72h0l-.5,2.72h-1.08L251.31,72h1.07l-.88,4.72h0l2-2.23h1.31Z"/><path class="cls-1" d="M257.94,75.56a1.87,1.87,0,0,0-.47-.23,1.66,1.66,0,0,0-.53-.1.77.77,0,0,0-.56.18.64.64,0,0,0-.18.47.6.6,0,0,0,.15.42,1.79,1.79,0,0,0,.43.34,2.57,2.57,0,0,1,.79.71,1.43,1.43,0,0,1,.21.79,1.58,1.58,0,0,1-.22.85,1.5,1.5,0,0,1-.66.58,2.34,2.34,0,0,1-1,.21,3.07,3.07,0,0,1-.71-.09,2,2,0,0,1-.58-.21l.18-1a2.41,2.41,0,0,0,.58.28,1.85,1.85,0,0,0,.64.12.85.85,0,0,0,.58-.17.58.58,0,0,0,.2-.46.63.63,0,0,0-.14-.4,1.89,1.89,0,0,0-.51-.4,2.36,2.36,0,0,1-.73-.65,1.46,1.46,0,0,1-.22-.82,1.73,1.73,0,0,1,.21-.85,1.53,1.53,0,0,1,.62-.59,2.1,2.1,0,0,1,1-.21,3.49,3.49,0,0,1,.65.06,3.86,3.86,0,0,1,.54.17Z"/><path class="cls-1" d="M259.7,79.06a.69.69,0,0,1-.2.51.62.62,0,0,1-.47.2.6.6,0,0,1-.46-.19.68.68,0,0,1-.18-.48.73.73,0,0,1,.19-.52.66.66,0,0,1,.94,0A.71.71,0,0,1,259.7,79.06Z"/><path class="cls-1" d="M265.38,75.73a6.5,6.5,0,0,1-.13,1l-.54,2.92h-1.08l.56-3a5.11,5.11,0,0,0,.08-.66q0-.69-.54-.69a1,1,0,0,0-.61.27,2.6,2.6,0,0,0-.57.68,2.79,2.79,0,0,0-.32.87l-.48,2.54h-1.08L262.11,72h1.07l-.67,3.6h0a3.33,3.33,0,0,1,.82-.91,1.5,1.5,0,0,1,.9-.32,1,1,0,0,1,.86.36A1.67,1.67,0,0,1,265.38,75.73Z"/><path class="cls-1" d="M269,75.4h-1.11l-.43,2.35a4.63,4.63,0,0,0-.08.59.51.51,0,0,0,.09.34.4.4,0,0,0,.31.1,1.77,1.77,0,0,0,.62-.18l-.18,1a2.15,2.15,0,0,1-.88.19q-1,0-1.05-1.17a4.43,4.43,0,0,1,.09-.77l.45-2.41h-.73l.19-1H267l.24-1.24,1.13-.34-.29,1.58h1.11Z"/><path class="cls-1" d="M276.61,75.73a7.56,7.56,0,0,1-.14,1l-.54,2.92h-1.07l.56-3c.05-.36.08-.58.08-.66,0-.46-.17-.69-.52-.69s-.56.19-.87.58a2.65,2.65,0,0,0-.58,1.22l-.47,2.56H272l.56-3a5.11,5.11,0,0,0,.08-.66c0-.46-.17-.69-.52-.69a.94.94,0,0,0-.59.27,2.85,2.85,0,0,0-.55.7,2.79,2.79,0,0,0-.31.84l-.48,2.55H269.1l.69-3.64q.16-.87.24-1.56h1.05c0,.29-.07.66-.14,1.12h0a3.13,3.13,0,0,1,.78-.92,1.42,1.42,0,0,1,.87-.32c.69,0,1.07.42,1.12,1.26a3.21,3.21,0,0,1,.82-.94,1.53,1.53,0,0,1,.92-.32,1,1,0,0,1,.86.36A1.65,1.65,0,0,1,276.61,75.73Z"/><path class="cls-1" d="M278.4,79.73a1,1,0,0,1-.75-.27,1.15,1.15,0,0,1-.26-.8,8.28,8.28,0,0,1,.17-1.22l1-5.48h1.08l-1.07,5.77a5.5,5.5,0,0,0-.1.65.34.34,0,0,0,.39.39.91.91,0,0,0,.41-.09l-.17.94A2.17,2.17,0,0,1,278.4,79.73Z"/></svg>