<svg id="Layer_1" data-name="Layer 1" xmlns="http://www.w3.org/2000/svg" viewBox="0 0 288 95.04"><defs><style>.cls-1{fill:#d12f30;}.cls-2{fill:#231f20;}.cls-3{fill:#ed1c24;}.cls-4{fill:#fee90f;stroke:#231f20;stroke-miterlimit:10;stroke-width:0.5px;}.cls-5{fill:#1c75bc;}</style></defs><rect class="cls-1" x="-15.66" y="30.1" width="80.22" height="34.1" rx="4.84" transform="translate(-22.7 71.6) rotate(-90)"/><path class="cls-2" d="M20,72.39l1.12-2.2a10.26,10.26,0,0,1,2.57,1.16,5.1,5.1,0,0,1,1.54,1.53,3.72,3.72,0,0,1,.51,2,3.42,3.42,0,0,1-.66,2.24,4,4,0,0,1-2.26,1.21,10.68,10.68,0,0,1-4.13,0,10.85,10.85,0,0,1-5.14-2,4.38,4.38,0,0,1-1.78-3.57,2.91,2.91,0,0,1,1.05-2.45A5.82,5.82,0,0,1,16,69.46l.8,2.53a3.91,3.91,0,0,0-.91.12,1.62,1.62,0,0,0-.74.44,1,1,0,0,0-.26.7,1.86,1.86,0,0,0,1.13,1.59,7.58,7.58,0,0,0,2.65.8,7.19,7.19,0,0,0,3.09,0,1.15,1.15,0,0,0,.84-1.12A1.57,1.57,0,0,0,22,73.28,6.62,6.62,0,0,0,20,72.39Z"/><path class="cls-2" d="M23.39,63.81l0,3.09,2.23.78,0,2.77L12.09,65l0-3,13.54-1.16,0,2.85Zm-2.93.1-4.86.2,4.85,1.73Z"/><path class="cls-2" d="M12.19,52.56l0-2.71,8.05,1.28a10.88,10.88,0,0,1,2.26.61,6.8,6.8,0,0,1,1.85,1A3.76,3.76,0,0,1,25.92,56a8.79,8.79,0,0,1-.15,1.38,2.41,2.41,0,0,1-.56,1.18,3.2,3.2,0,0,1-1.17.75,4.74,4.74,0,0,1-1.57.33,11.6,11.6,0,0,1-2.28-.11l-8-1.28,0-2.71,8.24,1.31a3,3,0,0,0,1.73-.12,1,1,0,0,0,.63-1,1.45,1.45,0,0,0-.6-1.2,3.53,3.53,0,0,0-1.73-.67Z"/><path class="cls-2" d="M12.22,48.67l.06-8.26,3.34.53,0,2.77,10.17,1.62,0,2.72L15.58,46.43l0,2.77Z"/><path class="cls-2" d="M12.3,39.07l0-2.72L25.83,38.5l0,2.72Z"/><path class="cls-2" d="M19.09,35.82a10.79,10.79,0,0,1-5.14-2,4.5,4.5,0,0,1-1.81-3.64A3.19,3.19,0,0,1,14,27.07a8.53,8.53,0,0,1,5.08-.38,13.6,13.6,0,0,1,3.88,1.13,6.62,6.62,0,0,1,2.35,1.88,4.14,4.14,0,0,1,.82,2.58,3.53,3.53,0,0,1-.75,2.34A4.11,4.11,0,0,1,23,35.84,10.66,10.66,0,0,1,19.09,35.82Zm.05-2.72a6.19,6.19,0,0,0,2.94,0,1.24,1.24,0,0,0,.9-1.21,1.76,1.76,0,0,0-.86-1.49,7.83,7.83,0,0,0-3.14-1,5.53,5.53,0,0,0-2.79.05,1.26,1.26,0,0,0-.89,1.22,1.77,1.77,0,0,0,.88,1.46A7.15,7.15,0,0,0,19.14,33.1Z"/><path class="cls-2" d="M12.42,24.15l0-2.54,7.5-2.12L12.46,18.3l0-2.56L26,17.89l0,2.56-7.44,2.11L26,23.74l0,2.56Z"/><path class="cls-2" d="M28.16,82.56v-2L33,78.81l-4.83-.9v-2l8.74,1.63v2L32.1,81.26l4.8.9v2Z"/><path class="cls-2" d="M32.55,75.53A6.19,6.19,0,0,1,29.22,74,3.93,3.93,0,0,1,28,71.08a2.69,2.69,0,0,1,1.18-2.47,4.61,4.61,0,0,1,3.28-.33,7.37,7.37,0,0,1,2.51.88,4.53,4.53,0,0,1,1.53,1.48,3.79,3.79,0,0,1,.54,2,3.22,3.22,0,0,1-.48,1.87,2.64,2.64,0,0,1-1.49,1A5.72,5.72,0,0,1,32.55,75.53Zm0-2.16a3.23,3.23,0,0,0,1.9,0,1,1,0,0,0,.58-1,1.51,1.51,0,0,0-.57-1.18,4.46,4.46,0,0,0-2-.76,3,3,0,0,0-1.8.06,1,1,0,0,0-.57,1,1.5,1.5,0,0,0,.57,1.15A4,4,0,0,0,32.57,73.37Z"/><path class="cls-2" d="M28.19,66.3v-2L33,62.56l-4.83-.91v-2l8.74,1.63v2L32.13,65l4.8.9v2Z"/><path class="cls-2" d="M32.82,59.55V56.72l1.88.35V59.9Z"/><path class="cls-2" d="M34.06,56.4l-.16-2.08a2.06,2.06,0,0,0,1-.1.85.85,0,0,0,.53-.85,1.12,1.12,0,0,0-.9-1.13.8.8,0,0,0-.61.12,2,2,0,0,0-.51,1,3.42,3.42,0,0,1-1.06,1.82,2.07,2.07,0,0,1-1.69.3A3.18,3.18,0,0,1,29.35,55a2.83,2.83,0,0,1-.94-1.11,4,4,0,0,1-.34-1.79,2.56,2.56,0,0,1,.62-1.92,2.51,2.51,0,0,1,2-.47l.14,2.06a1.3,1.3,0,0,0-.86.18.8.8,0,0,0-.27.67.93.93,0,0,0,.2.61.9.9,0,0,0,.49.28.48.48,0,0,0,.37-.09,1.22,1.22,0,0,0,.33-.66,6.34,6.34,0,0,1,.77-1.89,1.82,1.82,0,0,1,1-.71,2.81,2.81,0,0,1,1.3,0,4.09,4.09,0,0,1,1.55.66A3.34,3.34,0,0,1,36.74,52a3.83,3.83,0,0,1,.37,1.75c0,1.19-.29,2-.87,2.31A3.3,3.3,0,0,1,34.06,56.4Z"/><path class="cls-2" d="M28.22,48.38l0-6.56,2.15.4v2.2L37,45.65v2.16l-6.58-1.23v2.2Z"/><path class="cls-2" d="M28.24,40.85V35.06l1.86.35V39l1.39.26V35.93l1.79.33v3.36l1.72.32V36.22l2,.36v5.89Z"/><path class="cls-2" d="M37,35.39l-8.74-1.63V30.17a4,4,0,0,1,.21-1.49,1.35,1.35,0,0,1,.8-.71,2.75,2.75,0,0,1,1.42-.06,3.4,3.4,0,0,1,1.25.48,3,3,0,0,1,.86.85,2.74,2.74,0,0,1,.34.82,1.43,1.43,0,0,1,.33-.5,1.54,1.54,0,0,1,.46-.26,2.85,2.85,0,0,1,.54-.21L37,28.52V31l-2.67.66a1.71,1.71,0,0,0-.68.26.68.68,0,0,0-.2.49v.19l3.54.66ZM31.8,32.26v-.91a3,3,0,0,0-.12-.6.8.8,0,0,0-.27-.4,1.18,1.18,0,0,0-.51-.23.84.84,0,0,0-.65.09A1,1,0,0,0,30,31v.95Z"/><path class="cls-2" d="M28.27,26.12V24L37,25.58v2.16Z"/><path class="cls-2" d="M28.27,22.4V20.25l6.58,1.22V18.1l2.15.4V24Z"/><path class="cls-2" d="M28.28,15.9l0-5.78,1.86.34v3.62l1.39.26V11l1.78.34v3.36l1.72.32V11.27l2,.37,0,5.89Z"/><path d="M62,76.29c0,.08,0,.23-.13.23H59.53a.13.13,0,0,1-.12-.12c0-.08,0-.24.09-.23h2.43A.1.1,0,0,1,62,76.29Z"/><path d="M62,77.21c0,.08,0,.2-.12.2H59.6a.13.13,0,0,1-.11-.1c0-.08,0-.21.08-.21h2.29A.1.1,0,0,1,62,77.21Z"/><path d="M61.88,78c0,.07,0,.18-.11.18H59.66c-.09,0-.1-.11-.11-.18a.1.1,0,0,1,.09-.1h2.15A.1.1,0,0,1,61.88,78Z"/><path d="M62,75.1c0-.08,0-.23-.13-.23H59.53a.14.14,0,0,0-.12.12c0,.08,0,.24.09.24h2.43A.11.11,0,0,0,62,75.1Z"/><path d="M62,74.18c0-.08,0-.2-.12-.2H59.6a.13.13,0,0,0-.11.11c0,.07,0,.2.08.2h2.29A.1.1,0,0,0,62,74.18Z"/><path d="M61.88,73.39c0-.07,0-.18-.11-.18H59.66c-.09,0-.1.11-.11.18a.09.09,0,0,0,.09.1h2.15A.09.09,0,0,0,61.88,73.39Z"/><path d="M58.47,71.48c1,1,2.3.9,3.36,1.23l-.45-1c-.29-.13-.57-.24-.83-.33,0-.09,0-.25-.09-.33a3.24,3.24,0,0,0-2.22-1v0C56.93,70.23,57.9,71.07,58.47,71.48Z"/><path d="M62.07,72.8a2.3,2.3,0,0,1,1.38,1.39A3.52,3.52,0,0,1,63,78a2,2,0,0,1-.84.61l-.47.95a4.3,4.3,0,0,0,2.72-3.75,4.43,4.43,0,0,0-2.78-4Zm2,3.54Z"/><path class="cls-3" d="M45.22,75.5A11.67,11.67,0,1,0,56.89,63.83,11.67,11.67,0,0,0,45.22,75.5Zm2.41,0A9.19,9.19,0,0,1,49,70.6L61.78,83.35A9.26,9.26,0,0,1,47.63,75.5Zm18.51,0a9.21,9.21,0,0,1-2.6,6.43L50.45,68.84A9.26,9.26,0,0,1,66.14,75.5Z"/><path d="M51,75.63c0,2.94,1.76,5.75,5,5.27.42,0,.85-.1,1.28-.16.11,0,.22,0,.26-.16a3.47,3.47,0,0,1,.29-.38,8.34,8.34,0,0,1-2.47-.86,2.17,2.17,0,0,1-.88-3l0,0-3.05-3A7,7,0,0,0,51,75.63Z"/><path d="M57.86,71.22a4.07,4.07,0,0,1-.28-.38.3.3,0,0,0-.28-.17l-1.64-.19a3.85,3.85,0,0,0-2.66.7l1.61,1.61A5.33,5.33,0,0,1,57.86,71.22Z"/><path d="M59.32,72.48c.09-.1.1-.1,0-.17a5.78,5.78,0,0,1-1.24-.9,4.49,4.49,0,0,0-3.34,1.49l3.2,3.2A4.32,4.32,0,0,1,59.32,72.48Z"/><path d="M54.39,77.5c.1,1.75,2.12,2.3,3.55,2.54.06,0,.13,0,.21-.11l-3.51-3.51A4.13,4.13,0,0,0,54.39,77.5Z"/><path d="M61.88,78.7a7.94,7.94,0,0,1-1.14.22l.71.71Z"/><path d="M59.3,81.08l-1-1C57,81,57.61,81.68,59.3,81.08Z"/><rect class="cls-1" x="29.35" y="22.88" width="55.08" height="23.41" rx="4.84" transform="translate(22.3 91.47) rotate(-90)"/><path class="cls-2" d="M50,56.92V54.83l7.55-1.31L50,52.1V50l13.62,2.58v2.12L56.16,56l7.48,1.41V59.5Z"/><path class="cls-2" d="M56.87,50.07a12.81,12.81,0,0,1-5.18-2A3.76,3.76,0,0,1,49.85,45a2.43,2.43,0,0,1,1.84-2.45,10.33,10.33,0,0,1,5.12,0,16.46,16.46,0,0,1,3.91,1.17,7,7,0,0,1,2.37,1.69,3.17,3.17,0,0,1,.84,2.17,2.45,2.45,0,0,1-.75,1.9,4.24,4.24,0,0,1-2.33.86A13.33,13.33,0,0,1,56.87,50.07Zm0-2.24a7.46,7.46,0,0,0,3,.15c.6-.16.91-.47.91-.94a1.55,1.55,0,0,0-.88-1.28,9.6,9.6,0,0,0-3.16-1,6.94,6.94,0,0,0-2.81-.12c-.6.17-.9.48-.9,1a1.57,1.57,0,0,0,.9,1.26A8.68,8.68,0,0,0,56.91,47.83Z"/><path class="cls-2" d="M50.1,40.82l0-6.81,3.37.64,0,2.28,10.26,1.94v2.25L53.48,39.17v2.29Z"/><path class="cls-2" d="M57.33,35.56l0-2.93,2.93.56,0,2.93Z"/><path class="cls-2" d="M50.16,30.32l0-3.73A1.58,1.58,0,0,1,51.28,25a6.2,6.2,0,0,1,3.1,0,7.69,7.69,0,0,1,3.22,1.27,2.68,2.68,0,0,1,1.15,2.24v1.23l5.06.95,0,2.26ZM56,29.17v-.55a1.18,1.18,0,0,0-.42-1,2.33,2.33,0,0,0-1.08-.47,2.19,2.19,0,0,0-1.09,0c-.3.1-.45.35-.45.77v.64Z"/><path class="cls-2" d="M50.21,23l0-3.73a1.58,1.58,0,0,1,1.1-1.62,6.16,6.16,0,0,1,3.09,0,7.69,7.69,0,0,1,3.22,1.27,2.66,2.66,0,0,1,1.15,2.24v1.23l5.05,1v2.25ZM56,21.85V21.3a1.18,1.18,0,0,0-.42-1,2.67,2.67,0,0,0-2.17-.45c-.29.1-.44.35-.45.77v.64Z"/><path class="cls-2" d="M50.25,15.67l0-6,2.9.55,0,3.76,2.17.41,0-3.49,2.77.52,0,3.49,2.69.51,0-3.87,3.09.59,0,6.11Z"/><path class="cls-4" d="M72.28,9.64v75a2.44,2.44,0,0,0,2.25,2.6h41.74a2.44,2.44,0,0,0,2.26-2.6v-75A2.45,2.45,0,0,0,116.27,7H74.53A2.45,2.45,0,0,0,72.28,9.64Z"/><polygon class="cls-2" points="83.05 67.92 83.05 65.7 79.78 66.81 83.05 67.92"/><path class="cls-2" d="M79.4,28.39a2,2,0,0,0,.6,1.52,3.71,3.71,0,0,0,4,0,2.34,2.34,0,0,0,0-3.12,3.07,3.07,0,0,0-2.11-.55,2.6,2.6,0,0,0-1.88.58A2.08,2.08,0,0,0,79.4,28.39Z"/><path class="cls-2" d="M74,11.28V83.1a2,2,0,0,0,1.87,2.16H88.06a2,2,0,0,0,1.87-2.16V11.28a2,2,0,0,0-1.87-2.16H75.88A2,2,0,0,0,74,11.28ZM85.27,73.67a3.62,3.62,0,0,1,1,1.47,6,6,0,0,1,.36,2.25,7.34,7.34,0,0,1-.43,2.7,4.18,4.18,0,0,1-1.52,1.8,4.71,4.71,0,0,1-2.78.76,4.46,4.46,0,0,1-3.47-1.33,6.66,6.66,0,0,1-.51-6.8,4.12,4.12,0,0,1,2.13-1.63l.55,2.77A2.15,2.15,0,0,0,80,76a1.75,1.75,0,0,0-.49.65,1.93,1.93,0,0,0-.18.85,1.91,1.91,0,0,0,.77,1.63,3,3,0,0,0,1.79.43A3.16,3.16,0,0,0,84,79a1.85,1.85,0,0,0,.56-1.43,1.82,1.82,0,0,0-.46-1.36,2.66,2.66,0,0,0-1.31-.67l.74-2.74A4.22,4.22,0,0,1,85.27,73.67Zm1.25-9.13-1.5.51V68.6l1.5.49v3.2l-9.09-3.81V65.07l9.09-3.81ZM82.84,51a4.12,4.12,0,0,1,1.53.28,3.36,3.36,0,0,1,1.25.88,3.42,3.42,0,0,1,.75,1.25,7,7,0,0,1,.31,2.19,16.14,16.14,0,0,1-.1,1.62,4.39,4.39,0,0,1-.37,1.46,3.46,3.46,0,0,1-.78,1.07,2.78,2.78,0,0,1-1.05.67,4.75,4.75,0,0,1-1.54.29H77.43V57.62H83a1.53,1.53,0,0,0,1.17-.46,1.87,1.87,0,0,0,.41-1.28,1.82,1.82,0,0,0-.41-1.27A1.5,1.5,0,0,0,83,54.15H77.43V51ZM79.67,40.15v3.19h6.85v3.14H79.67v3.19H77.43V40.15Zm6.85-4.68v3.14H77.43V35.47Zm-2-11.75a4,4,0,0,1,1.59,1.73,6.19,6.19,0,0,1,.57,2.81,7.27,7.27,0,0,1-.49,2.84,4.1,4.1,0,0,1-1.56,1.82,4.67,4.67,0,0,1-2.65.7,4.44,4.44,0,0,1-3.47-1.38,5.57,5.57,0,0,1-1.24-3.85,5.68,5.68,0,0,1,1.22-3.9,4.34,4.34,0,0,1,3.42-1.37A5.09,5.09,0,0,1,84.52,23.72Zm2-12v2.95l-5,3.8h5v2.94H77.43V18.49l5-3.82h-5V11.72Z"/><path class="cls-2" d="M93.15,80V77.81H98a4.73,4.73,0,0,1,1.37.2,3,3,0,0,1,1.12.62,2.41,2.41,0,0,1,.68.9,4,4,0,0,1,.27,1.55,8,8,0,0,1-.08,1.15,2.66,2.66,0,0,1-.33,1,2.69,2.69,0,0,1-.71.77,2.52,2.52,0,0,1-.94.47,5.39,5.39,0,0,1-1.38.21H93.15V82.49h5a1.53,1.53,0,0,0,1-.33,1.27,1.27,0,0,0,0-1.8,1.54,1.54,0,0,0-1-.33Z"/><path class="cls-2" d="M98.62,76.73l-.15-2.12a1.91,1.91,0,0,0,.89-.28,1.12,1.12,0,0,0,.5-1,1,1,0,0,0-.25-.73.82.82,0,0,0-.59-.26.81.81,0,0,0-.57.24A2.7,2.7,0,0,0,98,73.74a4.52,4.52,0,0,1-1,2.09,2.12,2.12,0,0,1-1.58.63,2.41,2.41,0,0,1-1.19-.32,2.31,2.31,0,0,1-.88-1A4.09,4.09,0,0,1,93,73.4a3.26,3.26,0,0,1,.59-2.1,2.56,2.56,0,0,1,1.85-.86l.14,2.09a1.33,1.33,0,0,0-.8.35,1,1,0,0,0-.25.74.82.82,0,0,0,.18.58.59.59,0,0,0,.46.2.47.47,0,0,0,.35-.16,1.65,1.65,0,0,0,.3-.75,9,9,0,0,1,.72-2.09,2.27,2.27,0,0,1,.91-.91,2.55,2.55,0,0,1,1.21-.29,2.93,2.93,0,0,1,1.45.38,2.52,2.52,0,0,1,1,1.07,3.88,3.88,0,0,1,.34,1.74,3.26,3.26,0,0,1-.8,2.54A3.34,3.34,0,0,1,98.62,76.73Z"/><path class="cls-2" d="M93.15,69.09v-6H94.9v3.73h1.3V63.4h1.66v3.46h1.61V63h1.86v6.07Z"/><path class="cls-2" d="M100,54.05v2.52l1.35.35v2.27l-8.18-2.7V54.06l8.18-2.7v2.33Zm-1.77.46-2.94.79,2.94.79Z"/><path class="cls-2" d="M93.15,51.85V45.09h2v2.27h6.16v2.22H95.17v2.27Z"/><path class="cls-2" d="M93.15,41.46V39l2.76-1.45-2.76-1.45V33.63l4.75,2.8h3.43v2.23H97.9Z"/><path class="cls-2" d="M97.24,33.8a4.57,4.57,0,0,1-3.11-1A3.45,3.45,0,0,1,93,30.08a3.49,3.49,0,0,1,1.1-2.76,4.46,4.46,0,0,1,3.07-1,5.67,5.67,0,0,1,2.35.43A3.22,3.22,0,0,1,101,28a3.64,3.64,0,0,1,.51,2,4,4,0,0,1-.44,2,3.18,3.18,0,0,1-1.39,1.29A5.16,5.16,0,0,1,97.24,33.8Zm0-2.22A3,3,0,0,0,99,31.17a1.42,1.42,0,0,0,0-2.21,3.4,3.4,0,0,0-1.91-.39,2.7,2.7,0,0,0-1.68.41,1.3,1.3,0,0,0-.53,1.11,1.28,1.28,0,0,0,.54,1.08A3,3,0,0,0,97.26,31.58Z"/><path class="cls-2" d="M93.15,20.46V18.25H98a4.73,4.73,0,0,1,1.37.19,3,3,0,0,1,1.12.63,2.38,2.38,0,0,1,.68.89,4,4,0,0,1,.27,1.55,8,8,0,0,1-.08,1.15,2.77,2.77,0,0,1-.33,1,2.66,2.66,0,0,1-.71.76,2.71,2.71,0,0,1-.94.48,5.81,5.81,0,0,1-1.38.2H93.15V22.92h5a1.58,1.58,0,0,0,1-.32,1.15,1.15,0,0,0,.38-.91,1.17,1.17,0,0,0-.37-.9,1.54,1.54,0,0,0-1-.33Z"/><path class="cls-2" d="M101.33,16.74H93.15V13a4.93,4.93,0,0,1,.2-1.58,1.82,1.82,0,0,1,.75-.88,2.79,2.79,0,0,1,2.49-.07,2.09,2.09,0,0,1,.8.7,2.37,2.37,0,0,1,.33.78,2,2,0,0,1,.3-.58,2.86,2.86,0,0,1,.43-.36,4.63,4.63,0,0,1,.51-.31l2.37-1.07v2.51l-2.5,1.19a1.73,1.73,0,0,0-.63.4.83.83,0,0,0-.19.54v.2h3.32Zm-4.87-2.23v-.94a2.67,2.67,0,0,0-.11-.59.63.63,0,0,0-.25-.36.87.87,0,0,0-.48-.14.86.86,0,0,0-.61.22,1.24,1.24,0,0,0-.21.83v1Z"/><path class="cls-2" d="M111,75.78a4.53,4.53,0,0,1-3.12-1,3.45,3.45,0,0,1-1.12-2.73,3.51,3.51,0,0,1,1.1-2.77,4.45,4.45,0,0,1,3.07-1,5.68,5.68,0,0,1,2.35.42A3.31,3.31,0,0,1,114.66,70a3.64,3.64,0,0,1,.51,2,4,4,0,0,1-.45,2,3.14,3.14,0,0,1-1.39,1.3A5.12,5.12,0,0,1,111,75.78Zm0-2.22a3,3,0,0,0,1.77-.41,1.28,1.28,0,0,0,.55-1.1,1.33,1.33,0,0,0-.53-1.11,3.4,3.4,0,0,0-1.91-.39,2.78,2.78,0,0,0-1.68.41,1.3,1.3,0,0,0-.53,1.11,1.28,1.28,0,0,0,.54,1.08A3,3,0,0,0,111,73.56Z"/><path class="cls-2" d="M106.85,68V65.93l4.58-.76-4.58-1.11V62l4.57-1.11-4.57-.76V58L115,59.56v2.18L109.88,63,115,64.26v2.18Z"/><path class="cls-2" d="M106.85,57.24V55.16l4.52-2.71h-4.52V50.36H115v2.09l-4.49,2.7H115v2.09Z"/><path class="cls-2" d="M115,45.5h-8.18V41.79a4.82,4.82,0,0,1,.2-1.57,1.73,1.73,0,0,1,.75-.88,2.4,2.4,0,0,1,1.32-.34,2.54,2.54,0,0,1,1.18.26,2.24,2.24,0,0,1,.8.7,2.62,2.62,0,0,1,.32.78,2.18,2.18,0,0,1,.3-.58,2.42,2.42,0,0,1,.43-.35,2.74,2.74,0,0,1,.51-.31L115,38.42v2.51l-2.5,1.19a1.83,1.83,0,0,0-.63.4.84.84,0,0,0-.19.55v.19H115Zm-4.87-2.24v-.93a2.49,2.49,0,0,0-.11-.59.57.57,0,0,0-.25-.36.8.8,0,0,0-.48-.14.78.78,0,0,0-.6.22,1.15,1.15,0,0,0-.22.83v1Z"/><path class="cls-2" d="M106.85,37.62V35.39H115v2.23Z"/><path class="cls-2" d="M112.32,34.18l-.15-2.11a2,2,0,0,0,.89-.28,1.13,1.13,0,0,0,.5-1,1,1,0,0,0-.25-.74.81.81,0,0,0-1.16,0,2.48,2.48,0,0,0-.47,1.14,4.57,4.57,0,0,1-1,2.09,2.14,2.14,0,0,1-1.57.62,2.29,2.29,0,0,1-1.19-.32,2.19,2.19,0,0,1-.89-1,4.09,4.09,0,0,1-.32-1.77,3.31,3.31,0,0,1,.59-2.11,2.6,2.6,0,0,1,1.85-.86l.14,2.1a1.27,1.27,0,0,0-.8.35,1,1,0,0,0-.25.74.82.82,0,0,0,.18.58.63.63,0,0,0,.46.2.51.51,0,0,0,.35-.16,1.7,1.7,0,0,0,.3-.75,8.85,8.85,0,0,1,.72-2.09,2.37,2.37,0,0,1,.91-.92,2.54,2.54,0,0,1,1.21-.28,2.83,2.83,0,0,1,1.45.38,2.46,2.46,0,0,1,1,1.07,3.83,3.83,0,0,1,.35,1.73,3.25,3.25,0,0,1-.81,2.54A3.29,3.29,0,0,1,112.32,34.18Z"/><path class="cls-2" d="M106.85,26.53V24.3h3.09L106.85,22V19l3.09,2.62L115,18.9v2.74l-3.37,1.52L113,24.3h2v2.23Z"/><path class="cls-2" d="M125.62,13.06h-1.57v5.23h-1.24V13.06h-1.55V11.89h4.36Z"/><path class="cls-2" d="M130,18.29h-1.2v-2.6c0-.67-.21-1-.63-1a.6.6,0,0,0-.52.28,1.25,1.25,0,0,0-.2.72v2.6h-1.21V11.52h1.21V14.4h0a1.32,1.32,0,0,1,1.2-.79c.89,0,1.33.62,1.33,1.87Z"/><path class="cls-2" d="M131.56,13a.66.66,0,0,1-.5-.21.77.77,0,0,1-.2-.52.7.7,0,0,1,.2-.52.65.65,0,0,1,.5-.2.63.63,0,0,1,.5.2.7.7,0,0,1,.2.52.72.72,0,0,1-.2.52A.64.64,0,0,1,131.56,13Zm.6,5.29H131V13.72h1.21Z"/><path class="cls-2" d="M132.92,18.17V17a2.4,2.4,0,0,0,.59.31,1.7,1.7,0,0,0,.56.1,1,1,0,0,0,.51-.1.33.33,0,0,0,.18-.31.29.29,0,0,0-.08-.22.73.73,0,0,0-.22-.16,1.1,1.1,0,0,0-.29-.12l-.3-.12a3.14,3.14,0,0,1-.41-.22,1.15,1.15,0,0,1-.3-.28,1,1,0,0,1-.18-.36,1.77,1.77,0,0,1-.06-.49,1.3,1.3,0,0,1,.52-1.11,1.64,1.64,0,0,1,.55-.26,2.74,2.74,0,0,1,.64-.08,3.27,3.27,0,0,1,.53.05,3.41,3.41,0,0,1,.53.13v1.09a1.89,1.89,0,0,0-.5-.23,1.81,1.81,0,0,0-.51-.08l-.22,0a.54.54,0,0,0-.19.08.37.37,0,0,0-.13.12.27.27,0,0,0,0,.16.32.32,0,0,0,.07.22.45.45,0,0,0,.18.15l.24.12.27.1a3.61,3.61,0,0,1,.44.22,1.09,1.09,0,0,1,.33.27.91.91,0,0,1,.22.37,1.43,1.43,0,0,1,.07.5,1.47,1.47,0,0,1-.15.69,1.31,1.31,0,0,1-.4.47,1.61,1.61,0,0,1-.58.26,2.49,2.49,0,0,1-.68.08A2.9,2.9,0,0,1,132.92,18.17Z"/><path class="cls-2" d="M142.61,18.29H141.4v-.63h0a1.31,1.31,0,0,1-1.22.74,1.42,1.42,0,0,1-1.18-.6,2.85,2.85,0,0,1-.44-1.69,3,3,0,0,1,.49-1.82,1.53,1.53,0,0,1,1.29-.68,1.07,1.07,0,0,1,1.06.63h0V11.52h1.21Zm-1.19-2.22v-.34a1.21,1.21,0,0,0-.22-.75.71.71,0,0,0-1.2.08,1.91,1.91,0,0,0-.23,1A1.73,1.73,0,0,0,140,17a.71.71,0,0,0,.6.32.68.68,0,0,0,.6-.34A1.56,1.56,0,0,0,141.42,16.07Z"/><path class="cls-2" d="M147.14,16.41h-2.55a1,1,0,0,0,1.07,1,1.93,1.93,0,0,0,1.14-.35v1a2.58,2.58,0,0,1-1.41.34,1.82,1.82,0,0,1-1.47-.61,2.55,2.55,0,0,1-.53-1.71,2.71,2.71,0,0,1,.57-1.81,1.77,1.77,0,0,1,1.39-.66,1.63,1.63,0,0,1,1.33.59,2.57,2.57,0,0,1,.46,1.61ZM146,15.54c0-.65-.22-1-.68-1a.61.61,0,0,0-.5.28,1.4,1.4,0,0,0-.26.7Z"/><path class="cls-2" d="M151.59,13.72l-1.46,4.57h-1.37l-1.39-4.57h1.29l.68,2.82a5.31,5.31,0,0,1,.14.81h0a7.06,7.06,0,0,1,.14-.79l.7-2.84Z"/><path class="cls-2" d="M152.72,13a.64.64,0,0,1-.5-.21.77.77,0,0,1-.2-.52.7.7,0,0,1,.2-.52.73.73,0,0,1,1,0,.7.7,0,0,1,.2.52.72.72,0,0,1-.2.52A.64.64,0,0,1,152.72,13Zm.6,5.29h-1.21V13.72h1.21Z"/><path class="cls-2" d="M157.3,18.13a2.15,2.15,0,0,1-1.18.27,1.86,1.86,0,0,1-1.46-.63,2.39,2.39,0,0,1-.56-1.65,2.66,2.66,0,0,1,.6-1.84,2,2,0,0,1,1.6-.67,1.84,1.84,0,0,1,1,.21V15a1.26,1.26,0,0,0-.85-.33,1,1,0,0,0-.82.35,1.49,1.49,0,0,0-.3,1,1.41,1.41,0,0,0,.29,1,1,1,0,0,0,.8.34,1.44,1.44,0,0,0,.88-.33Z"/><path class="cls-2" d="M161.61,16.41h-2.56a1,1,0,0,0,1.08,1,1.9,1.9,0,0,0,1.13-.35v1a2.58,2.58,0,0,1-1.41.34,1.82,1.82,0,0,1-1.47-.61,2.55,2.55,0,0,1-.52-1.71,2.76,2.76,0,0,1,.56-1.81,1.77,1.77,0,0,1,1.39-.66,1.6,1.6,0,0,1,1.33.59,2.57,2.57,0,0,1,.47,1.61Zm-1.12-.87c0-.65-.23-1-.68-1a.63.63,0,0,0-.51.28,1.4,1.4,0,0,0-.25.7Z"/><path class="cls-2" d="M165.1,13a.64.64,0,0,1-.5-.21.77.77,0,0,1-.2-.52.7.7,0,0,1,.2-.52.73.73,0,0,1,1,0,.69.69,0,0,1,.19.52.71.71,0,0,1-.19.52A.64.64,0,0,1,165.1,13Zm.6,5.29h-1.21V13.72h1.21Z"/><path class="cls-2" d="M166.46,18.17V17a2.4,2.4,0,0,0,.59.31,1.7,1.7,0,0,0,.56.1,1.05,1.05,0,0,0,.51-.1.33.33,0,0,0,.18-.31.29.29,0,0,0-.08-.22.73.73,0,0,0-.22-.16,1.1,1.1,0,0,0-.29-.12l-.3-.12a3.14,3.14,0,0,1-.41-.22,1.15,1.15,0,0,1-.3-.28,1,1,0,0,1-.18-.36,1.77,1.77,0,0,1-.06-.49A1.3,1.3,0,0,1,167,14a1.64,1.64,0,0,1,.55-.26,2.67,2.67,0,0,1,.64-.08,3.27,3.27,0,0,1,.53.05,3,3,0,0,1,.52.13v1.09a1.69,1.69,0,0,0-.49-.23,1.81,1.81,0,0,0-.51-.08l-.22,0a.47.47,0,0,0-.19.08.37.37,0,0,0-.13.12.27.27,0,0,0,0,.16.32.32,0,0,0,.07.22.45.45,0,0,0,.18.15l.24.12.27.1a3.61,3.61,0,0,1,.44.22,1.09,1.09,0,0,1,.33.27.91.91,0,0,1,.22.37,1.43,1.43,0,0,1,.07.5,1.47,1.47,0,0,1-.15.69,1.31,1.31,0,0,1-.4.47,1.61,1.61,0,0,1-.58.26,2.53,2.53,0,0,1-.68.08A2.9,2.9,0,0,1,166.46,18.17Z"/><path class="cls-2" d="M178.53,18.29h-1.2v-2.6c0-.67-.21-1-.63-1a.54.54,0,0,0-.48.3,1.34,1.34,0,0,0-.19.74v2.56h-1.21V15.66c0-.65-.2-1-.61-1a.57.57,0,0,0-.5.29,1.42,1.42,0,0,0-.18.77v2.54h-1.21V13.72h1.21v.72h0a1.54,1.54,0,0,1,.53-.6,1.3,1.3,0,0,1,.74-.23,1.12,1.12,0,0,1,1.13.85,1.42,1.42,0,0,1,1.32-.85c.85,0,1.27.61,1.27,1.84Z"/><path class="cls-2" d="M183,16.41h-2.56a1,1,0,0,0,1.08,1,1.9,1.9,0,0,0,1.13-.35v1a2.58,2.58,0,0,1-1.41.34,1.82,1.82,0,0,1-1.47-.61,2.55,2.55,0,0,1-.52-1.71,2.76,2.76,0,0,1,.56-1.81,1.77,1.77,0,0,1,1.39-.66,1.6,1.6,0,0,1,1.33.59,2.57,2.57,0,0,1,.47,1.61Zm-1.12-.87c0-.65-.23-1-.68-1a.63.63,0,0,0-.51.28,1.4,1.4,0,0,0-.25.7Z"/><path class="cls-2" d="M187,18.29h-1.14v-.65h0a1.26,1.26,0,0,1-1.17.76,1.13,1.13,0,0,1-.9-.37,1.49,1.49,0,0,1-.32-1,1.41,1.41,0,0,1,1.35-1.54l1.06-.16c0-.5-.23-.75-.7-.75a2.13,2.13,0,0,0-1.33.49V14a2.56,2.56,0,0,1,.69-.26,3,3,0,0,1,.8-.12c1.12,0,1.67.65,1.67,2Zm-1.13-1.85v-.31l-.71.1c-.4.06-.59.27-.59.62a.57.57,0,0,0,.14.4.53.53,0,0,0,.39.15.66.66,0,0,0,.55-.27A1.06,1.06,0,0,0,185.85,16.44Z"/><path class="cls-2" d="M191.72,18.29h-1.2V15.75c0-.71-.22-1.06-.65-1.06a.62.62,0,0,0-.52.28,1.18,1.18,0,0,0-.2.72v2.6h-1.21V13.72h1.21v.72h0a1.37,1.37,0,0,1,1.26-.83c.87,0,1.3.63,1.3,1.88Z"/><path class="cls-2" d="M195,18.24a1.55,1.55,0,0,1-.8.16c-.86,0-1.28-.51-1.28-1.55V14.76h-.63v-1H193v-1l1.2-.4v1.39H195v1h-.88v1.85c0,.48.17.71.49.71a.67.67,0,0,0,.39-.13Z"/><path class="cls-2" d="M200.25,18.24a1.59,1.59,0,0,1-.81.16c-.85,0-1.27-.51-1.27-1.55V14.76h-.64v-1h.64v-1l1.2-.4v1.39h.88v1h-.88v1.85c0,.48.16.71.49.71a.7.7,0,0,0,.39-.13Z"/><path class="cls-2" d="M202.77,18.4a1.92,1.92,0,0,1-1.54-.64,2.5,2.5,0,0,1-.56-1.74,2.53,2.53,0,0,1,.58-1.77,2,2,0,0,1,1.57-.64,1.91,1.91,0,0,1,1.53.64,2.49,2.49,0,0,1,.55,1.69,2.66,2.66,0,0,1-.57,1.8A2,2,0,0,1,202.77,18.4Zm0-3.71a.76.76,0,0,0-.67.34,1.71,1.71,0,0,0-.23,1c0,.87.3,1.31.9,1.31s.87-.45.87-1.35S203.38,14.69,202.8,14.69Z"/><path class="cls-2" d="M209.07,17.76h0v.53h-1.21V11.52h1.21v2.89h0a1.4,1.4,0,0,1,1.27-.8,1.31,1.31,0,0,1,1.17.61,2.93,2.93,0,0,1,.41,1.66,3.15,3.15,0,0,1-.48,1.83,1.48,1.48,0,0,1-1.28.69A1.18,1.18,0,0,1,209.07,17.76Zm0-1.93v.47a1.19,1.19,0,0,0,.21.73.67.67,0,0,0,.56.29.7.7,0,0,0,.64-.37,2,2,0,0,0,.23-1,1.6,1.6,0,0,0-.21-.89.68.68,0,0,0-.59-.32.72.72,0,0,0-.6.32A1.31,1.31,0,0,0,209,15.83Z"/><path class="cls-2" d="M216.22,16.41h-2.55a1,1,0,0,0,1.07,1,2,2,0,0,0,1.14-.35v1a2.61,2.61,0,0,1-1.41.34,1.83,1.83,0,0,1-1.48-.61,2.61,2.61,0,0,1-.52-1.71,2.71,2.71,0,0,1,.57-1.81,1.75,1.75,0,0,1,1.39-.66,1.59,1.59,0,0,1,1.32.59,2.51,2.51,0,0,1,.47,1.61Zm-1.12-.87c0-.65-.23-1-.68-1a.61.61,0,0,0-.5.28,1.4,1.4,0,0,0-.26.7Z"/><path class="cls-2" d="M222.82,18.29h-1.2V17.6h0a1.36,1.36,0,0,1-1.2.8c-.91,0-1.36-.64-1.36-1.92V13.72h1.2v2.63c0,.65.22,1,.66,1a.62.62,0,0,0,.52-.26,1.2,1.2,0,0,0,.2-.72V13.72h1.2Z"/><path class="cls-2" d="M223.58,18.17V17a2.59,2.59,0,0,0,.59.31,1.71,1.71,0,0,0,.57.1,1,1,0,0,0,.5-.1.33.33,0,0,0,.19-.31.29.29,0,0,0-.09-.22.69.69,0,0,0-.21-.16,1.48,1.48,0,0,0-.29-.12l-.3-.12a2.22,2.22,0,0,1-.41-.22,1.15,1.15,0,0,1-.3-.28,1.23,1.23,0,0,1-.19-.36,1.77,1.77,0,0,1-.06-.49,1.53,1.53,0,0,1,.14-.66,1.41,1.41,0,0,1,.39-.45,1.69,1.69,0,0,1,.54-.26,2.74,2.74,0,0,1,.64-.08,3.17,3.17,0,0,1,.53.05,3.41,3.41,0,0,1,.53.13v1.09a1.83,1.83,0,0,0-.49-.23,1.93,1.93,0,0,0-.52-.08l-.22,0a.64.64,0,0,0-.19.08.34.34,0,0,0-.12.12.28.28,0,0,0-.05.16.38.38,0,0,0,.07.22.65.65,0,0,0,.18.15l.25.12.27.1a3.45,3.45,0,0,1,.43.22,1.27,1.27,0,0,1,.34.27,1,1,0,0,1,.21.37,1.41,1.41,0,0,1,.08.5,1.35,1.35,0,0,1-.16.69,1.31,1.31,0,0,1-.4.47,1.56,1.56,0,0,1-.57.26,2.58,2.58,0,0,1-.68.08A3,3,0,0,1,223.58,18.17Z"/><path class="cls-2" d="M230.8,16.41h-2.55a.94.94,0,0,0,1.07,1,2,2,0,0,0,1.14-.35v1a2.64,2.64,0,0,1-1.42.34,1.82,1.82,0,0,1-1.47-.61,2.55,2.55,0,0,1-.52-1.71,2.76,2.76,0,0,1,.56-1.81,1.79,1.79,0,0,1,1.4-.66,1.59,1.59,0,0,1,1.32.59,2.57,2.57,0,0,1,.47,1.61Zm-1.12-.87c0-.65-.23-1-.68-1a.6.6,0,0,0-.5.28,1.32,1.32,0,0,0-.26.7Z"/><path class="cls-2" d="M235.35,18.29h-1.21v-.63h0a1.31,1.31,0,0,1-1.22.74,1.4,1.4,0,0,1-1.18-.6,2.78,2.78,0,0,1-.44-1.69,3,3,0,0,1,.49-1.82,1.53,1.53,0,0,1,1.29-.68,1.07,1.07,0,0,1,1.06.63h0V11.52h1.21Zm-1.19-2.22v-.34a1.21,1.21,0,0,0-.22-.75.71.71,0,0,0-1.2.08,1.91,1.91,0,0,0-.23,1,1.64,1.64,0,0,0,.22.93.71.71,0,0,0,.6.32.68.68,0,0,0,.6-.34A1.56,1.56,0,0,0,234.16,16.07Z"/><path class="cls-2" d="M241.78,18.29h-1.14v-.65h0a1.26,1.26,0,0,1-1.17.76,1.13,1.13,0,0,1-.9-.37,1.49,1.49,0,0,1-.32-1,1.41,1.41,0,0,1,1.34-1.54l1.07-.16c0-.5-.23-.75-.7-.75a2.13,2.13,0,0,0-1.33.49V14a2.56,2.56,0,0,1,.69-.26,3,3,0,0,1,.8-.12c1.12,0,1.67.65,1.67,2Zm-1.13-1.85v-.31l-.71.1c-.4.06-.59.27-.59.62a.57.57,0,0,0,.14.4.53.53,0,0,0,.39.15.66.66,0,0,0,.55-.27A1.06,1.06,0,0,0,240.65,16.44Z"/><path class="cls-2" d="M242.48,18.17V17a2.45,2.45,0,0,0,.6.31,1.66,1.66,0,0,0,.56.1,1.08,1.08,0,0,0,.51-.1.33.33,0,0,0,.18-.31.33.33,0,0,0-.08-.22.73.73,0,0,0-.22-.16,1.26,1.26,0,0,0-.29-.12l-.3-.12a2.6,2.6,0,0,1-.41-.22,1.15,1.15,0,0,1-.3-.28,1,1,0,0,1-.18-.36,1.45,1.45,0,0,1-.07-.49,1.4,1.4,0,0,1,.15-.66A1.27,1.27,0,0,1,243,14a1.64,1.64,0,0,1,.55-.26,2.61,2.61,0,0,1,.64-.08,3.05,3.05,0,0,1,.52.05,3.16,3.16,0,0,1,.53.13v1.09a1.69,1.69,0,0,0-.49-.23,1.81,1.81,0,0,0-.51-.08l-.23,0a.49.49,0,0,0-.18.08.3.3,0,0,0-.13.12.27.27,0,0,0,0,.16.38.38,0,0,0,.06.22.65.65,0,0,0,.18.15l.25.12.27.1a3.61,3.61,0,0,1,.44.22,1.09,1.09,0,0,1,.33.27,1,1,0,0,1,.21.37,1.41,1.41,0,0,1,.08.5,1.47,1.47,0,0,1-.15.69,1.41,1.41,0,0,1-.4.47,1.61,1.61,0,0,1-.58.26,2.53,2.53,0,0,1-.68.08A3,3,0,0,1,242.48,18.17Z"/><path class="cls-2" d="M251.6,18.29h-1.14v-.65h0a1.24,1.24,0,0,1-1.16.76,1.13,1.13,0,0,1-.9-.37,1.5,1.5,0,0,1-.33-1,1.41,1.41,0,0,1,1.35-1.54l1.07-.16c0-.5-.24-.75-.7-.75a2.11,2.11,0,0,0-1.33.49V14a2.56,2.56,0,0,1,.69-.26,3,3,0,0,1,.8-.12c1.11,0,1.67.65,1.67,2Zm-1.13-1.85v-.31l-.72.1a.59.59,0,0,0-.58.62.5.5,0,0,0,.53.55.67.67,0,0,0,.55-.27A1.06,1.06,0,0,0,250.47,16.44Z"/><path class="cls-2" d="M255.93,18.29h-1.21V11.52h1.21Z"/><path class="cls-2" d="M260.2,18.29h-1.14v-.65h0a1.24,1.24,0,0,1-1.16.76A1.13,1.13,0,0,1,257,18a1.5,1.5,0,0,1-.33-1A1.41,1.41,0,0,1,258,15.48l1.07-.16c0-.5-.24-.75-.7-.75a2.11,2.11,0,0,0-1.33.49V14a2.56,2.56,0,0,1,.69-.26,3,3,0,0,1,.8-.12c1.11,0,1.67.65,1.67,2Zm-1.13-1.85v-.31l-.72.1a.6.6,0,0,0-.59.62.54.54,0,0,0,.15.4.5.5,0,0,0,.39.15.67.67,0,0,0,.55-.27A1.12,1.12,0,0,0,259.07,16.44Z"/><path class="cls-2" d="M260.9,18.17V17a2.45,2.45,0,0,0,.6.31,1.62,1.62,0,0,0,.56.1,1,1,0,0,0,.5-.1.33.33,0,0,0,.19-.31.29.29,0,0,0-.09-.22.58.58,0,0,0-.21-.16,1.48,1.48,0,0,0-.29-.12l-.3-.12a2.22,2.22,0,0,1-.41-.22,1.15,1.15,0,0,1-.3-.28,1.23,1.23,0,0,1-.19-.36,1.77,1.77,0,0,1-.06-.49,1.53,1.53,0,0,1,.14-.66,1.41,1.41,0,0,1,.39-.45,1.69,1.69,0,0,1,.54-.26,2.74,2.74,0,0,1,.64-.08,3.68,3.68,0,0,1,1.06.18v1.09a1.83,1.83,0,0,0-.49-.23,1.93,1.93,0,0,0-.52-.08l-.22,0a.64.64,0,0,0-.19.08.34.34,0,0,0-.12.12.28.28,0,0,0-.05.16.38.38,0,0,0,.07.22.65.65,0,0,0,.18.15l.25.12.27.1a3.45,3.45,0,0,1,.43.22,1.27,1.27,0,0,1,.34.27,1,1,0,0,1,.21.37,1.41,1.41,0,0,1,.08.5,1.35,1.35,0,0,1-.16.69,1.31,1.31,0,0,1-.4.47,1.56,1.56,0,0,1-.57.26,2.58,2.58,0,0,1-.68.08A3,3,0,0,1,260.9,18.17Z"/><path class="cls-2" d="M267,18.24a1.59,1.59,0,0,1-.81.16c-.85,0-1.28-.51-1.28-1.55V14.76h-.63v-1h.63v-1l1.21-.4v1.39H267v1h-.88v1.85c0,.48.16.71.48.71a.73.73,0,0,0,.4-.13Z"/><path class="cls-2" d="M124.2,27a1,1,0,0,0-.51-.14.7.7,0,0,0-.61.34,1.65,1.65,0,0,0-.23.92v2.18h-1.2V25.72h1.2v.85h0c.19-.62.54-.93,1-.93a.78.78,0,0,1,.3.05Z"/><path class="cls-2" d="M128.25,28.41H125.7a.94.94,0,0,0,1.07,1,2,2,0,0,0,1.14-.35v1a2.63,2.63,0,0,1-1.41.34,1.83,1.83,0,0,1-1.48-.61,2.55,2.55,0,0,1-.52-1.71,2.76,2.76,0,0,1,.56-1.81,1.79,1.79,0,0,1,1.4-.66,1.59,1.59,0,0,1,1.32.59,2.57,2.57,0,0,1,.47,1.61Zm-1.12-.87c0-.65-.23-1-.68-1a.6.6,0,0,0-.5.28,1.32,1.32,0,0,0-.26.7Z"/><path class="cls-2" d="M128.71,30.17V29a2.45,2.45,0,0,0,.6.31,1.62,1.62,0,0,0,.56.1,1,1,0,0,0,.5-.1.33.33,0,0,0,.19-.31.29.29,0,0,0-.09-.22.58.58,0,0,0-.21-.16,1.48,1.48,0,0,0-.29-.12l-.3-.12a2.6,2.6,0,0,1-.41-.22,1.15,1.15,0,0,1-.3-.28,1.23,1.23,0,0,1-.19-.36,1.77,1.77,0,0,1-.06-.49,1.53,1.53,0,0,1,.14-.66,1.41,1.41,0,0,1,.39-.45,1.69,1.69,0,0,1,.54-.26,2.74,2.74,0,0,1,.64-.08,3.68,3.68,0,0,1,1.06.18v1.09a1.83,1.83,0,0,0-.49-.23,1.93,1.93,0,0,0-.52-.08l-.22,0a.64.64,0,0,0-.19.08.34.34,0,0,0-.12.12.28.28,0,0,0-.05.16.38.38,0,0,0,.07.22.65.65,0,0,0,.18.15l.25.12.27.1a3.45,3.45,0,0,1,.43.22,1.27,1.27,0,0,1,.34.27,1,1,0,0,1,.21.37,1.41,1.41,0,0,1,.08.5,1.47,1.47,0,0,1-.15.69,1.44,1.44,0,0,1-.41.47,1.56,1.56,0,0,1-.57.26,2.58,2.58,0,0,1-.68.08A3,3,0,0,1,128.71,30.17Z"/><path class="cls-2" d="M134.28,30.4a1.93,1.93,0,0,1-1.54-.64,2.54,2.54,0,0,1-.56-1.74,2.53,2.53,0,0,1,.58-1.77,2,2,0,0,1,1.57-.64,1.91,1.91,0,0,1,1.53.64,2.5,2.5,0,0,1,.56,1.69,2.62,2.62,0,0,1-.58,1.8A2,2,0,0,1,134.28,30.4Zm0-3.71a.76.76,0,0,0-.67.34,1.8,1.8,0,0,0-.23,1c0,.87.3,1.31.91,1.31s.86-.45.86-1.35S134.89,26.69,134.31,26.69Z"/><path class="cls-2" d="M139.75,27a.92.92,0,0,0-.5-.14.71.71,0,0,0-.62.34,1.65,1.65,0,0,0-.22.92v2.18H137.2V25.72h1.21v.85h0c.19-.62.54-.93,1-.93a.76.76,0,0,1,.29.05Z"/><path class="cls-2" d="M142.91,30.24a1.59,1.59,0,0,1-.81.16c-.85,0-1.28-.51-1.28-1.55V26.76h-.63v-1h.63v-1l1.21-.4v1.39h.88v1H142v1.85c0,.48.16.71.48.71a.73.73,0,0,0,.4-.13Z"/><path class="cls-2" d="M149.47,30.29h-1.21V29.6h0a1.36,1.36,0,0,1-1.2.8c-.91,0-1.36-.64-1.36-1.92V25.72h1.2v2.63c0,.65.22,1,.66,1a.62.62,0,0,0,.52-.26,1.2,1.2,0,0,0,.19-.72V25.72h1.21Z"/><path class="cls-2" d="M154.27,30.29h-1.21V27.75c0-.71-.21-1.06-.65-1.06a.59.59,0,0,0-.51.28,1.18,1.18,0,0,0-.21.72v2.6h-1.2V25.72h1.2v.72h0a1.37,1.37,0,0,1,1.26-.83c.86,0,1.3.63,1.3,1.88Z"/><path class="cls-2" d="M159.05,30.29h-1.2v-.63h0a1.3,1.3,0,0,1-1.21.74,1.4,1.4,0,0,1-1.18-.6,2.78,2.78,0,0,1-.45-1.69,3,3,0,0,1,.49-1.82,1.54,1.54,0,0,1,1.3-.68,1.07,1.07,0,0,1,1.05.63h0V23.52h1.2Zm-1.18-2.22v-.34a1.28,1.28,0,0,0-.22-.75.71.71,0,0,0-.58-.29.7.7,0,0,0-.63.37,1.92,1.92,0,0,0-.22,1,1.64,1.64,0,0,0,.22.93.68.68,0,0,0,.6.32.71.71,0,0,0,.6-.34A1.63,1.63,0,0,0,157.87,28.07Z"/><path class="cls-2" d="M163.59,28.41H161a1,1,0,0,0,1.08,1,1.9,1.9,0,0,0,1.13-.35v1a2.58,2.58,0,0,1-1.41.34,1.82,1.82,0,0,1-1.47-.61,2.55,2.55,0,0,1-.52-1.71,2.76,2.76,0,0,1,.56-1.81,1.78,1.78,0,0,1,1.39-.66,1.6,1.6,0,0,1,1.33.59,2.57,2.57,0,0,1,.47,1.61Zm-1.12-.87c0-.65-.23-1-.68-1a.6.6,0,0,0-.5.28,1.32,1.32,0,0,0-.26.7Z"/><path class="cls-2" d="M166.86,27a.93.93,0,0,0-.51-.14.7.7,0,0,0-.61.34,1.65,1.65,0,0,0-.22.92v2.18h-1.21V25.72h1.21v.85h0c.19-.62.54-.93,1-.93a.78.78,0,0,1,.3.05Z"/><path class="cls-2" d="M172,30.24a1.59,1.59,0,0,1-.81.16c-.85,0-1.27-.51-1.27-1.55V26.76h-.64v-1h.64v-1l1.2-.4v1.39H172v1h-.88v1.85c0,.48.16.71.49.71a.7.7,0,0,0,.39-.13Z"/><path class="cls-2" d="M176.39,30.29h-1.21v-2.6c0-.67-.2-1-.62-1A.59.59,0,0,0,174,27a1.25,1.25,0,0,0-.2.72v2.6h-1.21V23.52h1.21V26.4h0a1.35,1.35,0,0,1,1.21-.79c.89,0,1.33.62,1.33,1.87Z"/><path class="cls-2" d="M180.86,28.41h-2.55a1,1,0,0,0,1.07,1,2,2,0,0,0,1.14-.35v1a2.58,2.58,0,0,1-1.41.34,1.82,1.82,0,0,1-1.47-.61,2.55,2.55,0,0,1-.53-1.71,2.71,2.71,0,0,1,.57-1.81,1.77,1.77,0,0,1,1.39-.66,1.59,1.59,0,0,1,1.32.59,2.51,2.51,0,0,1,.47,1.61Zm-1.12-.87c0-.65-.22-1-.68-1a.61.61,0,0,0-.5.28,1.4,1.4,0,0,0-.26.7Z"/><path class="cls-2" d="M187.79,30.06a3.12,3.12,0,0,1-1.57.34,2.45,2.45,0,0,1-2-.86,3.51,3.51,0,0,1-.72-2.31,3.73,3.73,0,0,1,.81-2.49,2.63,2.63,0,0,1,2.11-1,3.4,3.4,0,0,1,1.35.24v1.39a2.11,2.11,0,0,0-1.25-.39,1.55,1.55,0,0,0-1.25.57,2.31,2.31,0,0,0-.47,1.54,2.33,2.33,0,0,0,.44,1.48,1.5,1.5,0,0,0,1.21.55,2.31,2.31,0,0,0,1.32-.41Z"/><path class="cls-2" d="M188.75,30.29v-6.4h1.94q2.92,0,2.92,3.12a3.47,3.47,0,0,1-.8,2.39,2.72,2.72,0,0,1-2.12.89ZM190,25.06v4.06h.61a1.51,1.51,0,0,0,1.26-.56,2.33,2.33,0,0,0,.46-1.53,2.14,2.14,0,0,0-.45-1.44,1.62,1.62,0,0,0-1.28-.53Z"/><path class="cls-2" d="M198.45,30.06a3.12,3.12,0,0,1-1.57.34,2.45,2.45,0,0,1-2-.86,3.51,3.51,0,0,1-.72-2.31,3.73,3.73,0,0,1,.81-2.49,2.63,2.63,0,0,1,2.11-1,3.4,3.4,0,0,1,1.35.24v1.39A2.11,2.11,0,0,0,197.2,25a1.55,1.55,0,0,0-1.25.57,2.31,2.31,0,0,0-.47,1.54,2.33,2.33,0,0,0,.44,1.48,1.5,1.5,0,0,0,1.21.55,2.31,2.31,0,0,0,1.32-.41Z"/><path class="cls-2" d="M205.5,30.06a3.15,3.15,0,0,1-1.57.34,2.49,2.49,0,0,1-2-.86,3.51,3.51,0,0,1-.72-2.31,3.73,3.73,0,0,1,.81-2.49,2.65,2.65,0,0,1,2.11-1,3.41,3.41,0,0,1,1.36.24v1.39a2.14,2.14,0,0,0-1.26-.39,1.53,1.53,0,0,0-1.24.57,2.31,2.31,0,0,0-.48,1.54,2.27,2.27,0,0,0,.45,1.48,1.49,1.49,0,0,0,1.2.55,2.32,2.32,0,0,0,1.33-.41Z"/><path class="cls-2" d="M208.89,27a1,1,0,0,0-.51-.14.72.72,0,0,0-.62.34,1.74,1.74,0,0,0-.22.92v2.18h-1.21V25.72h1.21v.85h0c.19-.62.53-.93,1-.93a.78.78,0,0,1,.3.05Z"/><path class="cls-2" d="M210.09,25a.66.66,0,0,1-.5-.21.76.76,0,0,1-.19-.52.69.69,0,0,1,.19-.52.65.65,0,0,1,.5-.2.62.62,0,0,1,.5.2.7.7,0,0,1,.2.52.72.72,0,0,1-.2.52A.63.63,0,0,1,210.09,25Zm.6,5.29h-1.21V25.72h1.21Z"/><path class="cls-2" d="M211.45,30.17V29a2.59,2.59,0,0,0,.59.31,1.7,1.7,0,0,0,.56.1,1,1,0,0,0,.51-.1.34.34,0,0,0,.19-.31.29.29,0,0,0-.09-.22.69.69,0,0,0-.21-.16,1.48,1.48,0,0,0-.29-.12l-.3-.12a2.73,2.73,0,0,1-.42-.22,1.28,1.28,0,0,1-.29-.28,1,1,0,0,1-.19-.36,1.77,1.77,0,0,1-.06-.49,1.53,1.53,0,0,1,.14-.66A1.41,1.41,0,0,1,212,26a1.59,1.59,0,0,1,.54-.26,2.74,2.74,0,0,1,.64-.08,3.17,3.17,0,0,1,.53.05,3.41,3.41,0,0,1,.53.13v1.09a2,2,0,0,0-.49-.23,1.93,1.93,0,0,0-.52-.08l-.22,0a.64.64,0,0,0-.19.08.34.34,0,0,0-.12.12.28.28,0,0,0-.05.16.32.32,0,0,0,.07.22.65.65,0,0,0,.18.15l.25.12.27.1a3.45,3.45,0,0,1,.43.22,1.27,1.27,0,0,1,.34.27,1,1,0,0,1,.21.37,1.41,1.41,0,0,1,.08.5,1.46,1.46,0,0,1-.16.69,1.31,1.31,0,0,1-.4.47,1.56,1.56,0,0,1-.57.26,2.58,2.58,0,0,1-.68.08A3,3,0,0,1,211.45,30.17Z"/><path class="cls-2" d="M215.76,25a.66.66,0,0,1-.5-.21.76.76,0,0,1-.19-.52.69.69,0,0,1,.19-.52.65.65,0,0,1,.5-.2.62.62,0,0,1,.5.2.7.7,0,0,1,.2.52.72.72,0,0,1-.2.52A.63.63,0,0,1,215.76,25Zm.6,5.29h-1.21V25.72h1.21Z"/><path class="cls-2" d="M217.12,30.17V29a2.59,2.59,0,0,0,.59.31,1.7,1.7,0,0,0,.56.1,1,1,0,0,0,.51-.1A.34.34,0,0,0,219,29a.29.29,0,0,0-.09-.22.69.69,0,0,0-.21-.16,1.48,1.48,0,0,0-.29-.12l-.3-.12a2.73,2.73,0,0,1-.42-.22,1.28,1.28,0,0,1-.29-.28,1,1,0,0,1-.19-.36,1.77,1.77,0,0,1-.06-.49,1.53,1.53,0,0,1,.14-.66,1.41,1.41,0,0,1,.39-.45,1.59,1.59,0,0,1,.54-.26,2.74,2.74,0,0,1,.64-.08,3.17,3.17,0,0,1,.53.05,3.41,3.41,0,0,1,.53.13v1.09a2,2,0,0,0-.49-.23,1.93,1.93,0,0,0-.52-.08l-.22,0a.64.64,0,0,0-.19.08.34.34,0,0,0-.12.12.28.28,0,0,0,0,.16.32.32,0,0,0,.07.22.65.65,0,0,0,.18.15l.25.12.27.1a3.45,3.45,0,0,1,.43.22,1.27,1.27,0,0,1,.34.27,1,1,0,0,1,.21.37,1.41,1.41,0,0,1,.08.5,1.46,1.46,0,0,1-.16.69,1.31,1.31,0,0,1-.4.47,1.56,1.56,0,0,1-.57.26,2.58,2.58,0,0,1-.68.08A3,3,0,0,1,217.12,30.17Z"/><path class="cls-2" d="M227,30.06a3.12,3.12,0,0,1-1.57.34,2.45,2.45,0,0,1-2-.86,3.51,3.51,0,0,1-.73-2.31,3.73,3.73,0,0,1,.82-2.49,2.63,2.63,0,0,1,2.11-1A3.4,3.4,0,0,1,227,24v1.39a2.13,2.13,0,0,0-1.25-.39,1.53,1.53,0,0,0-1.25.57,2.31,2.31,0,0,0-.48,1.54,2.27,2.27,0,0,0,.45,1.48,1.5,1.5,0,0,0,1.21.55,2.31,2.31,0,0,0,1.32-.41Z"/><path class="cls-2" d="M231.12,30.29H230v-.65h0a1.26,1.26,0,0,1-1.17.76,1.13,1.13,0,0,1-.9-.37,1.55,1.55,0,0,1-.32-1,1.41,1.41,0,0,1,1.35-1.54l1.06-.16c0-.5-.23-.75-.7-.75a2.13,2.13,0,0,0-1.33.49V26a2.56,2.56,0,0,1,.69-.26,3,3,0,0,1,.8-.12c1.12,0,1.67.65,1.67,1.95ZM230,28.44v-.31l-.71.1c-.4.06-.59.27-.59.62a.57.57,0,0,0,.14.4.53.53,0,0,0,.39.15.66.66,0,0,0,.55-.27A1.06,1.06,0,0,0,230,28.44Z"/><path class="cls-2" d="M233.3,29.76h0v2.63h-1.21V25.72h1.21v.69h0a1.4,1.4,0,0,1,1.26-.8,1.34,1.34,0,0,1,1.18.61,3,3,0,0,1,.41,1.66,3.15,3.15,0,0,1-.48,1.83,1.5,1.5,0,0,1-1.29.69A1.18,1.18,0,0,1,233.3,29.76Zm0-1.87v.36a1.3,1.3,0,0,0,.21.77.67.67,0,0,0,.56.3.73.73,0,0,0,.65-.37,2.05,2.05,0,0,0,.22-1.05c0-.81-.26-1.21-.8-1.21a.72.72,0,0,0-.61.33A1.52,1.52,0,0,0,233.27,27.89Z"/><path class="cls-2" d="M240.12,30.29H239v-.65h0a1.25,1.25,0,0,1-1.17.76,1.1,1.1,0,0,1-.89-.37,1.5,1.5,0,0,1-.33-1,1.41,1.41,0,0,1,1.35-1.54l1.06-.16q0-.75-.69-.75a2.11,2.11,0,0,0-1.33.49V26a2.36,2.36,0,0,1,.68-.26,3.11,3.11,0,0,1,.8-.12q1.68,0,1.68,1.95ZM239,28.44v-.31l-.71.1a.6.6,0,0,0-.59.62.57.57,0,0,0,.14.4.53.53,0,0,0,.39.15.69.69,0,0,0,.56-.27A1.11,1.11,0,0,0,239,28.44Z"/><path class="cls-2" d="M244,30.13a2.15,2.15,0,0,1-1.18.27,1.86,1.86,0,0,1-1.46-.63,2.44,2.44,0,0,1-.56-1.65,2.66,2.66,0,0,1,.6-1.84,2,2,0,0,1,1.6-.67,1.84,1.84,0,0,1,1,.21V27a1.24,1.24,0,0,0-.84-.33,1.05,1.05,0,0,0-.83.35,1.49,1.49,0,0,0-.3,1,1.41,1.41,0,0,0,.29,1,1,1,0,0,0,.8.34A1.44,1.44,0,0,0,244,29Z"/><path class="cls-2" d="M245.44,25a.66.66,0,0,1-.5-.21.76.76,0,0,1-.19-.52.69.69,0,0,1,.19-.52.65.65,0,0,1,.5-.2.66.66,0,0,1,.51.2.74.74,0,0,1,.19.52.75.75,0,0,1-.19.52A.66.66,0,0,1,245.44,25Zm.6,5.29h-1.21V25.72H246Z"/><path class="cls-2" d="M249.42,30.24a1.55,1.55,0,0,1-.8.16c-.86,0-1.28-.51-1.28-1.55V26.76h-.63v-1h.63v-1l1.2-.4v1.39h.88v1h-.88v1.85c0,.48.17.71.49.71a.67.67,0,0,0,.39-.13Z"/><path class="cls-2" d="M253.83,25.72l-1.59,4.94c-.38,1.19-1,1.78-1.73,1.78a1.87,1.87,0,0,1-.72-.12V31.2a.91.91,0,0,0,.52.16.66.66,0,0,0,.65-.51l.21-.57-1.59-4.56h1.34l.73,2.78a4.31,4.31,0,0,1,.1.61h0a3.46,3.46,0,0,1,.13-.6l.73-2.79Z"/><path class="cls-2" d="M121.51,42.05V40.62a2.18,2.18,0,0,0,.73.49,2,2,0,0,0,.78.16,1.64,1.64,0,0,0,.41-.05.78.78,0,0,0,.29-.14.41.41,0,0,0,.17-.2.58.58,0,0,0,.06-.26.63.63,0,0,0-.09-.33,1.06,1.06,0,0,0-.25-.27,2.27,2.27,0,0,0-.38-.25l-.47-.23a2.44,2.44,0,0,1-1-.77,1.83,1.83,0,0,1-.31-1.08,2,2,0,0,1,.17-.86,1.74,1.74,0,0,1,.47-.6,2.22,2.22,0,0,1,.69-.34,3.12,3.12,0,0,1,.82-.11,4.26,4.26,0,0,1,.76.06A2.9,2.9,0,0,1,125,36v1.33a1.53,1.53,0,0,0-.3-.19,1.56,1.56,0,0,0-.33-.14,2.25,2.25,0,0,0-.35-.09l-.32,0a1.48,1.48,0,0,0-.38,0,1,1,0,0,0-.29.14.61.61,0,0,0-.19.2.58.58,0,0,0-.06.26.54.54,0,0,0,.07.29.79.79,0,0,0,.21.24,3,3,0,0,0,.32.23l.44.22a6.54,6.54,0,0,1,.59.34,2.52,2.52,0,0,1,.45.41,1.63,1.63,0,0,1,.28.52,2,2,0,0,1,.1.68,2.16,2.16,0,0,1-.17.9,1.64,1.64,0,0,1-.47.59,2,2,0,0,1-.7.33,3.7,3.7,0,0,1-.83.09,4,4,0,0,1-.86-.09A2.38,2.38,0,0,1,121.51,42.05Z"/><path class="cls-2" d="M128.21,42.24a1.59,1.59,0,0,1-.81.16c-.85,0-1.28-.51-1.28-1.55V38.76h-.63v-1h.63v-1l1.21-.4v1.39h.88v1h-.88v1.85c0,.48.16.71.48.71a.73.73,0,0,0,.4-.13Z"/><path class="cls-2" d="M131.44,39a.93.93,0,0,0-.51-.14.7.7,0,0,0-.61.34,1.65,1.65,0,0,0-.22.92v2.18h-1.21V37.72h1.21v.85h0c.19-.62.54-.93,1-.93a.78.78,0,0,1,.3,0Z"/><path class="cls-2" d="M135.26,42.29h-1.14v-.65h0a1.24,1.24,0,0,1-1.16.76A1.13,1.13,0,0,1,132,42a1.5,1.5,0,0,1-.33-1,1.41,1.41,0,0,1,1.35-1.54l1.07-.16c0-.5-.24-.75-.7-.75a2.11,2.11,0,0,0-1.33.49V38a2.56,2.56,0,0,1,.69-.26,3,3,0,0,1,.8-.12c1.11,0,1.67.65,1.67,2Zm-1.13-1.85v-.31l-.72.1a.59.59,0,0,0-.58.62.53.53,0,0,0,.14.4.5.5,0,0,0,.39.15.67.67,0,0,0,.55-.27A1.12,1.12,0,0,0,134.13,40.44Z"/><path class="cls-2" d="M138.58,42.24a1.52,1.52,0,0,1-.8.16c-.85,0-1.28-.51-1.28-1.55V38.76h-.63v-1h.63v-1l1.21-.4v1.39h.87v1h-.87v1.85c0,.48.16.71.48.71a.67.67,0,0,0,.39-.13Z"/><path class="cls-2" d="M142.75,40.41H140.2a1,1,0,0,0,1.07,1,2,2,0,0,0,1.14-.35v1a2.58,2.58,0,0,1-1.41.34,1.83,1.83,0,0,1-1.48-.61,2.61,2.61,0,0,1-.52-1.71,2.71,2.71,0,0,1,.57-1.81,1.75,1.75,0,0,1,1.39-.66,1.59,1.59,0,0,1,1.32.59,2.51,2.51,0,0,1,.47,1.61Zm-1.12-.87c0-.65-.23-1-.68-1a.61.61,0,0,0-.5.28,1.4,1.4,0,0,0-.26.7Z"/><path class="cls-2" d="M147.31,41.77a2.84,2.84,0,0,1-.63,2,2.32,2.32,0,0,1-1.83.7,2.58,2.58,0,0,1-1.25-.26V43a2.18,2.18,0,0,0,1.22.41,1.2,1.2,0,0,0,.94-.38,1.45,1.45,0,0,0,.34-1v-.36h0a1.32,1.32,0,0,1-1.22.76,1.38,1.38,0,0,1-1.19-.61,2.73,2.73,0,0,1-.44-1.65,3.1,3.1,0,0,1,.49-1.85,1.5,1.5,0,0,1,1.28-.68,1.16,1.16,0,0,1,1.08.64h0v-.53h1.21Zm-1.19-1.67v-.37a1.26,1.26,0,0,0-.22-.73.67.67,0,0,0-.57-.31.72.72,0,0,0-.64.37,1.94,1.94,0,0,0-.23,1,1.66,1.66,0,0,0,.22.9.71.71,0,0,0,1.2,0A1.53,1.53,0,0,0,146.12,40.1Z"/><path class="cls-2" d="M152.05,37.72l-1.59,4.94c-.39,1.19-1,1.78-1.73,1.78a1.89,1.89,0,0,1-.73-.12V43.2a.94.94,0,0,0,.53.16.66.66,0,0,0,.65-.51l.2-.57-1.59-4.56h1.34l.73,2.78a4.21,4.21,0,0,1,.11.61h0a4.52,4.52,0,0,1,.12-.6l.74-2.79Z"/><path class="cls-2" d="M158.53,41.77a2.84,2.84,0,0,1-.63,2,2.32,2.32,0,0,1-1.83.7,2.58,2.58,0,0,1-1.25-.26V43a2.18,2.18,0,0,0,1.22.41,1.23,1.23,0,0,0,1-.38,1.49,1.49,0,0,0,.33-1v-.36h0a1.32,1.32,0,0,1-1.22.76,1.38,1.38,0,0,1-1.19-.61,2.73,2.73,0,0,1-.44-1.65,3.1,3.1,0,0,1,.49-1.85,1.51,1.51,0,0,1,1.29-.68,1.15,1.15,0,0,1,1.07.64h0v-.53h1.21Zm-1.19-1.67v-.37a1.26,1.26,0,0,0-.22-.73.67.67,0,0,0-.57-.31.7.7,0,0,0-.63.37,1.85,1.85,0,0,0-.23,1,1.66,1.66,0,0,0,.21.9.69.69,0,0,0,.6.33.72.72,0,0,0,.61-.33A1.61,1.61,0,0,0,157.34,40.1Z"/><path class="cls-2" d="M163.26,42.29h-1.2V41.6h0a1.36,1.36,0,0,1-1.2.8c-.91,0-1.36-.64-1.36-1.92V37.72h1.2v2.63c0,.65.22,1,.66,1a.62.62,0,0,0,.52-.26,1.2,1.2,0,0,0,.2-.72V37.72h1.2Z"/><path class="cls-2" d="M164.89,37a.64.64,0,0,1-.5-.21.77.77,0,0,1-.2-.52.7.7,0,0,1,.2-.52.73.73,0,0,1,1,0,.69.69,0,0,1,.19.52.71.71,0,0,1-.19.52A.64.64,0,0,1,164.89,37Zm.6,5.29h-1.21V37.72h1.21Z"/><path class="cls-2" d="M170.33,42.29h-1.21v-.63h0a1.31,1.31,0,0,1-1.21.74,1.39,1.39,0,0,1-1.18-.6,2.78,2.78,0,0,1-.45-1.69,3,3,0,0,1,.49-1.82,1.53,1.53,0,0,1,1.29-.68,1.07,1.07,0,0,1,1.06.63h0V35.52h1.21Zm-1.18-2.22v-.34a1.28,1.28,0,0,0-.22-.75.72.72,0,0,0-.58-.29.7.7,0,0,0-.63.37,1.92,1.92,0,0,0-.22,1,1.73,1.73,0,0,0,.21.93.72.72,0,0,0,1.21,0A1.63,1.63,0,0,0,169.15,40.07Z"/><path class="cls-2" d="M174.87,40.41h-2.56a1,1,0,0,0,1.08,1,1.9,1.9,0,0,0,1.13-.35v1a2.58,2.58,0,0,1-1.41.34,1.82,1.82,0,0,1-1.47-.61,2.55,2.55,0,0,1-.52-1.71,2.76,2.76,0,0,1,.56-1.81,1.77,1.77,0,0,1,1.39-.66,1.6,1.6,0,0,1,1.33.59,2.57,2.57,0,0,1,.47,1.61Zm-1.12-.87c0-.65-.23-1-.68-1a.63.63,0,0,0-.51.28,1.4,1.4,0,0,0-.25.7Z"/><path class="cls-2" d="M176.79,42.29h-1.2V35.52h1.2Z"/><path class="cls-2" d="M178.42,37a.66.66,0,0,1-.5-.21.76.76,0,0,1-.19-.52.69.69,0,0,1,.19-.52.65.65,0,0,1,.5-.2.66.66,0,0,1,.51.2.74.74,0,0,1,.19.52.75.75,0,0,1-.19.52A.66.66,0,0,1,178.42,37Zm.6,5.29h-1.21V37.72H179Z"/><path class="cls-2" d="M183.82,42.29h-1.21V39.75c0-.71-.21-1.06-.65-1.06a.59.59,0,0,0-.51.28,1.18,1.18,0,0,0-.2.72v2.6H180V37.72h1.21v.72h0a1.37,1.37,0,0,1,1.26-.83c.86,0,1.3.63,1.3,1.88Z"/><path class="cls-2" d="M188.29,40.41h-2.55a1,1,0,0,0,1.07,1,2,2,0,0,0,1.14-.35v1a2.58,2.58,0,0,1-1.41.34,1.83,1.83,0,0,1-1.48-.61,2.61,2.61,0,0,1-.52-1.71,2.71,2.71,0,0,1,.57-1.81,1.75,1.75,0,0,1,1.39-.66,1.59,1.59,0,0,1,1.32.59,2.51,2.51,0,0,1,.47,1.61Zm-1.12-.87c0-.65-.23-1-.68-1a.61.61,0,0,0-.5.28,1.4,1.4,0,0,0-.26.7Z"/><path class="cls-2" d="M188.75,42.17V41a2.45,2.45,0,0,0,.6.31,1.66,1.66,0,0,0,.56.1,1.08,1.08,0,0,0,.51-.1.33.33,0,0,0,.18-.31.33.33,0,0,0-.08-.22.73.73,0,0,0-.22-.16,1.26,1.26,0,0,0-.29-.12l-.3-.12a2.6,2.6,0,0,1-.41-.22,1.15,1.15,0,0,1-.3-.28,1,1,0,0,1-.18-.36,1.75,1.75,0,0,1-.07-.49,1.4,1.4,0,0,1,.15-.66,1.27,1.27,0,0,1,.38-.45,1.64,1.64,0,0,1,.55-.26,2.67,2.67,0,0,1,.64-.08,3.54,3.54,0,0,1,1.05.18v1.09a1.69,1.69,0,0,0-.49-.23,1.81,1.81,0,0,0-.51-.08l-.23,0a.49.49,0,0,0-.18.08.3.3,0,0,0-.13.12.27.27,0,0,0,0,.16.38.38,0,0,0,.06.22.65.65,0,0,0,.18.15l.25.12.27.1a3.61,3.61,0,0,1,.44.22,1.09,1.09,0,0,1,.33.27,1,1,0,0,1,.21.37,1.41,1.41,0,0,1,.08.5,1.47,1.47,0,0,1-.15.69,1.41,1.41,0,0,1-.4.47,1.61,1.61,0,0,1-.58.26,2.53,2.53,0,0,1-.68.08A3,3,0,0,1,188.75,42.17Z"/><path class="cls-2" d="M200.29,37.72l-1.13,4.57h-1.27l-.58-2.68a2.58,2.58,0,0,1-.06-.58h0a3.68,3.68,0,0,1-.07.57l-.62,2.69h-1.26l-1.1-4.57h1.23l.54,3q0,.21.06.51h0a2.34,2.34,0,0,1,.07-.52l.67-3h1.15l.6,3a3.89,3.89,0,0,1,.06.52h0c0-.17,0-.34.07-.52l.51-3Z"/><path class="cls-2" d="M204.62,42.29h-1.21v-2.6c0-.67-.21-1-.62-1a.59.59,0,0,0-.52.28,1.18,1.18,0,0,0-.2.72v2.6h-1.21V35.52h1.21V38.4h0a1.35,1.35,0,0,1,1.21-.79c.88,0,1.33.62,1.33,1.87Z"/><path class="cls-2" d="M209.09,40.41h-2.55a1,1,0,0,0,1.07,1,2,2,0,0,0,1.14-.35v1a2.63,2.63,0,0,1-1.41.34,1.83,1.83,0,0,1-1.48-.61,2.55,2.55,0,0,1-.52-1.71,2.71,2.71,0,0,1,.57-1.81,1.75,1.75,0,0,1,1.39-.66,1.59,1.59,0,0,1,1.32.59,2.57,2.57,0,0,1,.47,1.61ZM208,39.54c0-.65-.23-1-.68-1a.61.61,0,0,0-.5.28,1.4,1.4,0,0,0-.26.7Z"/><path class="cls-2" d="M213.59,42.29h-1.2V39.75c0-.71-.22-1.06-.65-1.06a.62.62,0,0,0-.52.28,1.18,1.18,0,0,0-.2.72v2.6h-1.21V37.72H211v.72h0a1.37,1.37,0,0,1,1.26-.83c.87,0,1.3.63,1.3,1.88Z"/><path class="cls-2" d="M220.22,40.41h-2.55a1,1,0,0,0,1.07,1,1.93,1.93,0,0,0,1.14-.35v1a2.58,2.58,0,0,1-1.41.34,1.82,1.82,0,0,1-1.47-.61,2.55,2.55,0,0,1-.53-1.71,2.71,2.71,0,0,1,.57-1.81,1.77,1.77,0,0,1,1.39-.66,1.63,1.63,0,0,1,1.33.59,2.57,2.57,0,0,1,.46,1.61Zm-1.12-.87c0-.65-.22-1-.68-1a.61.61,0,0,0-.5.28,1.4,1.4,0,0,0-.26.7Z"/><path class="cls-2" d="M224.77,44.39h-1.2V41.66h0a1.28,1.28,0,0,1-1.2.74,1.41,1.41,0,0,1-1.19-.6,2.75,2.75,0,0,1-.45-1.68,3.07,3.07,0,0,1,.49-1.83,1.53,1.53,0,0,1,1.29-.68,1.12,1.12,0,0,1,1.06.64h0v-.53h1.2Zm-1.18-4.28v-.37a1.33,1.33,0,0,0-.22-.75.69.69,0,0,0-.57-.3.7.7,0,0,0-.63.37,1.84,1.84,0,0,0-.23,1,1.59,1.59,0,0,0,.22.91.67.67,0,0,0,.58.33.73.73,0,0,0,.62-.33A1.55,1.55,0,0,0,223.59,40.11Z"/><path class="cls-2" d="M229.51,42.29h-1.2V41.6h0a1.36,1.36,0,0,1-1.2.8c-.91,0-1.36-.64-1.36-1.92V37.72h1.2v2.63c0,.65.22,1,.66,1a.62.62,0,0,0,.52-.26,1.2,1.2,0,0,0,.2-.72V37.72h1.2Z"/><path class="cls-2" d="M231.14,37a.66.66,0,0,1-.5-.21.77.77,0,0,1-.2-.52.7.7,0,0,1,.2-.52.65.65,0,0,1,.5-.2.63.63,0,0,1,.5.2.7.7,0,0,1,.2.52.72.72,0,0,1-.2.52A.64.64,0,0,1,231.14,37Zm.6,5.29h-1.21V37.72h1.21Z"/><path class="cls-2" d="M234,41.76h0v2.63h-1.21V37.72H234v.69h0a1.37,1.37,0,0,1,1.25-.8,1.34,1.34,0,0,1,1.18.61,2.89,2.89,0,0,1,.41,1.66,3.15,3.15,0,0,1-.48,1.83,1.5,1.5,0,0,1-1.29.69A1.15,1.15,0,0,1,234,41.76Zm0-1.87v.36a1.23,1.23,0,0,0,.22.77.66.66,0,0,0,.56.3.71.71,0,0,0,.64-.37,2,2,0,0,0,.23-1.05c0-.81-.27-1.21-.81-1.21a.71.71,0,0,0-.6.33A1.45,1.45,0,0,0,233.94,39.89Z"/><path class="cls-2" d="M243.83,42.29h-1.21v-2.6c0-.67-.21-1-.63-1a.55.55,0,0,0-.48.3,1.34,1.34,0,0,0-.19.74v2.56h-1.21V39.66c0-.65-.2-1-.61-1a.58.58,0,0,0-.5.29,1.42,1.42,0,0,0-.18.77v2.54h-1.21V37.72h1.21v.72h0a1.54,1.54,0,0,1,.53-.6,1.3,1.3,0,0,1,.74-.23,1.12,1.12,0,0,1,1.13.85,1.42,1.42,0,0,1,1.32-.85c.85,0,1.28.61,1.28,1.84Z"/><path class="cls-2" d="M248.3,40.41h-2.56a1,1,0,0,0,1.08,1,1.9,1.9,0,0,0,1.13-.35v1a2.58,2.58,0,0,1-1.41.34,1.82,1.82,0,0,1-1.47-.61,2.55,2.55,0,0,1-.52-1.71,2.76,2.76,0,0,1,.56-1.81,1.78,1.78,0,0,1,1.39-.66,1.6,1.6,0,0,1,1.33.59,2.57,2.57,0,0,1,.47,1.61Zm-1.12-.87c0-.65-.23-1-.68-1a.6.6,0,0,0-.5.28,1.32,1.32,0,0,0-.26.7Z"/><path class="cls-2" d="M252.8,42.29h-1.21V39.75c0-.71-.21-1.06-.65-1.06a.6.6,0,0,0-.51.28,1.18,1.18,0,0,0-.2.72v2.6H249V37.72h1.21v.72h0a1.37,1.37,0,0,1,1.26-.83c.87,0,1.3.63,1.3,1.88Z"/><path class="cls-2" d="M256.12,42.24a1.59,1.59,0,0,1-.81.16c-.85,0-1.27-.51-1.27-1.55V38.76h-.64v-1H254v-1l1.2-.4v1.39h.88v1h-.88v1.85c0,.48.16.71.49.71a.7.7,0,0,0,.39-.13Z"/><path class="cls-2" d="M121.39,54.17V53a2.59,2.59,0,0,0,.59.31,1.7,1.7,0,0,0,.56.1,1,1,0,0,0,.51-.1.34.34,0,0,0,.19-.31.32.32,0,0,0-.09-.23.87.87,0,0,0-.21-.15,1.48,1.48,0,0,0-.29-.12l-.3-.12a2.73,2.73,0,0,1-.42-.22,1.28,1.28,0,0,1-.29-.28,1.23,1.23,0,0,1-.19-.36,1.77,1.77,0,0,1-.06-.49,1.53,1.53,0,0,1,.14-.66,1.41,1.41,0,0,1,.39-.45,1.69,1.69,0,0,1,.54-.26,2.74,2.74,0,0,1,.64-.08,2.38,2.38,0,0,1,.53,0,3.41,3.41,0,0,1,.53.13v1.09a2,2,0,0,0-.49-.23,1.61,1.61,0,0,0-.52-.08l-.22,0-.19.07a.49.49,0,0,0-.12.13.28.28,0,0,0-.05.16.32.32,0,0,0,.07.22.65.65,0,0,0,.18.15l.25.12.27.1a3.45,3.45,0,0,1,.43.22,1.27,1.27,0,0,1,.34.27,1.07,1.07,0,0,1,.21.36,1.61,1.61,0,0,1-.08,1.2,1.31,1.31,0,0,1-.4.47,1.75,1.75,0,0,1-.57.26,2.58,2.58,0,0,1-.68.08A3,3,0,0,1,121.39,54.17Z"/><path class="cls-2" d="M128.85,54.29h-1.2v-2.6c0-.67-.21-1-.63-1a.59.59,0,0,0-.52.28,1.24,1.24,0,0,0-.2.71v2.61h-1.21V47.52h1.21V50.4h0a1.32,1.32,0,0,1,1.2-.79c.89,0,1.33.62,1.33,1.87Z"/><path class="cls-2" d="M131.67,54.4a1.94,1.94,0,0,1-1.54-.64,3,3,0,0,1,0-3.51,2,2,0,0,1,1.57-.64,1.89,1.89,0,0,1,1.53.64,2.5,2.5,0,0,1,.56,1.69,2.66,2.66,0,0,1-.57,1.8A2,2,0,0,1,131.67,54.4Zm0-3.71A.75.75,0,0,0,131,51a1.71,1.71,0,0,0-.24,1c0,.87.3,1.31.91,1.31s.87-.45.87-1.35S132.29,50.69,131.7,50.69Z"/><path class="cls-2" d="M137.15,51a1,1,0,0,0-.51-.14.72.72,0,0,0-.62.34,1.74,1.74,0,0,0-.22.92v2.18h-1.21V49.72h1.21v.85h0c.19-.62.53-.93,1-.93a.78.78,0,0,1,.3,0Z"/><path class="cls-2" d="M140.3,54.24a1.59,1.59,0,0,1-.81.16c-.85,0-1.27-.51-1.27-1.55V50.76h-.64v-1h.64v-1l1.2-.4v1.39h.88v1h-.88v1.85c0,.47.16.71.49.71a.7.7,0,0,0,.39-.13Z"/><path class="cls-2" d="M144.24,54.29H143.1v-.66h0a1.24,1.24,0,0,1-1.17.77A1.11,1.11,0,0,1,141,54a1.5,1.5,0,0,1-.33-1A1.41,1.41,0,0,1,142,51.48l1.06-.16q0-.75-.69-.75a2.15,2.15,0,0,0-1.33.48V50a2.75,2.75,0,0,1,.69-.27,3.4,3.4,0,0,1,.79-.11q1.68,0,1.68,2Zm-1.14-1.86v-.3l-.71.1a.6.6,0,0,0-.59.62.55.55,0,0,0,.15.4.49.49,0,0,0,.38.15.68.68,0,0,0,.56-.27A1.12,1.12,0,0,0,143.1,52.43Z"/><path class="cls-2" d="M149,53.77a2.84,2.84,0,0,1-.63,2,2.32,2.32,0,0,1-1.83.7,2.49,2.49,0,0,1-1.25-.27V55a2.18,2.18,0,0,0,1.22.41,1.22,1.22,0,0,0,1-.38,1.49,1.49,0,0,0,.33-1v-.37h0a1.31,1.31,0,0,1-1.22.77,1.38,1.38,0,0,1-1.19-.61,2.82,2.82,0,0,1-.44-1.66,3.09,3.09,0,0,1,.49-1.84,1.53,1.53,0,0,1,1.29-.68,1.15,1.15,0,0,1,1.07.64h0v-.53H149Zm-1.19-1.68v-.36a1.19,1.19,0,0,0-.22-.73.67.67,0,0,0-.57-.31.71.71,0,0,0-.63.36,1.91,1.91,0,0,0-.23,1,1.58,1.58,0,0,0,.22.9.67.67,0,0,0,.59.33.72.72,0,0,0,.61-.33A1.62,1.62,0,0,0,147.84,52.09Z"/><path class="cls-2" d="M153.56,52.41H151a1,1,0,0,0,1.07,1,1.89,1.89,0,0,0,1.14-.36v1a2.63,2.63,0,0,1-1.41.34,1.83,1.83,0,0,1-1.48-.61,2.55,2.55,0,0,1-.52-1.71,2.71,2.71,0,0,1,.57-1.81,1.75,1.75,0,0,1,1.39-.66,1.59,1.59,0,0,1,1.32.59,2.57,2.57,0,0,1,.47,1.61Zm-1.12-.87c0-.65-.23-1-.68-1a.61.61,0,0,0-.5.28,1.4,1.4,0,0,0-.26.7Z"/><path class="cls-2" d="M154,54.17V53a2.45,2.45,0,0,0,.6.31,1.62,1.62,0,0,0,.56.1,1,1,0,0,0,.5-.1.33.33,0,0,0,.19-.31.36.36,0,0,0-.08-.23.94.94,0,0,0-.22-.15,1.48,1.48,0,0,0-.29-.12l-.3-.12a2.6,2.6,0,0,1-.41-.22,1.15,1.15,0,0,1-.3-.28,1,1,0,0,1-.18-.36,1.45,1.45,0,0,1-.07-.49,1.4,1.4,0,0,1,.15-.66,1.27,1.27,0,0,1,.38-.45,1.64,1.64,0,0,1,.55-.26,2.61,2.61,0,0,1,.64-.08,2.35,2.35,0,0,1,.52,0,3.16,3.16,0,0,1,.53.13v1.09a1.83,1.83,0,0,0-.49-.23,1.55,1.55,0,0,0-.51-.08l-.23,0a.75.75,0,0,0-.18.07.4.4,0,0,0-.13.13.28.28,0,0,0-.05.16.38.38,0,0,0,.07.22.65.65,0,0,0,.18.15l.25.12.27.1a4.51,4.51,0,0,1,.44.22,1.09,1.09,0,0,1,.33.27,1.07,1.07,0,0,1,.21.36,1.66,1.66,0,0,1-.07,1.2,1.41,1.41,0,0,1-.4.47,1.8,1.8,0,0,1-.58.26,2.58,2.58,0,0,1-.68.08A3,3,0,0,1,154,54.17Z"/><path class="cls-2" d="M163.14,54.29H162v-.66h0a1.24,1.24,0,0,1-1.16.77,1.13,1.13,0,0,1-.9-.37,1.5,1.5,0,0,1-.33-1,1.41,1.41,0,0,1,1.35-1.54l1.07-.16c0-.5-.24-.75-.7-.75a2.15,2.15,0,0,0-1.33.48V50a2.91,2.91,0,0,1,.69-.27,3.48,3.48,0,0,1,.8-.11c1.11,0,1.67.65,1.67,2ZM162,52.43v-.3l-.72.1a.59.59,0,0,0-.58.62.54.54,0,0,0,.14.4.5.5,0,0,0,.39.15.67.67,0,0,0,.55-.27A1.12,1.12,0,0,0,162,52.43Z"/><path class="cls-2" d="M166.65,51a.93.93,0,0,0-.51-.14.7.7,0,0,0-.61.34,1.65,1.65,0,0,0-.22.92v2.18H164.1V49.72h1.21v.85h0c.19-.62.54-.93,1-.93a.78.78,0,0,1,.3,0Z"/><path class="cls-2" d="M170.7,52.41h-2.55a.94.94,0,0,0,1.07,1,1.89,1.89,0,0,0,1.14-.36v1a2.63,2.63,0,0,1-1.41.34,1.83,1.83,0,0,1-1.48-.61,2.55,2.55,0,0,1-.52-1.71,2.76,2.76,0,0,1,.56-1.81,1.79,1.79,0,0,1,1.4-.66,1.59,1.59,0,0,1,1.32.59,2.57,2.57,0,0,1,.47,1.61Zm-1.12-.87c0-.65-.23-1-.68-1a.61.61,0,0,0-.5.28,1.32,1.32,0,0,0-.26.7Z"/><path class="cls-2" d="M174.8,53.76h0v2.63h-1.21V49.72h1.21v.69h0a1.4,1.4,0,0,1,1.26-.8,1.34,1.34,0,0,1,1.18.61,3,3,0,0,1,.41,1.66,3.15,3.15,0,0,1-.48,1.83,1.51,1.51,0,0,1-1.29.69A1.18,1.18,0,0,1,174.8,53.76Zm0-1.87v.36A1.3,1.3,0,0,0,175,53a.67.67,0,0,0,.56.3.7.7,0,0,0,.64-.37,2,2,0,0,0,.23-1.06c0-.8-.27-1.2-.8-1.2A.72.72,0,0,0,175,51,1.52,1.52,0,0,0,174.77,51.89Z"/><path class="cls-2" d="M181,51a1,1,0,0,0-.51-.14.72.72,0,0,0-.62.34,1.74,1.74,0,0,0-.22.92v2.18h-1.21V49.72h1.21v.85h0c.19-.62.53-.93,1-.93a.78.78,0,0,1,.3,0Z"/><path class="cls-2" d="M185,52.41h-2.56a1,1,0,0,0,1.08,1,1.84,1.84,0,0,0,1.13-.36v1a2.58,2.58,0,0,1-1.41.34,1.82,1.82,0,0,1-1.47-.61,2.55,2.55,0,0,1-.52-1.71,2.76,2.76,0,0,1,.56-1.81,1.77,1.77,0,0,1,1.39-.66,1.6,1.6,0,0,1,1.33.59,2.57,2.57,0,0,1,.47,1.61Zm-1.12-.87c0-.65-.23-1-.68-1a.63.63,0,0,0-.51.28,1.4,1.4,0,0,0-.25.7Z"/><path class="cls-2" d="M185.5,54.17V53a2.59,2.59,0,0,0,.59.31,1.71,1.71,0,0,0,.57.1,1,1,0,0,0,.5-.1.33.33,0,0,0,.19-.31.32.32,0,0,0-.09-.23.87.87,0,0,0-.21-.15,1.48,1.48,0,0,0-.29-.12l-.3-.12a2.73,2.73,0,0,1-.42-.22,1.28,1.28,0,0,1-.29-.28,1.23,1.23,0,0,1-.19-.36,1.77,1.77,0,0,1-.06-.49,1.53,1.53,0,0,1,.14-.66A1.41,1.41,0,0,1,186,50a1.69,1.69,0,0,1,.54-.26,2.74,2.74,0,0,1,.64-.08,2.38,2.38,0,0,1,.53,0,3.41,3.41,0,0,1,.53.13v1.09a1.83,1.83,0,0,0-.49-.23,1.61,1.61,0,0,0-.52-.08l-.22,0-.19.07a.49.49,0,0,0-.12.13.28.28,0,0,0,0,.16.38.38,0,0,0,.07.22.65.65,0,0,0,.18.15l.25.12.27.1a3.45,3.45,0,0,1,.43.22,1.27,1.27,0,0,1,.34.27,1.07,1.07,0,0,1,.21.36,1.5,1.5,0,0,1,.08.5,1.39,1.39,0,0,1-.16.7,1.31,1.31,0,0,1-.4.47,1.75,1.75,0,0,1-.57.26,2.58,2.58,0,0,1-.68.08A3,3,0,0,1,185.5,54.17Z"/><path class="cls-2" d="M192.72,52.41h-2.56a1,1,0,0,0,1.08,1,1.84,1.84,0,0,0,1.13-.36v1a2.58,2.58,0,0,1-1.41.34,1.82,1.82,0,0,1-1.47-.61,2.55,2.55,0,0,1-.52-1.71,2.76,2.76,0,0,1,.56-1.81,1.78,1.78,0,0,1,1.39-.66,1.6,1.6,0,0,1,1.33.59,2.57,2.57,0,0,1,.47,1.61Zm-1.12-.87c0-.65-.23-1-.68-1a.6.6,0,0,0-.5.28,1.32,1.32,0,0,0-.26.7Z"/><path class="cls-2" d="M197.22,54.29H196V51.75c0-.71-.21-1.06-.65-1.06a.6.6,0,0,0-.51.28,1.17,1.17,0,0,0-.2.71v2.61h-1.21V49.72h1.21v.72h0a1.37,1.37,0,0,1,1.26-.83c.87,0,1.3.63,1.3,1.88Z"/><path class="cls-2" d="M200.54,54.24a1.59,1.59,0,0,1-.81.16c-.85,0-1.27-.51-1.27-1.55V50.76h-.64v-1h.64v-1l1.2-.4v1.39h.88v1h-.88v1.85c0,.47.16.71.49.71a.7.7,0,0,0,.39-.13Z"/><path class="cls-2" d="M201.76,54.4a.67.67,0,0,1-.5-.21.76.76,0,0,1-.2-.53.7.7,0,0,1,.72-.73.66.66,0,0,1,.51.21.82.82,0,0,1,0,1.06A.72.72,0,0,1,201.76,54.4Z"/><path class="cls-2" d="M212.38,54.29H211l-.85-1.65q-.09-.18-.18-.33a1.8,1.8,0,0,0-.18-.25.56.56,0,0,0-.19-.16.37.37,0,0,0-.21-.06H209v2.45h-1.24v-6.4h2c1.33,0,2,.58,2,1.74a2.06,2.06,0,0,1-.09.62,1.73,1.73,0,0,1-.25.51,1.8,1.8,0,0,1-.39.39,1.75,1.75,0,0,1-.51.26v0a.61.61,0,0,1,.24.15,1.21,1.21,0,0,1,.22.23,3.06,3.06,0,0,1,.21.29l.18.3ZM209,49v1.78h.53a.81.81,0,0,0,.64-.27,1,1,0,0,0,.25-.67.75.75,0,0,0-.86-.84Z"/><path class="cls-2" d="M216.1,52.41h-2.56a1,1,0,0,0,1.08,1,1.84,1.84,0,0,0,1.13-.36v1a2.58,2.58,0,0,1-1.41.34,1.82,1.82,0,0,1-1.47-.61,2.55,2.55,0,0,1-.52-1.71,2.76,2.76,0,0,1,.56-1.81,1.77,1.77,0,0,1,1.39-.66,1.6,1.6,0,0,1,1.33.59,2.57,2.57,0,0,1,.47,1.61ZM215,51.54c0-.65-.23-1-.68-1a.63.63,0,0,0-.51.28,1.4,1.4,0,0,0-.25.7Z"/><path class="cls-2" d="M220.54,49.72l-1.45,4.57h-1.38l-1.39-4.57h1.3l.68,2.82a5.13,5.13,0,0,1,.13.81h0a4.27,4.27,0,0,1,.14-.79l.69-2.84Z"/><path class="cls-2" d="M221.67,49a.66.66,0,0,1-.5-.21.76.76,0,0,1-.19-.52.69.69,0,0,1,.19-.52.65.65,0,0,1,.5-.2.66.66,0,0,1,.51.2.74.74,0,0,1,.19.52.75.75,0,0,1-.19.52A.66.66,0,0,1,221.67,49Zm.6,5.29h-1.21V49.72h1.21Z"/><path class="cls-2" d="M226.8,52.41h-2.55a1,1,0,0,0,1.07,1,1.87,1.87,0,0,0,1.14-.36v1a2.58,2.58,0,0,1-1.41.34,1.82,1.82,0,0,1-1.47-.61,2.55,2.55,0,0,1-.53-1.71,2.71,2.71,0,0,1,.57-1.81,1.77,1.77,0,0,1,1.39-.66,1.63,1.63,0,0,1,1.33.59,2.57,2.57,0,0,1,.46,1.61Zm-1.12-.87c0-.65-.22-1-.68-1a.61.61,0,0,0-.5.28,1.4,1.4,0,0,0-.26.7Z"/><path class="cls-2" d="M233.19,49.72l-1.12,4.57H230.8l-.58-2.68a3.41,3.41,0,0,1-.07-.58h0a3.24,3.24,0,0,1-.08.56l-.62,2.7h-1.25l-1.1-4.57h1.23l.54,3c0,.14,0,.31.05.51h0a2.53,2.53,0,0,1,.07-.53l.67-3h1.15l.6,3a3.89,3.89,0,0,1,.06.52h0l.06-.52.51-3Z"/><path class="cls-2" d="M239.76,53.77a2.84,2.84,0,0,1-.63,2,2.32,2.32,0,0,1-1.82.7,2.51,2.51,0,0,1-1.26-.27V55a2.2,2.2,0,0,0,1.22.41,1.21,1.21,0,0,0,.95-.38,1.49,1.49,0,0,0,.34-1v-.37h0a1.3,1.3,0,0,1-1.22.77,1.39,1.39,0,0,1-1.19-.61,2.82,2.82,0,0,1-.44-1.66,3.16,3.16,0,0,1,.49-1.84,1.53,1.53,0,0,1,1.29-.68,1.14,1.14,0,0,1,1.07.64h0v-.53h1.2Zm-1.19-1.68v-.36a1.19,1.19,0,0,0-.22-.73.65.65,0,0,0-.57-.31.71.71,0,0,0-.63.36,2,2,0,0,0-.23,1,1.58,1.58,0,0,0,.22.9.67.67,0,0,0,.6.33.71.71,0,0,0,.6-.33A1.54,1.54,0,0,0,238.57,52.09Z"/><path class="cls-2" d="M244.49,54.29h-1.2v-.7h0a1.35,1.35,0,0,1-1.2.81c-.9,0-1.36-.64-1.36-1.92V49.72h1.21v2.63c0,.65.22,1,.66,1a.62.62,0,0,0,.51-.26,1.2,1.2,0,0,0,.2-.72V49.72h1.2Z"/><path class="cls-2" d="M246.12,49a.66.66,0,0,1-.5-.21.76.76,0,0,1-.19-.52.69.69,0,0,1,.19-.52.65.65,0,0,1,.5-.2.66.66,0,0,1,.51.2.74.74,0,0,1,.19.52.75.75,0,0,1-.19.52A.66.66,0,0,1,246.12,49Zm.6,5.29h-1.21V49.72h1.21Z"/><path class="cls-2" d="M251.57,54.29h-1.21v-.63h0a1.29,1.29,0,0,1-1.21.74,1.4,1.4,0,0,1-1.18-.6,2.8,2.8,0,0,1-.45-1.69,3,3,0,0,1,.5-1.82,1.53,1.53,0,0,1,1.29-.68,1.06,1.06,0,0,1,1.05.63h0V47.52h1.21Zm-1.19-2.22v-.35a1.2,1.2,0,0,0-.22-.74.71.71,0,0,0-.58-.29.69.69,0,0,0-.62.37,1.91,1.91,0,0,0-.23,1A1.64,1.64,0,0,0,249,53a.69.69,0,0,0,.6.32.68.68,0,0,0,.6-.34A1.56,1.56,0,0,0,250.38,52.07Z"/><path class="cls-2" d="M256.1,52.41h-2.55a1,1,0,0,0,1.07,1,1.89,1.89,0,0,0,1.14-.36v1a2.58,2.58,0,0,1-1.41.34,1.8,1.8,0,0,1-1.47-.61,2.55,2.55,0,0,1-.53-1.71,2.71,2.71,0,0,1,.57-1.81,1.75,1.75,0,0,1,1.39-.66,1.59,1.59,0,0,1,1.32.59,2.51,2.51,0,0,1,.47,1.61ZM255,51.54c0-.65-.23-1-.68-1a.61.61,0,0,0-.5.28,1.4,1.4,0,0,0-.26.7Z"/><path class="cls-2" d="M258,54.29h-1.21V47.52H258Z"/><path class="cls-2" d="M259.66,49a.64.64,0,0,1-.5-.21.77.77,0,0,1-.2-.52.7.7,0,0,1,.2-.52.72.72,0,0,1,1,0,.69.69,0,0,1,.19.52.71.71,0,0,1-.19.52A.64.64,0,0,1,259.66,49Zm.59,5.29h-1.2V49.72h1.2Z"/><path class="cls-2" d="M265.05,54.29h-1.2V51.75c0-.71-.22-1.06-.65-1.06a.62.62,0,0,0-.52.28,1.24,1.24,0,0,0-.2.71v2.61h-1.21V49.72h1.21v.72h0a1.35,1.35,0,0,1,1.25-.83c.87,0,1.3.63,1.3,1.88Z"/><path class="cls-2" d="M269.53,52.41H267a1,1,0,0,0,1.08,1,1.84,1.84,0,0,0,1.13-.36v1a2.58,2.58,0,0,1-1.41.34,1.82,1.82,0,0,1-1.47-.61,2.55,2.55,0,0,1-.52-1.71,2.7,2.7,0,0,1,.56-1.81,1.77,1.77,0,0,1,1.39-.66,1.61,1.61,0,0,1,1.33.59,2.57,2.57,0,0,1,.47,1.61Zm-1.12-.87c0-.65-.23-1-.68-1a.61.61,0,0,0-.51.28,1.51,1.51,0,0,0-.26.7Z"/><path class="cls-2" d="M270,54.17V53a2.59,2.59,0,0,0,.59.31,1.7,1.7,0,0,0,.56.1,1,1,0,0,0,.51-.1.33.33,0,0,0,.18-.31.31.31,0,0,0-.08-.23.87.87,0,0,0-.21-.15,1.48,1.48,0,0,0-.29-.12l-.31-.12a3.14,3.14,0,0,1-.41-.22,1.28,1.28,0,0,1-.29-.28,1,1,0,0,1-.19-.36,1.77,1.77,0,0,1-.06-.49,1.3,1.3,0,0,1,.52-1.11,1.74,1.74,0,0,1,.55-.26,2.74,2.74,0,0,1,.64-.08,2.38,2.38,0,0,1,.53,0,3.41,3.41,0,0,1,.53.13v1.09a2,2,0,0,0-.49-.23,1.61,1.61,0,0,0-.52-.08l-.22,0-.19.07a.49.49,0,0,0-.12.13.28.28,0,0,0-.05.16.32.32,0,0,0,.07.22.54.54,0,0,0,.18.15l.25.12.26.1a3,3,0,0,1,.44.22,1.27,1.27,0,0,1,.34.27,1.07,1.07,0,0,1,.21.36,1.75,1.75,0,0,1-.08,1.2,1.31,1.31,0,0,1-.4.47,1.8,1.8,0,0,1-.58.26,2.46,2.46,0,0,1-.67.08A3,3,0,0,1,270,54.17Z"/><path class="cls-2" d="M279.11,54.29H278v-.66h0a1.24,1.24,0,0,1-1.17.77,1.1,1.1,0,0,1-.89-.37,1.5,1.5,0,0,1-.33-1,1.41,1.41,0,0,1,1.35-1.54l1.06-.16q0-.75-.69-.75a2.15,2.15,0,0,0-1.33.48V50a2.6,2.6,0,0,1,.69-.27,3.4,3.4,0,0,1,.79-.11q1.68,0,1.68,2ZM278,52.43v-.3l-.71.1a.6.6,0,0,0-.59.62.55.55,0,0,0,.15.4.49.49,0,0,0,.38.15.68.68,0,0,0,.56-.27A1.12,1.12,0,0,0,278,52.43Z"/><path class="cls-2" d="M282.43,54.24a1.59,1.59,0,0,1-.81.16c-.85,0-1.27-.51-1.27-1.55V50.76h-.64v-1h.64v-1l1.2-.4v1.39h.88v1h-.88v1.85c0,.47.16.71.49.71a.72.72,0,0,0,.39-.13Z"/><path class="cls-2" d="M283.65,51.14a.68.68,0,0,1-.5-.22.73.73,0,0,1-.2-.52.71.71,0,0,1,.21-.53.69.69,0,0,1,.51-.2.71.71,0,0,1,.51.2.75.75,0,0,1,.19.53.7.7,0,0,1-.2.53A.69.69,0,0,1,283.65,51.14Zm0,3.26a.67.67,0,0,1-.5-.21.76.76,0,0,1-.2-.53.72.72,0,0,1,.21-.53.69.69,0,0,1,.51-.2.68.68,0,0,1,.51.21.82.82,0,0,1,0,1.06A.72.72,0,0,1,283.65,54.4Z"/><path class="cls-5" d="M126,62.89a6.5,6.5,0,0,1-.13,1l-.54,2.92h-1.08l.55-3a6.14,6.14,0,0,0,.09-.66c0-.46-.18-.68-.54-.68a1,1,0,0,0-.61.26,2.42,2.42,0,0,0-.57.68,3.1,3.1,0,0,0-.33.87l-.47,2.54h-1.08l1.43-7.69h1.08l-.68,3.6h0a3.33,3.33,0,0,1,.82-.91,1.5,1.5,0,0,1,.9-.32,1,1,0,0,1,.85.36A1.61,1.61,0,0,1,126,62.89Z"/><path class="cls-5" d="M129.65,62.56h-1.11l-.43,2.35a3.28,3.28,0,0,0-.08.59.51.51,0,0,0,.09.34.4.4,0,0,0,.31.1,1.83,1.83,0,0,0,.62-.18l-.18,1a2.16,2.16,0,0,1-.88.2c-.7,0-1-.4-1-1.18A4.43,4.43,0,0,1,127,65l.45-2.41h-.73l.19-1h.71l.24-1.24L129,60l-.28,1.58h1.11Z"/><path class="cls-5" d="M132.83,62.56h-1.11l-.44,2.35a4.63,4.63,0,0,0-.08.59.46.46,0,0,0,.1.34.38.38,0,0,0,.3.1,1.81,1.81,0,0,0,.63-.18l-.18,1a2.2,2.2,0,0,1-.88.2c-.7,0-1-.4-1-1.18a4.43,4.43,0,0,1,.09-.77l.44-2.41h-.73l.2-1h.71l.23-1.24,1.13-.34-.29,1.58H133Z"/><path class="cls-5" d="M137.6,63.42a4.27,4.27,0,0,1-.37,1.78,3,3,0,0,1-1,1.28,2.36,2.36,0,0,1-1.42.46,2.53,2.53,0,0,1-.87-.15l-.44,2.42h-1.08l1.1-5.94c0-.17.07-.44.11-.8a8.36,8.36,0,0,0,.07-.86h1.07c0,.09,0,.25,0,.47s0,.4-.06.52h0a1.77,1.77,0,0,1,1.54-1.11,1.15,1.15,0,0,1,1,.51A2.47,2.47,0,0,1,137.6,63.42Zm-1.08.11a1.47,1.47,0,0,0-.18-.81.59.59,0,0,0-.52-.26.88.88,0,0,0-.6.25,2.35,2.35,0,0,0-.52.77,4.12,4.12,0,0,0-.33,1.05l-.26,1.35a1.46,1.46,0,0,0,.32.09,2.27,2.27,0,0,0,.41,0,1.28,1.28,0,0,0,.86-.34,2.23,2.23,0,0,0,.6-.92A3.39,3.39,0,0,0,136.52,63.53Z"/><path class="cls-5" d="M139.3,66.22a.69.69,0,0,1-.2.51.62.62,0,0,1-.47.2.6.6,0,0,1-.46-.19.68.68,0,0,1-.18-.48.73.73,0,0,1,.19-.52.66.66,0,0,1,.94,0A.71.71,0,0,1,139.3,66.22Zm.74-4a.73.73,0,0,1-.2.51.66.66,0,0,1-.48.2.57.57,0,0,1-.46-.2.67.67,0,0,1-.17-.47.71.71,0,0,1,.19-.52.62.62,0,0,1,.48-.2.61.61,0,0,1,.45.19A.7.7,0,0,1,140,62.21Z"/><path class="cls-5" d="M140.34,68h-1.08l4.65-8.49H145Z"/><path class="cls-5" d="M144.16,68h-1.08l4.65-8.49h1.08Z"/><path class="cls-5" d="M152.71,66.81h-1.09l-.18-3.27V63.2a2.38,2.38,0,0,1,0-.36h0a2.29,2.29,0,0,1-.2.59l-1.48,3.38h-1.1l-.35-5.2h1l.11,3.64v.06a3.59,3.59,0,0,1,0,.47h0c.07-.24.12-.39.13-.44l1.63-3.73h1l.16,3.86c0,.07,0,.17,0,.32h0a4.36,4.36,0,0,1,.21-.63L154,61.61H155Z"/><path class="cls-5" d="M159.6,66.81h-1.09l-.18-3.27V63.2a2.3,2.3,0,0,1,0-.36h0a2.29,2.29,0,0,1-.2.59l-1.48,3.38h-1.1l-.35-5.2h1l.11,3.64v.06a3.59,3.59,0,0,1,0,.47h0c.07-.24.12-.39.13-.44l1.63-3.73h1l.16,3.86a2.21,2.21,0,0,1,0,.32h0a3.67,3.67,0,0,1,.22-.63l1.36-3.55h1.06Z"/><path class="cls-5" d="M166.49,66.81H165.4l-.18-3.27V63.2a2.3,2.3,0,0,1,0-.36h0a2.29,2.29,0,0,1-.2.59l-1.48,3.38h-1.1l-.35-5.2h1l.11,3.64v.06a3.59,3.59,0,0,1,0,.47h0c.07-.24.12-.39.13-.44L165,61.61h1l.16,3.86a2.21,2.21,0,0,1,0,.32h0a4.9,4.9,0,0,1,.22-.63l1.36-3.55h1.06Z"/><path class="cls-5" d="M169.38,66.22a.69.69,0,0,1-.2.51.62.62,0,0,1-.47.2.6.6,0,0,1-.46-.19.68.68,0,0,1-.18-.48.73.73,0,0,1,.19-.52.66.66,0,0,1,.94,0A.71.71,0,0,1,169.38,66.22Z"/><path class="cls-5" d="M174.13,62.84a1.38,1.38,0,0,0-.42-.27,1.27,1.27,0,0,0-.56-.11,1.2,1.2,0,0,0-.77.28,2.06,2.06,0,0,0-.57.82,3.06,3.06,0,0,0-.22,1.12,1.55,1.55,0,0,0,.25,1,.82.82,0,0,0,.7.33,1.71,1.71,0,0,0,.59-.13,2.91,2.91,0,0,0,.55-.31l-.19,1a2.45,2.45,0,0,1-1.25.38,1.55,1.55,0,0,1-1.27-.57,2.46,2.46,0,0,1-.45-1.57,4,4,0,0,1,.34-1.67,2.83,2.83,0,0,1,.95-1.21,2.33,2.33,0,0,1,1.38-.43,2.36,2.36,0,0,1,.65.08,1.56,1.56,0,0,1,.5.23Z"/><path class="cls-5" d="M178.44,66.81h-1.08a9,9,0,0,1,.08-1h0a2.71,2.71,0,0,1-.67.83,1.19,1.19,0,0,1-.78.27,1.18,1.18,0,0,1-1-.52A2.51,2.51,0,0,1,174.6,65,4.22,4.22,0,0,1,175,63.2a3,3,0,0,1,1-1.27,2.49,2.49,0,0,1,1.46-.44,3.08,3.08,0,0,1,.75.09l.46-2.46h1.06l-1.11,6c0,.18-.07.44-.11.8A8.27,8.27,0,0,0,178.44,66.81ZM178,62.5a1.9,1.9,0,0,0-.61-.1,1.39,1.39,0,0,0-.9.31,2.18,2.18,0,0,0-.62.91,3.71,3.71,0,0,0-.23,1.28,1.52,1.52,0,0,0,.17.79.57.57,0,0,0,.51.28,1,1,0,0,0,.85-.58,4.21,4.21,0,0,0,.57-1.56Z"/><path class="cls-5" d="M183.37,62.84a1.43,1.43,0,0,0-1-.38,1.18,1.18,0,0,0-.77.28,2.06,2.06,0,0,0-.57.82,2.88,2.88,0,0,0-.23,1.12,1.62,1.62,0,0,0,.25,1,.84.84,0,0,0,.71.33,1.65,1.65,0,0,0,.58-.13,2.63,2.63,0,0,0,.55-.31l-.18,1a2.45,2.45,0,0,1-1.26.38,1.51,1.51,0,0,1-1.26-.57,2.41,2.41,0,0,1-.46-1.57,4,4,0,0,1,.34-1.67,2.91,2.91,0,0,1,1-1.21,2.5,2.5,0,0,1,2-.35,1.46,1.46,0,0,1,.5.23Z"/><path class="cls-5" d="M184.93,66.22a.69.69,0,0,1-.2.51.63.63,0,0,1-.47.2.6.6,0,0,1-.46-.19.68.68,0,0,1-.18-.48.73.73,0,0,1,.19-.52.62.62,0,0,1,.48-.2.58.58,0,0,1,.45.19A.67.67,0,0,1,184.93,66.22Z"/><path class="cls-5" d="M187,69.25a2.77,2.77,0,0,1-1.4-.39l.19-1a2.16,2.16,0,0,0,1.29.47,1.43,1.43,0,0,0,1.1-.43,2.77,2.77,0,0,0,.58-1.39l.11-.63h0a2.44,2.44,0,0,1-.67.84,1.3,1.3,0,0,1-.75.25,1.17,1.17,0,0,1-1-.51,2.5,2.5,0,0,1-.37-1.45,4.21,4.21,0,0,1,.38-1.78,2.94,2.94,0,0,1,1-1.27,2.49,2.49,0,0,1,1.46-.44,8.48,8.48,0,0,1,1.8.23l-.85,4.59a5.44,5.44,0,0,1-.55,1.71,2.39,2.39,0,0,1-.92.92A2.76,2.76,0,0,1,187,69.25Zm2.49-6.77a2.56,2.56,0,0,0-.67-.08,1.34,1.34,0,0,0-.86.34,2.18,2.18,0,0,0-.61.91,3.61,3.61,0,0,0-.22,1.25,1.44,1.44,0,0,0,.18.79.55.55,0,0,0,.49.28.93.93,0,0,0,.59-.25,2.32,2.32,0,0,0,.51-.75,4.84,4.84,0,0,0,.33-1.08Z"/><path class="cls-5" d="M195.66,63.61a4.36,4.36,0,0,1-.33,1.72,2.67,2.67,0,0,1-.92,1.19,2.23,2.23,0,0,1-1.34.42,1.67,1.67,0,0,1-1.35-.57,2.26,2.26,0,0,1-.49-1.56,4.27,4.27,0,0,1,.33-1.71,2.71,2.71,0,0,1,.91-1.19,2.26,2.26,0,0,1,1.35-.42,1.68,1.68,0,0,1,1.34.56A2.3,2.3,0,0,1,195.66,63.61Zm-1.08,0a1.6,1.6,0,0,0-.22-.87.7.7,0,0,0-.61-.31,1,1,0,0,0-.74.31,2.07,2.07,0,0,0-.51.86,3.4,3.4,0,0,0-.19,1.16,1.42,1.42,0,0,0,.22.86.71.71,0,0,0,.61.32,1.06,1.06,0,0,0,.75-.32,2.07,2.07,0,0,0,.51-.86A3.64,3.64,0,0,0,194.58,63.64Z"/><path class="cls-5" d="M198.1,66.81H197l-.65-5.2h1.06l.3,3.08c0,.3,0,.58,0,.85v.15h0c.13-.35.26-.68.41-1l1.42-3.08h1.19Z"/><path class="cls-5" d="M200.58,68H199.5l4.65-8.49h1.07Z"/><path class="cls-5" d="M208.1,62.84a1.27,1.27,0,0,0-.42-.27,1.23,1.23,0,0,0-.55-.11,1.18,1.18,0,0,0-.77.28,2.06,2.06,0,0,0-.57.82,2.87,2.87,0,0,0-.22,1.12,1.62,1.62,0,0,0,.24,1,.84.84,0,0,0,.71.33,1.61,1.61,0,0,0,.58-.13,2.63,2.63,0,0,0,.55-.31l-.18,1a2.45,2.45,0,0,1-1.26.38,1.53,1.53,0,0,1-1.26-.57,2.41,2.41,0,0,1-.46-1.57,4.19,4.19,0,0,1,.34-1.67,2.85,2.85,0,0,1,1-1.21,2.48,2.48,0,0,1,2-.35,1.46,1.46,0,0,1,.5.23Z"/><path class="cls-5" d="M212.92,63.61a4.36,4.36,0,0,1-.33,1.72,2.66,2.66,0,0,1-.91,1.19,2.26,2.26,0,0,1-1.35.42,1.7,1.7,0,0,1-1.35-.57,2.26,2.26,0,0,1-.49-1.56,4.27,4.27,0,0,1,.33-1.71,2.71,2.71,0,0,1,.91-1.19,2.26,2.26,0,0,1,1.35-.42,1.67,1.67,0,0,1,1.34.56A2.25,2.25,0,0,1,212.92,63.61Zm-1.08,0a1.52,1.52,0,0,0-.22-.87.7.7,0,0,0-.61-.31,1,1,0,0,0-.73.31,2.09,2.09,0,0,0-.52.86,3.4,3.4,0,0,0-.19,1.16,1.42,1.42,0,0,0,.22.86.72.72,0,0,0,.61.32,1.06,1.06,0,0,0,.75-.32,2.07,2.07,0,0,0,.51-.86A3.64,3.64,0,0,0,211.84,63.64Z"/><path class="cls-5" d="M216.78,62.79a1.11,1.11,0,0,0-.53-.16,1.07,1.07,0,0,0-.84.54,3.51,3.51,0,0,0-.54,1.42l-.41,2.22h-1.08l.63-3.38c.15-.84.24-1.45.27-1.82h1.06c0,.33-.08.7-.13,1.1h0a3.34,3.34,0,0,1,.59-.9.93.93,0,0,1,.72-.32,1.83,1.83,0,0,1,.45.07Z"/><path class="cls-5" d="M221.33,63.61a4.36,4.36,0,0,1-.33,1.72,2.67,2.67,0,0,1-.92,1.19,2.26,2.26,0,0,1-1.35.42,1.66,1.66,0,0,1-1.34-.57,2.27,2.27,0,0,1-.5-1.56,4.11,4.11,0,0,1,.34-1.71,2.71,2.71,0,0,1,.91-1.19,2.26,2.26,0,0,1,1.35-.42,1.68,1.68,0,0,1,1.34.56A2.3,2.3,0,0,1,221.33,63.61Zm-1.09,0a1.52,1.52,0,0,0-.22-.87.69.69,0,0,0-.61-.31,1,1,0,0,0-.73.31,2.2,2.2,0,0,0-.52.86,3.66,3.66,0,0,0-.19,1.16,1.42,1.42,0,0,0,.23.86.71.71,0,0,0,.61.32,1.06,1.06,0,0,0,.74-.32,2.07,2.07,0,0,0,.51-.86A3.64,3.64,0,0,0,220.24,63.64Z"/><path class="cls-5" d="M226.52,62.88a7.42,7.42,0,0,1-.14,1l-.54,2.92h-1.08l.55-3a6.14,6.14,0,0,0,.09-.66.8.8,0,0,0-.14-.5.46.46,0,0,0-.39-.18,1,1,0,0,0-.61.25,2.19,2.19,0,0,0-.57.69,2.54,2.54,0,0,0-.33.86l-.48,2.55H221.8l.69-3.64c.1-.58.18-1.1.23-1.56h1.05c0,.29-.07.66-.14,1.12h0a3.07,3.07,0,0,1,.81-.92,1.55,1.55,0,0,1,.91-.32,1.05,1.05,0,0,1,.85.36A1.56,1.56,0,0,1,226.52,62.88Z"/><path class="cls-5" d="M231.07,66.81H230c0-.09,0-.24,0-.47s0-.39.05-.52h0a3.18,3.18,0,0,1-.48.68,1.42,1.42,0,0,1-.43.32,1.19,1.19,0,0,1-.54.12,1.16,1.16,0,0,1-1-.53,2.51,2.51,0,0,1-.36-1.44,4.29,4.29,0,0,1,.39-1.8,2.9,2.9,0,0,1,1-1.27,2.75,2.75,0,0,1,1.52-.41,7.34,7.34,0,0,1,1.7.24l-.63,3.39c0,.24-.08.53-.12.88S231.07,66.62,231.07,66.81Zm-.41-4.33a2.25,2.25,0,0,0-.61-.08,1.38,1.38,0,0,0-.89.31,2,2,0,0,0-.62.91,3.52,3.52,0,0,0-.24,1.29,1.56,1.56,0,0,0,.17.78.57.57,0,0,0,.5.28,1.07,1.07,0,0,0,.87-.58,4.22,4.22,0,0,0,.56-1.51Z"/><path class="cls-5" d="M234.39,66.81H233.3l-.66-5.2h1.07l.29,3.08c0,.3.05.58.05.85v.15h0c.13-.35.26-.68.41-1l1.43-3.08h1.18Z"/><path class="cls-5" d="M238.05,66.89a.93.93,0,0,1-.74-.28,1.13,1.13,0,0,1-.26-.8,3,3,0,0,1,0-.52l.66-3.68h1.08l-.6,3.28a3.91,3.91,0,0,0-.1.65.34.34,0,0,0,.39.39.84.84,0,0,0,.4-.09l-.16.94A2.43,2.43,0,0,1,238.05,66.89Zm1.21-7a.72.72,0,0,1-.19.51.63.63,0,0,1-.47.2.58.58,0,0,1-.45-.19.65.65,0,0,1-.18-.48.68.68,0,0,1,.19-.5.64.64,0,0,1,.47-.19.6.6,0,0,1,.44.18A.63.63,0,0,1,239.26,59.85Z"/><path class="cls-5" d="M242.82,62.79a1.11,1.11,0,0,0-.52-.16,1.07,1.07,0,0,0-.85.54,3.51,3.51,0,0,0-.54,1.42l-.41,2.22h-1.08l.63-3.38c.15-.84.24-1.45.27-1.82h1.06c0,.33-.07.7-.13,1.1h0a3.34,3.34,0,0,1,.59-.9.93.93,0,0,1,.72-.32,1.83,1.83,0,0,1,.45.07Z"/><path class="cls-5" d="M246.9,66.81h-1.07l.14-1.1h0a3.22,3.22,0,0,1-.8.9,1.52,1.52,0,0,1-.91.33,1.07,1.07,0,0,1-.86-.37,1.6,1.6,0,0,1-.3-1,7.35,7.35,0,0,1,.14-1l.54-2.93h1.08l-.56,3c-.06.38-.09.61-.09.68a.78.78,0,0,0,.13.48.46.46,0,0,0,.4.18,1,1,0,0,0,.63-.26,2.13,2.13,0,0,0,.57-.7,2.59,2.59,0,0,0,.33-.87l.47-2.5h1.07l-.65,3.49A15.85,15.85,0,0,0,246.9,66.81Z"/><path class="cls-5" d="M251.4,62.72a1.8,1.8,0,0,0-.46-.23,1.71,1.71,0,0,0-.54-.1.76.76,0,0,0-.55.18.61.61,0,0,0-.19.47.6.6,0,0,0,.15.42,1.87,1.87,0,0,0,.44.34,2.7,2.7,0,0,1,.79.71,1.46,1.46,0,0,1,.21.79,1.56,1.56,0,0,1-.23.85,1.48,1.48,0,0,1-.65.58,2.4,2.4,0,0,1-1.05.21,3.08,3.08,0,0,1-.72-.09,2.23,2.23,0,0,1-.58-.21l.18-1a2.61,2.61,0,0,0,.58.28,1.91,1.91,0,0,0,.65.12.87.87,0,0,0,.58-.17.58.58,0,0,0,.19-.46.62.62,0,0,0-.13-.4,2.29,2.29,0,0,0-.51-.4,2.25,2.25,0,0,1-.73-.65,1.46,1.46,0,0,1-.23-.82,1.63,1.63,0,0,1,.22-.85,1.47,1.47,0,0,1,.62-.59,2.06,2.06,0,0,1,1-.21,3.42,3.42,0,0,1,.65.06,3.16,3.16,0,0,1,.54.17Z"/><path class="cls-5" d="M252,68h-1.08l4.65-8.49h1.07Z"/><path class="cls-5" d="M259.14,61.34a.92.92,0,0,0-.24-.68.9.9,0,0,0-.69-.26,2,2,0,0,0-.88.21,3.37,3.37,0,0,0-.79.52l.23-1.2a2.78,2.78,0,0,1,1.71-.52,1.72,1.72,0,0,1,1.28.46,1.68,1.68,0,0,1,.46,1.25,3.14,3.14,0,0,1-.17,1.06,2.94,2.94,0,0,1-.54.86,7.46,7.46,0,0,1-1.25,1,8.28,8.28,0,0,0-1.21,1,1.46,1.46,0,0,0-.39.7h2.82l-.19,1h-4l.08-.45a3.64,3.64,0,0,1,.35-1,4.34,4.34,0,0,1,.65-.88,9.43,9.43,0,0,1,1.25-1,7.42,7.42,0,0,0,.9-.74,2.05,2.05,0,0,0,.46-.63A1.73,1.73,0,0,0,259.14,61.34Z"/><path class="cls-5" d="M265.32,61.64a9,9,0,0,1-.4,2.73,4.57,4.57,0,0,1-1,1.92,2.07,2.07,0,0,1-1.48.65,1.49,1.49,0,0,1-1.28-.66,3,3,0,0,1-.48-1.8,8.3,8.3,0,0,1,.4-2.55,4.58,4.58,0,0,1,1.06-1.87,2.14,2.14,0,0,1,1.52-.65,1.49,1.49,0,0,1,1.24.59A2.6,2.6,0,0,1,265.32,61.64Zm-1.06,0a1.86,1.86,0,0,0-.19-.94.58.58,0,0,0-.53-.33,1.09,1.09,0,0,0-.87.54,5.24,5.24,0,0,0-.68,1.65,8.21,8.21,0,0,0-.28,2,2,2,0,0,0,.2,1,.63.63,0,0,0,.58.37,1.05,1.05,0,0,0,.87-.6,6,6,0,0,0,.64-1.68A8.91,8.91,0,0,0,264.26,61.64Z"/><path class="cls-5" d="M266.44,66.81l1.13-6.07-1.49.41.2-1,2.6-.69-1.36,7.4Z"/><path class="cls-5" d="M274,62a7.21,7.21,0,0,1-.24,1.87,5.29,5.29,0,0,1-.69,1.58A3.44,3.44,0,0,1,272,66.55a2.88,2.88,0,0,1-1.48.38,2.84,2.84,0,0,1-.68-.07,1.46,1.46,0,0,1-.45-.15l.15-1a1.86,1.86,0,0,0,1,.29,1.88,1.88,0,0,0,1.49-.72,4.1,4.1,0,0,0,.82-2h0a1.64,1.64,0,0,1-1.45.91,1.44,1.44,0,0,1-.87-.26,1.61,1.61,0,0,1-.56-.73,2.66,2.66,0,0,1-.2-1,3.25,3.25,0,0,1,.31-1.43,2.33,2.33,0,0,1,.82-1,2.06,2.06,0,0,1,1.15-.33,1.68,1.68,0,0,1,1.43.7A3.22,3.22,0,0,1,274,62Zm-1-.3a1.73,1.73,0,0,0-.26-1,.8.8,0,0,0-.68-.37.94.94,0,0,0-.62.22,1.53,1.53,0,0,0-.41.61,2.18,2.18,0,0,0-.15.82,1.38,1.38,0,0,0,.25.88.77.77,0,0,0,.66.33,1.05,1.05,0,0,0,.63-.2,1.25,1.25,0,0,0,.42-.55A1.77,1.77,0,0,0,273,61.73Z"/><path class="cls-5" d="M277.13,64.42h-2.42l.16-.89h2.43Z"/><path class="cls-5" d="M126,75.35a7.23,7.23,0,0,1-.14,1l-.54,2.92h-1.08l.55-3a6.52,6.52,0,0,0,.09-.67.81.81,0,0,0-.14-.49.46.46,0,0,0-.4-.19,1,1,0,0,0-.6.25,2.19,2.19,0,0,0-.57.69,2.54,2.54,0,0,0-.33.86l-.48,2.55H121.3l.69-3.63c.1-.58.18-1.11.23-1.57h1c0,.29-.07.66-.14,1.12h0a3.07,3.07,0,0,1,.81-.92,1.59,1.59,0,0,1,.9-.32,1.06,1.06,0,0,1,.86.36A1.56,1.56,0,0,1,126,75.35Z"/><path class="cls-5" d="M130.33,75.31a1.27,1.27,0,0,0-.42-.27,1.23,1.23,0,0,0-.55-.11,1.18,1.18,0,0,0-.77.28A2.06,2.06,0,0,0,128,76a2.87,2.87,0,0,0-.22,1.12,1.62,1.62,0,0,0,.24,1,.84.84,0,0,0,.71.33,1.42,1.42,0,0,0,.58-.13,2.25,2.25,0,0,0,.55-.31l-.18,1a2.45,2.45,0,0,1-1.25.38,1.53,1.53,0,0,1-1.27-.57,2.4,2.4,0,0,1-.46-1.56,4.2,4.2,0,0,1,.34-1.68,2.85,2.85,0,0,1,1-1.21,2.4,2.4,0,0,1,2-.34,1.46,1.46,0,0,1,.5.22Z"/><path class="cls-5" d="M135.15,76.08a4.36,4.36,0,0,1-.33,1.72,2.66,2.66,0,0,1-.91,1.19,2.26,2.26,0,0,1-1.35.42,1.7,1.7,0,0,1-1.35-.57,2.25,2.25,0,0,1-.49-1.55,4.32,4.32,0,0,1,.33-1.72,2.85,2.85,0,0,1,.91-1.19,2.26,2.26,0,0,1,1.35-.42,1.73,1.73,0,0,1,1.35.56A2.3,2.3,0,0,1,135.15,76.08Zm-1.08,0a1.46,1.46,0,0,0-.22-.86.69.69,0,0,0-.61-.32,1,1,0,0,0-.73.31,2.15,2.15,0,0,0-.52.86,3.46,3.46,0,0,0-.19,1.17,1.46,1.46,0,0,0,.22.86.74.74,0,0,0,.61.31,1.06,1.06,0,0,0,.75-.32,2.07,2.07,0,0,0,.51-.86A3.64,3.64,0,0,0,134.07,76.11Z"/><path class="cls-5" d="M137.59,79.28H136.5l-.66-5.2h1.07l.29,3.08c0,.3.05.58.05.85v.15h0c.13-.35.27-.68.41-1l1.43-3.08h1.18Z"/><path class="cls-5" d="M140.07,80.49H139L143.64,72h1.08Z"/><path class="cls-5" d="M148.53,75.36a6.5,6.5,0,0,1-.13,1l-.54,2.92h-1.08l.55-3a6.52,6.52,0,0,0,.09-.67c0-.46-.18-.68-.54-.68a1,1,0,0,0-.61.26,2.34,2.34,0,0,0-.57.69,2.65,2.65,0,0,0-.32.86l-.48,2.54h-1.08l1.44-7.69h1.07l-.67,3.61h0a3.24,3.24,0,0,1,.82-.92,1.57,1.57,0,0,1,.9-.32,1,1,0,0,1,.85.37A1.56,1.56,0,0,1,148.53,75.36Z"/><path class="cls-5" d="M152.85,75.31a1.43,1.43,0,0,0-1-.38,1.18,1.18,0,0,0-.77.28,2.06,2.06,0,0,0-.57.82,2.87,2.87,0,0,0-.22,1.12,1.62,1.62,0,0,0,.24,1,.84.84,0,0,0,.71.33,1.46,1.46,0,0,0,.58-.13,2.25,2.25,0,0,0,.55-.31l-.18,1a2.45,2.45,0,0,1-1.26.38,1.51,1.51,0,0,1-1.26-.57,2.4,2.4,0,0,1-.46-1.56,4,4,0,0,1,.34-1.68,2.85,2.85,0,0,1,1-1.21,2.29,2.29,0,0,1,1.38-.43,2.35,2.35,0,0,1,.64.09,1.46,1.46,0,0,1,.5.22Z"/><path class="cls-5" d="M157.87,75.89a4.27,4.27,0,0,1-.37,1.78,3,3,0,0,1-1,1.29,2.42,2.42,0,0,1-1.42.45,2.57,2.57,0,0,1-.87-.15l-.44,2.42H152.7l1.1-5.94c0-.17.07-.44.11-.79s.07-.65.08-.87h1.06a3.76,3.76,0,0,1,0,.47c0,.23,0,.4-.06.52h0A1.77,1.77,0,0,1,156.51,74a1.14,1.14,0,0,1,1,.51A2.47,2.47,0,0,1,157.87,75.89Zm-1.08.11a1.44,1.44,0,0,0-.18-.8.58.58,0,0,0-.52-.27.85.85,0,0,0-.6.26A2.4,2.4,0,0,0,155,76a4.05,4.05,0,0,0-.33,1l-.26,1.35a1.42,1.42,0,0,0,.33.09,2.17,2.17,0,0,0,.4,0,1.23,1.23,0,0,0,.86-.34,2.28,2.28,0,0,0,.61-.92A3.61,3.61,0,0,0,156.79,76Z"/><path class="cls-5" d="M158.39,80.49h-1.08L162,72H163Z"/><path class="cls-5" d="M166.85,75.89a4.42,4.42,0,0,1-.36,1.78,3.14,3.14,0,0,1-1,1.29,2.4,2.4,0,0,1-1.42.45,2.47,2.47,0,0,1-.86-.15l-.45,2.42h-1.08l1.1-5.94c0-.17.07-.44.11-.79s.07-.65.08-.87H164a3.76,3.76,0,0,1,0,.47c0,.23,0,.4-.06.52h0A1.78,1.78,0,0,1,165.5,74a1.16,1.16,0,0,1,1,.51A2.55,2.55,0,0,1,166.85,75.89Zm-1.07.11a1.43,1.43,0,0,0-.19-.8.58.58,0,0,0-.52-.27.89.89,0,0,0-.6.26A2.4,2.4,0,0,0,164,76a5,5,0,0,0-.33,1l-.26,1.35a1.42,1.42,0,0,0,.33.09,2.17,2.17,0,0,0,.41,0,1.27,1.27,0,0,0,.86-.34,2.37,2.37,0,0,0,.6-.92A3.62,3.62,0,0,0,165.78,76Z"/><path class="cls-5" d="M172,75.89a4.42,4.42,0,0,1-.36,1.78,3.06,3.06,0,0,1-1,1.29,2.38,2.38,0,0,1-1.42.45,2.47,2.47,0,0,1-.86-.15l-.45,2.42h-1.08l1.1-5.94a7.66,7.66,0,0,0,.12-.79c0-.36.06-.65.07-.87h1.06c0,.09,0,.25,0,.47s0,.4-.07.52h0A1.78,1.78,0,0,1,170.66,74a1.15,1.15,0,0,1,1,.51A2.55,2.55,0,0,1,172,75.89Zm-1.07.11a1.35,1.35,0,0,0-.19-.8.58.58,0,0,0-.51-.27.85.85,0,0,0-.6.26,2.26,2.26,0,0,0-.53.77,5,5,0,0,0-.33,1l-.25,1.35a1.46,1.46,0,0,0,.32.09,2.17,2.17,0,0,0,.41,0,1.25,1.25,0,0,0,.86-.34,2.37,2.37,0,0,0,.6-.92A3.62,3.62,0,0,0,170.94,76Z"/><path class="cls-5" d="M176.78,75.36a1.49,1.49,0,0,1-.76,1.39,4.9,4.9,0,0,1-2.32.46v.16a1.13,1.13,0,0,0,.28.82,1,1,0,0,0,.77.29,2.23,2.23,0,0,0,.72-.14,2.9,2.9,0,0,0,.7-.36L176,79a2.71,2.71,0,0,1-1.48.42,1.72,1.72,0,0,1-1.37-.57,2.25,2.25,0,0,1-.5-1.58A4,4,0,0,1,173,75.6a2.84,2.84,0,0,1,.94-1.2,2.14,2.14,0,0,1,1.32-.44,1.65,1.65,0,0,1,1.14.38A1.36,1.36,0,0,1,176.78,75.36Zm-1,0a.51.51,0,0,0-.16-.4.62.62,0,0,0-.44-.15,1.14,1.14,0,0,0-.86.44,2.33,2.33,0,0,0-.5,1.09C175.09,76.37,175.74,76,175.74,75.39Z"/><path class="cls-5" d="M179.89,76.89h-2.43l.17-.89h2.43Z"/><path class="cls-5" d="M184,75.19a2.19,2.19,0,0,0-.46-.23,1.69,1.69,0,0,0-.53-.09.77.77,0,0,0-.56.18.59.59,0,0,0-.19.46.6.6,0,0,0,.15.42,2.5,2.5,0,0,0,.44.35,2.56,2.56,0,0,1,.79.7,1.48,1.48,0,0,1,.21.79,1.62,1.62,0,0,1-.23.86,1.46,1.46,0,0,1-.65.57,2.4,2.4,0,0,1-1,.21,3.08,3.08,0,0,1-.72-.09,2.23,2.23,0,0,1-.58-.21l.18-1a2.61,2.61,0,0,0,.58.28,1.91,1.91,0,0,0,.65.12.87.87,0,0,0,.58-.17.56.56,0,0,0,.19-.46.64.64,0,0,0-.13-.4,2.29,2.29,0,0,0-.51-.4,2.25,2.25,0,0,1-.73-.65,1.45,1.45,0,0,1-.23-.81,1.64,1.64,0,0,1,.22-.86,1.47,1.47,0,0,1,.62-.59,2.07,2.07,0,0,1,1-.21,2.88,2.88,0,0,1,.65.07,2.06,2.06,0,0,1,.53.17Z"/><path class="cls-5" d="M187.61,75H186.5l-.43,2.35A3.28,3.28,0,0,0,186,78a.51.51,0,0,0,.09.34.4.4,0,0,0,.31.1,1.83,1.83,0,0,0,.62-.18l-.18,1a2.16,2.16,0,0,1-.88.2c-.7,0-1-.39-1-1.18a4.43,4.43,0,0,1,.09-.77l.45-2.41h-.73l.19-1h.71l.24-1.24L187,72.5l-.28,1.58h1.11Z"/><path class="cls-5" d="M191.08,75.27a1.06,1.06,0,0,0-.53-.17,1,1,0,0,0-.84.54,3.43,3.43,0,0,0-.54,1.42l-.42,2.22h-1.07l.63-3.38a17.41,17.41,0,0,0,.26-1.82h1.06c0,.33-.07.7-.12,1.1h0a3.33,3.33,0,0,1,.58-.9,1,1,0,0,1,.73-.32,1.7,1.7,0,0,1,.44.07Z"/><path class="cls-5" d="M195.06,79.28H194c0-.08,0-.24,0-.46s0-.4.06-.52h0a4.41,4.41,0,0,1-.48.67,1.69,1.69,0,0,1-.44.33,1.32,1.32,0,0,1-.53.11,1.15,1.15,0,0,1-1-.53,2.49,2.49,0,0,1-.36-1.44,4.29,4.29,0,0,1,.39-1.8,2.83,2.83,0,0,1,1-1.27,2.8,2.8,0,0,1,1.51-.41,7.27,7.27,0,0,1,1.7.24l-.62,3.39a7.73,7.73,0,0,0-.12.89A7.51,7.51,0,0,0,195.06,79.28Zm-.4-4.33a2.37,2.37,0,0,0-.61-.07,1.44,1.44,0,0,0-.9.3,2.12,2.12,0,0,0-.62.91,3.73,3.73,0,0,0-.23,1.29,1.41,1.41,0,0,0,.17.78.54.54,0,0,0,.5.28,1,1,0,0,0,.86-.58,3.82,3.82,0,0,0,.56-1.51Z"/><path class="cls-5" d="M199.33,75h-1.11l-.43,2.35a3.28,3.28,0,0,0-.08.59.51.51,0,0,0,.09.34.4.4,0,0,0,.31.1,1.83,1.83,0,0,0,.62-.18l-.18,1a2.16,2.16,0,0,1-.88.2c-.7,0-1-.39-1-1.18a4.43,4.43,0,0,1,.09-.77l.45-2.41h-.73l.19-1h.71l.24-1.24,1.12-.34-.28,1.58h1.11Z"/><path class="cls-5" d="M203.71,75.36a1.5,1.5,0,0,1-.77,1.39,4.9,4.9,0,0,1-2.32.46v.16a1.18,1.18,0,0,0,.28.82,1,1,0,0,0,.77.29,2.23,2.23,0,0,0,.72-.14,2.72,2.72,0,0,0,.7-.36l-.17,1a2.74,2.74,0,0,1-1.48.42,1.73,1.73,0,0,1-1.38-.57,2.3,2.3,0,0,1-.5-1.58,4,4,0,0,1,.34-1.66,2.84,2.84,0,0,1,.94-1.2,2.15,2.15,0,0,1,1.33-.44,1.64,1.64,0,0,1,1.13.38A1.33,1.33,0,0,1,203.71,75.36Zm-1,0a.51.51,0,0,0-.17-.4.6.6,0,0,0-.44-.15,1.14,1.14,0,0,0-.86.44,2.33,2.33,0,0,0-.5,1.09C202,76.37,202.67,76,202.67,75.39Z"/><path class="cls-5" d="M205.08,81.72a2.87,2.87,0,0,1-1.41-.38l.2-1a2.1,2.1,0,0,0,1.29.47,1.39,1.39,0,0,0,1.09-.43,2.69,2.69,0,0,0,.58-1.38l.12-.64h0a2.56,2.56,0,0,1-.67.84,1.24,1.24,0,0,1-.76.25,1.16,1.16,0,0,1-1-.51,2.41,2.41,0,0,1-.37-1.45,4.24,4.24,0,0,1,.37-1.78,3,3,0,0,1,1-1.27A2.54,2.54,0,0,1,207,74a9.19,9.19,0,0,1,1.8.23l-.85,4.59a5.62,5.62,0,0,1-.55,1.71,2.32,2.32,0,0,1-.92.92A2.76,2.76,0,0,1,205.08,81.72ZM207.57,75a2.63,2.63,0,0,0-.68-.07,1.3,1.3,0,0,0-.85.33,2.25,2.25,0,0,0-.61.91,3.39,3.39,0,0,0-.22,1.25,1.42,1.42,0,0,0,.18.79.54.54,0,0,0,.48.28.84.84,0,0,0,.59-.25,2,2,0,0,0,.51-.75,4.38,4.38,0,0,0,.34-1.08Z"/><path class="cls-5" d="M208.87,81.72a1.44,1.44,0,0,1-.59-.11l.18-1a.79.79,0,0,0,.45.12,1.13,1.13,0,0,0,1-.68l.46-.82-.86-5.17h1.11l.43,3.58,0,.33v.21h0c.07-.21.15-.39.21-.53L213,74.08h1.14L211,79.94a4.59,4.59,0,0,1-1,1.38A1.77,1.77,0,0,1,208.87,81.72Z"/><path class="cls-5" d="M213.85,80.49h-1.08L217.42,72h1.07Z"/><path class="cls-5" d="M221.37,72.57a1.15,1.15,0,0,0-.55-.14.63.63,0,0,0-.53.24,1.64,1.64,0,0,0-.27.71l-.14.7h1.06l-.19,1h-1.06l-1.12,6H217.5l1.12-6h-.78l.19-1h.77l.16-.85a2.38,2.38,0,0,1,.65-1.34,1.76,1.76,0,0,1,1.22-.42,2,2,0,0,1,.71.12Z"/><path class="cls-5" d="M224.66,79.28h-1.09c0-.08,0-.24,0-.46s0-.4.06-.52h0a4.41,4.41,0,0,1-.48.67,1.69,1.69,0,0,1-.44.33,1.29,1.29,0,0,1-.53.11,1.15,1.15,0,0,1-1-.53,2.49,2.49,0,0,1-.36-1.44,4.29,4.29,0,0,1,.39-1.8,2.83,2.83,0,0,1,1-1.27,2.8,2.8,0,0,1,1.51-.41,7.42,7.42,0,0,1,1.71.24l-.63,3.39a7.73,7.73,0,0,0-.12.89A7,7,0,0,0,224.66,79.28ZM224.25,75a2.37,2.37,0,0,0-.61-.07,1.39,1.39,0,0,0-.89.3,2,2,0,0,0-.63.91,3.73,3.73,0,0,0-.23,1.29,1.5,1.5,0,0,0,.17.78.54.54,0,0,0,.5.28,1,1,0,0,0,.86-.58,3.82,3.82,0,0,0,.56-1.51Z"/><path class="cls-5" d="M229.58,75.31a1.27,1.27,0,0,0-.42-.27,1.23,1.23,0,0,0-.55-.11,1.18,1.18,0,0,0-.77.28,2.06,2.06,0,0,0-.57.82,2.87,2.87,0,0,0-.22,1.12,1.62,1.62,0,0,0,.24,1,.84.84,0,0,0,.71.33,1.42,1.42,0,0,0,.58-.13,2.25,2.25,0,0,0,.55-.31L229,79a2.45,2.45,0,0,1-1.26.38,1.53,1.53,0,0,1-1.26-.57,2.4,2.4,0,0,1-.46-1.56,4,4,0,0,1,.34-1.68,2.85,2.85,0,0,1,1-1.21,2.4,2.4,0,0,1,2-.34,1.46,1.46,0,0,1,.5.22Z"/><path class="cls-5" d="M234.12,75.36a1.5,1.5,0,0,1-.77,1.39,4.89,4.89,0,0,1-2.31.46v.16a1.18,1.18,0,0,0,.27.82,1,1,0,0,0,.77.29,2.13,2.13,0,0,0,.72-.14,3,3,0,0,0,.71-.36l-.18,1a2.74,2.74,0,0,1-1.48.42,1.73,1.73,0,0,1-1.38-.57,2.3,2.3,0,0,1-.5-1.58,4.21,4.21,0,0,1,.34-1.66,2.92,2.92,0,0,1,.94-1.2,2.19,2.19,0,0,1,1.33-.44,1.64,1.64,0,0,1,1.13.38A1.33,1.33,0,0,1,234.12,75.36Zm-1,0a.54.54,0,0,0-.16-.4.64.64,0,0,0-.45-.15,1.12,1.12,0,0,0-.85.44,2.24,2.24,0,0,0-.5,1.09C232.42,76.37,233.08,76,233.08,75.39Z"/><path class="cls-5" d="M237.22,76.89h-2.43L235,76h2.43Z"/><path class="cls-5" d="M245.54,75.36a6.81,6.81,0,0,1-.13,1l-.55,2.92h-1.07l.56-3a6.52,6.52,0,0,0,.09-.67c0-.46-.18-.68-.53-.68a1.24,1.24,0,0,0-.87.57,2.78,2.78,0,0,0-.57,1.22L242,79.28h-1.08l.56-3a6.52,6.52,0,0,0,.09-.67c0-.46-.18-.68-.53-.68a.92.92,0,0,0-.58.27,2.57,2.57,0,0,0-.55.69,2.54,2.54,0,0,0-.31.84l-.48,2.55H238l.69-3.63c.1-.58.18-1.11.23-1.57h1c0,.29-.07.66-.14,1.12h0a3,3,0,0,1,.79-.92,1.46,1.46,0,0,1,.86-.32c.7,0,1.07.42,1.12,1.27a3,3,0,0,1,.83-1,1.58,1.58,0,0,1,.92-.32,1,1,0,0,1,.85.36A1.65,1.65,0,0,1,245.54,75.36Z"/><path class="cls-5" d="M250.09,79.28H249c0-.08,0-.24,0-.46s0-.4.05-.52h0a3.75,3.75,0,0,1-.49.67,1.65,1.65,0,0,1-.43.33,1.33,1.33,0,0,1-.54.11,1.15,1.15,0,0,1-1-.53,2.49,2.49,0,0,1-.36-1.44,4.44,4.44,0,0,1,.38-1.8,2.9,2.9,0,0,1,1-1.27,2.83,2.83,0,0,1,1.52-.41,7.27,7.27,0,0,1,1.7.24l-.62,3.39a7.73,7.73,0,0,0-.12.89A7.51,7.51,0,0,0,250.09,79.28ZM249.68,75a2.25,2.25,0,0,0-.6-.07,1.44,1.44,0,0,0-.9.3,2,2,0,0,0-.62.91,3.51,3.51,0,0,0-.23,1.29,1.41,1.41,0,0,0,.17.78.54.54,0,0,0,.5.28,1.06,1.06,0,0,0,.86-.58,4,4,0,0,0,.56-1.51Z"/><path class="cls-5" d="M254.53,75.19a2.29,2.29,0,0,0-.47-.23,1.64,1.64,0,0,0-.53-.09.77.77,0,0,0-.56.18.62.62,0,0,0-.18.46.6.6,0,0,0,.15.42,2.08,2.08,0,0,0,.43.35,2.44,2.44,0,0,1,.79.7,1.48,1.48,0,0,1,.21.79,1.62,1.62,0,0,1-.22.86,1.55,1.55,0,0,1-.66.57,2.4,2.4,0,0,1-1.05.21,3.15,3.15,0,0,1-.72-.09,2,2,0,0,1-.57-.21l.17-1a2.84,2.84,0,0,0,.58.28,2,2,0,0,0,.65.12.87.87,0,0,0,.58-.17.56.56,0,0,0,.19-.46.64.64,0,0,0-.13-.4,2.29,2.29,0,0,0-.51-.4,2.25,2.25,0,0,1-.73-.65,1.45,1.45,0,0,1-.23-.81,1.64,1.64,0,0,1,.22-.86,1.47,1.47,0,0,1,.62-.59,2.07,2.07,0,0,1,1-.21,2.81,2.81,0,0,1,.65.07,2.06,2.06,0,0,1,.53.17Z"/><path class="cls-5" d="M257.7,76.51l1.39,2.77h-1.2l-1.25-2.72h0l-.51,2.72H255l1.43-7.69h1.08l-.89,4.72h0l2-2.23H260Z"/><path class="cls-5" d="M263.1,75.19a2.19,2.19,0,0,0-.46-.23,1.69,1.69,0,0,0-.53-.09.77.77,0,0,0-.56.18.59.59,0,0,0-.19.46.6.6,0,0,0,.15.42,2.5,2.5,0,0,0,.44.35,2.56,2.56,0,0,1,.79.7,1.48,1.48,0,0,1,.21.79,1.54,1.54,0,0,1-.23.86,1.46,1.46,0,0,1-.65.57,2.4,2.4,0,0,1-1.05.21,3.08,3.08,0,0,1-.72-.09,2.23,2.23,0,0,1-.58-.21l.18-1a2.61,2.61,0,0,0,.58.28,2,2,0,0,0,.65.12.87.87,0,0,0,.58-.17.56.56,0,0,0,.19-.46.64.64,0,0,0-.13-.4,2.29,2.29,0,0,0-.51-.4,2.25,2.25,0,0,1-.73-.65,1.45,1.45,0,0,1-.23-.81,1.64,1.64,0,0,1,.22-.86,1.47,1.47,0,0,1,.62-.59,2.07,2.07,0,0,1,1-.21,2.88,2.88,0,0,1,.65.07,2.06,2.06,0,0,1,.53.17Z"/><path class="cls-5" d="M264.86,78.69a.69.69,0,0,1-.19.51.65.65,0,0,1-.47.2.59.59,0,0,1-.46-.19.69.69,0,0,1-.19-.48.73.73,0,0,1,.2-.52.66.66,0,0,1,.48-.2.58.58,0,0,1,.45.19A.72.72,0,0,1,264.86,78.69Z"/><path class="cls-5" d="M270.55,75.36a6.5,6.5,0,0,1-.13,1l-.54,2.92H268.8l.55-3a6.52,6.52,0,0,0,.09-.67c0-.46-.18-.68-.54-.68a1,1,0,0,0-.61.26,2.19,2.19,0,0,0-.57.69,2.68,2.68,0,0,0-.33.86l-.47,2.54h-1.08l1.43-7.69h1.08l-.68,3.61h0a3.24,3.24,0,0,1,.82-.92,1.57,1.57,0,0,1,.89-.32,1,1,0,0,1,.86.37A1.56,1.56,0,0,1,270.55,75.36Z"/><path class="cls-5" d="M274.21,75H273.1l-.43,2.35a3.64,3.64,0,0,0-.09.59.51.51,0,0,0,.1.34.38.38,0,0,0,.3.1,1.81,1.81,0,0,0,.63-.18l-.18,1a2.2,2.2,0,0,1-.88.2c-.7,0-1.05-.39-1.05-1.18a4.43,4.43,0,0,1,.09-.77L272,75h-.72l.19-1h.71l.23-1.24,1.13-.34-.29,1.58h1.12Z"/><path class="cls-5" d="M281.78,75.36a7.35,7.35,0,0,1-.14,1l-.55,2.92H280l.55-3a6.52,6.52,0,0,0,.09-.67c0-.46-.18-.68-.53-.68a1.21,1.21,0,0,0-.86.57,2.69,2.69,0,0,0-.58,1.22l-.47,2.56h-1.08l.56-3a6.52,6.52,0,0,0,.09-.67c0-.46-.17-.68-.53-.68a.92.92,0,0,0-.58.27,2.57,2.57,0,0,0-.55.69,2.79,2.79,0,0,0-.31.84l-.48,2.55h-1.08l.69-3.63c.1-.58.18-1.11.23-1.57h1.05c0,.29-.07.66-.14,1.12h0a3.31,3.31,0,0,1,.79-.92,1.48,1.48,0,0,1,.86-.32c.7,0,1.07.42,1.12,1.27a3.15,3.15,0,0,1,.83-1,1.6,1.6,0,0,1,.92-.32,1,1,0,0,1,.85.36A1.65,1.65,0,0,1,281.78,75.36Z"/><path class="cls-5" d="M283.57,79.37a1,1,0,0,1-.75-.28,1.09,1.09,0,0,1-.26-.79,7,7,0,0,1,.17-1.23l1-5.48h1.08l-1.08,5.77a5,5,0,0,0-.09.65.34.34,0,0,0,.39.39,1,1,0,0,0,.4-.08l-.17.93A2.12,2.12,0,0,1,283.57,79.37Z"/></svg>