  0
SECTION
  2
HEADER
  9
$ACADVER
  1
AC1015
  9
$ACADMAINTVER
 70
     6
  9
$DWGCODEPAGE
  3
ANSI_1252
  9
$INSBASE
 10
0.0
 20
0.0
 30
0.0
  9
$EXTMIN
 10
-112.5
 20
-145.0
 30
0.0
  9
$EXTMAX
 10
112.5
 20
0.0
 30
0.0
  9
$LIMMIN
 10
0.0
 20
0.0
  9
$LIMMAX
 10
420.0
 20
297.0
  9
$ORTHOMODE
 70
     0
  9
$REGENMODE
 70
     1
  9
$FILLMODE
 70
     1
  9
$QTEXTMODE
 70
     0
  9
$MIRRTEXT
 70
     1
  9
$LTSCALE
 40
1.0
  9
$ATTMODE
 70
     1
  9
$TEXTSIZE
 40
3.5
  9
$TRACEWID
 40
1.0
  9
$TEXTSTYLE
  7
Standard
  9
$CLAYER
  8
0
  9
$CELTYPE
  6
ByLayer
  9
$CECOLOR
 62
   256
  9
$CELTSCALE
 40
1.0
  9
$DISPSILH
 70
     0
  9
$DIMSCALE
 40
1.0
  9
$DIMASZ
 40
3.302
  9
$DIMEXO
 40
1.0
  9
$DIMDLI
 40
3.75
  9
$DIMRND
 40
0.0
  9
$DIMDLE
 40
0.0
  9
$DIMEXE
 40
1.0
  9
$DIMTP
 40
0.0
  9
$DIMTM
 40
0.0
  9
$DIMTXT
 40
3.5
  9
$DIMCEN
 40
2.5
  9
$DIMTSZ
 40
0.0
  9
$DIMTOL
 70
     0
  9
$DIMLIM
 70
     0
  9
$DIMTIH
 70
     1
  9
$DIMTOH
 70
     1
  9
$DIMSE1
 70
     0
  9
$DIMSE2
 70
     0
  9
$DIMTAD
 70
     1
  9
$DIMZIN
 70
     1
  9
$DIMBLK
  1

  9
$DIMASO
 70
     1
  9
$DIMSHO
 70
     1
  9
$DIMPOST
  1

  9
$DIMAPOST
  1

  9
$DIMALT
 70
     0
  9
$DIMALTD
 70
     3
  9
$DIMALTF
 40
0.0393700787
  9
$DIMLFAC
 40
1.0
  9
$DIMTOFL
 70
     1
  9
$DIMTVP
 40
0.0
  9
$DIMTIX
 70
     0
  9
$DIMSOXD
 70
     0
  9
$DIMSAH
 70
     0
  9
$DIMBLK1
  1

  9
$DIMBLK2
  1

  9
$DIMSTYLE
  2
ISO-25
  9
$DIMCLRD
 70
     0
  9
$DIMCLRE
 70
     0
  9
$DIMCLRT
 70
     0
  9
$DIMTFAC
 40
1.0
  9
$DIMGAP
 40
1.524
  9
$DIMJUST
 70
     0
  9
$DIMSD1
 70
     0
  9
$DIMSD2
 70
     0
  9
$DIMTOLJ
 70
     0
  9
$DIMTZIN
 70
     1
  9
$DIMALTZ
 70
     0
  9
$DIMALTTZ
 70
     0
  9
$DIMUPT
 70
     0
  9
$DIMDEC
 70
     2
  9
$DIMTDEC
 70
     2
  9
$DIMALTU
 70
     2
  9
$DIMALTTD
 70
     3
  9
$DIMTXSTY
  7
Standard
  9
$DIMAUNIT
 70
     0
  9
$DIMADEC
 70
     2
  9
$DIMALTRND
 40
0.0
  9
$DIMAZIN
 70
     0
  9
$DIMDSEP
 70
    44
  9
$DIMATFIT
 70
     3
  9
$DIMFRAC
 70
     0
  9
$DIMLDRBLK
  1

  9
$DIMLUNIT
 70
     2
  9
$DIMLWD
 70
    -2
  9
$DIMLWE
 70
    -2
  9
$DIMTMOVE
 70
     0
  9
$LUNITS
 70
     2
  9
$LUPREC
 70
     2
  9
$SKETCHINC
 40
1.0
  9
$FILLETRAD
 40
10.0
  9
$AUNITS
 70
     0
  9
$AUPREC
 70
     2
  9
$MENU
  1
.
  9
$ELEVATION
 40
0.0
  9
$PELEVATION
 40
0.0
  9
$THICKNESS
 40
0.0
  9
$LIMCHECK
 70
     0
  9
$CHAMFERA
 40
0.0
  9
$CHAMFERB
 40
0.0
  9
$CHAMFERC
 40
0.0
  9
$CHAMFERD
 40
0.0
  9
$SKPOLY
 70
     0
  9
$TDCREATE
 40
2458941.815055938
  9
$TDUCREATE
 40
2458941.981722604
  9
$TDUPDATE
 40
2458941.815177616
  9
$TDUUPDATE
 40
2458941.981844282
  9
$TDINDWG
 40
0.0000000116
  9
$TDUSRTIMER
 40
0.0000000116
  9
$USRTIMER
 70
     1
  9
$ANGBASE
 50
0.0
  9
$ANGDIR
 70
     0
  9
$PDMODE
 70
     0
  9
$PDSIZE
 40
-1.0
  9
$PLINEWID
 40
0.0
  9
$SPLFRAME
 70
     0
  9
$SPLINETYPE
 70
     6
  9
$SPLINESEGS
 70
     8
  9
$HANDSEED
  5
1C8
  9
$SURFTAB1
 70
     6
  9
$SURFTAB2
 70
     6
  9
$SURFTYPE
 70
     6
  9
$SURFU
 70
     6
  9
$SURFV
 70
     6
  9
$UCSBASE
  2

  9
$UCSNAME
  2

  9
$UCSORG
 10
0.0
 20
0.0
 30
0.0
  9
$UCSXDIR
 10
1.0
 20
0.0
 30
0.0
  9
$UCSYDIR
 10
0.0
 20
1.0
 30
0.0
  9
$UCSORTHOREF
  2

  9
$UCSORTHOVIEW
 70
     0
  9
$UCSORGTOP
 10
0.0
 20
0.0
 30
0.0
  9
$UCSORGBOTTOM
 10
0.0
 20
0.0
 30
0.0
  9
$UCSORGLEFT
 10
0.0
 20
0.0
 30
0.0
  9
$UCSORGRIGHT
 10
0.0
 20
0.0
 30
0.0
  9
$UCSORGFRONT
 10
0.0
 20
0.0
 30
0.0
  9
$UCSORGBACK
 10
0.0
 20
0.0
 30
0.0
  9
$PUCSBASE
  2

  9
$PUCSNAME
  2

  9
$PUCSORG
 10
0.0
 20
0.0
 30
0.0
  9
$PUCSXDIR
 10
1.0
 20
0.0
 30
0.0
  9
$PUCSYDIR
 10
0.0
 20
1.0
 30
0.0
  9
$PUCSORTHOREF
  2

  9
$PUCSORTHOVIEW
 70
     0
  9
$PUCSORGTOP
 10
0.0
 20
0.0
 30
0.0
  9
$PUCSORGBOTTOM
 10
0.0
 20
0.0
 30
0.0
  9
$PUCSORGLEFT
 10
0.0
 20
0.0
 30
0.0
  9
$PUCSORGRIGHT
 10
0.0
 20
0.0
 30
0.0
  9
$PUCSORGFRONT
 10
0.0
 20
0.0
 30
0.0
  9
$PUCSORGBACK
 10
0.0
 20
0.0
 30
0.0
  9
$USERI1
 70
     0
  9
$USERI2
 70
     0
  9
$USERI3
 70
     0
  9
$USERI4
 70
     0
  9
$USERI5
 70
     0
  9
$USERR1
 40
0.0
  9
$USERR2
 40
0.0
  9
$USERR3
 40
0.0
  9
$USERR4
 40
0.0
  9
$USERR5
 40
0.0
  9
$WORLDVIEW
 70
     1
  9
$SHADEDGE
 70
     3
  9
$SHADEDIF
 70
    70
  9
$TILEMODE
 70
     1
  9
$MAXACTVP
 70
    64
  9
$PINSBASE
 10
0.0
 20
0.0
 30
0.0
  9
$PLIMCHECK
 70
     0
  9
$PEXTMIN
 10
1.0000000000E+20
 20
1.0000000000E+20
 30
1.0000000000E+20
  9
$PEXTMAX
 10
-1.0000000000E+20
 20
-1.0000000000E+20
 30
-1.0000000000E+20
  9
$PLIMMIN
 10
0.0
 20
0.0
  9
$PLIMMAX
 10
420.0
 20
297.0
  9
$UNITMODE
 70
     0
  9
$VISRETAIN
 70
     1
  9
$PLINEGEN
 70
     0
  9
$PSLTSCALE
 70
     1
  9
$TREEDEPTH
 70
  3020
  9
$CMLSTYLE
  2
Standard
  9
$CMLJUST
 70
     0
  9
$CMLSCALE
 40
20.0
  9
$PROXYGRAPHICS
 70
     1
  9
$MEASUREMENT
 70
     1
  9
$CELWEIGHT
370
    -1
  9
$ENDCAPS
280
     0
  9
$JOINSTYLE
280
     0
  9
$LWDISPLAY
290
     1
  9
$INSUNITS
 70
     4
  9
$HYPERLINKBASE
  1

  9
$STYLESHEET
  1

  9
$XEDIT
290
     1
  9
$CEPSNTYPE
380
     0
  9
$PSTYLEMODE
290
     1
  9
$FINGERPRINTGUID
  2
{7bef7114-8c62-423e-b247-fad4aaad9914}
  9
$VERSIONGUID
  2
{FAEB1C32-E019-11D5-929B-00C0DF256EC4}
  9
$EXTNAMES
290
     1
  9
$PSVPSCALE
 40
0.0
  9
$OLESTARTUP
290
     0
  0
ENDSEC
  0
SECTION
  2
CLASSES
  0
CLASS
  1
ACDBDICTIONARYWDFLT
  2
AcDbDictionaryWithDefault
  3
ObjectDBX Classes
 90
        0
280
     0
281
     0
  0
CLASS
  1
VISUALSTYLE
  2
AcDbVisualStyle
  3
ObjectDBX Classes
 90
     4095
280
     0
281
     0
  0
CLASS
  1
MATERIAL
  2
AcDbMaterial
  3
ObjectDBX Classes
 90
     1153
280
     0
281
     0
  0
CLASS
  1
SCALE
  2
AcDbScale
  3
ObjectDBX Classes
 90
     1153
280
     0
281
     0
  0
CLASS
  1
TABLESTYLE
  2
AcDbTableStyle
  3
ObjectDBX Classes
 90
     4095
280
     0
281
     0
  0
CLASS
  1
MLEADERSTYLE
  2
AcDbMLeaderStyle
  3
ACDB_MLEADERSTYLE_CLASS
 90
     4095
280
     0
281
     0
  0
CLASS
  1
SUN
  2
AcDbSun
  3
SCENEOE
 90
     1153
280
     0
281
     0
  0
CLASS
  1
ACDBPLACEHOLDER
  2
AcDbPlaceHolder
  3
ObjectDBX Classes
 90
        0
280
     0
281
     0
  0
CLASS
  1
LAYOUT
  2
AcDbLayout
  3
ObjectDBX Classes
 90
        0
280
     0
281
     0
  0
ENDSEC
  0
SECTION
  2
TABLES
  0
TABLE
  2
VPORT
  5
8
330
0
100
AcDbSymbolTable
 70
     1
  0
VPORT
  5
29
330
8
100
AcDbSymbolTableRecord
100
AcDbViewportTableRecord
  2
*Active
 70
     0
 10
0.0
 20
0.0
 11
1.0
 21
1.0
 12
0.0
 22
-72.5
 13
0.0
 23
0.0
 14
10.0
 24
10.0
 15
10.0
 25
10.0
 16
0.0
 26
0.0
 36
1.0
 17
0.0
 27
0.0
 37
0.0
 40
147.9
 41
1.5517241379
 42
50.0
 43
0.0
 44
0.0
 50
0.0
 51
0.0
 71
     0
 72
   100
 73
     1
 74
     3
 75
     0
 76
     0
 77
     0
 78
     0
281
     0
 65
     1
110
0.0
120
0.0
130
0.0
111
1.0
121
0.0
131
0.0
112
0.0
122
1.0
132
0.0
 79
     0
146
0.0
  0
ENDTAB
  0
TABLE
  2
LTYPE
  5
5
330
0
100
AcDbSymbolTable
 70
     6
  0
LTYPE
  5
14
330
5
100
AcDbSymbolTableRecord
100
AcDbLinetypeTableRecord
  2
ByBlock
 70
     0
  3

 72
    65
 73
     0
 40
0.0
  0
LTYPE
  5
15
330
5
100
AcDbSymbolTableRecord
100
AcDbLinetypeTableRecord
  2
ByLayer
 70
     0
  3

 72
    65
 73
     0
 40
0.0
  0
LTYPE
  5
16
330
5
100
AcDbSymbolTableRecord
100
AcDbLinetypeTableRecord
  2
Continuous
 70
     0
  3
Solid line
 72
    65
 73
     0
 40
0.0
  0
LTYPE
  5
6E
330
5
100
AcDbSymbolTableRecord
100
AcDbLinetypeTableRecord
  2
HIDDEN
 70
     0
  3
Hidden __ __ __ __ __ __ __ __ __ __ __ __ __ __
 72
    65
 73
     2
 40
1.905
 49
1.27
 74
     0
 49
-0.635
 74
     0
  0
LTYPE
  5
6F
330
5
100
AcDbSymbolTableRecord
100
AcDbLinetypeTableRecord
  2
PHANTOM
 70
     0
  3
Phantom ______  __  __  ______  __  __  ______
 72
    65
 73
     6
 40
12.7
 49
6.35
 74
     0
 49
-1.27
 74
     0
 49
1.27
 74
     0
 49
-1.27
 74
     0
 49
1.27
 74
     0
 49
-1.27
 74
     0
  0
LTYPE
  5
70
330
5
100
AcDbSymbolTableRecord
100
AcDbLinetypeTableRecord
  2
CENTER
 70
     0
  3
Center ____ _ ____ _ ____ _ ____ _ ____ _ ____
 72
    65
 73
     4
 40
10.16
 49
6.35
 74
     0
 49
-1.27
 74
     0
 49
1.27
 74
     0
 49
-1.27
 74
     0
  0
LTYPE
  5
71
330
5
100
AcDbSymbolTableRecord
100
AcDbLinetypeTableRecord
  2
CENTERX2
 70
     0
  3
Center (2x) ________  __  ________  __  _____
 72
    65
 73
     4
 40
20.32
 49
12.7
 74
     0
 49
-2.54
 74
     0
 49
2.54
 74
     0
 49
-2.54
 74
     0
  0
LTYPE
  5
72
330
5
100
AcDbSymbolTableRecord
100
AcDbLinetypeTableRecord
  2
DOT2
 70
     0
  3
Dot (.5x) ........................................
 72
    65
 73
     2
 40
0.635
 49
0.0
 74
     0
 49
-0.635
 74
     0
  0
ENDTAB
  0
TABLE
  2
LAYER
  5
2
330
0
100
AcDbSymbolTable
 70
     1
  0
LAYER
  5
10
330
2
100
AcDbSymbolTableRecord
100
AcDbLayerTableRecord
  2
0
 70
     0
 62
     7
  6
Continuous
370
    -3
390
F
  0
ENDTAB
  0
TABLE
  2
STYLE
  5
3
330
0
100
AcDbSymbolTable
 70
     2
  0
STYLE
  5
11
330
3
100
AcDbSymbolTableRecord
100
AcDbTextStyleTableRecord
  2
Standard
 70
     0
 40
0.0
 41
1.0
 50
0.0
 71
     0
 42
3.5
  3
txt
  4

  0
STYLE
  5
1C5
330
3
100
AcDbSymbolTableRecord
100
AcDbTextStyleTableRecord
  2
SLDTEXTSTYLE0
 70
     0
 40
0.0
 41
0.7
 50
0.0
 71
     0
 42
3.5
  3
TXT
  4

  0
ENDTAB
  0
TABLE
  2
VIEW
  5
6
330
0
100
AcDbSymbolTable
 70
     0
  0
ENDTAB
  0
TABLE
  2
UCS
  5
7
330
0
100
AcDbSymbolTable
 70
     0
  0
ENDTAB
  0
TABLE
  2
APPID
  5
9
330
0
100
AcDbSymbolTable
 70
     1
  0
APPID
  5
12
330
9
100
AcDbSymbolTableRecord
100
AcDbRegAppTableRecord
  2
ACAD
 70
     0
  0
ENDTAB
  0
TABLE
  2
DIMSTYLE
  5
A
330
0
100
AcDbSymbolTable
 70
     1
100
AcDbDimStyleTable
  0
DIMSTYLE
105
27
330
A
100
AcDbSymbolTableRecord
100
AcDbDimStyleTableRecord
  2
ISO-25
 70
     0
 41
2.5
 42
0.625
 43
3.75
 44
1.25
 73
     0
 74
     0
 77
     1
 78
     8
140
2.5
141
2.5
143
0.0393700787
147
0.625
171
     3
172
     1
178
     0
271
     2
272
     2
274
     3
278
    44
283
     0
284
     8
340
11
  0
ENDTAB
  0
TABLE
  2
BLOCK_RECORD
  5
1
330
0
100
AcDbSymbolTable
 70
     1
  0
BLOCK_RECORD
  5
1F
330
1
100
AcDbSymbolTableRecord
100
AcDbBlockTableRecord
  2
*Model_Space
340
22
  0
BLOCK_RECORD
  5
1B
330
1
100
AcDbSymbolTableRecord
100
AcDbBlockTableRecord
  2
*Paper_Space
340
1E
  0
BLOCK_RECORD
  5
23
330
1
100
AcDbSymbolTableRecord
100
AcDbBlockTableRecord
  2
*Paper_Space0
340
26
  0
ENDTAB
  0
ENDSEC
  0
SECTION
  2
BLOCKS
  0
BLOCK
  5
20
330
1F
100
AcDbEntity
  8
0
100
AcDbBlockBegin
  2
*Model_Space
 70
     0
 10
0.0
 20
0.0
 30
0.0
  3
*Model_Space
  1

  0
ENDBLK
  5
21
330
1F
100
AcDbEntity
  8
0
100
AcDbBlockEnd
  0
BLOCK
  5
1C
330
1B
100
AcDbEntity
 67
     1
  8
0
100
AcDbBlockBegin
  2
*Paper_Space
 70
     0
 10
0.0
 20
0.0
 30
0.0
  3
*Paper_Space
  1

  0
ENDBLK
  5
1D
330
1B
100
AcDbEntity
 67
     1
  8
0
100
AcDbBlockEnd
  0
BLOCK
  5
24
330
23
100
AcDbEntity
  8
0
100
AcDbBlockBegin
  2
*Paper_Space0
 70
     0
 10
0.0
 20
0.0
 30
0.0
  3
*Paper_Space0
  1

  0
ENDBLK
  5
25
330
23
100
AcDbEntity
  8
0
100
AcDbBlockEnd
  0
ENDSEC
  0
SECTION
  2
ENTITIES
  0
SPLINE
  5
73
330
1F
100
AcDbEntity
  8
0
  6
Continuous
 62
     7
370
    25
100
AcDbSpline
210
0.0
220
0.0
230
1.0
 70
     8
 71
     3
 72
    15
 73
    11
 74
     0
 42
0.000000001
 43
0.00000001
 40
0.0
 40
0.0
 40
0.0
 40
0.0
 40
0.1412364866115016
 40
0.2698021130803538
 40
0.3916168851530056
 40
0.5089463070770818
 40
0.6246498385543678
 40
0.7423326188046775
 40
0.8651938801669604
 40
1.0
 40
1.0
 40
1.0
 40
1.0
 10
3.665065461053042
 20
-126.8672546724256
 30
0.0
 10
3.582866034471378
 20
-126.8715745085358
 30
0.0
 10
3.425841603194423
 20
-126.8798266318975
 30
0.0
 10
3.202596835329933
 20
-126.932633053051
 30
0.0
 10
3.006586987880655
 20
-127.0222994796505
 30
0.0
 10
2.840863306930264
 20
-127.1483251077354
 30
0.0
 10
2.707610003282815
 20
-127.3049601749049
 30
0.0
 10
2.609462515365773
 20
-127.4894584816295
 30
0.0
 10
2.551783561884306
 20
-127.7021326144032
 30
0.0
 10
2.542425564393191
 20
-127.8520549097159
 30
0.0
 10
2.537529658185224
 20
-127.9304910812398
 30
0.0
  0
SPLINE
  5
75
330
1F
100
AcDbEntity
  8
0
  6
Continuous
 62
     7
370
    25
100
AcDbSpline
210
0.0
220
0.0
230
1.0
 70
     8
 71
     3
 72
    15
 73
    11
 74
     0
 42
0.000000001
 43
0.00000001
 40
0.0
 40
0.0
 40
0.0
 40
0.0
 40
0.1421301864835947
 40
0.2705442625722182
 40
0.3919305615392925
 40
0.5089515999423228
 40
0.6245339701691783
 40
0.7411725981074629
 40
0.8644636176305981
 40
1.0
 40
1.0
 40
1.0
 40
1.0
 10
3.665065461053042
 20
-128.9937274900541
 30
0.0
 10
3.747343940457046
 20
-128.9897462699816
 30
0.0
 10
3.903960709115753
 20
-128.9821680329068
 30
0.0
 10
4.124969107143958
 20
-128.9253975333934
 30
0.0
 10
4.319100230766148
 20
-128.8365145104669
 30
0.0
 10
4.482582803555148
 20
-128.7102433364732
 30
0.0
 10
4.612706802470148
 20
-128.5539288969199
 30
0.0
 10
4.709812760239126
 20
-128.3708262392336
 30
0.0
 10
4.764356960604401
 20
-128.1585662127924
 30
0.0
 10
4.772343972837335
 20
-128.0088767735186
 30
0.0
 10
4.776526415407469
 20
-127.9304910812398
 30
0.0
  0
SPLINE
  5
76
330
1F
100
AcDbEntity
  8
0
  6
Continuous
 62
     7
370
    25
100
AcDbSpline
210
0.0
220
0.0
230
1.0
 70
     8
 71
     3
 72
    15
 73
    11
 74
     0
 42
0.000000001
 43
0.00000001
 40
0.0
 40
0.0
 40
0.0
 40
0.0
 40
0.1349199802080008
 40
0.2578850130407795
 40
0.3745064556783271
 40
0.4903077130414484
 40
0.6077362341161575
 40
0.7296538937701832
 40
0.858644221776636
 40
1.0
 40
1.0
 40
1.0
 40
1.0
 10
2.537529658185224
 20
-127.9304910812398
 30
0.0
 10
2.542465558648386
 20
-128.0089065139711
 30
0.0
 10
2.551900000851447
 20
-128.1587891693148
 30
0.0
 10
2.608875174666874
 20
-128.3710787101875
 30
0.0
 10
2.70834982148191
 20
-128.5540977411615
 30
0.0
 10
2.840793245588989
 20
-128.7103558031303
 30
0.0
 10
3.006564252009577
 20
-128.8365584993683
 30
0.0
 10
3.202940726991151
 20
-128.9253988246159
 30
0.0
 10
3.425457921726928
 20
-128.9819569947395
 30
0.0
 10
3.582797413544311
 20
-128.9896861494916
 30
0.0
 10
3.665065461053042
 20
-128.9937274900541
 30
0.0
  0
SPLINE
  5
77
330
1F
100
AcDbEntity
  8
0
  6
Continuous
 62
     7
370
    25
100
AcDbSpline
210
0.0
220
0.0
230
1.0
 70
     8
 71
     3
 72
    15
 73
    11
 74
     0
 42
0.000000001
 43
0.00000001
 40
0.0
 40
0.0
 40
0.0
 40
0.0
 40
0.1345233462973902
 40
0.2578372781585777
 40
0.3756710535811436
 40
0.4912749035747437
 40
0.6083176891058315
 40
0.7297265464386944
 40
0.8578434001174996
 40
1.0
 40
1.0
 40
1.0
 40
1.0
 10
4.777746381589288
 20
-127.9285714285714
 30
0.0
 10
4.773038613141386
 20
-127.8508207999462
 30
0.0
 10
4.764015360031666
 20
-127.7017982621371
 30
0.0
 10
4.709309727504485
 20
-127.489692019074
 30
0.0
 10
4.613418969901338
 20
-127.3051445243338
 30
0.0
 10
4.482519912095098
 20
-127.1484350595414
 30
0.0
 10
4.31907505282966
 20
-127.0223439667522
 30
0.0
 10
4.12531649075256
 20
-126.9326372660728
 30
0.0
 10
3.903570869302045
 20
-126.8796235701737
 30
0.0
 10
3.747273626067102
 20
-126.8715179903712
 30
0.0
 10
3.665065461053042
 20
-126.8672546724256
 30
0.0
  0
SPLINE
  5
7A
330
1F
100
AcDbEntity
  8
0
  6
Continuous
 62
     7
370
    25
100
AcDbSpline
210
0.0
220
0.0
230
1.0
 70
     8
 71
     3
 72
    23
 73
    19
 74
     0
 42
0.000000001
 43
0.00000001
 40
0.0
 40
0.0
 40
0.0
 40
0.0
 40
0.0711966279376468
 40
0.1382492707922495
 40
0.2020057025760508
 40
0.2630591923367752
 40
0.3224512105452643
 40
0.3806163892108344
 40
0.4397389144305868
 40
0.4996954221205384
 40
0.5604826800706517
 40
0.6212220293015174
 40
0.6817418842767609
 40
0.7430088840921232
 40
0.8051319580731087
 40
0.8683617821330945
 40
0.9334991376158726
 40
1.0
 40
1.0
 40
1.0
 40
1.0
 10
-3.82581394618693
 20
-121.6750786026005
 30
0.0
 10
-3.83410836168417
 20
-121.5416555881974
 30
0.0
 10
-3.8502144179309
 20
-121.2825754184977
 30
0.0
 10
-3.913782195002928
 20
-120.9078400780432
 30
0.0
 10
-4.015708784450664
 20
-120.5617483044182
 30
0.0
 10
-4.148406786880205
 20
-120.2416478354709
 30
0.0
 10
-4.316857859856762
 20
-119.9506559527629
 30
0.0
 10
-4.519519440790632
 20
-119.6870469290196
 30
0.0
 10
-4.756626301396513
 20
-119.452115374416
 30
0.0
 10
-5.027516008507676
 20
-119.2494014343565
 30
0.0
 10
-5.318313230697658
 20
-119.0712476852827
 30
0.0
 10
-5.62429192294443
 20
-118.9185573990238
 30
0.0
 10
-5.940292678431334
 20
-118.785342731058
 30
0.0
 10
-6.269730330334402
 20
-118.681103820172
 30
0.0
 10
-6.61012057851328
 20
-118.5972155203806
 30
0.0
 10
-6.963493077188676
 20
-118.5411201060642
 30
0.0
 10
-7.327833074857792
 20
-118.5049717884617
 30
0.0
 10
-7.574992625122485
 20
-118.5026281709874
 30
0.0
 10
-7.699852437914034
 20
-118.5014442246711
 30
0.0
  0
SPLINE
  5
81
330
1F
100
AcDbEntity
  8
0
  6
Continuous
 62
     7
370
    25
100
AcDbSpline
210
0.0
220
0.0
230
1.0
 70
     8
 71
     3
 72
    23
 73
    19
 74
     0
 42
0.000000001
 43
0.00000001
 40
0.0
 40
0.0
 40
0.0
 40
0.0
 40
0.1014752716581365
 40
0.1963685078220005
 40
0.2835239592573184
 40
0.3632354808368236
 40
0.4364716739988675
 40
0.5030631754819653
 40
0.5636587500981118
 40
0.6191179852959703
 40
0.6707395527670484
 40
0.7197942831093226
 40
0.7674649714722731
 40
0.8132324763832155
 40
0.8589999812941584
 40
0.9047383720132782
 40
0.9510268011218517
 40
1.0
 40
1.0
 40
1.0
 40
1.0
 10
-8.015074655651086
 20
-120.4206349206349
 30
0.0
 10
-7.919926818794911
 20
-120.4232739551502
 30
0.0
 10
-7.735802761370519
 20
-120.4283808473161
 30
0.0
 10
-7.470361038559082
 20
-120.4458868456834
 30
0.0
 10
-7.226384031725879
 20
-120.4749228846799
 30
0.0
 10
-7.005006191053868
 20
-120.516863016083
 30
0.0
 10
-6.804768231445043
 20
-120.5657371183526
 30
0.0
 10
-6.626946105979943
 20
-120.6275486105245
 30
0.0
 10
-6.471241632801546
 20
-120.7001805495823
 30
0.0
 10
-6.339509819800107
 20
-120.7868489168887
 30
0.0
 10
-6.225478580833557
 20
-120.8791271612594
 30
0.0
 10
-6.128094006292935
 20
-120.9789867191954
 30
0.0
 10
-6.045576120832107
 20
-121.0843293724111
 30
0.0
 10
-5.976211643054756
 20
-121.1956102838848
 30
0.0
 10
-5.929597407983996
 20
-121.3162382713657
 30
0.0
 10
-5.895035531579948
 20
-121.4407868759895
 30
0.0
 10
-5.872071664143014
 20
-121.5716778352582
 30
0.0
 10
-5.87348324590817
 20
-121.661203771475
 30
0.0
 10
-5.874208928178972
 20
-121.7072282996272
 30
0.0
  0
SPLINE
  5
86
330
1F
100
AcDbEntity
  8
0
  6
Continuous
 62
     7
370
    25
100
AcDbSpline
210
0.0
220
0.0
230
1.0
 70
     8
 71
     3
 72
    19
 73
    15
 74
     0
 42
0.000000001
 43
0.00000001
 40
0.0
 40
0.0
 40
0.0
 40
0.0
 40
0.0898292895209031
 40
0.1785658823436601
 40
0.2735278476900957
 40
0.3770473948055895
 40
0.4341507345425814
 40
0.4956270977037634
 40
0.5631339192489724
 40
0.6367522607415705
 40
0.7165031027002594
 40
0.803569245680928
 40
0.8982591830970627
 40
1.0
 40
1.0
 40
1.0
 40
1.0
 10
-5.874208928178972
 20
-121.7072282996272
 30
0.0
 10
-5.877554434125208
 20
-121.7920992674376
 30
0.0
 10
-5.884204750790984
 20
-121.9608088201154
 30
0.0
 10
-5.972641014334473
 20
-122.2070836132699
 30
0.0
 10
-6.127252069940672
 20
-122.431407622415
 30
0.0
 10
-6.301201046652773
 20
-122.599469448541
 30
0.0
 10
-6.469975526109036
 20
-122.723887152514
 30
0.0
 10
-6.627123197775161
 20
-122.802483062538
 30
0.0
 10
-6.803797796264528
 20
-122.8748169749089
 30
0.0
 10
-7.004565381848511
 20
-122.9302496257828
 30
0.0
 10
-7.226222024853771
 20
-122.9763693792229
 30
0.0
 10
-7.47022172744802
 20
-123.0099486327952
 30
0.0
 10
-7.736195204594105
 20
-123.0329263776756
 30
0.0
 10
-7.921024647558681
 20
-123.0385354969619
 30
0.0
 10
-8.016756594320874
 20
-123.0414407262386
 30
0.0
  0
SPLINE
  5
87
330
1F
100
AcDbEntity
  8
0
  6
Continuous
 62
     7
370
    25
100
AcDbSpline
210
0.0
220
0.0
230
1.0
 70
     8
 71
     3
 72
    23
 73
    19
 74
     0
 42
0.000000001
 43
0.00000001
 40
0.0
 40
0.0
 40
0.0
 40
0.0
 40
0.0648592257046712
 40
0.1285001645688645
 40
0.1904761344583492
 40
0.2517134655895739
 40
0.3121687705033007
 40
0.3717694310135651
 40
0.431743331135111
 40
0.4924712391795696
 40
0.5526690625447234
 40
0.6119882522000362
 40
0.6718325144031436
 40
0.732924985327631
 40
0.7957911781614013
 40
0.860684837355059
 40
0.9287508634202555
 40
0.9999999999999999
 40
0.9999999999999999
 40
0.9999999999999999
 40
0.9999999999999999
 10
-6.903963544539976
 20
-124.9126984126984
 30
0.0
 10
-6.799255621197838
 20
-124.8950781777583
 30
0.0
 10
-6.591806561562212
 20
-124.860168678532
 30
0.0
 10
-6.289238916450415
 20
-124.7837785251976
 30
0.0
 10
-5.998034631257601
 20
-124.689774190603
 30
0.0
 10
-5.719639369595275
 20
-124.5753696889776
 30
0.0
 10
-5.455996955792727
 20
-124.4387070001558
 30
0.0
 10
-5.203114231524334
 20
-124.2870118665159
 30
0.0
 10
-4.963905085493411
 20
-124.1136655350695
 30
0.0
 10
-4.737396986778023
 20
-123.9226013020884
 30
0.0
 10
-4.529738723354652
 20
-123.712291798676
 30
0.0
 10
-4.349013572459814
 20
-123.4801326392935
 30
0.0
 10
-4.19452038488019
 20
-123.2281712559195
 30
0.0
 10
-4.065153960172304
 20
-122.9559440477007
 30
0.0
 10
-3.964392251534952
 20
-122.6630828022817
 30
0.0
 10
-3.891647722457819
 20
-122.3505645187672
 30
0.0
 10
-3.842716269401915
 20
-122.0194309970101
 30
0.0
 10
-3.831533224999596
 20
-121.7915979312388
 30
0.0
 10
-3.82581394618693
 20
-121.6750786026005
 30
0.0
  0
SPLINE
  5
88
330
1F
100
AcDbEntity
  8
0
  6
Continuous
 62
     7
370
    25
100
AcDbSpline
210
0.0
220
0.0
230
1.0
 70
     8
 71
     3
 72
    23
 73
    19
 74
     0
 42
0.000000001
 43
0.00000001
 40
0.0
 40
0.0
 40
0.0
 40
0.0
 40
0.0829625157185385
 40
0.1607522143935789
 40
0.2343896383457532
 40
0.3038279765210637
 40
0.3698744426322125
 40
0.4324491782344449
 40
0.4927493533117576
 40
0.5511710971564185
 40
0.6078007560040641
 40
0.6626635416250067
 40
0.7169436100112945
 40
0.7711332535937224
 40
0.8255538949409823
 40
0.8813561689254957
 40
0.9395228721079654
 40
0.9999999999999999
 40
0.9999999999999999
 40
0.9999999999999999
 40
0.9999999999999999
 10
6.358750790511198
 20
-123.5007221123355
 30
0.0
 10
6.364174181349374
 20
-123.6983205300846
 30
0.0
 10
6.374682807796003
 20
-124.0811968560822
 30
0.0
 10
6.426649877490727
 20
-124.6376970993031
 30
0.0
 10
6.514095767220247
 20
-125.1569669066235
 30
0.0
 10
6.63020562385633
 20
-125.6418841768428
 30
0.0
 10
6.778148287039852
 20
-126.0906488261448
 30
0.0
 10
6.960694911993442
 20
-126.5028146636822
 30
0.0
 10
7.174005216582587
 20
-126.87926037673
 30
0.0
 10
7.42008639666587
 20
-127.2180323256312
 30
0.0
 10
7.694478133980736
 20
-127.5165959498544
 30
0.0
 10
7.989945680055026
 20
-127.779877258829
 30
0.0
 10
8.311296922851408
 20
-128.0009799518979
 30
0.0
 10
8.654654227633117
 20
-128.183632701034
 30
0.0
 10
9.021207282070302
 20
-128.3244096386482
 30
0.0
 10
9.410160361494478
 20
-128.42510403303
 30
0.0
 10
9.821938681851586
 20
-128.4888080346765
 30
0.0
 10
10.10472005558336
 20
-128.4962212243495
 30
0.0
 10
10.24886413075169
 20
-128.5
 30
0.0
  0
SPLINE
  5
8A
330
1F
100
AcDbEntity
  8
0
  6
Continuous
 62
     7
370
    25
100
AcDbSpline
210
0.0
220
0.0
230
1.0
 70
     8
 71
     3
 72
    23
 73
    19
 74
     0
 42
0.000000001
 43
0.00000001
 40
0.0
 40
0.0
 40
0.0
 40
0.0
 40
0.0511043384614203
 40
0.100383100997359
 40
0.1476230479476069
 40
0.1938986723067431
 40
0.2402264656625935
 40
0.2874664126128431
 40
0.3360242486139523
 40
0.3874427302997954
 40
0.4421420566191356
 40
0.5023570638347378
 40
0.5687582510899675
 40
0.6406083441586986
 40
0.7200051111779447
 40
0.8056766868990328
 40
0.898957577090196
 40
1.0
 40
1.0
 40
1.0
 40
1.0
 10
10.24886413075169
 20
-120.421240418556
 30
0.0
 10
10.3178157660636
 20
-120.422149218847
 30
0.0
 10
10.45325591028293
 20
-120.4239343547894
 30
0.0
 10
10.65142213089772
 20
-120.45017994844
 30
0.0
 10
10.83670871850391
 20
-120.5047622963988
 30
0.0
 10
11.0110420652163
 20
-120.5779827335262
 30
0.0
 10
11.17326740049401
 20
-120.6755950229549
 30
0.0
 10
11.32273715834258
 20
-120.7963605163352
 30
0.0
 10
11.4626374049133
 20
-120.937948801991
 30
0.0
 10
11.58900171706761
 20
-121.1046450933561
 30
0.0
 10
11.70322645437923
 20
-121.2983517356367
 30
0.0
 10
11.80101173508383
 20
-121.5230634141081
 30
0.0
 10
11.88497159337376
 20
-121.7775545527241
 30
0.0
 10
11.95416069230765
 20
-122.0631952457909
 30
0.0
 10
12.00479037089295
 20
-122.378948588303
 30
0.0
 10
12.04358248560667
 20
-122.7253208974289
 30
0.0
 10
12.06938814947034
 20
-123.1022973329844
 30
0.0
 10
12.07275630066193
 20
-123.3644239567111
 30
0.0
 10
12.07450764048675
 20
-123.5007221123355
 30
0.0
  0
SPLINE
  5
8B
330
1F
100
AcDbEntity
  8
0
  6
Continuous
 62
     7
370
    25
100
AcDbSpline
210
0.0
220
0.0
230
1.0
 70
     8
 71
     3
 72
    23
 73
    19
 74
     0
 42
0.000000001
 43
0.00000001
 40
0.0
 40
0.0
 40
0.0
 40
0.0
 40
0.1010110819097892
 40
0.1942630385471373
 40
0.2799080409460639
 40
0.3592801809422769
 40
0.431107987790002
 40
0.4973113597985657
 40
0.5575076897250878
 40
0.6121900495907584
 40
0.6635925824643215
 40
0.7121353569586397
 40
0.7593606511805058
 40
0.8061614705334293
 40
0.8524227412745307
 40
0.8996480354963954
 40
0.9489115129109678
 40
1.0
 40
1.0
 40
1.0
 40
1.0
 10
8.42322062101663
 20
-123.5007221123355
 30
0.0
 10
8.424974232167445
 20
-123.3644247034542
 30
0.0
 10
8.42834675154004
 20
-123.1022995158532
 30
0.0
 10
8.454122395880166
 20
-122.7253132107876
 30
0.0
 10
8.49301537015425
 20
-122.3789740612303
 30
0.0
 10
8.543311654340783
 20
-122.0631111087375
 30
0.0
 10
8.613529077180505
 20
-121.7780596791476
 30
0.0
 10
8.693832108718189
 20
-121.522619393694
 30
0.0
 10
8.792362269052646
 20
-121.2984013389844
 30
0.0
 10
8.906396928448316
 20
-121.1046407692432
 30
0.0
 10
9.032787232569508
 20
-120.9379238867096
 30
0.0
 10
9.172749718473312
 20
-120.7964568241263
 30
0.0
 10
9.322470469709012
 20
-120.6748301718401
 30
0.0
 10
9.486310354370625
 20
-120.5786301180857
 30
0.0
 10
9.660956374470445
 20
-120.5046555104336
 30
0.0
 10
9.8463239212034
 20
-120.4502100233235
 30
0.0
 10
10.04446762974678
 20
-120.4239263731705
 30
0.0
 10
10.17991090264906
 20
-120.4221465262452
 30
0.0
 10
10.24886413075169
 20
-120.421240418556
 30
0.0
  0
SPLINE
  5
8C
330
1F
100
AcDbEntity
  8
0
  6
Continuous
 62
     7
370
    25
100
AcDbSpline
210
0.0
220
0.0
230
1.0
 70
     8
 71
     3
 72
    23
 73
    19
 74
     0
 42
0.000000001
 43
0.00000001
 40
0.0
 40
0.0
 40
0.0
 40
0.0
 40
0.0512630897217491
 40
0.1005821554149267
 40
0.1476290329920311
 40
0.193865915137224
 40
0.240642061448253
 40
0.2878424588482452
 40
0.3367655124954966
 40
0.3881409463382139
 40
0.4427944780727781
 40
0.5029590729444248
 40
0.5691275430304624
 40
0.6414684942549457
 40
0.7202395244794425
 40
0.8058393754737193
 40
0.8990421703770423
 40
1.0
 40
1.0
 40
1.0
 40
1.0
 10
10.24976116470891
 20
-126.579365079365
 30
0.0
 10
10.180441616891
 20
-126.5801422473922
 30
0.0
 10
10.04443129114279
 20
-126.5816671112995
 30
0.0
 10
9.846978054409194
 20
-126.5495188855872
 30
0.0
 10
9.660526959179903
 20
-126.5000112400568
 30
0.0
 10
9.486349663931033
 20
-126.42486346119
 30
0.0
 10
9.322554303256414
 20
-126.3288855199749
 30
0.0
 10
9.171938759928352
 20
-126.2072959977222
 30
0.0
 10
9.03357973679008
 20
-126.0635139874479
 30
0.0
 10
8.906264678804073
 20
-125.8969326233276
 30
0.0
 10
8.79239337623649
 20
-125.7030056329899
 30
0.0
 10
8.693862387283874
 20
-125.478827117796
 30
0.0
 10
8.613124972262142
 20
-125.2227130543414
 30
0.0
 10
8.543948214237654
 20
-124.9374331894939
 30
0.0
 10
8.49269684949926
 20
-124.6217636179715
 30
0.0
 10
8.45419328425243
 20
-124.2761177517828
 30
0.0
 10
8.428326620508793
 20
-123.8991484750174
 30
0.0
 10
8.424967345491286
 20
-123.6370208096057
 30
0.0
 10
8.42322062101663
 20
-123.5007221123355
 30
0.0
  0
SPLINE
  5
8E
330
1F
100
AcDbEntity
  8
0
  6
Continuous
 62
     7
370
    25
100
AcDbSpline
210
0.0
220
0.0
230
1.0
 70
     8
 71
     3
 72
    23
 73
    19
 74
     0
 42
0.000000001
 43
0.00000001
 40
0.0
 40
0.0
 40
0.0
 40
0.0
 40
0.101011092155752
 40
0.1942630582520234
 40
0.2799080693382693
 40
0.3587206569595152
 40
0.431099773250555
 40
0.4974803711413729
 40
0.5576767071738524
 40
0.6123590725861728
 40
0.6637616106737032
 40
0.7127104747584315
 40
0.7599357737705505
 40
0.8062492020245234
 40
0.8525104774580903
 40
0.899582175654548
 40
0.9489272607101034
 40
1.0
 40
1.0
 40
1.0
 40
1.0
 10
12.07450764048675
 20
-123.5007221123355
 30
0.0
 10
12.07276318676116
 20
-123.6370215562208
 30
0.0
 10
12.06940827881511
 20
-123.8991506575118
 30
0.0
 10
12.04351160317308
 20
-124.2761100664603
 30
0.0
 10
12.00510865340296
 20
-124.6217890146977
 30
0.0
 10
11.95352543430587
 20
-124.9373494735629
 30
0.0
 10
11.88538356953635
 20
-125.223220708121
 30
0.0
 10
11.80098205714188
 20
-125.4783833267211
 30
0.0
 10
11.70319520191986
 20
-125.7030551813637
 30
0.0
 10
11.58913402323725
 20
-125.8969283481085
 30
0.0
 10
11.4618448808299
 20
-126.0634888836268
 30
0.0
 10
11.32354879061623
 20
-126.2073936205936
 30
0.0
 10
11.17318470106829
 20
-126.328120601924
 30
0.0
 10
11.0110034740901
 20
-126.425517476112
 30
0.0
 10
10.83713822375402
 20
-126.499891817021
 30
0.0
 10
10.65076888593534
 20
-126.5496008826287
 30
0.0
 10
10.45357925719246
 20
-126.5814043522203
 30
0.0
 10
10.31788072182185
 20
-126.5806085519736
 30
0.0
 10
10.24886413075169
 20
-126.580203806115
 30
0.0
  0
SPLINE
  5
8F
330
1F
100
AcDbEntity
  8
0
  6
Continuous
 62
     7
370
    25
100
AcDbSpline
210
0.0
220
0.0
230
1.0
 70
     8
 71
     3
 72
    23
 73
    19
 74
     0
 42
0.000000001
 43
0.00000001
 40
0.0
 40
0.0
 40
0.0
 40
0.0
 40
0.0826494471331964
 40
0.1608088713794871
 40
0.2344114002541504
 40
0.3038664427716954
 40
0.3696239726320291
 40
0.4322137614429941
 40
0.4925284425523904
 40
0.5509642405468032
 40
0.6076075224336352
 40
0.6626967378494304
 40
0.7168078652898634
 40
0.7707268018362878
 40
0.8254604839512638
 40
0.8813584753341279
 40
0.9394921034963983
 40
0.9999999999999999
 40
0.9999999999999999
 40
0.9999999999999999
 40
0.9999999999999999
 10
14.1366810640617
 20
-123.5007221123355
 30
0.0
 10
14.13254023414962
 20
-123.303845260861
 30
0.0
 10
14.12448352950328
 20
-122.9207871112361
 30
0.0
 10
14.06723955069488
 20
-122.3649076928998
 30
0.0
 10
13.98449135651118
 20
-121.8442384676856
 30
0.0
 10
13.8677417202846
 20
-121.3602054440225
 30
0.0
 10
13.7191237555904
 20
-120.9124946293747
 30
0.0
 10
13.53708593780313
 20
-120.5008944771467
 30
0.0
 10
13.32366776082209
 20
-120.1245393926649
 30
0.0
 10
13.07780516663553
 20
-119.7855111386008
 30
0.0
 10
12.80233192938779
 20
-119.487469990617
 30
0.0
 10
12.50939072121369
 20
-119.2209774149025
 30
0.0
 10
12.18590585889813
 20
-119.0040752749261
 30
0.0
 10
11.8445942109294
 20
-118.8184553324363
 30
0.0
 10
11.4765836475644
 20
-118.6809150666519
 30
0.0
 10
11.08826701513404
 20
-118.5745346250129
 30
0.0
 10
10.67541793723632
 20
-118.5165623357186
 30
0.0
 10
10.39293310628901
 20
-118.5065503818253
 30
0.0
 10
10.24886413075169
 20
-118.5014442246711
 30
0.0
  0
SPLINE
  5
90
330
1F
100
AcDbEntity
  8
0
  6
Continuous
 62
     7
370
    25
100
AcDbSpline
210
0.0
220
0.0
230
1.0
 70
     8
 71
     3
 72
    23
 73
    19
 74
     0
 42
0.000000001
 43
0.00000001
 40
0.0
 40
0.0
 40
0.0
 40
0.0
 40
0.0604781580944896
 40
0.1186458521223003
 40
0.1744490766750968
 40
0.2291705271617836
 40
0.2830774141554639
 40
0.3373584071799025
 40
0.392222127365339
 40
0.4488527508754214
 40
0.5072754899099338
 40
0.5675766921753845
 40
0.6301524937119374
 40
0.6962000848968766
 40
0.7656396059250926
 40
0.8392256864494981
 40
0.9170478947251951
 40
0.9999999999999999
 40
0.9999999999999999
 40
0.9999999999999999
 40
0.9999999999999999
 10
10.24886413075169
 20
-128.5
 30
0.0
 10
10.39300379956901
 20
-128.4962106866597
 30
0.0
 10
10.67577652893582
 20
-128.4887768241813
 30
0.0
 10
11.08761694312499
 20
-128.4252213185446
 30
0.0
 10
11.47703927414238
 20
-128.3238133072661
 30
0.0
 10
11.8444007524369
 20
-128.1848398880717
 30
0.0
 10
12.18679023167008
 20
-128.000200623267
 30
0.0
 10
12.50783663787408
 20
-127.7799846332345
 30
0.0
 10
12.80323530664516
 20
-127.5165660793645
 30
0.0
 10
13.07764510634727
 20
-127.2180405761877
 30
0.0
 10
13.3237257332157
 20
-126.8792585940422
 30
0.0
 10
13.53701847538303
 20
-126.5028130718776
 30
0.0
 10
13.7196403521573
 20
-126.0906576109554
 30
0.0
 10
13.86727809013245
 20
-125.6418479273041
 30
0.0
 10
13.98459094054915
 20
-125.1572354624047
 30
0.0
 10
14.06703308666425
 20
-124.6372752126834
 30
0.0
 10
14.12468931171567
 20
-124.0814415133036
 30
0.0
 10
14.13259968007456
 20
-123.6983695283046
 30
0.0
 10
14.1366810640617
 20
-123.5007221123355
 30
0.0
  0
SPLINE
  5
91
330
1F
100
AcDbEntity
  8
0
  6
Continuous
 62
     7
370
    25
100
AcDbSpline
210
0.0
220
0.0
230
1.0
 70
     8
 71
     3
 72
    23
 73
    19
 74
     0
 42
0.000000001
 43
0.00000001
 40
0.0
 40
0.0
 40
0.0
 40
0.0
 40
0.0606349996475407
 40
0.1187596980799988
 40
0.174649103142417
 40
0.2290744747193162
 40
0.2832688284531098
 40
0.3373716440478323
 40
0.3924523973767978
 40
0.4490869784613761
 40
0.5075138003105875
 40
0.5678192166652618
 40
0.6303993912491305
 40
0.6961468202952996
 40
0.7655911940350065
 40
0.8392350185351478
 40
0.9173513779484995
 40
1.0
 40
1.0
 40
1.0
 40
1.0
 10
10.24976116470891
 20
-118.5
 30
0.0
 10
10.10539520098914
 20
-118.5056956705727
 30
0.0
 10
9.822640053565237
 20
-118.5168512098078
 30
0.0
 10
9.40950505192354
 20
-118.5745591004209
 30
0.0
 10
9.021662348853484
 20
-118.6803351781903
 30
0.0
 10
8.65446077321433
 20
-118.8196561781907
 30
0.0
 10
8.312185201824267
 20
-119.0033034713872
 30
0.0
 10
7.988392027005818
 20
-119.2210850585238
 30
0.0
 10
7.69538141193744
 20
-119.4874400840389
 30
0.0
 10
7.41992635891648
 20
-119.7855193860815
 30
0.0
 10
7.174063178520533
 20
-120.1245376099983
 30
0.0
 10
6.960627468711618
 20
-120.5008928886404
 30
0.0
 10
6.778664692525106
 20
-120.9125033833938
 30
0.0
 10
6.629743528654251
 20
-121.3601694362512
 30
0.0
 10
6.514194480162802
 20
-121.8445068544033
 30
0.0
 10
6.426440541461405
 20
-122.3644859044961
 30
0.0
 10
6.374886102097057
 20
-122.9210307178551
 30
0.0
 10
6.364229372027096
 20
-123.303893774573
 30
0.0
 10
6.358750790511197
 20
-123.5007221123355
 30
0.0
  0
LINE
  5
12A
330
1F
100
AcDbEntity
  8
0
  6
Continuous
 62
     7
370
    25
100
AcDbLine
 10
4.7765264154
 20
-127.9304910812
 30
0.0
 11
4.7777463816
 21
-127.9285714286
 31
0.0
  0
LINE
  5
12B
330
1F
100
AcDbEntity
  8
0
  6
Continuous
 62
     7
370
    25
100
AcDbLine
 10
-12.7452333858
 20
-118.5
 30
0.0
 11
-12.7452333858
 21
-128.5
 31
0.0
  0
LINE
  5
12C
330
1F
100
AcDbEntity
  8
0
  6
Continuous
 62
     7
370
    25
100
AcDbLine
 10
-7.6998524379
 20
-118.5014442247
 30
0.0
 11
-12.7452333858
 21
-118.5
 31
0.0
  0
LINE
  5
12D
330
1F
100
AcDbEntity
  8
0
  6
Continuous
 62
     7
370
    25
100
AcDbLine
 10
-3.7928524334
 20
-128.5
 30
0.0
 11
-6.9039635445
 21
-124.9126984127
 31
0.0
  0
LINE
  5
12E
330
1F
100
AcDbEntity
  8
0
  6
Continuous
 62
     7
370
    25
100
AcDbLine
 10
-6.2372968779
 20
-128.5
 30
0.0
 11
-3.7928524334
 21
-128.5
 31
0.0
  0
LINE
  5
12F
330
1F
100
AcDbEntity
  8
0
  6
Continuous
 62
     7
370
    25
100
AcDbLine
 10
-9.3007889414
 20
-124.9603174603
 30
0.0
 11
-6.2372968779
 21
-128.5
 31
0.0
  0
LINE
  5
130
330
1F
100
AcDbEntity
  8
0
  6
Continuous
 62
     7
370
    25
100
AcDbLine
 10
-10.6817413223
 20
-124.9603174603
 30
0.0
 11
-9.3007889414
 21
-124.9603174603
 31
0.0
  0
LINE
  5
131
330
1F
100
AcDbEntity
  8
0
  6
Continuous
 62
     7
370
    25
100
AcDbLine
 10
-10.6817413223
 20
-128.5
 30
0.0
 11
-10.6817413223
 21
-124.9603174603
 31
0.0
  0
LINE
  5
132
330
1F
100
AcDbEntity
  8
0
  6
Continuous
 62
     7
370
    25
100
AcDbLine
 10
-12.7452333858
 20
-128.5
 30
0.0
 11
-10.6817413223
 21
-128.5
 31
0.0
  0
LINE
  5
133
330
1F
100
AcDbEntity
  8
0
  6
Continuous
 62
     7
370
    25
100
AcDbLine
 10
-10.6817413223
 20
-120.4206349206
 30
0.0
 11
-8.0150746557
 21
-120.4206349206
 31
0.0
  0
LINE
  5
134
330
1F
100
AcDbEntity
  8
0
  6
Continuous
 62
     7
370
    25
100
AcDbLine
 10
-10.6817413223
 20
-123.0396825397
 30
0.0
 11
-10.6817413223
 21
-120.4206349206
 31
0.0
  0
LINE
  5
135
330
1F
100
AcDbEntity
  8
0
  6
Continuous
 62
     7
370
    25
100
AcDbLine
 10
-8.0150746557
 20
-123.0396825397
 30
0.0
 11
-10.6817413223
 21
-123.0396825397
 31
0.0
  0
LINE
  5
136
330
1F
100
AcDbEntity
  8
0
  6
Continuous
 62
     7
370
    25
100
AcDbLine
 10
-8.0167565943
 20
-123.0414407262
 30
0.0
 11
-8.0150746557
 21
-123.0396825397
 31
0.0
  0
LINE
  5
137
330
1F
100
AcDbEntity
  8
0
  6
Continuous
 62
     7
370
    25
100
AcDbLine
 10
10.2488641308
 20
-118.5014442247
 30
0.0
 11
10.2497611647
 21
-118.5
 31
0.0
  0
LINE
  5
138
330
1F
100
AcDbEntity
  8
0
  6
Continuous
 62
     7
370
    25
100
AcDbLine
 10
10.2488641308
 20
-126.5802038061
 30
0.0
 11
10.2497611647
 21
-126.5793650794
 31
0.0
  0
LINE
  5
139
330
1F
100
AcDbEntity
  8
0
  6
Continuous
 62
     7
370
    25
100
AcDbLine
 10
1.0388460555
 20
-128.5
 30
0.0
 11
1.0388460555
 21
-118.5
 31
0.0
  0
LINE
  5
13A
330
1F
100
AcDbEntity
  8
0
  6
Continuous
 62
     7
370
    25
100
AcDbLine
 10
-1.024646008
 20
-128.5
 30
0.0
 11
1.0388460555
 21
-128.5
 31
0.0
  0
LINE
  5
13B
330
1F
100
AcDbEntity
  8
0
  6
Continuous
 62
     7
370
    25
100
AcDbLine
 10
-1.9928999762
 20
-119.3571428571
 30
0.0
 11
-1.9928999762
 21
-121.2777777778
 31
0.0
  0
LINE
  5
13C
330
1F
100
AcDbEntity
  8
0
  6
Continuous
 62
     7
370
    25
100
AcDbLine
 10
-0.1357571191
 20
-118.5
 30
0.0
 11
-1.9928999762
 21
-119.3571428571
 31
0.0
  0
LINE
  5
13D
330
1F
100
AcDbEntity
  8
0
  6
Continuous
 62
     7
370
    25
100
AcDbLine
 10
1.0388460555
 20
-118.5
 30
0.0
 11
-0.1357571191
 21
-118.5
 31
0.0
  0
LINE
  5
13E
330
1F
100
AcDbEntity
  8
0
  6
Continuous
 62
     7
370
    25
100
AcDbLine
 10
-1.024646008
 20
-120.8333333333
 30
0.0
 11
-1.024646008
 21
-128.5
 31
0.0
  0
LINE
  5
13F
330
1F
100
AcDbEntity
  8
0
  6
Continuous
 62
     7
370
    25
100
AcDbLine
 10
-1.9928999762
 20
-121.2777777778
 30
0.0
 11
-1.024646008
 21
-120.8333333333
 31
0.0
  0
LINE
  5
140
330
1F
100
AcDbEntity
  8
0
  6
Continuous
 62
     7
370
    25
100
AcDbLine
 10
-58.8453301274
 20
-92.397975955
 30
0.0
 11
-71.2211078049
 21
-90.640100283
 31
0.0
  0
LINE
  5
141
330
1F
100
AcDbEntity
  8
0
  6
Continuous
 62
     7
370
    25
100
AcDbLine
 10
-71.2211078049
 20
-90.640100283
 30
0.0
 11
-71.3898638694
 21
-91.8281749401
 31
0.0
  0
LINE
  5
142
330
1F
100
AcDbEntity
  8
0
  6
Continuous
 62
     7
370
    25
100
AcDbLine
 10
-71.3898638694
 20
-91.8281749401
 30
0.0
 11
-59.014086192
 21
-93.5860506121
 31
0.0
  0
LINE
  5
143
330
1F
100
AcDbEntity
  8
0
  6
Continuous
 62
     7
370
    25
100
AcDbLine
 10
-59.014086192
 20
-93.5860506121
 30
0.0
 11
-58.8453301274
 21
-92.397975955
 31
0.0
  0
LINE
  5
144
330
1F
100
AcDbEntity
  8
0
  6
Continuous
 62
     7
370
    25
100
AcDbLine
 10
-72.9199721258
 20
-88.3787157471
 30
0.0
 11
-73.6304313785
 21
-93.3804834496
 31
0.0
  0
LINE
  5
145
330
1F
100
AcDbEntity
  8
0
  6
Continuous
 62
     7
370
    25
100
AcDbLine
 10
-56.5839455915
 20
-90.6991116342
 30
0.0
 11
-72.9199721258
 21
-88.3787157471
 31
0.0
  0
LINE
  5
146
330
1F
100
AcDbEntity
  8
0
  6
Continuous
 62
     7
370
    25
100
AcDbLine
 10
-57.3152218711
 20
-95.847435148
 30
0.0
 11
-56.5839455915
 21
-90.6991116342
 31
0.0
  0
LINE
  5
147
330
1F
100
AcDbEntity
  8
0
  6
Continuous
 62
     7
370
    25
100
AcDbLine
 10
-68.2662325632
 20
-94.2919357053
 30
0.0
 11
-17.1255034023
 21
-101.5560483925
 31
0.0
  0
LINE
  5
148
330
1F
100
AcDbEntity
  8
0
  6
Continuous
 62
     7
370
    25
100
AcDbLine
 10
91.8730752535
 20
-48.6135906908
 30
0.0
 11
98.1828690767
 21
-44.8713
 31
0.0
  0
LINE
  5
149
330
1F
100
AcDbEntity
  8
0
  6
Continuous
 62
     7
370
    25
100
AcDbLine
 10
76.0465913463
 20
-27.7929088619
 30
0.0
 11
87.3209657791
 21
-39.0
 31
0.0
  0
LINE
  5
14A
330
1F
100
AcDbEntity
  8
0
  6
Continuous
 62
     7
370
    25
100
AcDbLine
 10
90.1803515535
 20
-30.1908747424
 30
0.0
 11
50.7439192202
 21
-23.5
 31
0.0
  0
LINE
  5
14B
330
1F
100
AcDbEntity
  8
0
  6
Continuous
 62
     7
370
    25
100
AcDbLine
 10
99.8
 20
-69.0
 30
0.0
 11
99.8
 21
-84.2853452347
 31
0.0
  0
LINE
  5
14C
330
1F
100
AcDbEntity
  8
0
  6
Continuous
 62
     7
370
    25
100
AcDbLine
 10
101.8444579237
 20
-52.5422039308
 30
0.0
 11
92.8468837289
 21
-52.3332575036
 31
0.0
  0
LINE
  5
14D
330
1F
100
AcDbEntity
  8
0
  6
Continuous
 62
     7
370
    25
100
AcDbLine
 10
-92.8468837289
 20
-52.3332575036
 30
0.0
 11
-101.8444579237
 21
-52.5422039308
 31
0.0
  0
LINE
  5
14E
330
1F
100
AcDbEntity
  8
0
  6
Continuous
 62
     7
370
    25
100
AcDbLine
 10
-87.3209657791
 20
-39.0
 30
0.0
 11
-76.0465913463
 21
-27.7929088619
 31
0.0
  0
LINE
  5
14F
330
1F
100
AcDbEntity
  8
0
  6
Continuous
 62
     7
370
    25
100
AcDbLine
 10
-98.1828690767
 20
-44.8713
 30
0.0
 11
-91.8730752535
 21
-48.6135906908
 31
0.0
  0
LINE
  5
150
330
1F
100
AcDbEntity
  8
0
  6
Continuous
 62
     7
370
    25
100
AcDbLine
 10
-50.7439192202
 20
-23.5
 30
0.0
 11
-90.1803515535
 21
-30.1908747424
 31
0.0
  0
LINE
  5
151
330
1F
100
AcDbEntity
  8
0
  6
Continuous
 62
     7
370
    25
100
AcDbLine
 10
-99.8
 20
-84.2853452347
 30
0.0
 11
-99.8
 21
-69.0
 31
0.0
  0
LINE
  5
152
330
1F
100
AcDbEntity
  8
0
  6
Continuous
 62
     7
370
    25
100
AcDbLine
 10
56.5839455915
 20
-90.6991116342
 30
0.0
 11
57.3152218711
 21
-95.847435148
 31
0.0
  0
LINE
  5
153
330
1F
100
AcDbEntity
  8
0
  6
Continuous
 62
     7
370
    25
100
AcDbLine
 10
72.9199721258
 20
-88.3787157471
 30
0.0
 11
56.5839455915
 21
-90.6991116342
 31
0.0
  0
LINE
  5
154
330
1F
100
AcDbEntity
  8
0
  6
Continuous
 62
     7
370
    25
100
AcDbLine
 10
73.6304313785
 20
-93.3804834496
 30
0.0
 11
72.9199721258
 21
-88.3787157471
 31
0.0
  0
LINE
  5
155
330
1F
100
AcDbEntity
  8
0
  6
Continuous
 62
     7
370
    25
100
AcDbLine
 10
71.2211078049
 20
-90.640100283
 30
0.0
 11
58.8453301274
 21
-92.397975955
 31
0.0
  0
LINE
  5
156
330
1F
100
AcDbEntity
  8
0
  6
Continuous
 62
     7
370
    25
100
AcDbLine
 10
58.8453301274
 20
-92.397975955
 30
0.0
 11
59.014086192
 21
-93.5860506121
 31
0.0
  0
LINE
  5
157
330
1F
100
AcDbEntity
  8
0
  6
Continuous
 62
     7
370
    25
100
AcDbLine
 10
59.014086192
 20
-93.5860506121
 30
0.0
 11
71.3898638694
 21
-91.8281749401
 31
0.0
  0
LINE
  5
158
330
1F
100
AcDbEntity
  8
0
  6
Continuous
 62
     7
370
    25
100
AcDbLine
 10
71.3898638694
 20
-91.8281749401
 30
0.0
 11
71.2211078049
 21
-90.640100283
 31
0.0
  0
LINE
  5
159
330
1F
100
AcDbEntity
  8
0
  6
Continuous
 62
     7
370
    25
100
AcDbLine
 10
17.1255034023
 20
-101.5560483925
 30
0.0
 11
68.2662325632
 21
-94.2919357053
 31
0.0
  0
LINE
  5
15A
330
1F
100
AcDbEntity
  8
0
  6
Continuous
 62
     7
370
    25
100
AcDbLine
 10
-7.0
 20
0.0
 30
0.0
 11
-16.9418554612
 21
-1.0768054553
 31
0.0
  0
LINE
  5
15B
330
1F
100
AcDbEntity
  8
0
  6
Continuous
 62
     7
370
    25
100
AcDbLine
 10
0.0
 20
-10.2352332655
 30
0.0
 11
-7.0
 21
0.0
 31
0.0
  0
LINE
  5
15C
330
1F
100
AcDbEntity
  8
0
  6
Continuous
 62
     7
370
    25
100
AcDbLine
 10
7.0
 20
0.0
 30
0.0
 11
0.0
 21
-10.2352332655
 31
0.0
  0
LINE
  5
15D
330
1F
100
AcDbEntity
  8
0
  6
Continuous
 62
     7
370
    25
100
AcDbLine
 10
16.9418554612
 20
-1.0768054553
 30
0.0
 11
7.0
 21
0.0
 31
0.0
  0
LINE
  5
15E
330
1F
100
AcDbEntity
  8
0
  6
Continuous
 62
     7
370
    25
100
AcDbLine
 10
38.626554922
 20
-106.3049730165
 30
0.0
 11
17.1097189688
 21
-102.5436105981
 31
0.0
  0
LINE
  5
15F
330
1F
100
AcDbEntity
  8
0
  6
Continuous
 62
     7
370
    25
100
AcDbLine
 10
54.8283073493
 20
-116.0831539005
 30
0.0
 11
52.0
 21
-113.2546070053
 31
0.0
  0
LINE
  5
160
330
1F
100
AcDbEntity
  8
0
  6
Continuous
 62
     7
370
    25
100
AcDbLine
 10
55.5354440731
 20
-115.3760770631
 30
0.0
 11
54.8283073493
 21
-116.0831539005
 31
0.0
  0
LINE
  5
161
330
1F
100
AcDbEntity
  8
0
  6
Continuous
 62
     7
370
    25
100
AcDbLine
 10
54.1212903984
 20
-113.9618036156
 30
0.0
 11
55.5354440731
 21
-115.3760770631
 31
0.0
  0
LINE
  5
162
330
1F
100
AcDbEntity
  8
0
  6
Continuous
 62
     7
370
    25
100
AcDbLine
 10
55.535563846
 20
-112.5476499409
 30
0.0
 11
54.1212903984
 21
-113.9618036156
 31
0.0
  0
LINE
  5
163
330
1F
100
AcDbEntity
  8
0
  6
Continuous
 62
     7
370
    25
100
AcDbLine
 10
59.071127692
 20
-111.8406928765
 30
0.0
 11
55.535563846
 21
-112.5476499409
 31
0.0
  0
LINE
  5
164
330
1F
100
AcDbEntity
  8
0
  6
Continuous
 62
     7
370
    25
100
AcDbLine
 10
67.5560497399
 20
-120.3263335618
 30
0.0
 11
59.071127692
 21
-111.8406928765
 31
0.0
  0
LINE
  5
165
330
1F
100
AcDbEntity
  8
0
  6
Continuous
 62
     7
370
    25
100
AcDbLine
 10
66.8487932432
 20
-123.8618375214
 30
0.0
 11
67.5560497399
 21
-120.3263335618
 31
0.0
  0
LINE
  5
166
330
1F
100
AcDbEntity
  8
0
  6
Continuous
 62
     7
370
    25
100
AcDbLine
 10
65.4345197957
 20
-125.275991196
 30
0.0
 11
66.8487932432
 21
-123.8618375214
 31
0.0
  0
LINE
  5
167
330
1F
100
AcDbEntity
  8
0
  6
Continuous
 62
     7
370
    25
100
AcDbLine
 10
64.020366121
 20
-123.8617177485
 30
0.0
 11
65.4345197957
 21
-125.275991196
 31
0.0
  0
LINE
  5
168
330
1F
100
AcDbEntity
  8
0
  6
Continuous
 62
     7
370
    25
100
AcDbLine
 10
63.3132293972
 20
-124.5687945858
 30
0.0
 11
64.020366121
 21
-123.8617177485
 31
0.0
  0
LINE
  5
169
330
1F
100
AcDbEntity
  8
0
  6
Continuous
 62
     7
370
    25
100
AcDbLine
 10
66.1415367465
 20
-127.3973414809
 30
0.0
 11
63.3132293972
 21
-124.5687945858
 31
0.0
  0
LINE
  5
16A
330
1F
100
AcDbEntity
  8
0
  6
Continuous
 62
     7
370
    25
100
AcDbLine
 10
52.436095294
 20
-138.8607160867
 30
0.0
 11
64.9691321
 21
-135.8851597092
 31
0.0
  0
LINE
  5
16B
330
1F
100
AcDbEntity
  8
0
  6
Continuous
 62
     7
370
    25
100
AcDbLine
 10
-64.9691321
 20
-135.8851597092
 30
0.0
 11
-52.436095294
 21
-138.8607160867
 31
0.0
  0
LINE
  5
16C
330
1F
100
AcDbEntity
  8
0
  6
Continuous
 62
     7
370
    25
100
AcDbLine
 10
-63.3132293972
 20
-124.5687945858
 30
0.0
 11
-66.1415367465
 21
-127.3973414809
 31
0.0
  0
LINE
  5
16D
330
1F
100
AcDbEntity
  8
0
  6
Continuous
 62
     7
370
    25
100
AcDbLine
 10
-64.020366121
 20
-123.8617177485
 30
0.0
 11
-63.3132293972
 21
-124.5687945858
 31
0.0
  0
LINE
  5
16E
330
1F
100
AcDbEntity
  8
0
  6
Continuous
 62
     7
370
    25
100
AcDbLine
 10
-65.4345197957
 20
-125.275991196
 30
0.0
 11
-64.020366121
 21
-123.8617177485
 31
0.0
  0
LINE
  5
16F
330
1F
100
AcDbEntity
  8
0
  6
Continuous
 62
     7
370
    25
100
AcDbLine
 10
-66.8487932432
 20
-123.8618375214
 30
0.0
 11
-65.4345197957
 21
-125.275991196
 31
0.0
  0
LINE
  5
170
330
1F
100
AcDbEntity
  8
0
  6
Continuous
 62
     7
370
    25
100
AcDbLine
 10
-67.5560497399
 20
-120.3263335618
 30
0.0
 11
-66.8487932432
 21
-123.8618375214
 31
0.0
  0
LINE
  5
171
330
1F
100
AcDbEntity
  8
0
  6
Continuous
 62
     7
370
    25
100
AcDbLine
 10
-59.071127692
 20
-111.8406928765
 30
0.0
 11
-67.5560497399
 21
-120.3263335618
 31
0.0
  0
LINE
  5
172
330
1F
100
AcDbEntity
  8
0
  6
Continuous
 62
     7
370
    25
100
AcDbLine
 10
-55.535563846
 20
-112.5476499409
 30
0.0
 11
-59.071127692
 21
-111.8406928765
 31
0.0
  0
LINE
  5
173
330
1F
100
AcDbEntity
  8
0
  6
Continuous
 62
     7
370
    25
100
AcDbLine
 10
-54.1212903984
 20
-113.9618036156
 30
0.0
 11
-55.535563846
 21
-112.5476499409
 31
0.0
  0
LINE
  5
174
330
1F
100
AcDbEntity
  8
0
  6
Continuous
 62
     7
370
    25
100
AcDbLine
 10
-55.5354440731
 20
-115.3760770631
 30
0.0
 11
-54.1212903984
 21
-113.9618036156
 31
0.0
  0
LINE
  5
175
330
1F
100
AcDbEntity
  8
0
  6
Continuous
 62
     7
370
    25
100
AcDbLine
 10
-54.8283073493
 20
-116.0831539005
 30
0.0
 11
-55.5354440731
 21
-115.3760770631
 31
0.0
  0
LINE
  5
176
330
1F
100
AcDbEntity
  8
0
  6
Continuous
 62
     7
370
    25
100
AcDbLine
 10
-52.0
 20
-113.2546070053
 30
0.0
 11
-54.8283073493
 21
-116.0831539005
 31
0.0
  0
LINE
  5
177
330
1F
100
AcDbEntity
  8
0
  6
Continuous
 62
     7
370
    25
100
AcDbLine
 10
-17.1097189688
 20
-102.5436105981
 30
0.0
 11
-38.626554922
 21
-106.3049730165
 31
0.0
  0
LINE
  5
178
330
1F
100
AcDbEntity
  8
0
  6
Continuous
 62
     7
370
    25
100
AcDbLine
 10
-12.0
 20
-69.0
 30
0.0
 11
-12.0
 21
-39.81
 31
0.0
  0
LINE
  5
179
330
1F
100
AcDbEntity
  8
0
  6
Continuous
 62
     7
370
    25
100
AcDbLine
 10
-20.0
 20
-39.81
 30
0.0
 11
-20.0
 21
-69.0
 31
0.0
  0
LINE
  5
17A
330
1F
100
AcDbEntity
  8
0
  6
Continuous
 62
     7
370
    25
100
AcDbLine
 10
4.0
 20
-69.0
 30
0.0
 11
4.0
 21
-39.81
 31
0.0
  0
LINE
  5
17B
330
1F
100
AcDbEntity
  8
0
  6
Continuous
 62
     7
370
    25
100
AcDbLine
 10
-4.0
 20
-39.81
 30
0.0
 11
-4.0
 21
-69.0
 31
0.0
  0
LINE
  5
17C
330
1F
100
AcDbEntity
  8
0
  6
Continuous
 62
     7
370
    25
100
AcDbLine
 10
20.0
 20
-69.0
 30
0.0
 11
20.0
 21
-39.81
 31
0.0
  0
LINE
  5
17D
330
1F
100
AcDbEntity
  8
0
  6
Continuous
 62
     7
370
    25
100
AcDbLine
 10
12.0
 20
-39.81
 30
0.0
 11
12.0
 21
-69.0
 31
0.0
  0
LINE
  5
17E
330
1F
100
AcDbEntity
  8
0
  6
Continuous
 62
     7
370
    25
100
AcDbLine
 10
-60.0
 20
-69.0
 30
0.0
 11
-60.0
 21
-39.81
 31
0.0
  0
LINE
  5
17F
330
1F
100
AcDbEntity
  8
0
  6
Continuous
 62
     7
370
    25
100
AcDbLine
 10
-68.0
 20
-39.81
 30
0.0
 11
-68.0
 21
-69.0
 31
0.0
  0
LINE
  5
180
330
1F
100
AcDbEntity
  8
0
  6
Continuous
 62
     7
370
    25
100
AcDbLine
 10
-44.0
 20
-69.0
 30
0.0
 11
-44.0
 21
-39.81
 31
0.0
  0
LINE
  5
181
330
1F
100
AcDbEntity
  8
0
  6
Continuous
 62
     7
370
    25
100
AcDbLine
 10
-52.0
 20
-39.81
 30
0.0
 11
-52.0
 21
-69.0
 31
0.0
  0
LINE
  5
182
330
1F
100
AcDbEntity
  8
0
  6
Continuous
 62
     7
370
    25
100
AcDbLine
 10
-28.0
 20
-69.0
 30
0.0
 11
-28.0
 21
-39.81
 31
0.0
  0
LINE
  5
183
330
1F
100
AcDbEntity
  8
0
  6
Continuous
 62
     7
370
    25
100
AcDbLine
 10
-36.0
 20
-39.81
 30
0.0
 11
-36.0
 21
-69.0
 31
0.0
  0
LINE
  5
184
330
1F
100
AcDbEntity
  8
0
  6
Continuous
 62
     7
370
    25
100
AcDbLine
 10
32.0
 20
-81.0
 30
0.0
 11
-32.0
 21
-81.0
 31
0.0
  0
LINE
  5
185
330
1F
100
AcDbEntity
  8
0
  6
Continuous
 62
     7
370
    25
100
AcDbLine
 10
-32.0
 20
-89.0
 30
0.0
 11
32.0
 21
-89.0
 31
0.0
  0
LINE
  5
186
330
1F
100
AcDbEntity
  8
0
  6
Continuous
 62
     7
370
    25
100
AcDbLine
 10
68.0
 20
-69.0
 30
0.0
 11
68.0
 21
-39.81
 31
0.0
  0
LINE
  5
187
330
1F
100
AcDbEntity
  8
0
  6
Continuous
 62
     7
370
    25
100
AcDbLine
 10
60.0
 20
-39.81
 30
0.0
 11
60.0
 21
-69.0
 31
0.0
  0
LINE
  5
188
330
1F
100
AcDbEntity
  8
0
  6
Continuous
 62
     7
370
    25
100
AcDbLine
 10
52.0
 20
-69.0
 30
0.0
 11
52.0
 21
-39.81
 31
0.0
  0
LINE
  5
189
330
1F
100
AcDbEntity
  8
0
  6
Continuous
 62
     7
370
    25
100
AcDbLine
 10
44.0
 20
-39.81
 30
0.0
 11
44.0
 21
-69.0
 31
0.0
  0
LINE
  5
18A
330
1F
100
AcDbEntity
  8
0
  6
Continuous
 62
     7
370
    25
100
AcDbLine
 10
36.0
 20
-69.0
 30
0.0
 11
36.0
 21
-39.81
 31
0.0
  0
LINE
  5
18B
330
1F
100
AcDbEntity
  8
0
  6
Continuous
 62
     7
370
    25
100
AcDbLine
 10
28.0
 20
-39.81
 30
0.0
 11
28.0
 21
-69.0
 31
0.0
  0
ARC
  5
18C
330
1F
100
AcDbEntity
  8
0
  6
Continuous
 62
     7
370
    25
100
AcDbCircle
 10
106.15
 20
-69.0
 30
0.0
 40
1.349999999999994
100
AcDbArc
 50
180.0
 51
0.0
  0
ARC
  5
18D
330
1F
100
AcDbEntity
  8
0
  6
Continuous
 62
     7
370
    25
100
AcDbCircle
 10
57.5
 20
-69.0
 30
0.0
 40
49.99999999999983
100
AcDbArc
 50
0.0
 51
36.8698976458
  0
ARC
  5
18E
330
1F
100
AcDbEntity
  8
0
  6
Continuous
 62
     7
370
    25
100
AcDbCircle
 10
96.42
 20
-39.81
 30
0.0
 40
1.349999999999989
100
AcDbArc
 50
36.8698976458
 51
216.8698976458
  0
ARC
  5
18F
330
1F
100
AcDbEntity
  8
0
  6
Continuous
 62
     7
370
    25
100
AcDbCircle
 10
57.5
 20
-69.0
 30
0.0
 40
47.29999999999939
100
AcDbArc
 50
30.6718570124
 51
36.8698976458
  0
ARC
  5
190
330
1F
100
AcDbEntity
  8
0
  6
Continuous
 62
     7
370
    25
100
AcDbCircle
 10
57.5
 20
-69.0
 30
0.0
 40
42.2999999999994
100
AcDbArc
 50
30.6718570124
 51
45.1714762456
  0
ARC
  5
191
330
1F
100
AcDbEntity
  8
0
  6
Continuous
 62
     7
370
    25
100
AcDbCircle
 10
86.8349141823
 20
-49.9090909091
 30
0.0
 40
20.00000000000012
100
AcDbArc
 50
33.0557311509
 51
80.3707625563
  0
ARC
  5
192
330
1F
100
AcDbEntity
  8
0
  6
Continuous
 62
     7
370
    25
100
AcDbCircle
 10
57.5
 20
-69.0
 30
0.0
 40
54.99999999999994
100
AcDbArc
 50
0.0
 51
33.0557311509
  0
ARC
  5
193
330
1F
100
AcDbEntity
  8
0
  6
Continuous
 62
     7
370
    25
100
AcDbCircle
 10
98.5
 20
-69.0
 30
0.0
 40
14.00000000000005
100
AcDbArc
 50
301.0027191339
 51
0.0
  0
ARC
  5
194
330
1F
100
AcDbEntity
  8
0
  6
Continuous
 62
     7
370
    25
100
AcDbCircle
 10
57.5
 20
-69.0
 30
0.0
 40
42.30000000000013
100
AcDbArc
 50
0.0
 51
23.0824121362
  0
ARC
  5
195
330
1F
100
AcDbEntity
  8
0
  6
Continuous
 62
     7
370
    25
100
AcDbCircle
 10
57.5
 20
-69.0
 30
0.0
 40
47.30000000000042
100
AcDbArc
 50
0.0
 51
20.3616704005
  0
ARC
  5
196
330
1F
100
AcDbEntity
  8
0
  6
Continuous
 62
     7
370
    25
100
AcDbCircle
 10
-57.5
 20
-69.0
 30
0.0
 40
42.2999999999996
100
AcDbArc
 50
156.9175878638
 51
180.0
  0
ARC
  5
197
330
1F
100
AcDbEntity
  8
0
  6
Continuous
 62
     7
370
    25
100
AcDbCircle
 10
-57.5
 20
-69.0
 30
0.0
 40
49.99999999999958
100
AcDbArc
 50
143.1301023542
 51
180.0
  0
ARC
  5
198
330
1F
100
AcDbEntity
  8
0
  6
Continuous
 62
     7
370
    25
100
AcDbCircle
 10
-106.15
 20
-69.0
 30
0.0
 40
1.349999999999994
100
AcDbArc
 50
180.0
 51
0.0
  0
ARC
  5
199
330
1F
100
AcDbEntity
  8
0
  6
Continuous
 62
     7
370
    25
100
AcDbCircle
 10
-57.5
 20
-69.0
 30
0.0
 40
47.30000000000017
100
AcDbArc
 50
159.6383295995
 51
180.0
  0
ARC
  5
19A
330
1F
100
AcDbEntity
  8
0
  6
Continuous
 62
     7
370
    25
100
AcDbCircle
 10
-96.42
 20
-39.81
 30
0.0
 40
1.349999999999999
100
AcDbArc
 50
323.1301023542
 51
143.1301023542
  0
ARC
  5
19B
330
1F
100
AcDbEntity
  8
0
  6
Continuous
 62
     7
370
    25
100
AcDbCircle
 10
-54.2032271872
 20
4.7142857143
 30
0.0
 40
99.9999999998985
100
AcDbArc
 50
238.9972808661
 51
261.9156936274
  0
ARC
  5
19C
330
1F
100
AcDbEntity
  8
0
  6
Continuous
 62
     7
370
    25
100
AcDbCircle
 10
-98.5
 20
-69.0
 30
0.0
 40
13.99999999999996
100
AcDbArc
 50
180.0
 51
238.9972808661
  0
ARC
  5
19D
330
1F
100
AcDbEntity
  8
0
  6
Continuous
 62
     7
370
    25
100
AcDbCircle
 10
-57.5
 20
-69.0
 30
0.0
 40
54.99999999999974
100
AcDbArc
 50
146.9442688491
 51
180.0
  0
ARC
  5
19E
330
1F
100
AcDbEntity
  8
0
  6
Continuous
 62
     7
370
    25
100
AcDbCircle
 10
-57.5
 20
-69.0
 30
0.0
 40
42.29999999999958
100
AcDbArc
 50
134.8285237544
 51
149.3281429876
  0
ARC
  5
19F
330
1F
100
AcDbEntity
  8
0
  6
Continuous
 62
     7
370
    25
100
AcDbCircle
 10
-57.5
 20
-69.0
 30
0.0
 40
47.29999999998685
100
AcDbArc
 50
143.1301023542
 51
149.3281429876
  0
ARC
  5
1A0
330
1F
100
AcDbEntity
  8
0
  6
Continuous
 62
     7
370
    25
100
AcDbCircle
 10
-86.8349141823
 20
-49.9090909091
 30
0.0
 40
20.0000000000001
100
AcDbArc
 50
99.6292374437
 51
146.9442688491
  0
ARC
  5
1A1
330
1F
100
AcDbEntity
  8
0
  6
Continuous
 62
     7
370
    25
100
AcDbCircle
 10
54.2032271872
 20
4.7142857143
 30
0.0
 40
99.9999999999844
100
AcDbArc
 50
278.0843063726
 51
301.0027191339
  0
ARC
  5
1A2
330
1F
100
AcDbEntity
  8
0
  6
Continuous
 62
     7
370
    25
100
AcDbCircle
 10
-54.9257159342
 20
1.1477702083
 30
0.0
 40
24.99999999999992
100
AcDbArc
 50
279.6292374437
 51
329.1565007356
  0
ARC
  5
1A3
330
1F
100
AcDbEntity
  8
0
  6
Continuous
 62
     7
370
    25
100
AcDbCircle
 10
-14.5728834595
 20
-22.94888747
 30
0.0
 40
21.99999999999998
100
AcDbArc
 50
96.1816263725
 51
149.1565007356
  0
ARC
  5
1A4
330
1F
100
AcDbEntity
  8
0
  6
Continuous
 62
     7
370
    25
100
AcDbCircle
 10
14.5728834595
 20
-22.94888747
 30
0.0
 40
22.00000000000004
100
AcDbArc
 50
30.8434992644
 51
83.8183736275
  0
ARC
  5
1A5
330
1F
100
AcDbEntity
  8
0
  6
Continuous
 62
     7
370
    25
100
AcDbCircle
 10
54.9257159342
 20
1.1477702083
 30
0.0
 40
25.00000000000006
100
AcDbArc
 50
210.8434992644
 51
260.3707625563
  0
ARC
  5
1A6
330
1F
100
AcDbEntity
  8
0
  6
Continuous
 62
     7
370
    25
100
AcDbCircle
 10
92.8933162683
 20
-50.3337965715
 30
0.0
 40
2.00000000000003
100
AcDbArc
 50
120.6718570124
 51
268.6696862073
  0
ARC
  5
1A7
330
1F
100
AcDbEntity
  8
0
  6
Continuous
 62
     7
370
    25
100
AcDbCircle
 10
17.1958184291
 20
-102.0510794996
 30
0.0
 40
0.5000000000000325
100
AcDbArc
 50
98.0843063726
 51
260.0843063726
  0
ARC
  5
1A8
330
1F
100
AcDbEntity
  8
0
  6
Continuous
 62
     7
370
    25
100
AcDbCircle
 10
34.3215819055
 20
-130.9315279385
 30
0.0
 40
24.99999999999988
100
AcDbArc
 50
44.9975737462
 51
80.0843063726
  0
ARC
  5
1A9
330
1F
100
AcDbEntity
  8
0
  6
Continuous
 62
     7
370
    25
100
AcDbCircle
 10
61.545148042
 20
-131.9933409235
 30
0.0
 40
6.499999999999815
100
AcDbArc
 50
0.0
 51
44.9975737462
  0
ARC
  5
1AA
330
1F
100
AcDbEntity
  8
0
  6
Continuous
 62
     7
370
    25
100
AcDbCircle
 10
64.045148042
 20
-131.9933409235
 30
0.0
 40
4.000000000000057
100
AcDbArc
 50
283.3557183674
 51
0.0
  0
ARC
  5
1AB
330
1F
100
AcDbEntity
  8
0
  6
Continuous
 62
     7
370
    25
100
AcDbCircle
 10
0.0
 20
82.0
 30
0.0
 40
227.0000000000057
100
AcDbArc
 50
256.6442816326
 51
283.3557183674
  0
ARC
  5
1AC
330
1F
100
AcDbEntity
  8
0
  6
Continuous
 62
     7
370
    25
100
AcDbCircle
 10
-64.045148042
 20
-131.9933409235
 30
0.0
 40
3.999999999999675
100
AcDbArc
 50
180.0
 51
256.6442816326
  0
ARC
  5
1AD
330
1F
100
AcDbEntity
  8
0
  6
Continuous
 62
     7
370
    25
100
AcDbCircle
 10
-61.545148042
 20
-131.9933409235
 30
0.0
 40
6.499999999999673
100
AcDbArc
 50
135.0024262537
 51
180.0
  0
ARC
  5
1AE
330
1F
100
AcDbEntity
  8
0
  6
Continuous
 62
     7
370
    25
100
AcDbCircle
 10
-34.3215819055
 20
-130.9315279385
 30
0.0
 40
25.00000000000021
100
AcDbArc
 50
99.9156936274
 51
135.0024262538
  0
ARC
  5
1AF
330
1F
100
AcDbEntity
  8
0
  6
Continuous
 62
     7
370
    25
100
AcDbCircle
 10
-17.1958184291
 20
-102.0510794996
 30
0.0
 40
0.5000000000000216
100
AcDbArc
 50
279.9156936274
 51
81.9156936274
  0
ARC
  5
1B0
330
1F
100
AcDbEntity
  8
0
  6
Continuous
 62
     7
370
    25
100
AcDbCircle
 10
-92.8933162683
 20
-50.3337965715
 30
0.0
 40
2.000000000000016
100
AcDbArc
 50
271.3303137927
 51
59.3281429876
  0
ARC
  5
1B1
330
1F
100
AcDbEntity
  8
0
  6
Continuous
 62
     7
370
    25
100
AcDbCircle
 10
-16.0
 20
-69.0
 30
0.0
 40
4.000000000000004
100
AcDbArc
 50
180.0
 51
0.0
  0
ARC
  5
1B2
330
1F
100
AcDbEntity
  8
0
  6
Continuous
 62
     7
370
    25
100
AcDbCircle
 10
-16.0
 20
-39.81
 30
0.0
 40
4.000000000000004
100
AcDbArc
 50
0.0
 51
180.0
  0
ARC
  5
1B3
330
1F
100
AcDbEntity
  8
0
  6
Continuous
 62
     7
370
    25
100
AcDbCircle
 10
0.0
 20
-69.0
 30
0.0
 40
4.000000000000004
100
AcDbArc
 50
180.0
 51
0.0
  0
ARC
  5
1B4
330
1F
100
AcDbEntity
  8
0
  6
Continuous
 62
     7
370
    25
100
AcDbCircle
 10
0.0
 20
-39.81
 30
0.0
 40
3.999999999999999
100
AcDbArc
 50
0.0
 51
180.0
  0
ARC
  5
1B5
330
1F
100
AcDbEntity
  8
0
  6
Continuous
 62
     7
370
    25
100
AcDbCircle
 10
16.0
 20
-69.0
 30
0.0
 40
4.000000000000004
100
AcDbArc
 50
180.0
 51
0.0
  0
ARC
  5
1B6
330
1F
100
AcDbEntity
  8
0
  6
Continuous
 62
     7
370
    25
100
AcDbCircle
 10
16.0
 20
-39.81
 30
0.0
 40
4.0
100
AcDbArc
 50
0.0
 51
180.0
  0
ARC
  5
1B7
330
1F
100
AcDbEntity
  8
0
  6
Continuous
 62
     7
370
    25
100
AcDbCircle
 10
-64.0
 20
-69.0
 30
0.0
 40
4.000000000000014
100
AcDbArc
 50
180.0
 51
0.0
  0
ARC
  5
1B8
330
1F
100
AcDbEntity
  8
0
  6
Continuous
 62
     7
370
    25
100
AcDbCircle
 10
-64.0
 20
-39.81
 30
0.0
 40
4.000000000000007
100
AcDbArc
 50
0.0
 51
180.0
  0
ARC
  5
1B9
330
1F
100
AcDbEntity
  8
0
  6
Continuous
 62
     7
370
    25
100
AcDbCircle
 10
-48.0
 20
-69.0
 30
0.0
 40
4.000000000000007
100
AcDbArc
 50
180.0
 51
0.0
  0
ARC
  5
1BA
330
1F
100
AcDbEntity
  8
0
  6
Continuous
 62
     7
370
    25
100
AcDbCircle
 10
-48.0
 20
-39.81
 30
0.0
 40
3.999999999999993
100
AcDbArc
 50
0.0
 51
180.0
  0
ARC
  5
1BB
330
1F
100
AcDbEntity
  8
0
  6
Continuous
 62
     7
370
    25
100
AcDbCircle
 10
-32.0
 20
-69.0
 30
0.0
 40
4.000000000000014
100
AcDbArc
 50
180.0
 51
0.0
  0
ARC
  5
1BC
330
1F
100
AcDbEntity
  8
0
  6
Continuous
 62
     7
370
    25
100
AcDbCircle
 10
-32.0
 20
-39.81
 30
0.0
 40
4.000000000000021
100
AcDbArc
 50
0.0
 51
180.0
  0
ARC
  5
1BD
330
1F
100
AcDbEntity
  8
0
  6
Continuous
 62
     7
370
    25
100
AcDbCircle
 10
32.0
 20
-85.0
 30
0.0
 40
4.000000000000043
100
AcDbArc
 50
270.0
 51
90.0
  0
ARC
  5
1BE
330
1F
100
AcDbEntity
  8
0
  6
Continuous
 62
     7
370
    25
100
AcDbCircle
 10
-32.0
 20
-85.0
 30
0.0
 40
4.000000000000043
100
AcDbArc
 50
90.0
 51
270.0
  0
ARC
  5
1BF
330
1F
100
AcDbEntity
  8
0
  6
Continuous
 62
     7
370
    25
100
AcDbCircle
 10
64.0
 20
-69.0
 30
0.0
 40
4.000000000000014
100
AcDbArc
 50
180.0
 51
0.0
  0
ARC
  5
1C0
330
1F
100
AcDbEntity
  8
0
  6
Continuous
 62
     7
370
    25
100
AcDbCircle
 10
64.0
 20
-39.81
 30
0.0
 40
4.0
100
AcDbArc
 50
0.0
 51
180.0
  0
ARC
  5
1C1
330
1F
100
AcDbEntity
  8
0
  6
Continuous
 62
     7
370
    25
100
AcDbCircle
 10
48.0
 20
-69.0
 30
0.0
 40
4.000000000000007
100
AcDbArc
 50
180.0
 51
0.0
  0
ARC
  5
1C2
330
1F
100
AcDbEntity
  8
0
  6
Continuous
 62
     7
370
    25
100
AcDbCircle
 10
48.0
 20
-39.81
 30
0.0
 40
4.000000000000007
100
AcDbArc
 50
0.0
 51
180.0
  0
ARC
  5
1C3
330
1F
100
AcDbEntity
  8
0
  6
Continuous
 62
     7
370
    25
100
AcDbCircle
 10
32.0
 20
-69.0
 30
0.0
 40
4.000000000000014
100
AcDbArc
 50
180.0
 51
0.0
  0
ARC
  5
1C4
330
1F
100
AcDbEntity
  8
0
  6
Continuous
 62
     7
370
    25
100
AcDbCircle
 10
32.0
 20
-39.81
 30
0.0
 40
4.000000000000021
100
AcDbArc
 50
0.0
 51
180.0
  0
MTEXT
  5
1C6
330
1F
100
AcDbEntity
  8
0
  6
Continuous
 62
     7
100
AcDbMText
 10
-112.5
 20
-146.0195663917
 30
0.0
 40
4.83362
 41
0.0
 71
     1
 72
     1
  1
SOLIDWORKS Educational Product.
  7
SLDTEXTSTYLE0
 73
     1
 44
1.0
  0
MTEXT
  5
1C7
330
1F
100
AcDbEntity
  8
0
  6
Continuous
 62
     7
100
AcDbMText
 10
-112.5
 20
-153.2699963917
 30
0.0
 40
4.83362
 41
0.0
 71
     1
 72
     1
  1
For Instructional Use Only.
  7
SLDTEXTSTYLE0
 73
     1
 44
1.0
  0
ENDSEC
  0
SECTION
  2
OBJECTS
  0
DICTIONARY
  5
C
330
0
100
AcDbDictionary
281
     1
  3
ACAD_GROUP
350
D
  3
ACAD_LAYOUT
350
1A
  3
ACAD_MLINESTYLE
350
17
  3
ACAD_PLOTSETTINGS
350
19
  3
ACAD_PLOTSTYLENAME
350
E
  3
ACAD_SCALELIST
350
47
  0
DICTIONARY
  5
D
102
{ACAD_REACTORS
330
C
102
}
330
C
100
AcDbDictionary
281
     1
  0
DICTIONARY
  5
1A
102
{ACAD_REACTORS
330
C
102
}
330
C
100
AcDbDictionary
281
     1
  3
Layout1
350
1E
  3
Layout2
350
26
  3
Model
350
22
  0
DICTIONARY
  5
17
102
{ACAD_REACTORS
330
C
102
}
330
C
100
AcDbDictionary
281
     1
  3
Standard
350
18
  0
DICTIONARY
  5
19
102
{ACAD_REACTORS
330
C
102
}
330
C
100
AcDbDictionary
281
     1
  0
ACDBDICTIONARYWDFLT
  5
E
102
{ACAD_REACTORS
330
C
102
}
330
C
100
AcDbDictionary
281
     1
  3
Normal
350
F
100
AcDbDictionaryWithDefault
340
F
  0
DICTIONARY
  5
47
102
{ACAD_REACTORS
330
C
102
}
330
C
100
AcDbDictionary
281
     1
  3
A0
350
48
  3
A1
350
49
  3
A2
350
4A
  3
A3
350
4B
  3
A4
350
4C
  3
A5
350
4D
  3
A6
350
4E
  3
A7
350
4F
  3
A8
350
50
  3
A9
350
51
  3
B0
350
52
  3
B1
350
53
  3
B2
350
54
  3
B3
350
55
  3
B4
350
56
  3
B5
350
57
  3
B6
350
58
  3
B7
350
59
  3
B8
350
5A
  3
B9
350
5B
  3
C0
350
5C
  3
C1
350
5D
  3
C2
350
5E
  3
C3
350
5F
  3
C4
350
60
  3
C5
350
61
  3
C6
350
62
  3
C7
350
63
  3
C8
350
64
  3
C9
350
65
  3
D0
350
66
  3
D1
350
67
  3
D2
350
68
  0
LAYOUT
  5
1E
102
{ACAD_REACTORS
330
1A
102
}
330
1A
100
AcDbPlotSettings
  1

  2
none_device
  4

  6

 40
0.0
 41
0.0
 42
0.0
 43
0.0
 44
0.0
 45
0.0
 46
0.0
 47
0.0
 48
0.0
 49
0.0
140
0.0
141
0.0
142
1.0
143
1.0
 70
   688
 72
     1
 73
     0
 74
     5
  7

 75
    16
147
1.0
148
0.0
149
0.0
100
AcDbLayout
  1
Layout1
 70
     1
 71
     1
 10
0.0
 20
0.0
 11
420.0
 21
297.0
 12
0.0
 22
0.0
 32
0.0
 14
1.0000000000E+20
 24
1.0000000000E+20
 34
1.0000000000E+20
 15
-1.0000000000E+20
 25
-1.0000000000E+20
 35
-1.0000000000E+20
146
0.0
 13
0.0
 23
0.0
 33
0.0
 16
1.0
 26
0.0
 36
0.0
 17
0.0
 27
1.0
 37
0.0
 76
     0
330
1B
  0
LAYOUT
  5
26
102
{ACAD_REACTORS
330
1A
102
}
330
1A
100
AcDbPlotSettings
  1

  2
none_device
  4

  6

 40
0.0
 41
0.0
 42
0.0
 43
0.0
 44
0.0
 45
0.0
 46
0.0
 47
0.0
 48
0.0
 49
0.0
140
0.0
141
0.0
142
1.0
143
1.0
 70
   688
 72
     1
 73
     0
 74
     5
  7

 75
    16
147
1.0
148
0.0
149
0.0
100
AcDbLayout
  1
Layout2
 70
     1
 71
     2
 10
0.0
 20
0.0
 11
0.0
 21
0.0
 12
0.0
 22
0.0
 32
0.0
 14
0.0
 24
0.0
 34
0.0
 15
0.0
 25
0.0
 35
0.0
146
0.0
 13
0.0
 23
0.0
 33
0.0
 16
1.0
 26
0.0
 36
0.0
 17
0.0
 27
1.0
 37
0.0
 76
     0
330
23
  0
LAYOUT
  5
22
102
{ACAD_REACTORS
330
1A
102
}
330
1A
100
AcDbPlotSettings
  1

  2
none_device
  4
ANSI_A_(11.00_x_8.50_Inches)
  6

 40
6.35
 41
19.05
 42
6.35000508
 43
19.05000254
 44
279.4
 45
215.9
 46
133.34999746
 47
178.02859873
 48
0.0
 49
0.0
140
0.0
141
0.0
142
0.0484
143
1.0
 70
  1696
 72
     0
 73
     0
 74
     0
  7

 75
     0
147
0.0179189148
148
-1300.4909072572
149
0.0
100
AcDbLayout
  1
Model
 70
     1
 71
     0
 10
0.0
 20
0.0
 11
420.0
 21
297.0
 12
0.0
 22
0.0
 32
0.0
 14
-112.5
 24
-145.0
 34
0.0
 15
112.5
 25
0.0
 35
0.0
146
0.0
 13
0.0
 23
0.0
 33
0.0
 16
1.0
 26
0.0
 36
0.0
 17
0.0
 27
1.0
 37
0.0
 76
     0
330
1F
331
29
  0
MLINESTYLE
  5
18
102
{ACAD_REACTORS
330
17
102
}
330
17
100
AcDbMlineStyle
  2
Standard
 70
     0
  3

 62
   256
 51
90.0
 52
90.0
 71
     2
 49
0.5
 62
   256
  6
BYLAYER
 49
-0.5
 62
   256
  6
BYLAYER
  0
ACDBPLACEHOLDER
  5
F
102
{ACAD_REACTORS
330
E
102
}
330
E
  0
SCALE
  5
48
102
{ACAD_REACTORS
330
47
102
}
330
47
100
AcDbScale
 70
     0
300
1:1
140
1.0
141
1.0
290
     1
  0
SCALE
  5
49
102
{ACAD_REACTORS
330
47
102
}
330
47
100
AcDbScale
 70
     0
300
1:2
140
1.0
141
2.0
290
     0
  0
SCALE
  5
4A
102
{ACAD_REACTORS
330
47
102
}
330
47
100
AcDbScale
 70
     0
300
1:4
140
1.0
141
4.0
290
     0
  0
SCALE
  5
4B
102
{ACAD_REACTORS
330
47
102
}
330
47
100
AcDbScale
 70
     0
300
1:5
140
1.0
141
5.0
290
     0
  0
SCALE
  5
4C
102
{ACAD_REACTORS
330
47
102
}
330
47
100
AcDbScale
 70
     0
300
1:8
140
1.0
141
8.0
290
     0
  0
SCALE
  5
4D
102
{ACAD_REACTORS
330
47
102
}
330
47
100
AcDbScale
 70
     0
300
1:10
140
1.0
141
10.0
290
     0
  0
SCALE
  5
4E
102
{ACAD_REACTORS
330
47
102
}
330
47
100
AcDbScale
 70
     0
300
1:16
140
1.0
141
16.0
290
     0
  0
SCALE
  5
4F
102
{ACAD_REACTORS
330
47
102
}
330
47
100
AcDbScale
 70
     0
300
1:20
140
1.0
141
20.0
290
     0
  0
SCALE
  5
50
102
{ACAD_REACTORS
330
47
102
}
330
47
100
AcDbScale
 70
     0
300
1:30
140
1.0
141
30.0
290
     0
  0
SCALE
  5
51
102
{ACAD_REACTORS
330
47
102
}
330
47
100
AcDbScale
 70
     0
300
1:40
140
1.0
141
40.0
290
     0
  0
SCALE
  5
52
102
{ACAD_REACTORS
330
47
102
}
330
47
100
AcDbScale
 70
     0
300
1:50
140
1.0
141
50.0
290
     0
  0
SCALE
  5
53
102
{ACAD_REACTORS
330
47
102
}
330
47
100
AcDbScale
 70
     0
300
1:100
140
1.0
141
100.0
290
     0
  0
SCALE
  5
54
102
{ACAD_REACTORS
330
47
102
}
330
47
100
AcDbScale
 70
     0
300
2:1
140
2.0
141
1.0
290
     0
  0
SCALE
  5
55
102
{ACAD_REACTORS
330
47
102
}
330
47
100
AcDbScale
 70
     0
300
4:1
140
4.0
141
1.0
290
     0
  0
SCALE
  5
56
102
{ACAD_REACTORS
330
47
102
}
330
47
100
AcDbScale
 70
     0
300
8:1
140
8.0
141
1.0
290
     0
  0
SCALE
  5
57
102
{ACAD_REACTORS
330
47
102
}
330
47
100
AcDbScale
 70
     0
300
10:1
140
10.0
141
1.0
290
     0
  0
SCALE
  5
58
102
{ACAD_REACTORS
330
47
102
}
330
47
100
AcDbScale
 70
     0
300
100:1
140
100.0
141
1.0
290
     0
  0
SCALE
  5
59
102
{ACAD_REACTORS
330
47
102
}
330
47
100
AcDbScale
 70
     0
300
1/128" = 1'-0"
140
0.0078125
141
12.0
290
     0
  0
SCALE
  5
5A
102
{ACAD_REACTORS
330
47
102
}
330
47
100
AcDbScale
 70
     0
300
1/64" = 1'-0"
140
0.015625
141
12.0
290
     0
  0
SCALE
  5
5B
102
{ACAD_REACTORS
330
47
102
}
330
47
100
AcDbScale
 70
     0
300
1/32" = 1'-0"
140
0.03125
141
12.0
290
     0
  0
SCALE
  5
5C
102
{ACAD_REACTORS
330
47
102
}
330
47
100
AcDbScale
 70
     0
300
1/16" = 1'-0"
140
0.0625
141
12.0
290
     0
  0
SCALE
  5
5D
102
{ACAD_REACTORS
330
47
102
}
330
47
100
AcDbScale
 70
     0
300
3/32" = 1'-0"
140
0.09375
141
12.0
290
     0
  0
SCALE
  5
5E
102
{ACAD_REACTORS
330
47
102
}
330
47
100
AcDbScale
 70
     0
300
1/8" = 1'-0"
140
0.125
141
12.0
290
     0
  0
SCALE
  5
5F
102
{ACAD_REACTORS
330
47
102
}
330
47
100
AcDbScale
 70
     0
300
3/16" = 1'-0"
140
0.1875
141
12.0
290
     0
  0
SCALE
  5
60
102
{ACAD_REACTORS
330
47
102
}
330
47
100
AcDbScale
 70
     0
300
1/4" = 1'-0"
140
0.25
141
12.0
290
     0
  0
SCALE
  5
61
102
{ACAD_REACTORS
330
47
102
}
330
47
100
AcDbScale
 70
     0
300
3/8" = 1'-0"
140
0.375
141
12.0
290
     0
  0
SCALE
  5
62
102
{ACAD_REACTORS
330
47
102
}
330
47
100
AcDbScale
 70
     0
300
1/2" = 1'-0"
140
0.5
141
12.0
290
     0
  0
SCALE
  5
63
102
{ACAD_REACTORS
330
47
102
}
330
47
100
AcDbScale
 70
     0
300
3/4" = 1'-0"
140
0.75
141
12.0
290
     0
  0
SCALE
  5
64
102
{ACAD_REACTORS
330
47
102
}
330
47
100
AcDbScale
 70
     0
300
1" = 1'-0"
140
1.0
141
12.0
290
     0
  0
SCALE
  5
65
102
{ACAD_REACTORS
330
47
102
}
330
47
100
AcDbScale
 70
     0
300
1-1/2" = 1'-0"
140
1.5
141
12.0
290
     0
  0
SCALE
  5
66
102
{ACAD_REACTORS
330
47
102
}
330
47
100
AcDbScale
 70
     0
300
3" = 1'-0"
140
3.0
141
12.0
290
     0
  0
SCALE
  5
67
102
{ACAD_REACTORS
330
47
102
}
330
47
100
AcDbScale
 70
     0
300
6" = 1'-0"
140
6.0
141
12.0
290
     0
  0
SCALE
  5
68
102
{ACAD_REACTORS
330
47
102
}
330
47
100
AcDbScale
 70
     0
300
1'-0" = 1'-0"
140
12.0
141
12.0
290
     0
  0
ENDSEC
  0
EOF
