{"asset":{"generator":"3D Builder","version":"2.0"},"scene":0,"scenes":[{"nodes":[0]}],"nodes":[{"mesh":0,"matrix":[0.99999994039535522,0,0,0,0,-1.1920928244535389E-7,-0.99999982118606567,0,0,0.99999982118606567,-1.1920928244535389E-7,0,0,0,0,1]}],"meshes":[{"primitives":[{"attributes":{"POSITION":0,"COLOR_0":2},"mode":4,"indices":3},{"attributes":{"POSITION":1},"mode":4,"indices":4,"material":0}]}],"materials":[{"name":"Green","pbrMetallicRoughness":{"baseColorFactor":[0.015208514407277107,0.49693304300308228,0.072271861135959625,1],"metallicFactor":0,"roughnessFactor":1},"alphaMode":"OPAQUE"}],"accessors":[{"bufferView":0,"byteOffset":0,"count":13199,"componentType":5126,"type":"VEC3","min":[-0.0038842300418764353,0.013373999856412411,0],"max":[0.22039800882339478,0.1568329930305481,0.00081280001904815435]},{"bufferView":0,"byteOffset":158388,"count":2308,"componentType":5126,"type":"VEC3","min":[0.00058616604655981064,0.013373999856412411,0],"max":[0.21140602231025696,0.15464900434017181,0.00081280001904815435]},{"bufferView":1,"byteOffset":0,"count":13199,"componentType":5121,"type":"VEC4","normalized":true},{"bufferView":2,"byteOffset":0,"count":73341,"componentType":5125,"type":"SCALAR"},{"bufferView":2,"byteOffset":293364,"count":6927,"componentType":5125,"type":"SCALAR"}],"bufferViews":[{"buffer":0,"byteOffset":0,"byteLength":186084,"byteStride":12,"target":34962},{"buffer":0,"byteOffset":186084,"byteLength":52796,"byteStride":4,"target":34962},{"buffer":0,"byteOffset":238880,"byteLength":321072,"target":34963}],"buffers":[{"byteLength":559952,"uri":"N95-v03-vents-0_6mm.bin"}]}