<svg id="Layer_1" data-name="Layer 1" xmlns="http://www.w3.org/2000/svg" viewBox="0 0 189.36 72"><defs><style>.cls-1{fill:#939598;}.cls-2{fill:#231f20;}.cls-3{fill:#fff;}.cls-4{fill:#bcbec0;stroke:#231f20;stroke-miterlimit:10;stroke-width:0.5px;}</style></defs><path class="cls-1" d="M26,65.27s0,.09-.05.09h-1a0,0,0,0,1,0,0s0-.1,0-.1h1A0,0,0,0,1,26,65.27Z"/><path class="cls-1" d="M26,65.65s0,.09-.05.09H25a0,0,0,0,1,0,0s0-.08,0-.08h1A0,0,0,0,1,26,65.65Z"/><path class="cls-1" d="M25.92,66s0,.08-.05.08H25s0,0,0-.08,0,0,0,0h.9A0,0,0,0,1,25.92,66Z"/><path class="cls-1" d="M26,64.77s0-.1-.05-.1h-1a0,0,0,0,0,0,0s0,.1,0,.1h1S26,64.8,26,64.77Z"/><path class="cls-1" d="M26,64.38s0-.08-.05-.08H25a0,0,0,0,0,0,0s0,.09,0,.09h1A0,0,0,0,0,26,64.38Z"/><path class="cls-1" d="M25.92,64.05s0-.08-.05-.07H25s0,0,0,.07,0,0,0,0h.9A0,0,0,0,0,25.92,64.05Z"/><path class="cls-1" d="M24.49,63.25a3,3,0,0,0,1.41.52l-.19-.42a3.19,3.19,0,0,0-.35-.14.37.37,0,0,0,0-.14,1.37,1.37,0,0,0-.92-.4h0C23.84,62.73,24.25,63.08,24.49,63.25Z"/><path class="cls-1" d="M26,63.8a1,1,0,0,1,.58.59,1.45,1.45,0,0,1-.21,1.6.84.84,0,0,1-.35.25l-.19.4A1.81,1.81,0,0,0,27,65.07a1.86,1.86,0,0,0-1.16-1.68Zm.84,1.49Z"/><path class="cls-2" d="M18.94,64.93A4.89,4.89,0,1,0,23.83,60,4.89,4.89,0,0,0,18.94,64.93Zm1,0a3.89,3.89,0,0,1,.58-2.05l5.35,5.35A3.89,3.89,0,0,1,20,64.93Zm7.76,0a3.9,3.9,0,0,1-1.09,2.7l-5.49-5.49a3.88,3.88,0,0,1,6.58,2.79Z"/><path class="cls-1" d="M21.36,65c0,1.23.74,2.41,2.11,2.21l.53-.07a.11.11,0,0,0,.12-.07c0-.06.08-.1.11-.15a3.27,3.27,0,0,1-1-.37.9.9,0,0,1-.37-1.24v0L21.56,64A3,3,0,0,0,21.36,65Z"/><path class="cls-1" d="M24.24,63.14a.83.83,0,0,1-.12-.16.13.13,0,0,0-.12-.07l-.69-.08a1.6,1.6,0,0,0-1.11.29l.67.68A2.22,2.22,0,0,1,24.24,63.14Z"/><path class="cls-1" d="M24.85,63.67s0,0,0-.07a2.48,2.48,0,0,1-.52-.38,1.87,1.87,0,0,0-1.4.63l1.34,1.34A1.83,1.83,0,0,1,24.85,63.67Z"/><path class="cls-1" d="M22.78,65.77c0,.74.89,1,1.49,1.07a.21.21,0,0,0,.09,0l-1.48-1.47A1.82,1.82,0,0,0,22.78,65.77Z"/><path class="cls-1" d="M25.92,66.28c-.15,0-.31.06-.48.09l.3.3Z"/><path class="cls-1" d="M24.84,67.28l-.43-.44C23.89,67.24,24.13,67.52,24.84,67.28Z"/><rect class="cls-2" x="12.28" y="42.87" width="23.09" height="9.82" rx="0.79" transform="translate(-23.95 71.61) rotate(-90)"/><path class="cls-3" d="M20.94,57.15v-.88l3.16-.55L21,55.12v-.88l5.71,1.08v.88l-3.14.55,3.14.59v.89Z"/><path class="cls-3" d="M23.82,54.27a5.41,5.41,0,0,1-2.17-.82,1.58,1.58,0,0,1-.77-1.31,1,1,0,0,1,.77-1,4.32,4.32,0,0,1,2.14,0,7,7,0,0,1,1.64.49,3,3,0,0,1,1,.71,1.39,1.39,0,0,1,.35.91,1,1,0,0,1-.31.8,1.86,1.86,0,0,1-1,.36A5.64,5.64,0,0,1,23.82,54.27Zm0-.94a3.29,3.29,0,0,0,1.24.07c.25-.07.38-.2.38-.4a.63.63,0,0,0-.37-.53,4,4,0,0,0-1.32-.42,2.88,2.88,0,0,0-1.18,0c-.25.07-.38.2-.38.4s.13.36.38.53A3.71,3.71,0,0,0,23.84,53.33Z"/><path class="cls-3" d="M21,50.4l0-2.86,1.41.27v1l4.3.81v.94l-4.3-.81v.95Z"/><path class="cls-3" d="M24,48.19V47l1.23.24v1.22Z"/><path class="cls-3" d="M21,46V44.43a.65.65,0,0,1,.46-.68,2.64,2.64,0,0,1,1.3,0,3.23,3.23,0,0,1,1.35.54,1.13,1.13,0,0,1,.48.93v.52l2.11.4v.94Zm2.44-.48v-.23a.54.54,0,0,0-.17-.42,1,1,0,0,0-.46-.19.84.84,0,0,0-.45,0c-.13,0-.19.15-.19.32v.27Z"/><path class="cls-3" d="M21,42.92V41.36a.66.66,0,0,1,.46-.68,2.54,2.54,0,0,1,1.3,0,3,3,0,0,1,1.34.53,1.11,1.11,0,0,1,.49.94v.51l2.12.4V44Zm2.44-.48v-.23a.48.48,0,0,0-.18-.41.89.89,0,0,0-.45-.2,1,1,0,0,0-.46,0c-.12,0-.18.15-.19.32v.27Z"/><path class="cls-3" d="M21.05,39.85V37.33l1.22.24v1.57l.91.17V37.85l1.16.22v1.46l1.13.22V38.13l1.29.24v2.56Z"/><path class="cls-4" d="M3.34,3V32.8a1.13,1.13,0,0,0,1.21,1H27a1.14,1.14,0,0,0,1.22-1V3A1.14,1.14,0,0,0,27,2H4.55A1.13,1.13,0,0,0,3.34,3Z"/><rect class="cls-3" x="4.71" y="2.86" width="7.27" height="29.36"/><polygon class="cls-2" points="9.14 26.16 9.14 25.28 7.38 25.72 9.14 26.16"/><path class="cls-2" d="M7.17,10.48a.71.71,0,0,0,.32.6,2,2,0,0,0,1.08.23,1.91,1.91,0,0,0,1.06-.23.69.69,0,0,0,.32-.61.7.7,0,0,0-.31-.62A2.08,2.08,0,0,0,8.5,9.63a1.69,1.69,0,0,0-1,.23A.73.73,0,0,0,7.17,10.48Z"/><path class="cls-2" d="M4.27,3.69V32.18a.94.94,0,0,0,1,.86h6.55a.94.94,0,0,0,1-.86V3.69a.94.94,0,0,0-1-.86H5.28A.94.94,0,0,0,4.27,3.69Zm6.06,24.75a1.61,1.61,0,0,1,.57.59,1.92,1.92,0,0,1,.19.89A2.14,2.14,0,0,1,10.85,31a1.94,1.94,0,0,1-.81.72,3.28,3.28,0,0,1-1.5.3,2.88,2.88,0,0,1-1.86-.53A1.84,1.84,0,0,1,6,30a1.77,1.77,0,0,1,.38-1.19,2.24,2.24,0,0,1,1.15-.65l.29,1.1a1.56,1.56,0,0,0-.32.12.75.75,0,0,0-.27.26.63.63,0,0,0-.09.33.69.69,0,0,0,.41.65,2.11,2.11,0,0,0,1,.17,2.21,2.21,0,0,0,1.12-.2A.66.66,0,0,0,10,30a.63.63,0,0,0-.24-.54A1.82,1.82,0,0,0,9,29.18l.4-1.08A2.61,2.61,0,0,1,10.33,28.44ZM11,24.82l-.81.2v1.41l.81.2V27.9L6.11,26.38V25L11,23.52ZM9,19.46a3.07,3.07,0,0,1,.82.11,1.83,1.83,0,0,1,.68.35,1.4,1.4,0,0,1,.4.5,2.08,2.08,0,0,1,.17.87,5.27,5.27,0,0,1-.05.64,1.59,1.59,0,0,1-.2.58,1.67,1.67,0,0,1-.42.42,1.84,1.84,0,0,1-.57.27,3.87,3.87,0,0,1-.83.11H6.11V22.07h3a1,1,0,0,0,.63-.18.61.61,0,0,0,.22-.51.61.61,0,0,0-.22-.5,1,1,0,0,0-.63-.18h-3V19.46Zm-1.7-4.32v1.27H11v1.24H7.32v1.27H6.11V15.14ZM11,13.29v1.24H6.11V13.29ZM9.93,8.62a1.85,1.85,0,0,1,1.16,1.8,2.15,2.15,0,0,1-.27,1.13,1.8,1.8,0,0,1-.83.72,3.2,3.2,0,0,1-1.43.28A2.86,2.86,0,0,1,6.69,12,1.87,1.87,0,0,1,6,10.47a1.87,1.87,0,0,1,.66-1.54,2.82,2.82,0,0,1,1.84-.55A3.57,3.57,0,0,1,9.93,8.62ZM11,3.86V5L8.32,6.54H11V7.71H6.11V6.55L8.82,5H6.11V3.86Z"/><path class="cls-2" d="M14.57,31v-.88h2.62a3.51,3.51,0,0,1,.74.07,2,2,0,0,1,.6.25,1,1,0,0,1,.37.36,1.28,1.28,0,0,1,.14.61,2.6,2.6,0,0,1,0,.46.9.9,0,0,1-.18.41,1.2,1.2,0,0,1-.38.3,1.57,1.57,0,0,1-.51.19,4.26,4.26,0,0,1-.74.08H14.57v-.88h2.68a1,1,0,0,0,.57-.13.4.4,0,0,0,.2-.36.39.39,0,0,0-.2-.35,1,1,0,0,0-.57-.13Z"/><path class="cls-2" d="M17.51,29.66l-.08-.84a1.55,1.55,0,0,0,.48-.11.44.44,0,0,0,.27-.39A.36.36,0,0,0,18,28a.55.55,0,0,0-.31-.1.48.48,0,0,0-.31.1.94.94,0,0,0-.25.45,1.76,1.76,0,0,1-.54.83,1.34,1.34,0,0,1-.85.25,1.56,1.56,0,0,1-.64-.13,1,1,0,0,1-.47-.38,1.21,1.21,0,0,1-.17-.7,1.07,1.07,0,0,1,.31-.84,1.68,1.68,0,0,1,1-.34l.07.83a.83.83,0,0,0-.43.14.36.36,0,0,0-.14.29.26.26,0,0,0,.11.23.32.32,0,0,0,.24.08.33.33,0,0,0,.19-.06.57.57,0,0,0,.16-.3,3.08,3.08,0,0,1,.39-.83,1.18,1.18,0,0,1,.49-.36,1.67,1.67,0,0,1,.65-.11,2,2,0,0,1,.78.15,1.16,1.16,0,0,1,.54.42,1.22,1.22,0,0,1,.18.69,1.12,1.12,0,0,1-.43,1A2.23,2.23,0,0,1,17.51,29.66Z"/><path class="cls-2" d="M14.57,26.62V24.26h.94v1.48h.7V24.37h.9v1.37H18V24.22h1v2.4Z"/><path class="cls-2" d="M18.24,20.66v1l.73.14v.9l-4.4-1.08v-1L19,19.59v.92Zm-.95.18-1.58.31,1.58.32Z"/><path class="cls-2" d="M14.57,19.78V17.1h1.09V18H19v.88H15.66v.9Z"/><path class="cls-2" d="M14.57,15.66v-1l1.48-.57-1.48-.58v-1l2.56,1.11H19v.88H17.13Z"/><path class="cls-2" d="M16.77,12.62a3,3,0,0,1-1.67-.39,1.3,1.3,0,0,1,0-2.18,3,3,0,0,1,1.65-.39A4,4,0,0,1,18,9.83a1.71,1.71,0,0,1,.77.49,1.18,1.18,0,0,1,.27.79,1.35,1.35,0,0,1-.23.8,1.75,1.75,0,0,1-.75.52A3.7,3.7,0,0,1,16.77,12.62Zm0-.88a2.1,2.1,0,0,0,1-.16.48.48,0,0,0,0-.88,2.41,2.41,0,0,0-1-.15,1.9,1.9,0,0,0-.91.16.49.49,0,0,0-.29.44.48.48,0,0,0,.3.43A2,2,0,0,0,16.78,11.74Z"/><path class="cls-2" d="M14.57,7.33V6.45h2.62a3.5,3.5,0,0,1,.74.08,1.62,1.62,0,0,1,.6.25,1,1,0,0,1,.37.35,1.32,1.32,0,0,1,.14.62,2.42,2.42,0,0,1,0,.45.86.86,0,0,1-.18.41,1.22,1.22,0,0,1-.38.31,1.55,1.55,0,0,1-.51.18,3.53,3.53,0,0,1-.74.09H14.57V8.31h2.68a1.14,1.14,0,0,0,.57-.13.42.42,0,0,0,0-.72,1,1,0,0,0-.57-.13Z"/><path class="cls-2" d="M19,5.85h-4.4V4.38a1.43,1.43,0,0,1,.11-.62.78.78,0,0,1,.4-.35,2,2,0,0,1,1.34,0,1.11,1.11,0,0,1,.43.28A.91.91,0,0,1,17,4a.76.76,0,0,1,.16-.23,1.43,1.43,0,0,1,.23-.14l.27-.13L19,3.05V4l-1.35.47a1.24,1.24,0,0,0-.33.16.31.31,0,0,0-.11.22V5H19ZM16.35,5V4.6a1,1,0,0,0-.06-.24.24.24,0,0,0-.14-.14.49.49,0,0,0-.25-.06.54.54,0,0,0-.33.09.42.42,0,0,0-.11.33V5Z"/><path class="cls-2" d="M24.15,29.28a3.07,3.07,0,0,1-1.68-.39,1.3,1.3,0,0,1,0-2.18,3,3,0,0,1,1.65-.39,4,4,0,0,1,1.26.17,1.71,1.71,0,0,1,.77.49,1.17,1.17,0,0,1,.28.79,1.29,1.29,0,0,1-.24.8,1.66,1.66,0,0,1-.75.51A3.41,3.41,0,0,1,24.15,29.28Zm0-.88a2.22,2.22,0,0,0,1-.16.49.49,0,0,0,.29-.44.48.48,0,0,0-.29-.44,2.37,2.37,0,0,0-1-.16,1.9,1.9,0,0,0-.91.17.48.48,0,0,0-.28.44.47.47,0,0,0,.29.43A2.19,2.19,0,0,0,24.15,28.4Z"/><path class="cls-2" d="M21.94,26.21v-.84l2.47-.3-2.47-.44v-.84l2.46-.44-2.46-.3v-.83l4.4.62v.87l-2.77.5,2.77.5v.86Z"/><path class="cls-2" d="M21.94,21.92V21.1L24.38,20H21.94v-.83h4.4V20l-2.41,1.07h2.41v.83Z"/><path class="cls-2" d="M26.34,17.26h-4.4V15.79a1.43,1.43,0,0,1,.11-.62.78.78,0,0,1,.4-.35,1.7,1.7,0,0,1,.71-.13,1.76,1.76,0,0,1,.64.1,1.19,1.19,0,0,1,.43.28.9.9,0,0,1,.17.31.76.76,0,0,1,.16-.23,1.21,1.21,0,0,1,.23-.14,1.28,1.28,0,0,1,.28-.13l1.27-.42v1L25,15.92a1.19,1.19,0,0,0-.34.16.3.3,0,0,0-.1.22v.08h1.78Zm-2.61-.88V16a1,1,0,0,0-.06-.24.27.27,0,0,0-.14-.14.55.55,0,0,0-.26-.06.49.49,0,0,0-.32.09.39.39,0,0,0-.12.33v.39Z"/><path class="cls-2" d="M21.94,14.14v-.89h4.4v.89Z"/><path class="cls-2" d="M24.89,12.77l-.08-.83a1.28,1.28,0,0,0,.48-.12.43.43,0,0,0,.26-.39.35.35,0,0,0-.13-.29.6.6,0,0,0-.32-.1.5.5,0,0,0-.31.1.89.89,0,0,0-.25.45,1.69,1.69,0,0,1-.54.83,1.4,1.4,0,0,1-.84.25,1.61,1.61,0,0,1-.65-.13,1.1,1.1,0,0,1-.47-.38,1.31,1.31,0,0,1-.17-.71,1.06,1.06,0,0,1,.31-.83,1.62,1.62,0,0,1,1-.34l.07.83a.87.87,0,0,0-.43.14.35.35,0,0,0-.13.29.26.26,0,0,0,.1.23.33.33,0,0,0,.24.08.31.31,0,0,0,.19-.06.57.57,0,0,0,.16-.3,3.08,3.08,0,0,1,.39-.83,1.16,1.16,0,0,1,.49-.36,1.67,1.67,0,0,1,.65-.12,2,2,0,0,1,.78.16,1.16,1.16,0,0,1,.54.42,1.22,1.22,0,0,1,.19.69,1.12,1.12,0,0,1-.44,1A2.19,2.19,0,0,1,24.89,12.77Z"/><path class="cls-2" d="M21.94,9.74V8.85h1.67l-1.67-.92V6.76l1.66,1,2.74-1.09V7.8l-1.81.6.74.45h1.07v.89Z"/><path class="cls-2" d="M31,3.87h4.79v.94H34.08v5.76h-1.3V4.81H31Z"/><path class="cls-2" d="M36.34,3.87h1.2v2.4a1.43,1.43,0,0,1,1.38-.78,1.63,1.63,0,0,1,.84.2,1.09,1.09,0,0,1,.48.52,3.72,3.72,0,0,1,.14,1.24v3.12h-1.2V7.45a1.44,1.44,0,0,0-.2-1,.77.77,0,0,0-.52-.18c-.61,0-.92.47-.92,1.42v2.83h-1.2Z"/><path class="cls-2" d="M43,4.94H41.72V3.86H43Zm-1.23.67h1.19v5H41.75Z"/><path class="cls-2" d="M47.84,6.77,46.91,7a1,1,0,0,0-1-.75.78.78,0,0,0-.54.18.53.53,0,0,0-.2.43.5.5,0,0,0,.2.44,4.49,4.49,0,0,0,1,.34,3.58,3.58,0,0,1,1.31.59,1.11,1.11,0,0,1,.41.91,1.38,1.38,0,0,1-.58,1.11,2.39,2.39,0,0,1-1.55.46c-1.23,0-1.92-.48-2.09-1.45l1-.16A1,1,0,0,0,46,10a1,1,0,0,0,.69-.2.6.6,0,0,0,.22-.47.59.59,0,0,0-.15-.37,2,2,0,0,0-.87-.38,6.31,6.31,0,0,1-1-.35,1.44,1.44,0,0,1-.57-.47A1.12,1.12,0,0,1,44,7a1.34,1.34,0,0,1,.54-1.08A2.09,2.09,0,0,1,46,5.49,1.77,1.77,0,0,1,47.84,6.77Z"/><path class="cls-2" d="M54.17,3.87h1.19v6.7h-1.1V9.82a1.48,1.48,0,0,1-1.44.84,1.65,1.65,0,0,1-1.46-.7,3.13,3.13,0,0,1-.49-1.84,3,3,0,0,1,.54-1.91,1.75,1.75,0,0,1,1.44-.68,1.41,1.41,0,0,1,1.32.66Zm0,3.78a1.43,1.43,0,0,0-.34-1.07,1.06,1.06,0,0,0-.7-.3q-1,0-1,1.74c0,1.25.33,1.87,1,1.87a1,1,0,0,0,.71-.31,1.5,1.5,0,0,0,.32-1.08Z"/><path class="cls-2" d="M61,8.25H57.7A2,2,0,0,0,58,9.59a1.06,1.06,0,0,0,.8.33c.54,0,.87-.31,1-.92l1.1.12a2,2,0,0,1-2.15,1.58,2.22,2.22,0,0,1-1.67-.65,2.57,2.57,0,0,1-.63-1.88,2.85,2.85,0,0,1,.63-2A2.4,2.4,0,0,1,60,5.84a2,2,0,0,1,.71.92A4.6,4.6,0,0,1,61,8.25Zm-1.22-.7c0-.87-.33-1.31-1-1.31s-1,.44-1,1.31Z"/><path class="cls-2" d="M61.23,5.61h1.18l1.08,3.56,1.07-3.56h1l-1.65,5H62.89Z"/><path class="cls-2" d="M67.43,4.94H66.18V3.86h1.25Zm-1.22.67H67.4v5H66.21Z"/><path class="cls-2" d="M72.83,7.28l-1.16.11a1.59,1.59,0,0,0-.29-.87.78.78,0,0,0-.58-.22.83.83,0,0,0-.78.42,3.25,3.25,0,0,0-.24,1.48q0,1.65,1,1.65c.52,0,.81-.36.87-1.07l1.16.08a1.91,1.91,0,0,1-2.12,1.84A2,2,0,0,1,69.06,10a3,3,0,0,1-.54-1.9,3,3,0,0,1,.58-1.95,2.14,2.14,0,0,1,1.69-.67A1.86,1.86,0,0,1,72.83,7.28Z"/><path class="cls-2" d="M77.83,8.25H74.55a2,2,0,0,0,.32,1.34,1,1,0,0,0,.79.33,1,1,0,0,0,1-.92l1.09.12a2,2,0,0,1-2.14,1.58A2.24,2.24,0,0,1,74,10.05a2.57,2.57,0,0,1-.62-1.88,2.85,2.85,0,0,1,.63-2,2.38,2.38,0,0,1,2.93-.35,1.89,1.89,0,0,1,.71.92A4.85,4.85,0,0,1,77.83,8.25Zm-1.23-.7c0-.87-.33-1.31-1-1.31s-1,.44-1,1.31Z"/><path class="cls-2" d="M82.24,4.94H81V3.86h1.26ZM81,5.61H82.2v5H81Z"/><path class="cls-2" d="M87.1,6.77,86.17,7a1,1,0,0,0-1-.75.8.8,0,0,0-.54.18.53.53,0,0,0-.2.43.5.5,0,0,0,.2.44,4.49,4.49,0,0,0,.95.34,3.58,3.58,0,0,1,1.31.59,1.11,1.11,0,0,1,.41.91,1.35,1.35,0,0,1-.58,1.11,2.39,2.39,0,0,1-1.55.46c-1.22,0-1.92-.48-2.09-1.45l1-.16a1,1,0,0,0,1.11.86,1,1,0,0,0,.69-.2.61.61,0,0,0,.23-.47A.6.6,0,0,0,86,8.91a2,2,0,0,0-.87-.38,6.67,6.67,0,0,1-1-.35,1.44,1.44,0,0,1-.57-.47A1.12,1.12,0,0,1,83.3,7a1.34,1.34,0,0,1,.54-1.08,2.09,2.09,0,0,1,1.39-.45A1.77,1.77,0,0,1,87.1,6.77Z"/><path class="cls-2" d="M90.42,5.61h1.1v.76a1.47,1.47,0,0,1,1.42-.88,1.19,1.19,0,0,1,1.33.93,1.47,1.47,0,0,1,1.47-.93,1.82,1.82,0,0,1,.88.2,1.17,1.17,0,0,1,.49.52,3.74,3.74,0,0,1,.13,1.22v3.14H96.05V7.52a2.23,2.23,0,0,0-.14-.95.59.59,0,0,0-.57-.25c-.6,0-.91.45-.91,1.35v2.9H93.24v-3a3.6,3.6,0,0,0-.06-.84A.55.55,0,0,0,93,6.43a.72.72,0,0,0-.42-.11.8.8,0,0,0-.71.32,2,2,0,0,0-.21,1.05v2.88H90.42Z"/><path class="cls-2" d="M102.83,8.25H99.56a2,2,0,0,0,.31,1.34,1.08,1.08,0,0,0,.8.33c.54,0,.87-.31,1-.92l1.09.12a2,2,0,0,1-2.14,1.58A2.23,2.23,0,0,1,99,10.05a2.57,2.57,0,0,1-.63-1.88,2.81,2.81,0,0,1,.64-2,2.38,2.38,0,0,1,2.93-.35,2,2,0,0,1,.71.92A4.6,4.6,0,0,1,102.83,8.25Zm-1.22-.7c0-.87-.33-1.31-1-1.31s-1,.44-1,1.31Z"/><path class="cls-2" d="M104.9,7l-1.15-.13a1.49,1.49,0,0,1,.72-1,2.75,2.75,0,0,1,1.46-.37,2.49,2.49,0,0,1,1.25.27,1.2,1.2,0,0,1,.59.64,3.82,3.82,0,0,1,.12,1.11V9.2a5.68,5.68,0,0,0,.1,1.37h-1.13a3.34,3.34,0,0,1-.07-.82,1.78,1.78,0,0,1-1.63.95,1.73,1.73,0,0,1-1.18-.39,1.34,1.34,0,0,1-.44-1.05A1.5,1.5,0,0,1,104.19,8a4,4,0,0,1,2.25-.47h.26v-.2a1.45,1.45,0,0,0-.19-.8.76.76,0,0,0-.67-.27A.88.88,0,0,0,104.9,7Zm1.8,1.14a2.58,2.58,0,0,0-.35,0c-1,0-1.56.35-1.56,1a.68.68,0,0,0,.77.77,1,1,0,0,0,.79-.42,1.7,1.7,0,0,0,.35-1.13Z"/><path class="cls-2" d="M109.23,5.61h1.1v.77a1.46,1.46,0,0,1,1.44-.89,1.69,1.69,0,0,1,1,.24,1.07,1.07,0,0,1,.45.58,4.46,4.46,0,0,1,.1,1.07v3.19h-1.2V7.43a2,2,0,0,0-.13-.88.61.61,0,0,0-.56-.23.85.85,0,0,0-.7.3,1.9,1.9,0,0,0-.25,1.18v2.77h-1.2Z"/><path class="cls-2" d="M114.85,4.32l1.08-.09V5.61H117v.83h-1.11V8.63a6,6,0,0,0,0,.76.47.47,0,0,0,.21.31,1,1,0,0,0,.57.12l.48,0v.82a4.88,4.88,0,0,1-.89.09,1.94,1.94,0,0,1-1-.23,1,1,0,0,1-.45-.6,4.89,4.89,0,0,1-.1-1.17V6.44H114V5.61h.79Z"/><path class="cls-2" d="M120.24,4.32l1.08-.09V5.61h1.11v.83h-1.11V8.63a4.15,4.15,0,0,0,0,.76.46.46,0,0,0,.2.31,1.07,1.07,0,0,0,.58.12l.48,0v.82a4.9,4.9,0,0,1-.9.09,1.9,1.9,0,0,1-1-.23,1,1,0,0,1-.46-.6,5.62,5.62,0,0,1-.09-1.17V6.44h-.76V5.61h.79Z"/><path class="cls-2" d="M127.58,8c0,1.77-.77,2.66-2.3,2.66a2.2,2.2,0,0,1-1.66-.64,2.82,2.82,0,0,1-.61-2c0-1.73.77-2.6,2.3-2.6a2.21,2.21,0,0,1,1.66.64A2.69,2.69,0,0,1,127.58,8Zm-1.28.06A2.71,2.71,0,0,0,126,6.66a.85.85,0,0,0-.73-.39c-.68,0-1,.61-1,1.83a3.13,3.13,0,0,0,.23,1.37.89.89,0,0,0,1.55,0A3.22,3.22,0,0,0,126.3,8.1Z"/><path class="cls-2" d="M130.9,3.87h1.19V6.18a1.62,1.62,0,0,1,1.35-.66,1.71,1.71,0,0,1,1.42.66A2.82,2.82,0,0,1,135.39,8c0,1.8-.72,2.71-2.14,2.71a1.43,1.43,0,0,1-1.4-.78,6.62,6.62,0,0,0-.27.67h-.68Zm1.19,4.6c0,1,.34,1.43,1,1.43a.8.8,0,0,0,.76-.43A3.19,3.19,0,0,0,134.11,8a2.76,2.76,0,0,0-.24-1.36.79.79,0,0,0-.74-.38.94.94,0,0,0-.74.34,1.37,1.37,0,0,0-.3.93Z"/><path class="cls-2" d="M140.72,8.25h-3.28a2,2,0,0,0,.32,1.34,1.06,1.06,0,0,0,.8.33c.53,0,.87-.31,1-.92l1.1.12a2,2,0,0,1-2.15,1.58,2.24,2.24,0,0,1-1.68-.65,2.61,2.61,0,0,1-.62-1.88,2.85,2.85,0,0,1,.63-2,2.18,2.18,0,0,1,1.69-.7,2.13,2.13,0,0,1,1.24.35,1.83,1.83,0,0,1,.71.92A4.57,4.57,0,0,1,140.72,8.25Zm-1.22-.7c0-.87-.34-1.31-1-1.31s-1,.44-1,1.31Z"/><path class="cls-2" d="M143.86,5.61h1.2V8.77a2.12,2.12,0,0,0,.12.88c.09.15.27.22.56.22a.77.77,0,0,0,.75-.4A3.48,3.48,0,0,0,146.7,8V5.61h1.2v5h-1.11V9.83a1.54,1.54,0,0,1-1.47.87,1.74,1.74,0,0,1-.84-.19A1,1,0,0,1,144,10a3.31,3.31,0,0,1-.15-1.19Z"/><path class="cls-2" d="M152.8,6.77l-.93.22a1,1,0,0,0-1-.75.77.77,0,0,0-.54.18.53.53,0,0,0-.2.43.48.48,0,0,0,.2.44,4.49,4.49,0,0,0,1,.34,3.58,3.58,0,0,1,1.31.59,1.1,1.1,0,0,1,.4.91,1.37,1.37,0,0,1-.57,1.11,2.39,2.39,0,0,1-1.55.46c-1.23,0-1.92-.48-2.09-1.45l1-.16a1,1,0,0,0,1.11.86,1,1,0,0,0,.69-.2.6.6,0,0,0,.22-.47.59.59,0,0,0-.15-.37,2,2,0,0,0-.87-.38,6.31,6.31,0,0,1-1-.35,1.44,1.44,0,0,1-.57-.47A1.12,1.12,0,0,1,149,7a1.34,1.34,0,0,1,.54-1.08,2.09,2.09,0,0,1,1.39-.45A1.77,1.77,0,0,1,152.8,6.77Z"/><path class="cls-2" d="M158.13,8.25h-3.27a2,2,0,0,0,.31,1.34,1.08,1.08,0,0,0,.8.33c.54,0,.87-.31,1-.92l1.09.12a2,2,0,0,1-2.15,1.58,2.22,2.22,0,0,1-1.67-.65,2.57,2.57,0,0,1-.63-1.88,2.85,2.85,0,0,1,.63-2,2.21,2.21,0,0,1,1.69-.7,2.17,2.17,0,0,1,1.25.35,2,2,0,0,1,.71.92A4.6,4.6,0,0,1,158.13,8.25Zm-1.22-.7c0-.87-.33-1.31-1-1.31s-1,.44-1,1.31Z"/><path class="cls-2" d="M162.14,3.87h1.19v6.7h-1.1V9.82a1.47,1.47,0,0,1-1.43.84,1.65,1.65,0,0,1-1.47-.7,3.13,3.13,0,0,1-.49-1.84,3,3,0,0,1,.54-1.91,1.75,1.75,0,0,1,1.44-.68,1.39,1.39,0,0,1,1.32.66Zm0,3.78a1.39,1.39,0,0,0-.34-1.07,1,1,0,0,0-.69-.3c-.67,0-1,.58-1,1.74s.34,1.87,1,1.87a1,1,0,0,0,.7-.31,1.5,1.5,0,0,0,.32-1.08Z"/><path class="cls-2" d="M168,7l-1.15-.13a1.47,1.47,0,0,1,.71-1A2.81,2.81,0,0,1,169,5.49a2.49,2.49,0,0,1,1.25.27,1.2,1.2,0,0,1,.59.64A3.82,3.82,0,0,1,171,7.51V9.2a5.68,5.68,0,0,0,.1,1.37H170a3.34,3.34,0,0,1-.07-.82,1.78,1.78,0,0,1-1.63.95,1.73,1.73,0,0,1-1.18-.39,1.34,1.34,0,0,1-.44-1.05A1.48,1.48,0,0,1,167.29,8a4,4,0,0,1,2.25-.47h.25v-.2a1.46,1.46,0,0,0-.18-.8.77.77,0,0,0-.67-.27A.88.88,0,0,0,168,7Zm1.79,1.14a2.51,2.51,0,0,0-.35,0c-1,0-1.55.35-1.55,1a.68.68,0,0,0,.77.77,1,1,0,0,0,.79-.42,1.69,1.69,0,0,0,.34-1.13Z"/><path class="cls-2" d="M175.82,6.77l-.94.22a1,1,0,0,0-1-.75.76.76,0,0,0-.53.18.54.54,0,0,0-.21.43.49.49,0,0,0,.21.44,4.27,4.27,0,0,0,.95.34,3.75,3.75,0,0,1,1.31.59,1.1,1.1,0,0,1,.4.91,1.37,1.37,0,0,1-.57,1.11,2.4,2.4,0,0,1-1.55.46c-1.23,0-1.93-.48-2.09-1.45l1-.16a1,1,0,0,0,1.1.86,1,1,0,0,0,.69-.2.58.58,0,0,0,.23-.47.59.59,0,0,0-.15-.37,2.1,2.1,0,0,0-.87-.38,6,6,0,0,1-1-.35,1.44,1.44,0,0,1-.57-.47A1.12,1.12,0,0,1,172,7a1.34,1.34,0,0,1,.54-1.08,2.12,2.12,0,0,1,1.4-.45A1.77,1.77,0,0,1,175.82,6.77Z"/><path class="cls-2" d="M180.21,7l-1.15-.13a1.45,1.45,0,0,1,.71-1,2.81,2.81,0,0,1,1.47-.37,2.45,2.45,0,0,1,1.24.27,1.16,1.16,0,0,1,.59.64,3.82,3.82,0,0,1,.12,1.11V9.2a5.51,5.51,0,0,0,.11,1.37h-1.13a3.24,3.24,0,0,1-.08-.82,1.76,1.76,0,0,1-1.63.95,1.69,1.69,0,0,1-1.17-.39,1.32,1.32,0,0,1-.45-1.05A1.5,1.5,0,0,1,179.49,8a4.07,4.07,0,0,1,2.26-.47H182v-.2a1.37,1.37,0,0,0-.19-.8.74.74,0,0,0-.66-.27A.86.86,0,0,0,180.21,7ZM182,8.16a2.51,2.51,0,0,0-.35,0c-1,0-1.56.35-1.56,1a.69.69,0,0,0,.78.77,1,1,0,0,0,.79-.42A1.69,1.69,0,0,0,182,8.4Z"/><path class="cls-2" d="M31.94,12.81h1.2v6.71h-1.2Z"/><path class="cls-2" d="M35.62,16l-1.15-.12a1.43,1.43,0,0,1,.71-1,2.72,2.72,0,0,1,1.47-.37,2.52,2.52,0,0,1,1.25.27,1.16,1.16,0,0,1,.58.63,3.9,3.9,0,0,1,.12,1.12v1.69a5.63,5.63,0,0,0,.11,1.37H37.58a3.33,3.33,0,0,1-.08-.83,1.74,1.74,0,0,1-1.62.95,1.76,1.76,0,0,1-1.18-.38,1.32,1.32,0,0,1-.45-1.05,1.53,1.53,0,0,1,.65-1.29,4.07,4.07,0,0,1,2.26-.47h.25v-.2a1.35,1.35,0,0,0-.19-.8.74.74,0,0,0-.66-.27A.86.86,0,0,0,35.62,16Zm1.79,1.14-.35,0c-1,0-1.55.35-1.55,1.05a.67.67,0,0,0,.77.76,1,1,0,0,0,.79-.41,1.74,1.74,0,0,0,.34-1.14Z"/><path class="cls-2" d="M43.44,15.72l-.94.21a1,1,0,0,0-1-.74.8.8,0,0,0-.54.17.59.59,0,0,0-.2.44.47.47,0,0,0,.21.43,4,4,0,0,0,.94.35,3.74,3.74,0,0,1,1.32.58,1.13,1.13,0,0,1,.4.91,1.38,1.38,0,0,1-.58,1.12,2.42,2.42,0,0,1-1.55.45c-1.22,0-1.92-.48-2.08-1.44l1-.17a1,1,0,0,0,1.11.86,1,1,0,0,0,.69-.2.59.59,0,0,0,.23-.46.53.53,0,0,0-.16-.37,2,2,0,0,0-.86-.39,7.22,7.22,0,0,1-1-.34,1.49,1.49,0,0,1-.58-.47,1.24,1.24,0,0,1-.22-.7,1.36,1.36,0,0,1,.54-1.08,2.14,2.14,0,0,1,1.39-.44A1.77,1.77,0,0,1,43.44,15.72Z"/><path class="cls-2" d="M44.87,13.26,46,13.18v1.38h1.11v.82H46v2.19a6.16,6.16,0,0,0,0,.77.5.5,0,0,0,.21.31,1,1,0,0,0,.57.12,3,3,0,0,0,.49,0v.82a5,5,0,0,1-.9.09,2,2,0,0,1-1-.22,1,1,0,0,1-.45-.61,5.34,5.34,0,0,1-.1-1.17V15.38H44v-.82h.79Z"/><path class="cls-2" d="M50.05,14.56H51.1v1.11c.32-.81.81-1.22,1.45-1.22l.22,0v1.06h-.24c-.86,0-1.28.49-1.28,1.47v2.53h-1.2Z"/><path class="cls-2" d="M57.47,17.19H54.19a2,2,0,0,0,.32,1.34,1.06,1.06,0,0,0,.8.34c.53,0,.87-.31,1-.93l1.09.12a2,2,0,0,1-2.14,1.58A2.24,2.24,0,0,1,53.59,19,2.64,2.64,0,0,1,53,17.11a2.83,2.83,0,0,1,.63-2,2.15,2.15,0,0,1,1.69-.7,2.08,2.08,0,0,1,1.24.35,1.87,1.87,0,0,1,.71.91A4.91,4.91,0,0,1,57.47,17.19Zm-1.23-.69c0-.88-.33-1.31-1-1.31s-1,.43-1,1.31Z"/><path class="cls-2" d="M62,15.72l-.94.21a1,1,0,0,0-1-.74.8.8,0,0,0-.54.17.59.59,0,0,0-.2.44.47.47,0,0,0,.21.43,4.17,4.17,0,0,0,.94.35,3.74,3.74,0,0,1,1.32.58,1.1,1.1,0,0,1,.4.91,1.4,1.4,0,0,1-.57,1.12,2.46,2.46,0,0,1-1.55.45c-1.23,0-1.93-.48-2.09-1.44L59,18a1,1,0,0,0,1.11.86,1,1,0,0,0,.69-.2.59.59,0,0,0,.23-.46.53.53,0,0,0-.16-.37,2,2,0,0,0-.86-.39,7.22,7.22,0,0,1-1-.34,1.53,1.53,0,0,1-.57-.47,1.17,1.17,0,0,1-.23-.7,1.36,1.36,0,0,1,.54-1.08,2.17,2.17,0,0,1,1.4-.44A1.77,1.77,0,0,1,62,15.72Z"/><path class="cls-2" d="M67.34,17c0,1.77-.76,2.65-2.29,2.65A2.15,2.15,0,0,1,63.39,19a2.74,2.74,0,0,1-.61-2c0-1.74.76-2.6,2.29-2.6a2.21,2.21,0,0,1,1.66.63A2.65,2.65,0,0,1,67.34,17ZM66.07,17a2.71,2.71,0,0,0-.27-1.44.87.87,0,0,0-.74-.39c-.67,0-1,.61-1,1.83a3,3,0,0,0,.24,1.38.79.79,0,0,0,.77.45.81.81,0,0,0,.77-.46A3,3,0,0,0,66.07,17Z"/><path class="cls-2" d="M68.47,14.56h1v1.11c.32-.81.81-1.22,1.45-1.22l.22,0v1.06H71c-.86,0-1.28.49-1.28,1.47v2.53h-1.2Z"/><path class="cls-2" d="M72.37,13.26l1.08-.08v1.38h1.1v.82h-1.1v2.19a6.16,6.16,0,0,0,0,.77.46.46,0,0,0,.21.31,1,1,0,0,0,.57.12,2.9,2.9,0,0,0,.48,0v.82a4.88,4.88,0,0,1-.89.09,2,2,0,0,1-1-.22,1,1,0,0,1-.45-.61,4.78,4.78,0,0,1-.1-1.17V15.38h-.75v-.82h.79Z"/><path class="cls-2" d="M77.51,14.56H78.7v3.15a2.08,2.08,0,0,0,.13.88c.08.15.27.23.56.23a.79.79,0,0,0,.75-.4,3.56,3.56,0,0,0,.21-1.48V14.56h1.19v5h-1.1v-.75a1.55,1.55,0,0,1-1.47.87,1.63,1.63,0,0,1-.84-.19,1.08,1.08,0,0,1-.48-.53,3.58,3.58,0,0,1-.14-1.19Z"/><path class="cls-2" d="M83,14.56h1.1v.76a1.45,1.45,0,0,1,1.44-.88,1.69,1.69,0,0,1,1,.24,1,1,0,0,1,.45.58,4.36,4.36,0,0,1,.1,1.06v3.2H85.8V16.38a2,2,0,0,0-.13-.88.6.6,0,0,0-.57-.24.85.85,0,0,0-.69.3,1.91,1.91,0,0,0-.26,1.18v2.78H83Z"/><path class="cls-2" d="M91.38,12.81h1.19v6.71h-1.1v-.75a1.47,1.47,0,0,1-1.43.84,1.66,1.66,0,0,1-1.47-.71,3.11,3.11,0,0,1-.49-1.84,3,3,0,0,1,.54-1.9,1.74,1.74,0,0,1,1.44-.69,1.39,1.39,0,0,1,1.32.66Zm0,3.79A1.37,1.37,0,0,0,91,15.53a1,1,0,0,0-.69-.31c-.67,0-1,.58-1,1.75s.34,1.86,1,1.86a1,1,0,0,0,.7-.31,1.45,1.45,0,0,0,.32-1.07Z"/><path class="cls-2" d="M98.18,17.19H94.91a2,2,0,0,0,.32,1.34,1,1,0,0,0,.79.34q.81,0,1-.93l1.09.12A2,2,0,0,1,96,19.64,2.24,2.24,0,0,1,94.31,19a2.6,2.6,0,0,1-.62-1.89,2.83,2.83,0,0,1,.63-2,2.15,2.15,0,0,1,1.69-.7,2.08,2.08,0,0,1,1.24.35,1.87,1.87,0,0,1,.71.91A4.64,4.64,0,0,1,98.18,17.19ZM97,16.5c0-.88-.33-1.31-1-1.31s-1,.43-1,1.31Z"/><path class="cls-2" d="M99.18,14.56h1v1.11c.32-.81.8-1.22,1.45-1.22l.22,0v1.06h-.24q-1.29,0-1.29,1.47v2.53H99.18Z"/><path class="cls-2" d="M104.78,13.26l1.08-.08v1.38H107v.82h-1.11v2.19a4.28,4.28,0,0,0,0,.77.48.48,0,0,0,.2.31,1.07,1.07,0,0,0,.58.12,2.9,2.9,0,0,0,.48,0v.82a4.9,4.9,0,0,1-.9.09,1.91,1.91,0,0,1-1-.22,1,1,0,0,1-.46-.61,5.49,5.49,0,0,1-.09-1.17V15.38h-.76v-.82h.79Z"/><path class="cls-2" d="M107.77,12.81H109v2.4a1.44,1.44,0,0,1,1.38-.77,1.7,1.7,0,0,1,.85.19,1.14,1.14,0,0,1,.47.53,3.69,3.69,0,0,1,.14,1.23v3.13h-1.2V16.4c0-.52-.06-.84-.2-1a.77.77,0,0,0-.52-.18c-.61,0-.92.48-.92,1.42v2.84h-1.2Z"/><path class="cls-2" d="M117.39,17.19h-3.27a2,2,0,0,0,.31,1.34,1.07,1.07,0,0,0,.8.34c.53,0,.87-.31,1-.93l1.1.12a2,2,0,0,1-2.15,1.58,2.2,2.2,0,0,1-1.67-.64,2.6,2.6,0,0,1-.63-1.89,2.83,2.83,0,0,1,.63-2,2.16,2.16,0,0,1,1.69-.7,2.12,2.12,0,0,1,1.25.35,1.93,1.93,0,0,1,.71.91A4.64,4.64,0,0,1,117.39,17.19Zm-1.22-.69c0-.88-.33-1.31-1-1.31s-1,.43-1,1.31Z"/><path class="cls-2" d="M124.56,17.26l1.19.15a2.36,2.36,0,0,1-2.56,2.23,2.48,2.48,0,0,1-2.13-.94,4.13,4.13,0,0,1-.7-2.51,4,4,0,0,1,.74-2.6,2.62,2.62,0,0,1,2.14-.9A2.37,2.37,0,0,1,125.76,15l-1.2.15c-.13-1-.57-1.52-1.32-1.52-1,0-1.5.88-1.5,2.65s.5,2.46,1.5,2.46a1.08,1.08,0,0,0,.9-.37A2.64,2.64,0,0,0,124.56,17.26Z"/><path class="cls-2" d="M126.83,12.81h1.76a4.56,4.56,0,0,1,2,.39,2.63,2.63,0,0,1,1.16,1.15,3.73,3.73,0,0,1,.39,1.7,4.29,4.29,0,0,1-.35,1.76,3,3,0,0,1-1.08,1.24,3.87,3.87,0,0,1-2.07.47h-1.86Zm1.29.89v4.93h.54a1.93,1.93,0,0,0,1.65-.67,2.9,2.9,0,0,0,.51-1.79c0-1.65-.72-2.47-2.16-2.47Z"/><path class="cls-2" d="M137.37,17.26l1.19.15A2.36,2.36,0,0,1,136,19.64a2.48,2.48,0,0,1-2.13-.94,4.06,4.06,0,0,1-.7-2.51,4,4,0,0,1,.74-2.6,2.59,2.59,0,0,1,2.13-.9A2.37,2.37,0,0,1,138.57,15l-1.2.15c-.13-1-.57-1.52-1.32-1.52-1,0-1.5.88-1.5,2.65s.5,2.46,1.5,2.46a1.08,1.08,0,0,0,.9-.37A2.64,2.64,0,0,0,137.37,17.26Z"/><path class="cls-2" d="M145.76,17.26l1.2.15a2.37,2.37,0,0,1-2.57,2.23,2.45,2.45,0,0,1-2.12-.94,4.06,4.06,0,0,1-.7-2.51,4,4,0,0,1,.74-2.6,2.59,2.59,0,0,1,2.13-.9A2.37,2.37,0,0,1,147,15l-1.21.15c-.13-1-.57-1.52-1.32-1.52-1,0-1.5.88-1.5,2.65s.5,2.46,1.5,2.46a1.07,1.07,0,0,0,.9-.37A2.39,2.39,0,0,0,145.76,17.26Z"/><path class="cls-2" d="M148,14.56H149v1.11c.32-.81.81-1.22,1.45-1.22l.22,0v1.06h-.24c-.86,0-1.28.49-1.28,1.47v2.53H148Z"/><path class="cls-2" d="M152.41,13.89h-1.25V12.8h1.25Zm-1.23.67h1.2v5h-1.2Z"/><path class="cls-2" d="M157.28,15.72l-.94.21a1,1,0,0,0-1-.74.8.8,0,0,0-.54.17.59.59,0,0,0-.2.44.47.47,0,0,0,.21.43,4.17,4.17,0,0,0,.94.35,3.74,3.74,0,0,1,1.32.58,1.1,1.1,0,0,1,.4.91,1.4,1.4,0,0,1-.57,1.12,2.46,2.46,0,0,1-1.55.45c-1.23,0-1.93-.48-2.09-1.44l1-.17a1,1,0,0,0,1.11.86,1,1,0,0,0,.69-.2.59.59,0,0,0,.23-.46.53.53,0,0,0-.16-.37,2,2,0,0,0-.86-.39,7.22,7.22,0,0,1-1-.34,1.53,1.53,0,0,1-.57-.47,1.17,1.17,0,0,1-.23-.7,1.36,1.36,0,0,1,.54-1.08,2.17,2.17,0,0,1,1.4-.44A1.76,1.76,0,0,1,157.28,15.72Z"/><path class="cls-2" d="M159.63,13.89h-1.26V12.8h1.26Zm-1.23.67h1.19v5H158.4Z"/><path class="cls-2" d="M164.49,15.72l-.93.21a1,1,0,0,0-1-.74.75.75,0,0,0-.53.17.56.56,0,0,0-.21.44.47.47,0,0,0,.21.43,4.12,4.12,0,0,0,1,.35,3.68,3.68,0,0,1,1.31.58,1.1,1.1,0,0,1,.4.91,1.4,1.4,0,0,1-.57,1.12,2.44,2.44,0,0,1-1.55.45c-1.23,0-1.92-.48-2.09-1.44l1-.17a1,1,0,0,0,1.1.86,1.08,1.08,0,0,0,.7-.2.58.58,0,0,0,.22-.46.57.57,0,0,0-.15-.37,2,2,0,0,0-.87-.39,7.68,7.68,0,0,1-1-.34,1.53,1.53,0,0,1-.57-.47,1.16,1.16,0,0,1-.22-.7,1.36,1.36,0,0,1,.54-1.08,2.14,2.14,0,0,1,1.39-.44A1.76,1.76,0,0,1,164.49,15.72Z"/><path class="cls-2" d="M35.92,26.21l1.19.14a2.36,2.36,0,0,1-2.56,2.24,2.51,2.51,0,0,1-2.13-.94,4.17,4.17,0,0,1-.7-2.51,4,4,0,0,1,.74-2.6,2.6,2.6,0,0,1,2.14-.91,2.37,2.37,0,0,1,2.52,2.29l-1.2.15c-.13-1-.57-1.52-1.32-1.52-1,0-1.5.88-1.5,2.65s.5,2.47,1.5,2.47a1.09,1.09,0,0,0,.9-.38A2.59,2.59,0,0,0,35.92,26.21Z"/><path class="cls-2" d="M39.22,24.91l-1.16-.13a1.49,1.49,0,0,1,.72-1,2.72,2.72,0,0,1,1.47-.37,2.45,2.45,0,0,1,1.24.27,1.16,1.16,0,0,1,.59.64,3.78,3.78,0,0,1,.12,1.11v1.69a5.57,5.57,0,0,0,.11,1.37H41.17a3.34,3.34,0,0,1-.07-.82,1.77,1.77,0,0,1-1.63.95,1.69,1.69,0,0,1-1.17-.39,1.32,1.32,0,0,1-.45-1.05,1.5,1.5,0,0,1,.65-1.28,4,4,0,0,1,2.26-.47H41v-.2a1.37,1.37,0,0,0-.19-.8.74.74,0,0,0-.66-.27A.86.86,0,0,0,39.22,24.91ZM41,26h-.35c-1,0-1.56.34-1.56,1a.68.68,0,0,0,.78.76,1,1,0,0,0,.79-.41A1.75,1.75,0,0,0,41,26.29Z"/><path class="cls-2" d="M43.55,23.5h1.1v.82a1.5,1.5,0,0,1,1.43-.9,1.74,1.74,0,0,1,1.41.65A2.87,2.87,0,0,1,48,25.94a3.32,3.32,0,0,1-.49,1.85,1.66,1.66,0,0,1-1.52.76,1.53,1.53,0,0,1-1.28-.6v2.19H43.55Zm1.19,2.89a2.87,2.87,0,0,0,.08.74.94.94,0,0,0,.34.46,1,1,0,0,0,.58.18q1,0,1-1.83c0-1.18-.33-1.78-1-1.78a.9.9,0,0,0-.73.37,1.62,1.62,0,0,0-.29,1Z"/><path class="cls-2" d="M50.23,24.91l-1.15-.13a1.45,1.45,0,0,1,.71-1,2.72,2.72,0,0,1,1.47-.37,2.52,2.52,0,0,1,1.25.27,1.18,1.18,0,0,1,.58.64,3.78,3.78,0,0,1,.12,1.11v1.69a5.57,5.57,0,0,0,.11,1.37H52.19a3.24,3.24,0,0,1-.08-.82,1.76,1.76,0,0,1-1.63.95,1.7,1.7,0,0,1-1.17-.39,1.32,1.32,0,0,1-.45-1.05,1.5,1.5,0,0,1,.65-1.28,4,4,0,0,1,2.26-.47H52v-.2a1.37,1.37,0,0,0-.19-.8.74.74,0,0,0-.66-.27A.86.86,0,0,0,50.23,24.91ZM52,26h-.35c-1,0-1.56.34-1.56,1a.68.68,0,0,0,.78.76,1,1,0,0,0,.79-.41A1.69,1.69,0,0,0,52,26.29Z"/><path class="cls-2" d="M58.57,25.17l-1.15.11a1.77,1.77,0,0,0-.29-.87.81.81,0,0,0-.59-.22.82.82,0,0,0-.77.42,3.25,3.25,0,0,0-.24,1.48c0,1.1.33,1.65,1,1.65.52,0,.81-.36.88-1.08l1.15.09a1.9,1.9,0,0,1-2.11,1.84,1.94,1.94,0,0,1-1.65-.69,3,3,0,0,1-.54-1.9,2.88,2.88,0,0,1,.58-1.95,2.11,2.11,0,0,1,1.69-.67A1.85,1.85,0,0,1,58.57,25.17Z"/><path class="cls-2" d="M60.59,22.83H59.33V21.75h1.26Zm-1.23.67h1.19v5H59.36Z"/><path class="cls-2" d="M62.18,22.21l1.08-.09V23.5h1.1v.83h-1.1v2.18a6.05,6.05,0,0,0,0,.77.44.44,0,0,0,.21.31,1,1,0,0,0,.57.12l.48,0v.82a4.88,4.88,0,0,1-.89.09,1.94,1.94,0,0,1-1-.23,1,1,0,0,1-.45-.61,4.74,4.74,0,0,1-.1-1.16V24.33h-.75V23.5h.78Z"/><path class="cls-2" d="M64.45,23.5h1.21l1,3.41,1-3.41h1.08L66.9,28.78a4.78,4.78,0,0,1-.38.85,1.24,1.24,0,0,1-.49.44,1.74,1.74,0,0,1-.81.17,2.68,2.68,0,0,1-.62-.07v-.81l.42,0a.91.91,0,0,0,.66-.19,2.49,2.49,0,0,0,.42-.9Z"/><path class="cls-2" d="M76.28,23.25l-1.11.33a1.7,1.7,0,0,0-.52-.78,1.34,1.34,0,0,0-.86-.26,1.11,1.11,0,0,0-.79.26.77.77,0,0,0-.28.59A.67.67,0,0,0,73,24a5.6,5.6,0,0,0,1.25.53,8.19,8.19,0,0,1,1.23.49,2,2,0,0,1,.69.63,1.61,1.61,0,0,1,.27.92,1.83,1.83,0,0,1-.7,1.44,2.88,2.88,0,0,1-2,.6,2.48,2.48,0,0,1-2.69-1.88l1.16-.28a1.49,1.49,0,0,0,1.59,1.24,1.47,1.47,0,0,0,1-.28.89.89,0,0,0,.32-.69.8.8,0,0,0-.22-.55,2.87,2.87,0,0,0-1.12-.55,10,10,0,0,1-1.35-.51,1.86,1.86,0,0,1-.71-.63,1.52,1.52,0,0,1-.29-.94,1.66,1.66,0,0,1,.65-1.34,2.57,2.57,0,0,1,1.73-.55A2.3,2.3,0,0,1,76.28,23.25Z"/><path class="cls-2" d="M77.74,22.21l1.08-.09V23.5h1.11v.83H78.82v2.18a6.05,6.05,0,0,0,0,.77.47.47,0,0,0,.21.31,1,1,0,0,0,.57.12l.48,0v.82a4.88,4.88,0,0,1-.89.09,1.94,1.94,0,0,1-1-.23,1,1,0,0,1-.45-.61,4.74,4.74,0,0,1-.1-1.16V24.33h-.75V23.5h.79Z"/><path class="cls-2" d="M80.73,23.5h1v1.11c.32-.81.81-1.21,1.45-1.21h.22v1.07l-.24,0c-.86,0-1.29.49-1.29,1.48v2.52H80.73Z"/><path class="cls-2" d="M85.19,24.91,84,24.78a1.49,1.49,0,0,1,.72-1,2.72,2.72,0,0,1,1.47-.37,2.45,2.45,0,0,1,1.24.27,1.2,1.2,0,0,1,.59.64,3.78,3.78,0,0,1,.12,1.11v1.69a6.34,6.34,0,0,0,.1,1.37H87.14a3.34,3.34,0,0,1-.07-.82,1.77,1.77,0,0,1-1.63.95,1.69,1.69,0,0,1-1.17-.39,1.32,1.32,0,0,1-.45-1.05,1.5,1.5,0,0,1,.65-1.28,4,4,0,0,1,2.26-.47H87v-.2a1.37,1.37,0,0,0-.19-.8.74.74,0,0,0-.66-.27A.86.86,0,0,0,85.19,24.91ZM87,26h-.35c-1,0-1.56.34-1.56,1a.68.68,0,0,0,.78.76,1,1,0,0,0,.79-.41A1.75,1.75,0,0,0,87,26.29Z"/><path class="cls-2" d="M89.73,22.21l1.08-.09V23.5h1.1v.83h-1.1v2.18a6.05,6.05,0,0,0,0,.77.44.44,0,0,0,.21.31,1,1,0,0,0,.57.12l.48,0v.82a4.88,4.88,0,0,1-.89.09,1.94,1.94,0,0,1-1-.23,1,1,0,0,1-.45-.61,4.74,4.74,0,0,1-.1-1.16V24.33h-.75V23.5h.78Z"/><path class="cls-2" d="M97,26.13H93.71A2,2,0,0,0,94,27.47a1,1,0,0,0,.8.34c.53,0,.87-.31,1-.92l1.09.12a2,2,0,0,1-2.14,1.58,2.24,2.24,0,0,1-1.68-.65,2.63,2.63,0,0,1-.62-1.88,2.84,2.84,0,0,1,.63-2,2.38,2.38,0,0,1,2.93-.35,1.85,1.85,0,0,1,.71.92A4.84,4.84,0,0,1,97,26.13Zm-1.23-.69c0-.87-.33-1.31-1-1.31s-1,.44-1,1.31Z"/><path class="cls-2" d="M102.48,22.71v.75l-.27,0a.59.59,0,0,0-.63.55A1.53,1.53,0,0,1,102,25a1.43,1.43,0,0,1-.55,1.14,2.18,2.18,0,0,1-1.47.46,3.23,3.23,0,0,1-.73-.09c-.29.1-.44.24-.44.43a.32.32,0,0,0,.24.33,6.54,6.54,0,0,0,1.23.12,8.06,8.06,0,0,1,1.29.13,1.29,1.29,0,0,1,.7.4,1.17,1.17,0,0,1,.26.8,1.25,1.25,0,0,1-.68,1.14,3.87,3.87,0,0,1-2,.39A3.48,3.48,0,0,1,98.15,30a1,1,0,0,1-.56-.9,1,1,0,0,1,.84-1,.91.91,0,0,1-.63-.81c0-.43.29-.77.86-1A1.36,1.36,0,0,1,97.91,25a1.43,1.43,0,0,1,.57-1.18,2.27,2.27,0,0,1,1.46-.45,2.7,2.7,0,0,1,1.1.22,1.13,1.13,0,0,1,.34-.72,1.22,1.22,0,0,1,.75-.2Zm-3.31,5.55a.68.68,0,0,0-.5.63.55.55,0,0,0,.32.52,2.51,2.51,0,0,0,1.07.17q1.38,0,1.38-.69a.45.45,0,0,0-.26-.45,2.73,2.73,0,0,0-1-.15ZM100.78,25c0-.65-.26-1-.78-1s-.86.32-.86,1,.28.95.83.95S100.78,25.67,100.78,25Z"/><path class="cls-2" d="M102.47,23.5h1.2l1,3.41,1-3.41h1.08l-1.88,5.28a5.64,5.64,0,0,1-.38.85,1.31,1.31,0,0,1-.49.44,1.75,1.75,0,0,1-.82.17,2.66,2.66,0,0,1-.61-.07v-.81l.42,0a.91.91,0,0,0,.66-.19,2.49,2.49,0,0,0,.42-.9Z"/><path class="cls-2" d="M114.09,22.71v.75l-.28,0a.59.59,0,0,0-.63.55,1.48,1.48,0,0,1,.44,1.06,1.45,1.45,0,0,1-.54,1.14,2.21,2.21,0,0,1-1.47.46,3.25,3.25,0,0,1-.74-.09c-.29.1-.43.24-.43.43a.31.31,0,0,0,.23.33,6.54,6.54,0,0,0,1.23.12,8.21,8.21,0,0,1,1.3.13,1.26,1.26,0,0,1,.69.4,1.17,1.17,0,0,1,.26.8,1.23,1.23,0,0,1-.68,1.14,3.83,3.83,0,0,1-1.94.39,3.52,3.52,0,0,1-1.78-.34,1,1,0,0,1-.56-.9,1,1,0,0,1,.84-1,.91.91,0,0,1-.63-.81c0-.43.29-.77.86-1a1.36,1.36,0,0,1-.75-1.27,1.43,1.43,0,0,1,.57-1.18,2.29,2.29,0,0,1,1.46-.45,2.7,2.7,0,0,1,1.1.22,1.14,1.14,0,0,1,.35-.72,1.19,1.19,0,0,1,.74-.2Zm-3.32,5.55a.67.67,0,0,0-.49.63.53.53,0,0,0,.32.52,2.46,2.46,0,0,0,1.06.17q1.38,0,1.38-.69a.45.45,0,0,0-.26-.45,2.69,2.69,0,0,0-1-.15ZM112.39,25c0-.65-.26-1-.79-1s-.85.32-.85,1,.27.95.82.95S112.39,25.67,112.39,25Z"/><path class="cls-2" d="M114.75,23.5h1.19v3.15a2,2,0,0,0,.13.89c.08.15.27.22.56.22a.76.76,0,0,0,.74-.4,3.47,3.47,0,0,0,.22-1.47V23.5h1.19v5h-1.1v-.74a1.55,1.55,0,0,1-1.47.87,1.75,1.75,0,0,1-.85-.19,1.05,1.05,0,0,1-.47-.53,3.39,3.39,0,0,1-.14-1.2Z"/><path class="cls-2" d="M121.43,22.83h-1.26V21.75h1.26Zm-1.23.67h1.19v5H120.2Z"/><path class="cls-2" d="M125.82,21.76H127v6.7h-1.1v-.75a1.48,1.48,0,0,1-1.44.84,1.65,1.65,0,0,1-1.46-.7,3.13,3.13,0,0,1-.49-1.84,3,3,0,0,1,.54-1.91,1.72,1.72,0,0,1,1.43-.68,1.43,1.43,0,0,1,1.33.65Zm0,3.78a1.41,1.41,0,0,0-.34-1.07,1.08,1.08,0,0,0-.7-.31c-.66,0-1,.59-1,1.75s.33,1.86,1,1.86a1,1,0,0,0,.71-.3,1.5,1.5,0,0,0,.32-1.08Z"/><path class="cls-2" d="M132.62,26.13h-3.27a2,2,0,0,0,.31,1.34,1,1,0,0,0,.8.34c.53,0,.87-.31,1-.92l1.1.12a2,2,0,0,1-2.15,1.58,2.21,2.21,0,0,1-1.67-.65,2.59,2.59,0,0,1-.63-1.88,2.84,2.84,0,0,1,.63-2,2.16,2.16,0,0,1,1.69-.7,2.19,2.19,0,0,1,1.25.35,1.91,1.91,0,0,1,.71.92A4.58,4.58,0,0,1,132.62,26.13Zm-1.22-.69c0-.87-.33-1.31-1-1.31s-1,.44-1,1.31Z"/><path class="cls-2" d="M133.62,21.76h1.19v6.7h-1.19Z"/><path class="cls-2" d="M137.45,22.83h-1.26V21.75h1.26Zm-1.23.67h1.19v5h-1.19Z"/><path class="cls-2" d="M138.82,23.5h1.11v.77a1.43,1.43,0,0,1,1.43-.89,1.69,1.69,0,0,1,.95.24,1,1,0,0,1,.45.58,3.91,3.91,0,0,1,.1,1.06v3.2h-1.2V25.32a2,2,0,0,0-.13-.88.6.6,0,0,0-.56-.23.88.88,0,0,0-.7.29,1.94,1.94,0,0,0-.25,1.18v2.78h-1.2Z"/><path class="cls-2" d="M148.44,26.13h-3.27a2,2,0,0,0,.31,1.34,1,1,0,0,0,.8.34c.53,0,.87-.31,1-.92l1.1.12a2,2,0,0,1-2.15,1.58,2.21,2.21,0,0,1-1.67-.65,2.59,2.59,0,0,1-.63-1.88,2.84,2.84,0,0,1,.63-2,2.16,2.16,0,0,1,1.69-.7,2.19,2.19,0,0,1,1.25.35,1.91,1.91,0,0,1,.71.92A4.58,4.58,0,0,1,148.44,26.13Zm-1.22-.69c0-.87-.33-1.31-1-1.31s-1,.44-1,1.31Z"/><path class="cls-2" d="M152.92,24.66l-.93.22a1,1,0,0,0-1-.75.77.77,0,0,0-.54.18.52.52,0,0,0-.2.43.49.49,0,0,0,.2.44,4.49,4.49,0,0,0,.95.34,3.58,3.58,0,0,1,1.31.59,1.1,1.1,0,0,1,.41.91,1.38,1.38,0,0,1-.58,1.11,2.44,2.44,0,0,1-1.55.46c-1.23,0-1.92-.49-2.09-1.45l1-.16a1,1,0,0,0,1.11.85,1,1,0,0,0,.69-.19.6.6,0,0,0,.22-.47.59.59,0,0,0-.15-.37,2,2,0,0,0-.87-.38,7.45,7.45,0,0,1-1-.35,1.44,1.44,0,0,1-.57-.47,1.14,1.14,0,0,1-.22-.69,1.34,1.34,0,0,1,.54-1.08,2.09,2.09,0,0,1,1.39-.45A1.77,1.77,0,0,1,152.92,24.66Z"/><path class="cls-2" d="M155.52,23.5h1.17l.87,3.41.83-3.41h1.05l.83,3.43.91-3.43h1l-1.44,5h-1L158.83,25,158,28.46h-1Z"/><path class="cls-2" d="M162.84,21.76H164v2.4a1.45,1.45,0,0,1,1.39-.78,1.68,1.68,0,0,1,.84.2,1,1,0,0,1,.48.52,3.8,3.8,0,0,1,.13,1.24v3.12h-1.19V25.34c0-.52-.07-.83-.21-.95a.76.76,0,0,0-.51-.18c-.62,0-.93.47-.93,1.42v2.83h-1.19Z"/><path class="cls-2" d="M172.46,26.13h-3.28a2,2,0,0,0,.32,1.34,1,1,0,0,0,.8.34c.53,0,.87-.31,1-.92l1.09.12a2,2,0,0,1-2.14,1.58,2.24,2.24,0,0,1-1.68-.65,2.63,2.63,0,0,1-.62-1.88,2.84,2.84,0,0,1,.63-2,2.38,2.38,0,0,1,2.93-.35,1.79,1.79,0,0,1,.71.92A4.84,4.84,0,0,1,172.46,26.13Zm-1.23-.69c0-.87-.33-1.31-1-1.31s-1,.44-1,1.31Z"/><path class="cls-2" d="M173.45,23.5h1.1v.77a1.46,1.46,0,0,1,1.44-.89,1.66,1.66,0,0,1,.94.24,1.05,1.05,0,0,1,.46.58,4.48,4.48,0,0,1,.09,1.06v3.2h-1.19V25.32a2,2,0,0,0-.13-.88.62.62,0,0,0-.57-.23.89.89,0,0,0-.7.29,2,2,0,0,0-.25,1.18v2.78h-1.19Z"/><path class="cls-2" d="M36.15,35.08H32.87a2,2,0,0,0,.32,1.34,1.06,1.06,0,0,0,.8.33c.53,0,.87-.3,1-.92l1.1.12A2,2,0,0,1,34,37.53a2.24,2.24,0,0,1-1.68-.64A2.64,2.64,0,0,1,31.65,35a2.87,2.87,0,0,1,.63-2A2.17,2.17,0,0,1,34,32.33a2.06,2.06,0,0,1,1.24.35,1.77,1.77,0,0,1,.71.91A4.61,4.61,0,0,1,36.15,35.08Zm-1.22-.69c0-.88-.34-1.32-1-1.32s-1,.44-1,1.32Z"/><path class="cls-2" d="M40.69,32.41h.65c0,.28,0,.66,0,1.15v5.53h-1.2V36.77a1.52,1.52,0,0,1-1.35.73,1.76,1.76,0,0,1-1.37-.63A2.75,2.75,0,0,1,36.85,35a2.93,2.93,0,0,1,.58-2,1.84,1.84,0,0,1,1.47-.65,1.52,1.52,0,0,1,1.42.82A4.27,4.27,0,0,0,40.69,32.41Zm-.57,2.08a1.55,1.55,0,0,0-.29-1,.89.89,0,0,0-.71-.36.84.84,0,0,0-.75.41,2.93,2.93,0,0,0-.24,1.38c0,1.21.33,1.82,1,1.82a.91.91,0,0,0,.71-.39,2,2,0,0,0,.3-1.2Z"/><path class="cls-2" d="M42.71,32.44H43.9V35.6a1.93,1.93,0,0,0,.13.88c.08.15.27.22.56.22a.77.77,0,0,0,.74-.39,3.37,3.37,0,0,0,.22-1.48V32.44h1.19v5h-1.1v-.75a1.55,1.55,0,0,1-1.47.87,1.65,1.65,0,0,1-.85-.19,1.06,1.06,0,0,1-.47-.53,3.33,3.33,0,0,1-.14-1.19Z"/><path class="cls-2" d="M49.39,31.78H48.13V30.69h1.26Zm-1.23.66h1.19v5H48.16Z"/><path class="cls-2" d="M50.76,32.44h1.11v.82a1.49,1.49,0,0,1,1.43-.9,1.73,1.73,0,0,1,1.41.66,2.86,2.86,0,0,1,.54,1.87,3.28,3.28,0,0,1-.49,1.84,1.67,1.67,0,0,1-1.52.77A1.53,1.53,0,0,1,52,36.89v2.2h-1.2ZM52,35.33a2.4,2.4,0,0,0,.08.74.94.94,0,0,0,.34.46.92.92,0,0,0,.58.19c.68,0,1-.61,1-1.84s-.33-1.77-1-1.77a.91.91,0,0,0-.73.36,1.65,1.65,0,0,0-.29,1Z"/><path class="cls-2" d="M56.37,32.44h1.1v.76a1.47,1.47,0,0,1,1.43-.87,1.18,1.18,0,0,1,1.32.92,1.46,1.46,0,0,1,1.47-.92,1.79,1.79,0,0,1,.88.19,1.07,1.07,0,0,1,.49.52,3.69,3.69,0,0,1,.14,1.23v3.14H62V34.35a2.11,2.11,0,0,0-.14-1,.59.59,0,0,0-.56-.25c-.61,0-.91.45-.91,1.35v2.91h-1.2v-3a3.44,3.44,0,0,0-.06-.83.52.52,0,0,0-.22-.3.77.77,0,0,0-.42-.11.78.78,0,0,0-.71.32,1.93,1.93,0,0,0-.22,1.06v2.88H56.37Z"/><path class="cls-2" d="M68.79,35.08H65.51a2,2,0,0,0,.32,1.34,1.06,1.06,0,0,0,.8.33c.53,0,.87-.3,1-.92l1.1.12a2,2,0,0,1-2.15,1.58,2.24,2.24,0,0,1-1.68-.64A2.64,2.64,0,0,1,64.29,35a2.87,2.87,0,0,1,.63-2,2.17,2.17,0,0,1,1.69-.69,2.08,2.08,0,0,1,1.24.35,1.77,1.77,0,0,1,.71.91A4.61,4.61,0,0,1,68.79,35.08Zm-1.23-.69q0-1.32-1-1.32c-.63,0-1,.44-1,1.32Z"/><path class="cls-2" d="M69.78,32.44h1.1v.77a1.45,1.45,0,0,1,1.44-.88,1.64,1.64,0,0,1,.94.24,1,1,0,0,1,.46.58,4.42,4.42,0,0,1,.09,1.06v3.2H72.62V34.27a1.93,1.93,0,0,0-.13-.88.6.6,0,0,0-.57-.24.87.87,0,0,0-.7.3A2,2,0,0,0,71,34.63v2.78H69.78Z"/><path class="cls-2" d="M75.4,31.15l1.08-.09v1.38h1.1v.83h-1.1v2.19a6.28,6.28,0,0,0,0,.77.46.46,0,0,0,.21.31,1,1,0,0,0,.57.12,4.64,4.64,0,0,0,.48,0v.82a4.88,4.88,0,0,1-.89.09,2,2,0,0,1-1-.22,1,1,0,0,1-.45-.61,4.89,4.89,0,0,1-.1-1.17V33.27h-.75v-.83h.79Z"/><path class="cls-2" d="M84.07,33.6l-.94.22a1,1,0,0,0-1-.75.76.76,0,0,0-.53.18.55.55,0,0,0-.21.44.48.48,0,0,0,.21.43,3.8,3.8,0,0,0,.95.34,4,4,0,0,1,1.31.59,1.1,1.1,0,0,1,.4.91,1.4,1.4,0,0,1-.57,1.12,2.46,2.46,0,0,1-1.55.45c-1.23,0-1.93-.48-2.09-1.44l1-.17a1,1,0,0,0,1.1.86,1,1,0,0,0,.69-.2.59.59,0,0,0,.23-.46.61.61,0,0,0-.15-.38,2.1,2.1,0,0,0-.87-.38,6,6,0,0,1-1-.35,1.42,1.42,0,0,1-.57-.46,1.17,1.17,0,0,1-.23-.7,1.36,1.36,0,0,1,.54-1.08,2.17,2.17,0,0,1,1.4-.44A1.76,1.76,0,0,1,84.07,33.6Z"/><path class="cls-2" d="M85.19,30.7h1.19v2.4a1.44,1.44,0,0,1,1.39-.77,1.68,1.68,0,0,1,.84.19,1.07,1.07,0,0,1,.48.53,3.73,3.73,0,0,1,.13,1.23v3.13H88V34.29q0-.78-.21-1a.76.76,0,0,0-.51-.18c-.62,0-.93.48-.93,1.42v2.84H85.19Z"/><path class="cls-2" d="M94.87,34.88c0,1.77-.77,2.65-2.3,2.65a2.16,2.16,0,0,1-1.66-.64,2.79,2.79,0,0,1-.6-2c0-1.74.76-2.6,2.29-2.6a2.21,2.21,0,0,1,1.66.63A2.7,2.7,0,0,1,94.87,34.88Zm-1.28,0a2.71,2.71,0,0,0-.27-1.44.84.84,0,0,0-.73-.39c-.67,0-1,.61-1,1.83a3.21,3.21,0,0,0,.23,1.38.83.83,0,0,0,.78.44.81.81,0,0,0,.77-.45A3.19,3.19,0,0,0,93.59,34.93Z"/><path class="cls-2" d="M96,32.44h1v1.12c.32-.81.8-1.22,1.45-1.22l.22,0v1.06h-.24q-1.29,0-1.29,1.47v2.53H96Z"/><path class="cls-2" d="M99.89,31.15l1.08-.09v1.38h1.11v.83H101v2.19a5.67,5.67,0,0,0,0,.77.46.46,0,0,0,.21.31,1,1,0,0,0,.57.12,4.64,4.64,0,0,0,.48,0v.82a4.88,4.88,0,0,1-.89.09,2,2,0,0,1-1-.22,1,1,0,0,1-.46-.61,5.62,5.62,0,0,1-.09-1.17V33.27h-.75v-.83h.78Z"/><path class="cls-2" d="M104.18,33.85,103,33.73a1.47,1.47,0,0,1,.72-1,2.7,2.7,0,0,1,1.47-.37,2.6,2.6,0,0,1,1.24.26,1.23,1.23,0,0,1,.59.64,3.9,3.9,0,0,1,.12,1.12V36a5.79,5.79,0,0,0,.1,1.37h-1.13a3.43,3.43,0,0,1-.07-.83,1.78,1.78,0,0,1-1.63,1,1.73,1.73,0,0,1-1.18-.39,1.31,1.31,0,0,1-.44-1,1.53,1.53,0,0,1,.65-1.29,4,4,0,0,1,2.25-.47H106v-.2a1.47,1.47,0,0,0-.19-.81.76.76,0,0,0-.67-.27A.86.86,0,0,0,104.18,33.85ZM106,35l-.35,0q-1.56,0-1.56,1.05a.68.68,0,0,0,.77.76,1,1,0,0,0,.8-.41,1.8,1.8,0,0,0,.34-1.14Z"/><path class="cls-2" d="M113,31.65v.76l-.28,0a.57.57,0,0,0-.62.54,1.54,1.54,0,0,1,.43,1.07,1.43,1.43,0,0,1-.54,1.13,2.21,2.21,0,0,1-1.47.46,3.28,3.28,0,0,1-.74-.08c-.29.09-.43.24-.43.43a.31.31,0,0,0,.23.32,6.78,6.78,0,0,0,1.23.12,8,8,0,0,1,1.3.14,1.26,1.26,0,0,1,.7.4,1.17,1.17,0,0,1,.26.79,1.24,1.24,0,0,1-.69,1.15,3.94,3.94,0,0,1-1.94.39,3.54,3.54,0,0,1-1.78-.34,1,1,0,0,1-.56-.91c0-.48.28-.8.85-1a.91.91,0,0,1-.63-.81c0-.43.28-.76.85-1a1.39,1.39,0,0,1-.75-1.28,1.42,1.42,0,0,1,.57-1.17,2.3,2.3,0,0,1,1.47-.45,2.82,2.82,0,0,1,1.09.21,1.11,1.11,0,0,1,.35-.71,1.21,1.21,0,0,1,.74-.2ZM109.7,37.2a.67.67,0,0,0-.5.63.56.56,0,0,0,.32.53,2.51,2.51,0,0,0,1.07.16c.91,0,1.37-.23,1.37-.68a.45.45,0,0,0-.26-.46,3,3,0,0,0-1-.14ZM111.31,34c0-.65-.26-1-.79-1s-.85.33-.85,1,.27,1,.82,1S111.31,34.61,111.31,34Z"/><path class="cls-2" d="M117.92,35.08h-3.28a2,2,0,0,0,.32,1.34,1.06,1.06,0,0,0,.8.33c.53,0,.87-.3,1-.92l1.1.12a2,2,0,0,1-2.15,1.58,2.2,2.2,0,0,1-1.67-.64,2.6,2.6,0,0,1-.63-1.89,2.87,2.87,0,0,1,.63-2,2.17,2.17,0,0,1,1.69-.69,2.06,2.06,0,0,1,1.24.35,1.84,1.84,0,0,1,.72.91A4.94,4.94,0,0,1,117.92,35.08Zm-1.22-.69c0-.88-.34-1.32-1-1.32s-1,.44-1,1.32Z"/><path class="cls-2" d="M122.4,33.6l-.93.22a1,1,0,0,0-1-.75.76.76,0,0,0-.53.18.55.55,0,0,0-.21.44.48.48,0,0,0,.21.43,3.8,3.8,0,0,0,1,.34,3.85,3.85,0,0,1,1.31.59,1.1,1.1,0,0,1,.4.91,1.4,1.4,0,0,1-.57,1.12,2.44,2.44,0,0,1-1.55.45c-1.23,0-1.92-.48-2.09-1.44l1-.17a1,1,0,0,0,1.1.86,1.08,1.08,0,0,0,.7-.2.58.58,0,0,0,.22-.46.61.61,0,0,0-.15-.38,2,2,0,0,0-.87-.38,6.31,6.31,0,0,1-1-.35,1.42,1.42,0,0,1-.57-.46,1.16,1.16,0,0,1-.22-.7,1.36,1.36,0,0,1,.54-1.08,2.14,2.14,0,0,1,1.39-.44A1.76,1.76,0,0,1,122.4,33.6Z"/><path class="cls-2" d="M126.79,33.85l-1.15-.12a1.43,1.43,0,0,1,.71-1,2.72,2.72,0,0,1,1.47-.37,2.61,2.61,0,0,1,1.25.26,1.21,1.21,0,0,1,.58.64,3.9,3.9,0,0,1,.12,1.12V36a5.63,5.63,0,0,0,.11,1.37h-1.13a3.33,3.33,0,0,1-.08-.83,1.76,1.76,0,0,1-1.62,1,1.73,1.73,0,0,1-1.18-.39,1.28,1.28,0,0,1-.44-1,1.51,1.51,0,0,1,.65-1.29,4,4,0,0,1,2.25-.47h.25v-.2a1.38,1.38,0,0,0-.19-.81.74.74,0,0,0-.66-.27A.87.87,0,0,0,126.79,33.85ZM128.58,35l-.35,0c-1,0-1.55.35-1.55,1.05a.68.68,0,0,0,.77.76,1,1,0,0,0,.79-.41,1.74,1.74,0,0,0,.34-1.14Z"/><path class="cls-2" d="M131.12,32.44h1v1.12c.32-.81.8-1.22,1.45-1.22l.22,0v1.06h-.24q-1.29,0-1.29,1.47v2.53h-1.19Z"/><path class="cls-2" d="M138.53,35.08h-3.27a2,2,0,0,0,.31,1.34,1.06,1.06,0,0,0,.8.33c.53,0,.87-.3,1-.92l1.1.12a2,2,0,0,1-2.15,1.58,2.2,2.2,0,0,1-1.67-.64A2.6,2.6,0,0,1,134,35a2.87,2.87,0,0,1,.63-2,2.19,2.19,0,0,1,1.69-.69,2.12,2.12,0,0,1,1.25.35,1.88,1.88,0,0,1,.71.91A4.64,4.64,0,0,1,138.53,35.08Zm-1.22-.69c0-.88-.33-1.32-1-1.32s-1,.44-1,1.32Z"/><path class="cls-2" d="M141.72,32.44h1.1v.82a1.5,1.5,0,0,1,1.43-.9,1.72,1.72,0,0,1,1.41.66,2.86,2.86,0,0,1,.54,1.87,3.28,3.28,0,0,1-.49,1.84,1.66,1.66,0,0,1-1.51.77,1.55,1.55,0,0,1-1.29-.61v2.2h-1.19Zm1.19,2.89a2.76,2.76,0,0,0,.08.74,1,1,0,0,0,.92.65c.68,0,1-.61,1-1.84s-.33-1.77-1-1.77a.92.92,0,0,0-.74.36,1.65,1.65,0,0,0-.29,1Z"/><path class="cls-2" d="M147.32,32.44h1.05v1.12c.32-.81.81-1.22,1.45-1.22l.22,0v1.06h-.24c-.86,0-1.28.49-1.28,1.47v2.53h-1.2Z"/><path class="cls-2" d="M154.74,35.08h-3.28a2,2,0,0,0,.32,1.34,1.06,1.06,0,0,0,.8.33c.53,0,.87-.3,1-.92l1.09.12a2,2,0,0,1-2.14,1.58,2.24,2.24,0,0,1-1.68-.64,2.64,2.64,0,0,1-.62-1.89,2.87,2.87,0,0,1,.63-2,2.17,2.17,0,0,1,1.69-.69,2.08,2.08,0,0,1,1.24.35,1.77,1.77,0,0,1,.71.91A4.91,4.91,0,0,1,154.74,35.08Zm-1.23-.69q0-1.32-1-1.32c-.63,0-1,.44-1,1.32Z"/><path class="cls-2" d="M159.22,33.6l-.94.22a1,1,0,0,0-1-.75.8.8,0,0,0-.54.18.57.57,0,0,0-.2.44.48.48,0,0,0,.21.43,3.67,3.67,0,0,0,.94.34,3.92,3.92,0,0,1,1.32.59,1.1,1.1,0,0,1,.4.91,1.4,1.4,0,0,1-.57,1.12,2.46,2.46,0,0,1-1.55.45c-1.23,0-1.93-.48-2.09-1.44l1-.17a1,1,0,0,0,1.11.86,1,1,0,0,0,.69-.2.59.59,0,0,0,.23-.46.57.57,0,0,0-.16-.38,2,2,0,0,0-.86-.38,6,6,0,0,1-1-.35,1.42,1.42,0,0,1-.57-.46,1.17,1.17,0,0,1-.23-.7,1.36,1.36,0,0,1,.54-1.08,2.17,2.17,0,0,1,1.4-.44A1.77,1.77,0,0,1,159.22,33.6Z"/><path class="cls-2" d="M164.55,35.08h-3.28a2,2,0,0,0,.32,1.34,1.06,1.06,0,0,0,.8.33c.53,0,.87-.3,1-.92l1.1.12a2,2,0,0,1-2.15,1.58,2.2,2.2,0,0,1-1.67-.64,2.6,2.6,0,0,1-.63-1.89,2.87,2.87,0,0,1,.63-2,2.17,2.17,0,0,1,1.69-.69,2.06,2.06,0,0,1,1.24.35,1.84,1.84,0,0,1,.72.91A4.94,4.94,0,0,1,164.55,35.08Zm-1.22-.69c0-.88-.34-1.32-1-1.32s-1,.44-1,1.32Z"/><path class="cls-2" d="M165.54,32.44h1.1v.77a1.45,1.45,0,0,1,1.44-.88,1.69,1.69,0,0,1,.95.24,1,1,0,0,1,.45.58,4.31,4.31,0,0,1,.1,1.06v3.2h-1.2V34.27a1.93,1.93,0,0,0-.13-.88.6.6,0,0,0-.57-.24.88.88,0,0,0-.7.3,2,2,0,0,0-.25,1.18v2.78h-1.19Z"/><path class="cls-2" d="M171.16,31.15l1.08-.09v1.38h1.11v.83h-1.11v2.19a6.28,6.28,0,0,0,0,.77.5.5,0,0,0,.21.31,1,1,0,0,0,.57.12,4.81,4.81,0,0,0,.49,0v.82a5,5,0,0,1-.9.09,2,2,0,0,1-1-.22,1,1,0,0,1-.45-.61,5.48,5.48,0,0,1-.1-1.17V33.27h-.75v-.83h.79Z"/><path class="cls-2" d="M174.19,36.14h1.31v1.27h-1.31Z"/><path class="cls-2" d="M32,39.64h2.36a3,3,0,0,1,1.89.5,1.76,1.76,0,0,1,.61,1.43,1.79,1.79,0,0,1-1.2,1.75l1.48,3h-1.4l-1.22-2.8H33.28v2.8H32Zm1.3.86v2.19h1a1.33,1.33,0,0,0,1-.31,1.12,1.12,0,0,0,.31-.82c0-.71-.42-1.06-1.28-1.06Z"/><path class="cls-2" d="M42.21,44H38.93a2,2,0,0,0,.32,1.34,1.07,1.07,0,0,0,.8.34c.53,0,.87-.31,1-.93l1.1.13A2,2,0,0,1,40,46.47a2.24,2.24,0,0,1-1.68-.64,2.64,2.64,0,0,1-.62-1.89,2.83,2.83,0,0,1,.63-2,2.38,2.38,0,0,1,2.93-.35,1.79,1.79,0,0,1,.71.92A4.5,4.5,0,0,1,42.21,44ZM41,43.33c0-.88-.33-1.31-1-1.31s-1,.43-1,1.31Z"/><path class="cls-2" d="M42.47,41.39h1.17L44.73,45l1.06-3.56h1l-1.64,5H44.13Z"/><path class="cls-2" d="M48.67,40.72H47.41V39.63h1.26Zm-1.23.67h1.19v5H47.44Z"/><path class="cls-2" d="M54.26,44H51a2,2,0,0,0,.32,1.34,1.07,1.07,0,0,0,.8.34c.53,0,.87-.31,1-.93l1.1.13a2,2,0,0,1-2.15,1.57,2.2,2.2,0,0,1-1.67-.64,2.6,2.6,0,0,1-.63-1.89,2.83,2.83,0,0,1,.63-2,2.38,2.38,0,0,1,2.93-.35,1.79,1.79,0,0,1,.71.92A4.5,4.5,0,0,1,54.26,44ZM53,43.33c0-.88-.34-1.31-1-1.31s-1,.43-1,1.31Z"/><path class="cls-2" d="M54.53,41.39h1.18l.86,3.41.84-3.41h1.05l.82,3.43.92-3.43h1l-1.43,5h-1l-.88-3.44L57,46.35H56Z"/><path class="cls-2" d="M68.55,40.6v.75l-.27,0a.59.59,0,0,0-.63.55,1.53,1.53,0,0,1,.44,1.06,1.43,1.43,0,0,1-.55,1.14,2.23,2.23,0,0,1-1.47.46,3.23,3.23,0,0,1-.73-.09c-.29.09-.44.24-.44.43a.32.32,0,0,0,.24.33,6.94,6.94,0,0,0,1.23.11,9.12,9.12,0,0,1,1.29.14,1.29,1.29,0,0,1,.7.4,1.2,1.2,0,0,1,.26.8,1.25,1.25,0,0,1-.68,1.14,4,4,0,0,1-2,.39,3.48,3.48,0,0,1-1.77-.34,1,1,0,0,1-.56-.9,1,1,0,0,1,.84-1,.91.91,0,0,1-.63-.81c0-.44.28-.77.85-1A1.38,1.38,0,0,1,64,42.9a1.43,1.43,0,0,1,.57-1.18A2.27,2.27,0,0,1,66,41.27a2.7,2.7,0,0,1,1.1.22,1.11,1.11,0,0,1,.34-.72,1.22,1.22,0,0,1,.75-.2Zm-3.31,5.54a.71.71,0,0,0-.5.64.56.56,0,0,0,.32.52,2.51,2.51,0,0,0,1.07.17q1.38,0,1.38-.69a.48.48,0,0,0-.26-.46,3,3,0,0,0-1-.14Zm1.61-3.22c0-.65-.26-1-.78-1s-.86.33-.86,1,.28,1,.83,1S66.85,43.56,66.85,42.92Z"/><path class="cls-2" d="M69.21,41.39h1.2v3.15a2.09,2.09,0,0,0,.12.88.6.6,0,0,0,.56.23.77.77,0,0,0,.75-.4,3.54,3.54,0,0,0,.21-1.47V41.39h1.2v5H72.14V45.6a1.54,1.54,0,0,1-1.47.87,1.74,1.74,0,0,1-.84-.18,1.12,1.12,0,0,1-.48-.53,3.65,3.65,0,0,1-.14-1.2Z"/><path class="cls-2" d="M75.89,40.72H74.64V39.63h1.25Zm-1.23.67h1.2v5h-1.2Z"/><path class="cls-2" d="M80.28,39.64h1.19v6.71h-1.1V45.6a1.46,1.46,0,0,1-1.43.84,1.68,1.68,0,0,1-1.47-.7A3.16,3.16,0,0,1,77,43.89a3,3,0,0,1,.54-1.9A1.74,1.74,0,0,1,79,41.3a1.39,1.39,0,0,1,1.32.66Zm0,3.79a1.37,1.37,0,0,0-.34-1.07,1,1,0,0,0-.69-.31c-.66,0-1,.58-1,1.75s.33,1.86,1,1.86a1,1,0,0,0,.71-.31,1.46,1.46,0,0,0,.31-1.07Z"/><path class="cls-2" d="M87.09,44H83.81a2,2,0,0,0,.32,1.34,1.07,1.07,0,0,0,.8.34c.53,0,.87-.31,1-.93l1.1.13a2,2,0,0,1-2.15,1.57,2.24,2.24,0,0,1-1.68-.64,2.64,2.64,0,0,1-.62-1.89,2.83,2.83,0,0,1,.63-2,2.38,2.38,0,0,1,2.93-.35,1.85,1.85,0,0,1,.71.92A4.5,4.5,0,0,1,87.09,44Zm-1.23-.69c0-.88-.33-1.31-1-1.31s-1,.43-1,1.31Z"/><path class="cls-2" d="M88.09,39.64h1.19v6.71H88.09Z"/><path class="cls-2" d="M91.91,40.72H90.66V39.63h1.25Zm-1.23.67h1.2v5h-1.2Z"/><path class="cls-2" d="M93.29,41.39h1.1v.76a1.46,1.46,0,0,1,1.44-.88,1.64,1.64,0,0,1,.94.24,1,1,0,0,1,.46.58,4.48,4.48,0,0,1,.09,1.06v3.2H96.13V43.21a2,2,0,0,0-.13-.88c-.09-.16-.28-.23-.57-.23a.86.86,0,0,0-.7.29,2,2,0,0,0-.25,1.18v2.78H93.29Z"/><path class="cls-2" d="M102.91,44H99.63a2,2,0,0,0,.32,1.34,1.07,1.07,0,0,0,.8.34c.53,0,.87-.31,1-.93l1.1.13a2,2,0,0,1-2.15,1.57A2.24,2.24,0,0,1,99,45.83a2.64,2.64,0,0,1-.62-1.89A2.83,2.83,0,0,1,99,42a2.38,2.38,0,0,1,2.93-.35,1.79,1.79,0,0,1,.71.92A4.5,4.5,0,0,1,102.91,44Zm-1.23-.69c0-.88-.33-1.31-1-1.31s-1,.43-1,1.31Z"/><path class="cls-2" d="M107.39,42.55l-.94.21a1,1,0,0,0-1-.74.8.8,0,0,0-.53.17.56.56,0,0,0-.21.44.47.47,0,0,0,.21.43,3.68,3.68,0,0,0,1,.35,3.75,3.75,0,0,1,1.31.59,1.09,1.09,0,0,1,.4.91A1.38,1.38,0,0,1,107,46a2.46,2.46,0,0,1-1.55.45c-1.23,0-1.93-.48-2.09-1.44l1-.16a1,1,0,0,0,1.1.85,1,1,0,0,0,.69-.19.59.59,0,0,0,.23-.47.57.57,0,0,0-.15-.37,2,2,0,0,0-.87-.38,7,7,0,0,1-1-.35,1.53,1.53,0,0,1-.57-.47,1.16,1.16,0,0,1-.22-.7,1.35,1.35,0,0,1,.53-1.08,2.17,2.17,0,0,1,1.4-.44A1.77,1.77,0,0,1,107.39,42.55Z"/><path class="cls-2" d="M111.78,42.79l-1.15-.12a1.43,1.43,0,0,1,.71-1,2.72,2.72,0,0,1,1.47-.37,2.52,2.52,0,0,1,1.25.27,1.19,1.19,0,0,1,.58.63,3.9,3.9,0,0,1,.12,1.12V45a5.63,5.63,0,0,0,.11,1.37h-1.13a3.24,3.24,0,0,1-.08-.82,1.92,1.92,0,0,1-2.8.56,1.32,1.32,0,0,1-.45-1.05,1.5,1.5,0,0,1,.65-1.28,4,4,0,0,1,2.26-.47h.25v-.2a1.35,1.35,0,0,0-.19-.8.74.74,0,0,0-.66-.27A.86.86,0,0,0,111.78,42.79Zm1.79,1.14-.35,0q-1.56,0-1.56,1.05a.68.68,0,0,0,.78.76,1,1,0,0,0,.79-.41,1.72,1.72,0,0,0,.34-1.14Z"/><path class="cls-2" d="M116.32,40.1,117.4,40v1.38h1.1v.82h-1.1V44.4a6.16,6.16,0,0,0,0,.77.44.44,0,0,0,.21.31,1,1,0,0,0,.57.12,2.9,2.9,0,0,0,.48,0v.82a4.88,4.88,0,0,1-.89.09,2,2,0,0,1-1-.22,1,1,0,0,1-.45-.61,4.78,4.78,0,0,1-.1-1.17V42.21h-.75v-.82h.79Z"/><path class="cls-2" d="M119.46,41.39h1.31v1.27h-1.31Zm0,3.69h1.31v1.27h-1.31Z"/><path class="cls-2" d="M35.77,52.86a5.9,5.9,0,0,1-.12.89l-.52,2.61h-1l.52-2.68a4.1,4.1,0,0,0,.08-.59c0-.41-.17-.61-.51-.61a.91.91,0,0,0-.57.23,2.13,2.13,0,0,0-.54.61,2.24,2.24,0,0,0-.31.78l-.45,2.26h-1l1.36-6.86h1l-.64,3.22h0a3.05,3.05,0,0,1,.77-.82,1.53,1.53,0,0,1,.85-.29,1,1,0,0,1,.81.33A1.42,1.42,0,0,1,35.77,52.86Z"/><path class="cls-2" d="M39.22,52.57h-1l-.41,2.09a3.74,3.74,0,0,0-.08.53.41.41,0,0,0,.09.3.4.4,0,0,0,.29.09,1.73,1.73,0,0,0,.59-.16l-.17.86a2.28,2.28,0,0,1-.83.17c-.66,0-1-.35-1-1a3.31,3.31,0,0,1,.08-.69l.42-2.15h-.69l.19-.84h.67l.22-1.11,1.06-.3-.27,1.41h1Z"/><path class="cls-2" d="M42.22,52.57h-1l-.41,2.09a3.74,3.74,0,0,0-.08.53.41.41,0,0,0,.09.3.4.4,0,0,0,.29.09,1.73,1.73,0,0,0,.59-.16l-.17.86a2.28,2.28,0,0,1-.83.17c-.66,0-1-.35-1-1a3.31,3.31,0,0,1,.08-.69l.42-2.15h-.69l.19-.84h.67l.22-1.11,1.06-.3-.27,1.41h1Z"/><path class="cls-2" d="M46.73,53.34a3.83,3.83,0,0,1-.34,1.58,2.72,2.72,0,0,1-1,1.15,2.32,2.32,0,0,1-1.34.4,2.45,2.45,0,0,1-.81-.13l-.42,2.16h-1l1-5.29c0-.16.07-.4.1-.71s.06-.58.07-.77h1c0,.07,0,.21,0,.41s0,.36-.06.47h0a1.69,1.69,0,0,1,1.46-1,1.1,1.1,0,0,1,.94.47A2,2,0,0,1,46.73,53.34Zm-1,.1a1.2,1.2,0,0,0-.17-.72.56.56,0,0,0-.49-.24.85.85,0,0,0-.57.23,2,2,0,0,0-.49.69,3.91,3.91,0,0,0-.31.93l-.24,1.2.3.08a2,2,0,0,0,.39,0,1.23,1.23,0,0,0,.81-.3,2.08,2.08,0,0,0,.57-.82A3.1,3.1,0,0,0,45.71,53.44Z"/><path class="cls-2" d="M48.34,55.83a.63.63,0,0,1-.19.46.6.6,0,0,1-.44.18.59.59,0,0,1-.44-.18.58.58,0,0,1-.17-.43.61.61,0,0,1,.18-.45.59.59,0,0,1,.46-.19.54.54,0,0,1,.42.18A.58.58,0,0,1,48.34,55.83ZM49,52.26a.61.61,0,0,1-.18.45.62.62,0,0,1-.46.18.6.6,0,0,1-.43-.17.61.61,0,0,1-.17-.43.6.6,0,0,1,.19-.46.64.64,0,0,1,.88,0A.62.62,0,0,1,49,52.26Z"/><path class="cls-2" d="M49.32,57.43h-1l4.39-7.56h1Z"/><path class="cls-2" d="M52.93,57.43h-1l4.39-7.56h1Z"/><path class="cls-2" d="M61,56.36H60l-.17-2.91v-.31a1.89,1.89,0,0,1,0-.32h0a2.77,2.77,0,0,1-.18.53l-1.41,3h-1l-.33-4.63h1l.1,3.23V55a3,3,0,0,1,0,.42h0l.13-.39,1.53-3.32h1l.15,3.43c0,.06,0,.16,0,.29h0a4,4,0,0,1,.2-.56l1.29-3.16h1Z"/><path class="cls-2" d="M67.51,56.36h-1l-.17-2.91v-.31a2,2,0,0,1,0-.32h0a2.86,2.86,0,0,1-.19.53l-1.4,3h-1l-.33-4.63h1L64.42,55V55a3,3,0,0,1,0,.42h0c.07-.21.12-.34.13-.39l1.54-3.32H67l.16,3.43a2.16,2.16,0,0,1,0,.29h0a3.31,3.31,0,0,1,.21-.56l1.29-3.16h1Z"/><path class="cls-2" d="M74,56.36H73l-.16-2.91v-.31c0-.09,0-.2,0-.32h0a2.86,2.86,0,0,1-.19.53l-1.4,3h-1l-.34-4.63h1l.1,3.23V55a3,3,0,0,1,0,.42h0l.13-.39,1.54-3.32h.94l.15,3.43a1.8,1.8,0,0,1,0,.29h0a4,4,0,0,1,.2-.56l1.3-3.16h1Z"/><path class="cls-2" d="M76.74,55.83a.62.62,0,0,1-.18.46.63.63,0,0,1-.45.18.57.57,0,0,1-.43-.18.55.55,0,0,1-.18-.43.61.61,0,0,1,.18-.45.62.62,0,0,1,.46-.19.58.58,0,0,1,.43.18A.61.61,0,0,1,76.74,55.83Z"/><path class="cls-2" d="M81.22,52.82a1.17,1.17,0,0,0-.39-.24,1.32,1.32,0,0,0-.53-.1,1.15,1.15,0,0,0-.72.25,1.81,1.81,0,0,0-.54.73,2.46,2.46,0,0,0-.21,1,1.34,1.34,0,0,0,.23.86.82.82,0,0,0,.66.29,1.49,1.49,0,0,0,.56-.12,2.33,2.33,0,0,0,.52-.27l-.18.92a2.43,2.43,0,0,1-1.18.33,1.52,1.52,0,0,1-1.2-.5,2.13,2.13,0,0,1-.43-1.4,3.39,3.39,0,0,1,.33-1.49A2.57,2.57,0,0,1,79,52a2.29,2.29,0,0,1,1.31-.39,2.49,2.49,0,0,1,.61.08,1.61,1.61,0,0,1,.47.2Z"/><path class="cls-2" d="M85.3,56.36h-1c0-.14,0-.43.08-.87h0a2.44,2.44,0,0,1-.63.75,1.24,1.24,0,0,1-.73.23A1.12,1.12,0,0,1,82,56a2.09,2.09,0,0,1-.34-1.29A3.55,3.55,0,0,1,82,53.14,2.61,2.61,0,0,1,83,52a2.53,2.53,0,0,1,1.38-.4,2.71,2.71,0,0,1,.71.09l.44-2.2h1l-1,5.38c0,.16-.06.39-.1.71S85.3,56.17,85.3,56.36Zm-.39-3.85a2.24,2.24,0,0,0-.57-.08,1.36,1.36,0,0,0-.84.27,1.85,1.85,0,0,0-.59.82,2.92,2.92,0,0,0-.22,1.13,1.3,1.3,0,0,0,.16.72.55.55,0,0,0,.48.24,1,1,0,0,0,.8-.51,3.81,3.81,0,0,0,.54-1.39Z"/><path class="cls-2" d="M90,52.82a1.17,1.17,0,0,0-.39-.24,1.32,1.32,0,0,0-.53-.1,1.13,1.13,0,0,0-.72.25,1.81,1.81,0,0,0-.54.73,2.46,2.46,0,0,0-.21,1,1.34,1.34,0,0,0,.23.86.81.81,0,0,0,.66.29,1.49,1.49,0,0,0,.56-.12,2.33,2.33,0,0,0,.52-.27l-.18.92a2.43,2.43,0,0,1-1.18.33A1.52,1.52,0,0,1,87,56a2.13,2.13,0,0,1-.43-1.4,3.53,3.53,0,0,1,.32-1.49,2.67,2.67,0,0,1,.9-1.08,2.29,2.29,0,0,1,1.31-.39,2.55,2.55,0,0,1,.61.08,1.61,1.61,0,0,1,.47.2Z"/><path class="cls-2" d="M91.42,55.83a.62.62,0,0,1-.18.46.61.61,0,0,1-.45.18.57.57,0,0,1-.43-.18.55.55,0,0,1-.18-.43.61.61,0,0,1,.18-.45.62.62,0,0,1,.46-.19.58.58,0,0,1,.43.18A.61.61,0,0,1,91.42,55.83Z"/><path class="cls-2" d="M93.39,58.53a2.77,2.77,0,0,1-1.33-.34l.18-.92a2.12,2.12,0,0,0,1.23.42,1.39,1.39,0,0,0,1-.39A2.39,2.39,0,0,0,95,56.07l.11-.57h0a2.25,2.25,0,0,1-.64.75,1.19,1.19,0,0,1-.71.22,1.14,1.14,0,0,1-1-.45,2.13,2.13,0,0,1-.35-1.29,3.7,3.7,0,0,1,.35-1.59,2.82,2.82,0,0,1,1-1.13,2.53,2.53,0,0,1,1.38-.4,8.66,8.66,0,0,1,1.7.21l-.8,4.09a4.76,4.76,0,0,1-.52,1.53,2.21,2.21,0,0,1-.87.82A2.81,2.81,0,0,1,93.39,58.53Zm2.35-6a2.84,2.84,0,0,0-.64-.07,1.23,1.23,0,0,0-.8.3,2,2,0,0,0-.58.81,2.89,2.89,0,0,0-.21,1.11,1.26,1.26,0,0,0,.17.71.51.51,0,0,0,.46.25.92.92,0,0,0,.56-.22,2.07,2.07,0,0,0,.48-.67,4.14,4.14,0,0,0,.31-1Z"/><path class="cls-2" d="M101.56,53.5a3.69,3.69,0,0,1-.32,1.54,2.41,2.41,0,0,1-.86,1.06,2.2,2.2,0,0,1-1.27.37,1.68,1.68,0,0,1-1.28-.5,2,2,0,0,1-.46-1.39,3.64,3.64,0,0,1,.31-1.53A2.54,2.54,0,0,1,98.54,52a2.22,2.22,0,0,1,1.28-.38,1.66,1.66,0,0,1,1.27.51A2,2,0,0,1,101.56,53.5Zm-1,0a1.28,1.28,0,0,0-.21-.77.65.65,0,0,0-.57-.28,1,1,0,0,0-.69.28,1.77,1.77,0,0,0-.49.77,2.9,2.9,0,0,0-.18,1,1.26,1.26,0,0,0,.21.77.7.7,0,0,0,.58.28,1,1,0,0,0,.7-.29,1.72,1.72,0,0,0,.48-.76A3.18,3.18,0,0,0,100.53,53.53Z"/><path class="cls-2" d="M103.86,56.36h-1l-.63-4.63h1l.28,2.74a6.68,6.68,0,0,1,0,.76v.13h0c.12-.31.25-.61.38-.89l1.35-2.74h1.12Z"/><path class="cls-2" d="M106.2,57.43h-1l4.39-7.56h1Z"/><path class="cls-2" d="M113.31,52.82a1.22,1.22,0,0,0-.4-.24,1.27,1.27,0,0,0-.52-.1,1.15,1.15,0,0,0-.73.25,1.81,1.81,0,0,0-.54.73,2.46,2.46,0,0,0-.21,1,1.4,1.4,0,0,0,.23.86.83.83,0,0,0,.67.29,1.48,1.48,0,0,0,.55-.12,2.13,2.13,0,0,0,.52-.27l-.18.92a2.4,2.4,0,0,1-1.18.33,1.48,1.48,0,0,1-1.19-.5,2.08,2.08,0,0,1-.44-1.4,3.39,3.39,0,0,1,.33-1.49,2.52,2.52,0,0,1,.9-1.08,2.26,2.26,0,0,1,1.3-.39,2.49,2.49,0,0,1,.61.08,1.61,1.61,0,0,1,.47.2Z"/><path class="cls-2" d="M117.86,53.5a3.69,3.69,0,0,1-.32,1.54,2.34,2.34,0,0,1-.86,1.06,2.2,2.2,0,0,1-1.27.37,1.68,1.68,0,0,1-1.28-.5,2,2,0,0,1-.46-1.39,3.64,3.64,0,0,1,.31-1.53,2.54,2.54,0,0,1,.86-1.06,2.24,2.24,0,0,1,1.28-.38,1.66,1.66,0,0,1,1.27.51A2,2,0,0,1,117.86,53.5Zm-1,0a1.35,1.35,0,0,0-.2-.77.68.68,0,0,0-.58-.28,1,1,0,0,0-.69.28,1.86,1.86,0,0,0-.49.77,2.9,2.9,0,0,0-.18,1,1.26,1.26,0,0,0,.21.77.7.7,0,0,0,.58.28,1,1,0,0,0,.7-.29,1.72,1.72,0,0,0,.48-.76A2.93,2.93,0,0,0,116.83,53.53Z"/><path class="cls-2" d="M121.5,52.78a1,1,0,0,0-.5-.14,1,1,0,0,0-.79.47,3.16,3.16,0,0,0-.52,1.27l-.39,2h-1l.59-3c.15-.76.23-1.29.26-1.62h1c0,.29-.06.61-.11,1h0a3.1,3.1,0,0,1,.56-.8.94.94,0,0,1,.68-.29,2,2,0,0,1,.42.07Z"/><path class="cls-2" d="M125.79,53.5a3.69,3.69,0,0,1-.31,1.54,2.48,2.48,0,0,1-.86,1.06,2.24,2.24,0,0,1-1.28.37,1.66,1.66,0,0,1-1.27-.5,2,2,0,0,1-.46-1.39,3.64,3.64,0,0,1,.31-1.53,2.47,2.47,0,0,1,.86-1.06,2.22,2.22,0,0,1,1.28-.38,1.62,1.62,0,0,1,1.26.51A1.91,1.91,0,0,1,125.79,53.5Zm-1,0a1.28,1.28,0,0,0-.21-.77.67.67,0,0,0-.58-.28,1,1,0,0,0-.69.28,2,2,0,0,0-.49.77,2.89,2.89,0,0,0-.17,1,1.26,1.26,0,0,0,.21.77.69.69,0,0,0,.57.28,1,1,0,0,0,.71-.29,1.72,1.72,0,0,0,.48-.76A3.18,3.18,0,0,0,124.77,53.53Z"/><path class="cls-2" d="M130.69,52.86a5.37,5.37,0,0,1-.13.89l-.51,2.61h-1l.52-2.68c.05-.32.08-.52.08-.59a.68.68,0,0,0-.13-.44.44.44,0,0,0-.38-.17.91.91,0,0,0-.57.23,2.16,2.16,0,0,0-.54.61,2.3,2.3,0,0,0-.31.76l-.45,2.28h-1l.65-3.24c.1-.52.17-1,.22-1.39h1c0,.25-.07.58-.13,1h0a2.88,2.88,0,0,1,.76-.82,1.56,1.56,0,0,1,.86-.29,1,1,0,0,1,.8.32A1.38,1.38,0,0,1,130.69,52.86Z"/><path class="cls-2" d="M135,56.36h-1q0-.12,0-.42c0-.2,0-.35,0-.46h0a3.28,3.28,0,0,1-.45.6,1.44,1.44,0,0,1-.42.29,1.12,1.12,0,0,1-.5.1,1.09,1.09,0,0,1-1-.47,2.11,2.11,0,0,1-.34-1.28,3.54,3.54,0,0,1,.37-1.6,2.58,2.58,0,0,1,1-1.14,2.79,2.79,0,0,1,1.43-.37,7.57,7.57,0,0,1,1.61.22l-.59,3c0,.22-.08.48-.12.79S135,56.19,135,56.36Zm-.38-3.86a2.63,2.63,0,0,0-.58-.07,1.36,1.36,0,0,0-.84.27,1.8,1.8,0,0,0-.59.82,2.93,2.93,0,0,0-.22,1.14,1.25,1.25,0,0,0,.16.7.55.55,0,0,0,.47.25,1,1,0,0,0,.82-.51,3.61,3.61,0,0,0,.53-1.36Z"/><path class="cls-2" d="M138.13,56.36h-1l-.62-4.63h1l.28,2.74a6.68,6.68,0,0,1,0,.76v.13h0c.12-.31.25-.61.39-.89l1.35-2.74h1.12Z"/><path class="cls-2" d="M141.58,56.43a.91.91,0,0,1-.7-.25,1,1,0,0,1-.24-.71,2.49,2.49,0,0,1,0-.47l.63-3.27h1l-.57,2.91a4.18,4.18,0,0,0-.09.59c0,.23.12.34.36.34a1,1,0,0,0,.39-.07l-.16.83A2.43,2.43,0,0,1,141.58,56.43Zm1.14-6.27a.61.61,0,0,1-.18.45.6.6,0,0,1-.44.18.57.57,0,0,1-.42-.17.6.6,0,0,1,0-.87.62.62,0,0,1,.86,0A.57.57,0,0,1,142.72,50.16Z"/><path class="cls-2" d="M146.09,52.78a1,1,0,0,0-.5-.14,1,1,0,0,0-.79.47,3.16,3.16,0,0,0-.52,1.27l-.39,2h-1l.59-3a13.66,13.66,0,0,0,.25-1.62h1c0,.29-.06.61-.11,1h0a3.1,3.1,0,0,1,.56-.8.94.94,0,0,1,.68-.29,2,2,0,0,1,.42.07Z"/><path class="cls-2" d="M149.94,56.36h-1l.13-1h0a2.9,2.9,0,0,1-.75.8,1.53,1.53,0,0,1-.86.29,1,1,0,0,1-.81-.33,1.35,1.35,0,0,1-.29-.92,6.73,6.73,0,0,1,.13-.88l.52-2.61h1l-.52,2.66a5.64,5.64,0,0,0-.09.61.65.65,0,0,0,.13.43.44.44,0,0,0,.37.15,1,1,0,0,0,.6-.23,2,2,0,0,0,.53-.62,2.58,2.58,0,0,0,.32-.78l.44-2.22h1l-.62,3.11C150.06,55.4,150,55.91,149.94,56.36Z"/><path class="cls-2" d="M154.19,52.71a2,2,0,0,0-.44-.2,1.51,1.51,0,0,0-.5-.09.8.8,0,0,0-.53.16.54.54,0,0,0-.17.42.49.49,0,0,0,.14.37,1.62,1.62,0,0,0,.41.31,2.33,2.33,0,0,1,.74.63,1.18,1.18,0,0,1,.2.7,1.35,1.35,0,0,1-.21.76,1.46,1.46,0,0,1-.62.52,2.43,2.43,0,0,1-1,.18,2.79,2.79,0,0,1-.68-.08,2,2,0,0,1-.54-.18l.17-.9a2.26,2.26,0,0,0,.54.26,2,2,0,0,0,.61.1.84.84,0,0,0,.55-.15.51.51,0,0,0,.18-.41.53.53,0,0,0-.12-.35,1.82,1.82,0,0,0-.48-.36,2.07,2.07,0,0,1-.69-.58,1.28,1.28,0,0,1-.22-.73,1.4,1.4,0,0,1,.21-.76,1.42,1.42,0,0,1,.58-.53,2.15,2.15,0,0,1,.92-.19,3.08,3.08,0,0,1,.61.06,3.45,3.45,0,0,1,.51.16Z"/><path class="cls-2" d="M154.74,57.43h-1l4.39-7.56h1Z"/><path class="cls-2" d="M161.49,51.48a.83.83,0,0,0-.22-.61.89.89,0,0,0-.66-.22,2,2,0,0,0-.82.18,3.26,3.26,0,0,0-.75.47l.22-1.07a2.74,2.74,0,0,1,1.62-.47,1.69,1.69,0,0,1,1.2.41,1.48,1.48,0,0,1,.44,1.12,2.54,2.54,0,0,1-.17.94,2.26,2.26,0,0,1-.5.77,7.76,7.76,0,0,1-1.18.93,8,8,0,0,0-1.15.87,1.37,1.37,0,0,0-.36.63h2.66l-.18.93h-3.76L158,56a2.65,2.65,0,0,1,.33-.92,3.42,3.42,0,0,1,.61-.79,9.34,9.34,0,0,1,1.18-.91,6.7,6.7,0,0,0,.85-.66,1.87,1.87,0,0,0,.43-.56A1.41,1.41,0,0,0,161.49,51.48Z"/><path class="cls-2" d="M167.33,51.75a7.64,7.64,0,0,1-.37,2.43,4,4,0,0,1-1,1.71,2,2,0,0,1-1.4.58,1.44,1.44,0,0,1-1.21-.58,2.56,2.56,0,0,1-.44-1.6,6.9,6.9,0,0,1,.37-2.28,4,4,0,0,1,1-1.66,2.07,2.07,0,0,1,1.43-.59,1.45,1.45,0,0,1,1.18.53A2.23,2.23,0,0,1,167.33,51.75Zm-1,0a1.64,1.64,0,0,0-.18-.84.57.57,0,0,0-.5-.29,1,1,0,0,0-.82.48,4.45,4.45,0,0,0-.64,1.47,6.9,6.9,0,0,0-.27,1.8,1.75,1.75,0,0,0,.19.9.6.6,0,0,0,.55.33,1,1,0,0,0,.82-.53,5.41,5.41,0,0,0,.6-1.5A7.1,7.1,0,0,0,166.33,51.75Z"/><path class="cls-2" d="M168.39,56.36,169.46,51l-1.41.37.19-.94,2.46-.62-1.29,6.6Z"/><path class="cls-2" d="M175.55,52.1a6.1,6.1,0,0,1-.23,1.66,4.58,4.58,0,0,1-.65,1.41,3.1,3.1,0,0,1-1,1,2.87,2.87,0,0,1-1.4.34,3.1,3.1,0,0,1-.64-.06,1.8,1.8,0,0,1-.43-.14l.14-.93a1.86,1.86,0,0,0,1,.26,1.8,1.8,0,0,0,1.4-.64,3.59,3.59,0,0,0,.78-1.75h0a1.55,1.55,0,0,1-1.36.81,1.49,1.49,0,0,1-.82-.23,1.54,1.54,0,0,1-.53-.65,2.18,2.18,0,0,1-.19-.93,2.73,2.73,0,0,1,.3-1.27,2,2,0,0,1,1.86-1.18,1.59,1.59,0,0,1,1.34.63A2.76,2.76,0,0,1,175.55,52.1Zm-1-.27a1.43,1.43,0,0,0-.24-.86.77.77,0,0,0-.64-.33.85.85,0,0,0-.58.2,1.35,1.35,0,0,0-.4.53,2,2,0,0,0-.14.74,1.17,1.17,0,0,0,.24.78.73.73,0,0,0,.62.29A1,1,0,0,0,174,53a1.22,1.22,0,0,0,.4-.49A1.74,1.74,0,0,0,174.56,51.83Z"/><path class="cls-2" d="M178.49,54.23h-2.3l.16-.79h2.3Z"/><path class="cls-2" d="M35.79,64a5.44,5.44,0,0,1-.13.9l-.51,2.6h-1l.52-2.68c.05-.32.08-.52.08-.59a.68.68,0,0,0-.13-.44.47.47,0,0,0-.38-.17,1,1,0,0,0-.57.23,2.31,2.31,0,0,0-.54.61,2.27,2.27,0,0,0-.31.77l-.45,2.27h-1L32,64.23c.1-.52.17-1,.22-1.39h1c0,.26-.06.59-.13,1h0a2.63,2.63,0,0,1,.76-.82,1.48,1.48,0,0,1,.86-.29,1,1,0,0,1,.8.32A1.33,1.33,0,0,1,35.79,64Z"/><path class="cls-2" d="M39.87,63.94a1.44,1.44,0,0,0-.4-.25,1.42,1.42,0,0,0-.52-.1,1.24,1.24,0,0,0-.73.25,1.85,1.85,0,0,0-.54.74,2.59,2.59,0,0,0-.21,1,1.32,1.32,0,0,0,.24.85.79.79,0,0,0,.66.29,1.58,1.58,0,0,0,.55-.11,2.66,2.66,0,0,0,.53-.28l-.18.92a2.43,2.43,0,0,1-1.18.33,1.49,1.49,0,0,1-1.2-.5,2.06,2.06,0,0,1-.43-1.39,3.57,3.57,0,0,1,.32-1.5,2.67,2.67,0,0,1,.9-1.08A2.36,2.36,0,0,1,39,62.73a2.13,2.13,0,0,1,.61.08,1.38,1.38,0,0,1,.47.2Z"/><path class="cls-2" d="M44.42,64.62a3.64,3.64,0,0,1-.31,1.53,2.51,2.51,0,0,1-.86,1.07,2.31,2.31,0,0,1-1.28.36,1.62,1.62,0,0,1-1.27-.5,1.94,1.94,0,0,1-.46-1.39,3.56,3.56,0,0,1,.31-1.52,2.5,2.5,0,0,1,.86-1.07,2.2,2.2,0,0,1,1.27-.37,1.66,1.66,0,0,1,1.27.5A2,2,0,0,1,44.42,64.62Zm-1,0a1.26,1.26,0,0,0-.21-.77.68.68,0,0,0-.58-.29,1,1,0,0,0-.69.28,1.93,1.93,0,0,0-.49.77,3,3,0,0,0-.18,1,1.23,1.23,0,0,0,.22.76.67.67,0,0,0,.57.28,1,1,0,0,0,.71-.28,2,2,0,0,0,.48-.77A3.12,3.12,0,0,0,43.4,64.65Z"/><path class="cls-2" d="M46.72,67.47h-1l-.62-4.63h1l.27,2.74a5.1,5.1,0,0,1,0,.76v.13h0c.12-.3.25-.6.39-.88l1.35-2.75h1.12Z"/><path class="cls-2" d="M49.06,68.55h-1L52.44,61h1Z"/><path class="cls-2" d="M57.06,64a6.36,6.36,0,0,1-.13.89l-.51,2.6h-1l.52-2.68A4.93,4.93,0,0,0,56,64.2c0-.41-.17-.61-.51-.61a1,1,0,0,0-.58.23,2.36,2.36,0,0,0-.54.62,2.4,2.4,0,0,0-.31.77l-.44,2.26h-1L54,60.62h1l-.64,3.21h0a2.89,2.89,0,0,1,.78-.81,1.42,1.42,0,0,1,.84-.29,1,1,0,0,1,.81.33A1.33,1.33,0,0,1,57.06,64Z"/><path class="cls-2" d="M61.13,63.94a1.38,1.38,0,0,0-.39-.25,1.5,1.5,0,0,0-.52-.1,1.22,1.22,0,0,0-.73.25,1.85,1.85,0,0,0-.54.74,2.42,2.42,0,0,0-.21,1,1.39,1.39,0,0,0,.23.85.83.83,0,0,0,.67.29,1.68,1.68,0,0,0,.55-.11,2.57,2.57,0,0,0,.52-.28l-.18.92a2.4,2.4,0,0,1-1.18.33,1.45,1.45,0,0,1-1.19-.5,2.07,2.07,0,0,1-.44-1.39,3.43,3.43,0,0,1,.33-1.5,2.52,2.52,0,0,1,.9-1.08,2.33,2.33,0,0,1,1.3-.38,2.09,2.09,0,0,1,.61.08,1.38,1.38,0,0,1,.47.2Z"/><path class="cls-2" d="M65.87,64.45A3.91,3.91,0,0,1,65.53,66a2.75,2.75,0,0,1-1,1.14,2.32,2.32,0,0,1-1.34.4,2.45,2.45,0,0,1-.81-.13L62,69.61H61l1-5.29c0-.16.07-.39.1-.71s.06-.57.07-.77h1c0,.08,0,.22,0,.42s0,.35-.06.46h0a1.68,1.68,0,0,1,1.46-1,1.08,1.08,0,0,1,.94.46A2.07,2.07,0,0,1,65.87,64.45Zm-1,.1a1.2,1.2,0,0,0-.17-.72.56.56,0,0,0-.49-.24.88.88,0,0,0-.56.23,2.12,2.12,0,0,0-.5.69,4.07,4.07,0,0,0-.31.93l-.24,1.2a1.51,1.51,0,0,0,.3.08,2.08,2.08,0,0,0,.39,0,1.19,1.19,0,0,0,.81-.31,2,2,0,0,0,.57-.82A2.85,2.85,0,0,0,64.85,64.55Z"/><path class="cls-2" d="M66.36,68.55h-1L69.74,61h1Z"/><path class="cls-2" d="M74.35,64.45A3.76,3.76,0,0,1,74,66a2.81,2.81,0,0,1-.94,1.14,2.35,2.35,0,0,1-1.35.4,2.45,2.45,0,0,1-.81-.13l-.42,2.16h-1l1-5.29c0-.16.07-.39.11-.71s.06-.57.06-.77h1a3.06,3.06,0,0,1,0,.42c0,.2,0,.35-.05.46h0a1.69,1.69,0,0,1,1.46-1,1.11,1.11,0,0,1,1,.46A2.14,2.14,0,0,1,74.35,64.45Zm-1,.1a1.19,1.19,0,0,0-.18-.72.55.55,0,0,0-.49-.24.88.88,0,0,0-.56.23,2.28,2.28,0,0,0-.5.69,4.07,4.07,0,0,0-.31.93l-.24,1.2a1.51,1.51,0,0,0,.3.08,2.08,2.08,0,0,0,.39,0,1.19,1.19,0,0,0,.81-.31,2,2,0,0,0,.57-.82A2.86,2.86,0,0,0,73.34,64.55Z"/><path class="cls-2" d="M79.23,64.45A3.76,3.76,0,0,1,78.88,66a2.73,2.73,0,0,1-.94,1.14,2.32,2.32,0,0,1-1.34.4,2.37,2.37,0,0,1-.81-.13l-.43,2.16h-1l1-5.29a6.84,6.84,0,0,0,.11-.71c0-.32.06-.57.07-.77h1q0,.12,0,.42c0,.2,0,.35-.06.46h0a1.68,1.68,0,0,1,1.46-1,1.09,1.09,0,0,1,.94.46A2.14,2.14,0,0,1,79.23,64.45Zm-1,.1a1.27,1.27,0,0,0-.17-.72.58.58,0,0,0-.49-.24.88.88,0,0,0-.57.23,2.27,2.27,0,0,0-.49.69,3.63,3.63,0,0,0-.31.93l-.25,1.2a1.46,1.46,0,0,0,.31.08,1.89,1.89,0,0,0,.39,0,1.23,1.23,0,0,0,.81-.31,2,2,0,0,0,.57-.82A3.06,3.06,0,0,0,78.21,64.55Z"/><path class="cls-2" d="M83.73,64A1.3,1.3,0,0,1,83,65.21a4.84,4.84,0,0,1-2.19.42v.14a.9.9,0,0,0,1,1,1.94,1.94,0,0,0,.68-.13,2.88,2.88,0,0,0,.66-.32l-.16.9a2.72,2.72,0,0,1-1.4.37,1.66,1.66,0,0,1-1.3-.5,2,2,0,0,1-.47-1.41,3.44,3.44,0,0,1,.32-1.47A2.57,2.57,0,0,1,81,63.12a2.15,2.15,0,0,1,1.25-.39,1.58,1.58,0,0,1,1.07.34A1.15,1.15,0,0,1,83.73,64Zm-1,0a.46.46,0,0,0-.15-.36.64.64,0,0,0-.42-.14,1.09,1.09,0,0,0-.81.4,1.88,1.88,0,0,0-.47,1C82.13,64.88,82.75,64.59,82.75,64Z"/><path class="cls-2" d="M86.66,65.34H84.37l.16-.79h2.29Z"/><path class="cls-2" d="M90.53,63.83a2,2,0,0,0-.44-.21,1.8,1.8,0,0,0-.5-.08.75.75,0,0,0-.53.16.5.5,0,0,0-.17.41.51.51,0,0,0,.14.38,1.61,1.61,0,0,0,.41.3,2.33,2.33,0,0,1,.74.63,1.2,1.2,0,0,1,.2.7,1.39,1.39,0,0,1-.21.77,1.37,1.37,0,0,1-.62.51,2.43,2.43,0,0,1-1,.18,3.34,3.34,0,0,1-.68-.07,2,2,0,0,1-.54-.19l.17-.89a2.25,2.25,0,0,0,.54.25,1.94,1.94,0,0,0,.61.1.84.84,0,0,0,.55-.15.48.48,0,0,0,.18-.41.55.55,0,0,0-.12-.35,1.82,1.82,0,0,0-.48-.36,2.07,2.07,0,0,1-.69-.58,1.25,1.25,0,0,1-.22-.72,1.44,1.44,0,0,1,.21-.77,1.34,1.34,0,0,1,.58-.52,2,2,0,0,1,.92-.19,3.08,3.08,0,0,1,.61.06,2.6,2.6,0,0,1,.51.15Z"/><path class="cls-2" d="M94,63.68h-1l-.41,2.1a3.67,3.67,0,0,0-.08.52.46.46,0,0,0,.09.31.4.4,0,0,0,.29.09,2,2,0,0,0,.59-.16l-.17.85a2.11,2.11,0,0,1-.83.18c-.66,0-1-.35-1-1a3.61,3.61,0,0,1,.09-.69l.42-2.15h-.69l.19-.84h.67l.22-1.11,1.06-.3-.27,1.41h1Z"/><path class="cls-2" d="M97.23,63.89a1.08,1.08,0,0,0-.5-.14,1,1,0,0,0-.79.47,3,3,0,0,0-.52,1.27l-.39,2H94l.59-3a13.37,13.37,0,0,0,.25-1.62h1c0,.29-.06.62-.12,1h0a3.17,3.17,0,0,1,.56-.81.93.93,0,0,1,.68-.28,1.52,1.52,0,0,1,.42.07Z"/><path class="cls-2" d="M101,67.47h-1a3.88,3.88,0,0,1,0-.41c0-.2,0-.36.05-.47h0a3.31,3.31,0,0,1-.45.61,1.81,1.81,0,0,1-.41.29,1.36,1.36,0,0,1-.51.09,1.11,1.11,0,0,1-1-.46,2.13,2.13,0,0,1-.34-1.29,3.58,3.58,0,0,1,.37-1.6,2.55,2.55,0,0,1,1-1.13,2.7,2.7,0,0,1,1.43-.37,7,7,0,0,1,1.61.22l-.59,3c0,.21-.08.47-.12.78S101,67.31,101,67.47Zm-.38-3.86a2.65,2.65,0,0,0-.58-.06,1.36,1.36,0,0,0-.84.27,1.9,1.9,0,0,0-.59.81,3,3,0,0,0-.22,1.15,1.21,1.21,0,0,0,.16.69.53.53,0,0,0,.47.25,1,1,0,0,0,.82-.51,3.5,3.5,0,0,0,.53-1.35Z"/><path class="cls-2" d="M105,63.68h-1l-.41,2.1a3.21,3.21,0,0,0-.07.52.46.46,0,0,0,.09.31.39.39,0,0,0,.29.09,2,2,0,0,0,.58-.16l-.16.85a2.12,2.12,0,0,1-.84.18q-1,0-1-1a3.61,3.61,0,0,1,.09-.69l.42-2.15h-.69l.19-.84h.66l.22-1.11,1.07-.3-.27,1.41h1Z"/><path class="cls-2" d="M109.15,64a1.3,1.3,0,0,1-.72,1.23,4.84,4.84,0,0,1-2.19.42v.14a.9.9,0,0,0,1,1,1.94,1.94,0,0,0,.68-.13,2.88,2.88,0,0,0,.66-.32l-.16.9a2.72,2.72,0,0,1-1.4.37,1.66,1.66,0,0,1-1.3-.5,2,2,0,0,1-.47-1.41,3.44,3.44,0,0,1,.32-1.47,2.57,2.57,0,0,1,.89-1.08,2.15,2.15,0,0,1,1.25-.39,1.58,1.58,0,0,1,1.07.34A1.15,1.15,0,0,1,109.15,64Zm-1,0a.46.46,0,0,0-.15-.36.64.64,0,0,0-.42-.14,1.09,1.09,0,0,0-.81.4,1.88,1.88,0,0,0-.47,1C107.55,64.88,108.17,64.59,108.17,64Z"/><path class="cls-2" d="M110.45,69.65a2.78,2.78,0,0,1-1.33-.35l.18-.92a2.12,2.12,0,0,0,1.23.42,1.41,1.41,0,0,0,1-.38,2.35,2.35,0,0,0,.54-1.24l.11-.56h0a2.36,2.36,0,0,1-.64.75,1.26,1.26,0,0,1-.71.21,1.14,1.14,0,0,1-.95-.45,2.09,2.09,0,0,1-.35-1.29,3.7,3.7,0,0,1,.35-1.59,2.79,2.79,0,0,1,1-1.12,2.45,2.45,0,0,1,1.38-.4,8.66,8.66,0,0,1,1.7.21l-.8,4.09a4.78,4.78,0,0,1-.52,1.52,2.14,2.14,0,0,1-.87.82A2.81,2.81,0,0,1,110.45,69.65Zm2.35-6a2.84,2.84,0,0,0-.64-.06,1.27,1.27,0,0,0-.8.29,2,2,0,0,0-.58.81,3,3,0,0,0-.21,1.12,1.28,1.28,0,0,0,.17.71.54.54,0,0,0,.46.24.87.87,0,0,0,.56-.22,2.07,2.07,0,0,0,.48-.67,3.85,3.85,0,0,0,.31-1Z"/><path class="cls-2" d="M114,69.65a1.47,1.47,0,0,1-.56-.1l.17-.88a.69.69,0,0,0,.42.11,1,1,0,0,0,.9-.61l.43-.72-.81-4.61h1.06L116,66l0,.29v.19h0c.07-.19.14-.35.2-.48l1.61-3.19H119l-2.89,5.22a3.82,3.82,0,0,1-1,1.23A1.71,1.71,0,0,1,114,69.65Z"/><path class="cls-2" d="M118.73,68.55h-1L122.1,61h1Z"/><path class="cls-2" d="M125.83,61.49a1.14,1.14,0,0,0-.52-.12.61.61,0,0,0-.5.21,1.54,1.54,0,0,0-.26.64l-.12.62h1l-.17.84h-1l-1,5.33h-1l1.06-5.33h-.74l.18-.84h.73l.15-.76a2.14,2.14,0,0,1,.61-1.2,1.71,1.71,0,0,1,1.15-.37,1.78,1.78,0,0,1,.67.11Z"/><path class="cls-2" d="M128.93,67.47h-1a3.88,3.88,0,0,1,0-.41c0-.2,0-.36,0-.47h0a3.79,3.79,0,0,1-.46.61,1.61,1.61,0,0,1-.41.29,1.36,1.36,0,0,1-.51.09,1.11,1.11,0,0,1-1-.46,2.13,2.13,0,0,1-.34-1.29,3.58,3.58,0,0,1,.37-1.6,2.55,2.55,0,0,1,1-1.13,2.7,2.7,0,0,1,1.43-.37,7,7,0,0,1,1.61.22l-.59,3q-.06.32-.12.78C129,67.07,128.93,67.31,128.93,67.47Zm-.38-3.86a2.65,2.65,0,0,0-.58-.06,1.36,1.36,0,0,0-.84.27,1.9,1.9,0,0,0-.59.81,3,3,0,0,0-.22,1.15,1.21,1.21,0,0,0,.16.69.53.53,0,0,0,.47.25,1,1,0,0,0,.82-.51,3.5,3.5,0,0,0,.53-1.35Z"/><path class="cls-2" d="M133.59,63.94a1.44,1.44,0,0,0-.4-.25,1.46,1.46,0,0,0-.52-.1,1.22,1.22,0,0,0-.73.25,1.85,1.85,0,0,0-.54.74,2.42,2.42,0,0,0-.21,1,1.39,1.39,0,0,0,.23.85.83.83,0,0,0,.67.29,1.63,1.63,0,0,0,.55-.11,2.57,2.57,0,0,0,.52-.28l-.17.92a2.46,2.46,0,0,1-1.19.33,1.47,1.47,0,0,1-1.19-.5,2.06,2.06,0,0,1-.43-1.39,3.42,3.42,0,0,1,.32-1.5,2.52,2.52,0,0,1,.9-1.08,2.34,2.34,0,0,1,1.31-.38,2.06,2.06,0,0,1,.6.08,1.38,1.38,0,0,1,.47.2Z"/><path class="cls-2" d="M137.87,64a1.3,1.3,0,0,1-.72,1.23,4.84,4.84,0,0,1-2.19.42v.14a1,1,0,0,0,.26.73,1,1,0,0,0,.72.26,2,2,0,0,0,.69-.13,2.88,2.88,0,0,0,.66-.32l-.17.9a2.65,2.65,0,0,1-1.39.37,1.7,1.7,0,0,1-1.31-.5,2,2,0,0,1-.46-1.41,3.29,3.29,0,0,1,.32-1.47,2.55,2.55,0,0,1,.88-1.08,2.21,2.21,0,0,1,1.26-.39,1.54,1.54,0,0,1,1.06.34A1.13,1.13,0,0,1,137.87,64Zm-1,0a.44.44,0,0,0-.16-.36.61.61,0,0,0-.42-.14,1.09,1.09,0,0,0-.8.4,2,2,0,0,0-.48,1Q136.89,64.88,136.89,64Z"/><path class="cls-2" d="M140.8,65.34h-2.29l.16-.79H141Z"/><path class="cls-2" d="M148.66,64a7,7,0,0,1-.13.89l-.52,2.6h-1l.52-2.68a4.1,4.1,0,0,0,.08-.59c0-.41-.16-.61-.5-.61a1.15,1.15,0,0,0-.81.51,2.4,2.4,0,0,0-.55,1.09l-.44,2.28h-1l.53-2.68a4.1,4.1,0,0,0,.08-.59c0-.41-.16-.61-.5-.61a.91.91,0,0,0-.55.24,2.45,2.45,0,0,0-.51.62,2.31,2.31,0,0,0-.3.75l-.45,2.27h-1l.65-3.24c.1-.52.17-1,.22-1.39h1c0,.26-.06.59-.13,1h0a2.84,2.84,0,0,1,.74-.82,1.46,1.46,0,0,1,.82-.29c.66,0,1,.37,1.06,1.13a2.75,2.75,0,0,1,.77-.84,1.51,1.51,0,0,1,.87-.29,1,1,0,0,1,.81.32A1.43,1.43,0,0,1,148.66,64Z"/><path class="cls-2" d="M153,67.47h-1a3.88,3.88,0,0,1,0-.41c0-.2,0-.36.05-.47h0a3.31,3.31,0,0,1-.45.61,1.81,1.81,0,0,1-.41.29,1.36,1.36,0,0,1-.51.09,1.11,1.11,0,0,1-1-.46,2.13,2.13,0,0,1-.34-1.29,3.58,3.58,0,0,1,.37-1.6,2.55,2.55,0,0,1,1-1.13,2.7,2.7,0,0,1,1.43-.37,7,7,0,0,1,1.61.22l-.59,3q-.06.32-.12.78C153,67.07,153,67.31,153,67.47Zm-.38-3.86a2.65,2.65,0,0,0-.58-.06,1.36,1.36,0,0,0-.84.27,1.9,1.9,0,0,0-.59.81,3,3,0,0,0-.22,1.15,1.21,1.21,0,0,0,.16.69.53.53,0,0,0,.47.25,1,1,0,0,0,.82-.51,3.5,3.5,0,0,0,.53-1.35Z"/><path class="cls-2" d="M157.14,63.83a2,2,0,0,0-.44-.21,1.8,1.8,0,0,0-.5-.08.75.75,0,0,0-.53.16.5.5,0,0,0-.17.41.51.51,0,0,0,.14.38,1.61,1.61,0,0,0,.41.3,2.33,2.33,0,0,1,.74.63,1.2,1.2,0,0,1,.2.7,1.39,1.39,0,0,1-.21.77,1.37,1.37,0,0,1-.62.51,2.43,2.43,0,0,1-1,.18,3.34,3.34,0,0,1-.68-.07,2,2,0,0,1-.54-.19l.17-.89a2.25,2.25,0,0,0,.54.25,1.94,1.94,0,0,0,.61.1.84.84,0,0,0,.55-.15.48.48,0,0,0,.18-.41.55.55,0,0,0-.12-.35,1.82,1.82,0,0,0-.48-.36,2.07,2.07,0,0,1-.69-.58,1.18,1.18,0,0,1-.22-.72,1.44,1.44,0,0,1,.21-.77,1.34,1.34,0,0,1,.58-.52,2,2,0,0,1,.92-.19,3.08,3.08,0,0,1,.61.06,2.6,2.6,0,0,1,.51.15Z"/><path class="cls-2" d="M160.13,65l1.32,2.47h-1.14l-1.18-2.42h0l-.48,2.42h-1L159,60.62h1l-.83,4.21h0l1.93-2h1.23Z"/><path class="cls-2" d="M165.24,63.83a2,2,0,0,0-.44-.21,1.8,1.8,0,0,0-.5-.08.75.75,0,0,0-.53.16.5.5,0,0,0-.17.41.51.51,0,0,0,.14.38,1.61,1.61,0,0,0,.41.3,2.33,2.33,0,0,1,.74.63,1.2,1.2,0,0,1,.2.7,1.39,1.39,0,0,1-.21.77,1.37,1.37,0,0,1-.62.51,2.43,2.43,0,0,1-1,.18,3.34,3.34,0,0,1-.68-.07,2,2,0,0,1-.54-.19l.17-.89a2.25,2.25,0,0,0,.54.25,1.94,1.94,0,0,0,.61.1.84.84,0,0,0,.55-.15.48.48,0,0,0,.18-.41.55.55,0,0,0-.12-.35,1.82,1.82,0,0,0-.48-.36,2.07,2.07,0,0,1-.69-.58,1.25,1.25,0,0,1-.22-.72,1.44,1.44,0,0,1,.21-.77,1.34,1.34,0,0,1,.58-.52,2,2,0,0,1,.92-.19,3.08,3.08,0,0,1,.61.06,2.6,2.6,0,0,1,.51.15Z"/><path class="cls-2" d="M166.9,67a.62.62,0,0,1-.63.63.6.6,0,0,1-.43-.17.58.58,0,0,1-.18-.43.62.62,0,0,1,.19-.46.64.64,0,0,1,.88,0A.64.64,0,0,1,166.9,67Z"/><path class="cls-2" d="M172.27,64a5.11,5.11,0,0,1-.13.89l-.51,2.6h-1l.52-2.68c.05-.32.08-.52.08-.59,0-.41-.17-.61-.51-.61a1,1,0,0,0-.58.23,2.55,2.55,0,0,0-.84,1.39l-.45,2.26h-1l1.36-6.85h1l-.64,3.21h0a2.86,2.86,0,0,1,.77-.81,1.45,1.45,0,0,1,.85-.29,1,1,0,0,1,.81.33A1.38,1.38,0,0,1,172.27,64Z"/><path class="cls-2" d="M175.72,63.68h-1l-.41,2.1a3.67,3.67,0,0,0-.08.52.46.46,0,0,0,.09.31.39.39,0,0,0,.29.09,2,2,0,0,0,.59-.16l-.17.85a2.11,2.11,0,0,1-.83.18c-.66,0-1-.35-1-1a3.61,3.61,0,0,1,.09-.69l.42-2.15H173l.19-.84h.67l.22-1.11,1.06-.3-.27,1.41h1.05Z"/><path class="cls-2" d="M182.87,64a5.52,5.52,0,0,1-.13.89l-.52,2.6h-1l.52-2.68a4.93,4.93,0,0,0,.09-.59c0-.41-.17-.61-.5-.61a1.16,1.16,0,0,0-.82.51,2.4,2.4,0,0,0-.55,1.09l-.44,2.28h-1l.53-2.68a4.93,4.93,0,0,0,.09-.59c0-.41-.17-.61-.5-.61a.88.88,0,0,0-.55.24,2.29,2.29,0,0,0-.52.62,2.56,2.56,0,0,0-.3.75l-.45,2.27h-1l.65-3.24c.1-.52.18-1,.22-1.39h1c0,.26-.06.59-.13,1h0a2.84,2.84,0,0,1,.74-.82,1.46,1.46,0,0,1,.82-.29c.66,0,1,.37,1.06,1.13a2.65,2.65,0,0,1,.78-.84,1.46,1.46,0,0,1,.87-.29,1,1,0,0,1,.8.32A1.43,1.43,0,0,1,182.87,64Z"/><path class="cls-2" d="M184.56,67.55a.93.93,0,0,1-.71-.25,1,1,0,0,1-.24-.71,6.29,6.29,0,0,1,.16-1.09c.11-.52.43-2.15,1-4.88h1l-1,5.14a3.92,3.92,0,0,0-.09.58c0,.23.12.34.36.34a1,1,0,0,0,.39-.07l-.16.83A2.2,2.2,0,0,1,184.56,67.55Z"/><rect class="cls-2" x="-6.29" y="45.01" width="32.82" height="13.95" rx="0.96" transform="translate(-41.86 62.1) rotate(-90)"/><path class="cls-3" d="M6.65,67.32v-.85l3.84-1.11H6.65V64.5h6.93v.86l-3.8,1.11h3.8v.85Z"/><path class="cls-3" d="M10.12,64a6.91,6.91,0,0,1-2.64-.4c-.63-.27-.94-.64-.94-1.12s.31-.87.92-1.14a6.93,6.93,0,0,1,2.61-.4,9.07,9.07,0,0,1,2,.18,3,3,0,0,1,1.21.5,1,1,0,0,1,.43.82,1.09,1.09,0,0,1-.37.83,2.94,2.94,0,0,1-1.19.53A8.7,8.7,0,0,1,10.12,64Zm0-.91a4.89,4.89,0,0,0,1.51-.17c.31-.11.46-.26.46-.45s-.15-.35-.45-.45A5.38,5.38,0,0,0,10,61.87,4.54,4.54,0,0,0,8.61,62c-.3.12-.45.27-.45.46s.15.33.46.44A4.85,4.85,0,0,0,10.13,63.1Z"/><path class="cls-3" d="M6.65,60.78V58H8.37v.93h5.21v.92H8.37v.93Z"/><path class="cls-3" d="M10.31,58.08V56.89H11.8v1.19Z"/><path class="cls-3" d="M11.29,56.66l-.13-.87a3.77,3.77,0,0,0,.76-.11c.28-.1.42-.23.42-.41a.32.32,0,0,0-.22-.3,1.25,1.25,0,0,0-1,0,1,1,0,0,0-.4.47,1.92,1.92,0,0,1-.84.85,3,3,0,0,1-1.34.26,4.17,4.17,0,0,1-1-.13,1.69,1.69,0,0,1-.74-.4,1,1,0,0,1-.27-.73A1,1,0,0,1,7,54.43a3.53,3.53,0,0,1,1.57-.35l.12.86a1.89,1.89,0,0,0-.68.14.35.35,0,0,0-.21.3.25.25,0,0,0,.15.24.8.8,0,0,0,.39.09.73.73,0,0,0,.3-.07.64.64,0,0,0,.25-.31,2.7,2.7,0,0,1,.61-.85,1.92,1.92,0,0,1,.77-.38,4.1,4.1,0,0,1,1-.12,4.41,4.41,0,0,1,1.23.16,1.89,1.89,0,0,1,.85.44,1,1,0,0,1,.29.71,1,1,0,0,1-.68,1A5.06,5.06,0,0,1,11.29,56.66Z"/><path class="cls-3" d="M6.65,53.73V51H8.37v.93h5.21v.91H8.37v.93Z"/><path class="cls-3" d="M6.65,50.55V48.11H8.13v1.52h1.1V48.22h1.42v1.41H12V48.06h1.57v2.49Z"/><path class="cls-3" d="M13.58,47.56H6.65V46a1.09,1.09,0,0,1,.17-.65A1.24,1.24,0,0,1,7.46,45a4,4,0,0,1,1.12-.13,4.14,4.14,0,0,1,1,.1,2,2,0,0,1,.68.29.86.86,0,0,1,.27.32,1,1,0,0,1,.26-.24l.36-.15.43-.12,2-.44v1l-2.12.48a2.49,2.49,0,0,0-.53.17.26.26,0,0,0-.16.22v.08h2.81Zm-4.12-.92v-.38A.72.72,0,0,0,9.37,46a.35.35,0,0,0-.22-.15,1.25,1.25,0,0,0-.4-.06,1.18,1.18,0,0,0-.52.09.35.35,0,0,0-.18.34v.4Z"/><path class="cls-3" d="M6.65,44.33v-.92h6.93v.92Z"/><path class="cls-3" d="M6.65,42.76v-.91h5.23V40.42h1.7v2.34Z"/><path class="cls-3" d="M6.65,40V37.57H8.13V39.1h1.1V37.68h1.42V39.1H12V37.53h1.57V40Z"/></svg>