{"asset":{"generator":"3D Builder","version":"2.0"},"scene":0,"scenes":[{"nodes":[0]}],"nodes":[{"mesh":0,"matrix":[0.039370074868202209,0,0,0,0,-4.6932786545994531E-9,-0.039370071142911911,0,0,0.039370071142911911,-4.6932786545994531E-9,0,-0.019692754372954369,-4.2950127898677692E-9,-0.036029178649187088,1]}],"meshes":[{"primitives":[{"attributes":{"POSITION":0,"COLOR_0":1},"mode":4,"indices":2}]}],"accessors":[{"bufferView":0,"byteOffset":0,"count":1818,"componentType":5126,"type":"VEC3","min":[-2.8553495407104492,3.1676376238465309E-5,-8.3087477734588785E-15],"max":[2.855332612991333,3.6537711620330811,0.040589198470115662]},{"bufferView":1,"byteOffset":0,"count":1818,"componentType":5121,"type":"VEC4","normalized":true},{"bufferView":2,"byteOffset":0,"count":9792,"componentType":5125,"type":"SCALAR"}],"bufferViews":[{"buffer":0,"byteOffset":0,"byteLength":21816,"byteStride":12,"target":34962},{"buffer":0,"byteOffset":21816,"byteLength":7272,"byteStride":4,"target":34962},{"buffer":0,"byteOffset":29088,"byteLength":39168,"target":34963}],"buffers":[{"byteLength":68256,"uri":"N95-v031GS-tabs-0_6mm.bin"}]}